%TF.GenerationSoftware,KiCad,Pcbnew,10.0.6+dfsg-1*%
%TF.CreationDate,2026-10-01T08:04:58+00:00*%
%TF.ProjectId,ppg_pcb_v08,7070675f-7063-4625-9f76-30382e6b6963,rev?*%
%TF.SameCoordinates,Original*%
%TF.FileFunction,Paste,Bot*%
%TF.FilePolarity,Positive*%
%FSLAX46Y46*%
G04 Gerber Fmt 4.6, Leading zero omitted, Abs format (unit mm)*
G04 Created by KiCad (PCBNEW 10.0.6+dfsg-1) date 2026-10-01 08:04:58*
%MOMM*%
%LPD*%
G01*
G04 APERTURE LIST*
G04 Aperture macros list*
%AMRoundRect*
0 Rectangle with rounded corners*
0 $1 Rounding radius*
0 $2 $3 $4 $5 $6 $7 $8 $9 X,Y pos of 4 corners*
0 Add a 4 corners polygon primitive as box body*
4,1,4,$2,$3,$4,$5,$6,$7,$8,$9,$2,$3,0*
0 Add four circle primitives for the rounded corners*
1,1,$1+$1,$2,$3*
1,1,$1+$1,$4,$5*
1,1,$1+$1,$6,$7*
1,1,$1+$1,$8,$9*
0 Add four rect primitives between the rounded corners*
20,1,$1+$1,$2,$3,$4,$5,0*
20,1,$1+$1,$4,$5,$6,$7,0*
20,1,$1+$1,$6,$7,$8,$9,0*
20,1,$1+$1,$8,$9,$2,$3,0*%
%AMFreePoly0*
4,1,6,0.325000,0.000000,0.175000,-0.150000,-0.175000,-0.150000,-0.175000,0.150000,0.325000,0.150000,0.325000,0.000000,0.325000,0.000000,$1*%
%AMFreePoly1*
4,1,6,0.325000,0.000000,0.325000,-0.150000,-0.175000,-0.150000,-0.175000,0.150000,0.175000,0.150000,0.325000,0.000000,0.325000,0.000000,$1*%
%AMFreePoly2*
4,1,6,0.150000,-0.325000,0.000000,-0.325000,-0.150000,-0.175000,-0.150000,0.175000,0.150000,0.175000,0.150000,-0.325000,0.150000,-0.325000,$1*%
%AMFreePoly3*
4,1,6,0.150000,-0.175000,0.000000,-0.325000,-0.150000,-0.325000,-0.150000,0.175000,0.150000,0.175000,0.150000,-0.175000,0.150000,-0.175000,$1*%
%AMFreePoly4*
4,1,7,0.175000,-0.150000,-0.175000,-0.150000,-0.325000,-0.150000,-0.325000,0.000000,-0.175000,0.150000,0.175000,0.150000,0.175000,-0.150000,0.175000,-0.150000,$1*%
%AMFreePoly5*
4,1,6,0.175000,-0.150000,-0.175000,-0.150000,-0.325000,0.000000,-0.325000,0.150000,0.175000,0.150000,0.175000,-0.150000,0.175000,-0.150000,$1*%
%AMFreePoly6*
4,1,6,0.150000,0.175000,0.150000,-0.175000,-0.150000,-0.175000,-0.150000,0.325000,0.000000,0.325000,0.150000,0.175000,0.150000,0.175000,$1*%
%AMFreePoly7*
4,1,6,0.150000,-0.175000,-0.150000,-0.175000,-0.150000,0.175000,0.000000,0.325000,0.150000,0.325000,0.150000,-0.175000,0.150000,-0.175000,$1*%
G04 Aperture macros list end*
%ADD10R,0.325000X0.650000*%
%ADD11RoundRect,0.150000X0.150000X-0.512500X0.150000X0.512500X-0.150000X0.512500X-0.150000X-0.512500X0*%
%ADD12RoundRect,0.079500X0.100500X-0.079500X0.100500X0.079500X-0.100500X0.079500X-0.100500X-0.079500X0*%
%ADD13C,0.800000*%
%ADD14C,1.200000*%
%ADD15RoundRect,0.079500X0.079500X0.100500X-0.079500X0.100500X-0.079500X-0.100500X0.079500X-0.100500X0*%
%ADD16R,0.500000X0.300000*%
%ADD17RoundRect,0.140000X0.140000X0.170000X-0.140000X0.170000X-0.140000X-0.170000X0.140000X-0.170000X0*%
%ADD18R,0.300000X0.500000*%
%ADD19RoundRect,0.150000X-0.150000X0.512500X-0.150000X-0.512500X0.150000X-0.512500X0.150000X0.512500X0*%
%ADD20RoundRect,0.122500X0.322500X-0.122500X0.322500X0.122500X-0.322500X0.122500X-0.322500X-0.122500X0*%
%ADD21RoundRect,0.062500X0.062500X-0.372500X0.062500X0.372500X-0.062500X0.372500X-0.062500X-0.372500X0*%
%ADD22FreePoly0,0.000000*%
%ADD23R,0.700000X0.300000*%
%ADD24FreePoly1,0.000000*%
%ADD25FreePoly2,0.000000*%
%ADD26R,0.300000X0.700000*%
%ADD27FreePoly3,0.000000*%
%ADD28FreePoly4,0.000000*%
%ADD29FreePoly5,0.000000*%
%ADD30FreePoly6,0.000000*%
%ADD31FreePoly7,0.000000*%
%ADD32RoundRect,0.147500X-0.147500X-0.172500X0.147500X-0.172500X0.147500X0.172500X-0.147500X0.172500X0*%
G04 APERTURE END LIST*
D10*
%TO.C,D1*%
X-4225000Y-1760000D03*
X-3575000Y-1760000D03*
%TD*%
D11*
%TO.C,U6*%
X-2100000Y-317500D03*
X-3050000Y-317500D03*
X-4000000Y-317500D03*
X-4000000Y1957500D03*
X-2100000Y1957500D03*
%TD*%
D12*
%TO.C,C14*%
X4600000Y-3845000D03*
X4600000Y-3155000D03*
%TD*%
D13*
%TO.C,J8*%
X3700000Y2600000D03*
%TD*%
D12*
%TO.C,R1*%
X-850000Y305000D03*
X-850000Y995000D03*
%TD*%
D14*
%TO.C,J3*%
X5600000Y-1300000D03*
%TD*%
%TO.C,J1*%
X-4390000Y-3850000D03*
%TD*%
D15*
%TO.C,C7*%
X-2655000Y3400000D03*
X-3345000Y3400000D03*
%TD*%
D14*
%TO.C,J4*%
X5700000Y1000000D03*
%TD*%
D12*
%TO.C,C12*%
X2450000Y4755000D03*
X2450000Y5445000D03*
%TD*%
D16*
%TO.C,D7*%
X3700000Y3650000D03*
X3700000Y4350000D03*
%TD*%
D12*
%TO.C,R2*%
X850000Y305000D03*
X850000Y995000D03*
%TD*%
D17*
%TO.C,C13*%
X-4220000Y-2750000D03*
X-5180000Y-2750000D03*
%TD*%
D18*
%TO.C,D2*%
X5800000Y-120000D03*
X5100000Y-120000D03*
%TD*%
D13*
%TO.C,J9*%
X-4850000Y3100000D03*
%TD*%
D18*
%TO.C,D4*%
X-5800000Y-1700000D03*
X-5100000Y-1700000D03*
%TD*%
D16*
%TO.C,D8*%
X-4200000Y3800000D03*
X-4200000Y4500000D03*
%TD*%
D12*
%TO.C,C6*%
X4870000Y3055000D03*
X4870000Y3745000D03*
%TD*%
D17*
%TO.C,C1*%
X480000Y-2170000D03*
X-480000Y-2170000D03*
%TD*%
D19*
%TO.C,U3*%
X2050000Y1037500D03*
X3000000Y1037500D03*
X3950000Y1037500D03*
X3950000Y-1237500D03*
X2050000Y-1237500D03*
%TD*%
D20*
%TO.C,U4*%
X-2400000Y-4370000D03*
X-1300000Y-4370000D03*
D21*
X-1100000Y-5310000D03*
X-1600000Y-5310000D03*
X-2100000Y-5310000D03*
X-2600000Y-5310000D03*
X-2600000Y-3430000D03*
X-2100000Y-3430000D03*
X-1600000Y-3430000D03*
X-1100000Y-3430000D03*
%TD*%
D14*
%TO.C,J2*%
X0Y-5850000D03*
%TD*%
D15*
%TO.C,C11*%
X-2355000Y4350000D03*
X-3045000Y4350000D03*
%TD*%
D12*
%TO.C,C4*%
X-850000Y-1195000D03*
X-850000Y-505000D03*
%TD*%
D22*
%TO.C,U2*%
X-1205000Y3000000D03*
D23*
X-1030000Y3500000D03*
X-1030000Y4000000D03*
X-1030000Y4500000D03*
D24*
X-1205000Y5000000D03*
D25*
X-730000Y5475000D03*
D26*
X-230000Y5300000D03*
X270000Y5300000D03*
X770000Y5300000D03*
D27*
X1270000Y5475000D03*
D28*
X1745000Y5000000D03*
D23*
X1570000Y4500000D03*
X1570000Y4000000D03*
X1570000Y3500000D03*
D29*
X1745000Y3000000D03*
D30*
X1270000Y2525000D03*
D26*
X770000Y2700000D03*
X270000Y2700000D03*
X-230000Y2700000D03*
D31*
X-730000Y2525000D03*
%TD*%
D16*
%TO.C,D6*%
X2600000Y3300000D03*
X2600000Y4000000D03*
%TD*%
D18*
%TO.C,D3*%
X5700000Y2100000D03*
X5000000Y2100000D03*
%TD*%
%TO.C,D5*%
X-5800000Y800000D03*
X-5100000Y800000D03*
%TD*%
D14*
%TO.C,J5*%
X-5800000Y-500000D03*
%TD*%
D20*
%TO.C,U5*%
X1300000Y-4370000D03*
X2400000Y-4370000D03*
D21*
X2600000Y-5310000D03*
X2100000Y-5310000D03*
X1600000Y-5310000D03*
X1100000Y-5310000D03*
X1100000Y-3430000D03*
X1600000Y-3430000D03*
X2100000Y-3430000D03*
X2600000Y-3430000D03*
%TD*%
D12*
%TO.C,C5*%
X850000Y-1195000D03*
X850000Y-505000D03*
%TD*%
D32*
%TO.C,FB1*%
X-2585000Y-2150000D03*
X-1615000Y-2150000D03*
%TD*%
D13*
%TO.C,J7*%
X2600000Y2600000D03*
%TD*%
D14*
%TO.C,J6*%
X-5490000Y2000000D03*
%TD*%
M02*
