%TF.GenerationSoftware,KiCad,Pcbnew,10.0.6+dfsg-1*%
%TF.CreationDate,2026-10-01T08:04:58+00:00*%
%TF.ProjectId,ppg_pcb_v08,7070675f-7063-4625-9f76-30382e6b6963,rev?*%
%TF.SameCoordinates,Original*%
%TF.FileFunction,Copper,L2,Inr*%
%TF.FilePolarity,Positive*%
%FSLAX46Y46*%
G04 Gerber Fmt 4.6, Leading zero omitted, Abs format (unit mm)*
G04 Created by KiCad (PCBNEW 10.0.6+dfsg-1) date 2026-10-01 08:04:58*
%MOMM*%
%LPD*%
G01*
G04 APERTURE LIST*
%TA.AperFunction,ViaPad*%
%ADD10C,0.500000*%
%TD*%
G04 APERTURE END LIST*
D10*
%TO.N,/SDA*%
X-217800Y1525900D03*
%TO.N,/SCL*%
X106300Y818700D03*
%TO.N,3V3*%
X-2380000Y4957400D03*
X3060000Y5360000D03*
X-1697700Y768400D03*
X5142500Y-2756000D03*
X-266900Y3488000D03*
X4370000Y3080000D03*
%TO.N,/VLDO*%
X-1700000Y-1325000D03*
%TO.N,5V_LED*%
X3739700Y-2980000D03*
X234400Y-2889900D03*
%TO.N,GND*%
X-3370000Y-4370000D03*
X3500000Y4850000D03*
X4600000Y2450000D03*
X-4700000Y1150000D03*
X1350000Y-300000D03*
X3050000Y4350000D03*
X1704800Y-2314100D03*
X3003700Y-57200D03*
X2049999Y5720000D03*
X-4750000Y-1250000D03*
X-3650000Y4500000D03*
X3679200Y-3780000D03*
X4700000Y230000D03*
X-3125000Y-1490000D03*
%TO.N,/VREF*%
X149000Y-870300D03*
%TO.N,/12V_IN*%
X-2450000Y-1525000D03*
X-3675000Y-3300000D03*
%TO.N,/UART_RX*%
X-2796900Y1205600D03*
X500000Y3450000D03*
%TO.N,/NRST*%
X-3975000Y3350000D03*
X-1725000Y4450000D03*
%TO.N,/UART_TX*%
X800000Y4050000D03*
X2650000Y-1775000D03*
%TD*%
%TA.AperFunction,Conductor*%
%TO.N,GND*%
G36*
X256103Y6444300D02*
G01*
X755159Y6405023D01*
X760929Y6404340D01*
X1255368Y6326029D01*
X1261067Y6324895D01*
X1747826Y6208034D01*
X1753418Y6206457D01*
X2229512Y6051764D01*
X2234964Y6049753D01*
X2697462Y5858180D01*
X2702739Y5855747D01*
X2755018Y5829109D01*
X2791800Y5786042D01*
X2787356Y5729579D01*
X2773750Y5710852D01*
X2699511Y5636613D01*
X2699509Y5636610D01*
X2699508Y5636609D01*
X2640201Y5533887D01*
X2640199Y5533882D01*
X2609500Y5419311D01*
X2609500Y5300688D01*
X2640199Y5186117D01*
X2640201Y5186112D01*
X2699508Y5083390D01*
X2783390Y4999508D01*
X2886112Y4940201D01*
X2886117Y4940199D01*
X3000688Y4909500D01*
X3000691Y4909500D01*
X3119311Y4909500D01*
X3233882Y4940199D01*
X3233887Y4940201D01*
X3336609Y4999508D01*
X3336610Y4999509D01*
X3336613Y4999511D01*
X3420489Y5083387D01*
X3448142Y5131282D01*
X3479798Y5186112D01*
X3479800Y5186117D01*
X3508349Y5292661D01*
X3542827Y5337594D01*
X3598980Y5344986D01*
X3623323Y5333375D01*
X3990492Y5066611D01*
X3995055Y5063014D01*
X4375711Y4737903D01*
X4379978Y4733959D01*
X4733959Y4379978D01*
X4737903Y4375711D01*
X5063014Y3995055D01*
X5066611Y3990492D01*
X5360853Y3585502D01*
X5364081Y3580671D01*
X5625639Y3153848D01*
X5628478Y3148778D01*
X5855749Y2702733D01*
X5858182Y2697457D01*
X6049753Y2234964D01*
X6051764Y2229512D01*
X6206457Y1753418D01*
X6208034Y1747826D01*
X6324895Y1261067D01*
X6326029Y1255368D01*
X6404340Y760929D01*
X6405023Y755159D01*
X6444300Y256102D01*
X6444528Y250296D01*
X6444528Y-250296D01*
X6444300Y-256102D01*
X6405023Y-755159D01*
X6404340Y-760929D01*
X6326029Y-1255368D01*
X6324895Y-1261067D01*
X6208034Y-1747826D01*
X6206457Y-1753418D01*
X6051764Y-2229512D01*
X6049753Y-2234964D01*
X5858182Y-2697457D01*
X5855749Y-2702733D01*
X5628478Y-3148778D01*
X5625639Y-3153848D01*
X5364081Y-3580671D01*
X5360853Y-3585502D01*
X5066611Y-3990492D01*
X5063014Y-3995055D01*
X4737903Y-4375711D01*
X4733959Y-4379978D01*
X4379978Y-4733959D01*
X4375711Y-4737903D01*
X3995055Y-5063014D01*
X3990492Y-5066611D01*
X3585502Y-5360853D01*
X3580671Y-5364081D01*
X3153848Y-5625639D01*
X3148778Y-5628478D01*
X2702733Y-5855749D01*
X2697457Y-5858182D01*
X2234964Y-6049753D01*
X2229512Y-6051764D01*
X1753418Y-6206457D01*
X1747826Y-6208034D01*
X1261067Y-6324895D01*
X1255368Y-6326029D01*
X760929Y-6404340D01*
X755159Y-6405023D01*
X256103Y-6444300D01*
X250297Y-6444528D01*
X-250297Y-6444528D01*
X-256103Y-6444300D01*
X-755159Y-6405023D01*
X-760929Y-6404340D01*
X-1255368Y-6326029D01*
X-1261067Y-6324895D01*
X-1747826Y-6208034D01*
X-1753418Y-6206457D01*
X-2229512Y-6051764D01*
X-2234964Y-6049753D01*
X-2697457Y-5858182D01*
X-2702733Y-5855749D01*
X-3148778Y-5628478D01*
X-3153848Y-5625639D01*
X-3580671Y-5364081D01*
X-3585502Y-5360853D01*
X-3990492Y-5066611D01*
X-3995055Y-5063014D01*
X-4375711Y-4737903D01*
X-4379978Y-4733959D01*
X-4733959Y-4379978D01*
X-4737903Y-4375711D01*
X-5063014Y-3995055D01*
X-5066611Y-3990492D01*
X-5360853Y-3585502D01*
X-5364081Y-3580671D01*
X-5551700Y-3274506D01*
X-5572423Y-3240689D01*
X-4125500Y-3240689D01*
X-4125500Y-3359311D01*
X-4106425Y-3430499D01*
X-4094799Y-3473886D01*
X-4035489Y-3576613D01*
X-3951613Y-3660489D01*
X-3848886Y-3719799D01*
X-3734311Y-3750499D01*
X-3734311Y-3750500D01*
X-3734309Y-3750500D01*
X-3615689Y-3750500D01*
X-3615688Y-3750499D01*
X-3558402Y-3735149D01*
X-3501117Y-3719800D01*
X-3501115Y-3719799D01*
X-3501114Y-3719799D01*
X-3398387Y-3660489D01*
X-3314511Y-3576613D01*
X-3314509Y-3576610D01*
X-3314508Y-3576609D01*
X-3255201Y-3473887D01*
X-3255199Y-3473882D01*
X-3224500Y-3359311D01*
X-3224500Y-3240688D01*
X-3255199Y-3126117D01*
X-3255201Y-3126112D01*
X-3314508Y-3023390D01*
X-3398390Y-2939508D01*
X-3484441Y-2889827D01*
X-3501112Y-2880201D01*
X-3501117Y-2880199D01*
X-3615689Y-2849500D01*
X-3615691Y-2849500D01*
X-3734309Y-2849500D01*
X-3734311Y-2849500D01*
X-3848882Y-2880199D01*
X-3848887Y-2880201D01*
X-3951609Y-2939508D01*
X-3951610Y-2939509D01*
X-3951613Y-2939511D01*
X-4035489Y-3023387D01*
X-4035490Y-3023389D01*
X-4035491Y-3023390D01*
X-4094798Y-3126112D01*
X-4094800Y-3126117D01*
X-4125499Y-3240688D01*
X-4125500Y-3240689D01*
X-5572423Y-3240689D01*
X-5625639Y-3153848D01*
X-5628478Y-3148778D01*
X-5790603Y-2830589D01*
X-216100Y-2830589D01*
X-216100Y-2949211D01*
X-196224Y-3023387D01*
X-185399Y-3063786D01*
X-126089Y-3166513D01*
X-42213Y-3250389D01*
X60514Y-3309699D01*
X60515Y-3309699D01*
X60517Y-3309700D01*
X117802Y-3325049D01*
X175088Y-3340399D01*
X175089Y-3340400D01*
X175091Y-3340400D01*
X293711Y-3340400D01*
X293711Y-3340399D01*
X408286Y-3309699D01*
X511013Y-3250389D01*
X594889Y-3166513D01*
X654199Y-3063786D01*
X684899Y-2949211D01*
X684900Y-2949211D01*
X684900Y-2920688D01*
X3289200Y-2920688D01*
X3289200Y-3039311D01*
X3319899Y-3153882D01*
X3319901Y-3153887D01*
X3379208Y-3256609D01*
X3379209Y-3256610D01*
X3379211Y-3256613D01*
X3463087Y-3340489D01*
X3463089Y-3340490D01*
X3463090Y-3340491D01*
X3495687Y-3359311D01*
X3565814Y-3399799D01*
X3565815Y-3399799D01*
X3565817Y-3399800D01*
X3623102Y-3415149D01*
X3680388Y-3430499D01*
X3680389Y-3430500D01*
X3680391Y-3430500D01*
X3799011Y-3430500D01*
X3799011Y-3430499D01*
X3913586Y-3399799D01*
X4016313Y-3340489D01*
X4100189Y-3256613D01*
X4159499Y-3153886D01*
X4190199Y-3039311D01*
X4190200Y-3039311D01*
X4190200Y-2920689D01*
X4190199Y-2920688D01*
X4159500Y-2806117D01*
X4159498Y-2806112D01*
X4114885Y-2728841D01*
X4114884Y-2728839D01*
X4100192Y-2703392D01*
X4100192Y-2703391D01*
X4100190Y-2703389D01*
X4100189Y-2703387D01*
X4093490Y-2696688D01*
X4692000Y-2696688D01*
X4692000Y-2815311D01*
X4722699Y-2929882D01*
X4722701Y-2929887D01*
X4782008Y-3032609D01*
X4782009Y-3032610D01*
X4782011Y-3032613D01*
X4865887Y-3116489D01*
X4865889Y-3116490D01*
X4865890Y-3116491D01*
X4937676Y-3157937D01*
X4968614Y-3175799D01*
X4968615Y-3175799D01*
X4968617Y-3175800D01*
X5025902Y-3191149D01*
X5083188Y-3206499D01*
X5083189Y-3206500D01*
X5083191Y-3206500D01*
X5201811Y-3206500D01*
X5201811Y-3206499D01*
X5316386Y-3175799D01*
X5419113Y-3116489D01*
X5502989Y-3032613D01*
X5562299Y-2929886D01*
X5592999Y-2815311D01*
X5593000Y-2815311D01*
X5593000Y-2696689D01*
X5592999Y-2696688D01*
X5562300Y-2582117D01*
X5562298Y-2582112D01*
X5502991Y-2479390D01*
X5502990Y-2479389D01*
X5502989Y-2479387D01*
X5419113Y-2395511D01*
X5419110Y-2395509D01*
X5419109Y-2395508D01*
X5316387Y-2336201D01*
X5316382Y-2336199D01*
X5201811Y-2305500D01*
X5201809Y-2305500D01*
X5083191Y-2305500D01*
X5083189Y-2305500D01*
X4968617Y-2336199D01*
X4968612Y-2336201D01*
X4865890Y-2395508D01*
X4782008Y-2479390D01*
X4722701Y-2582112D01*
X4722699Y-2582117D01*
X4692000Y-2696688D01*
X4093490Y-2696688D01*
X4016313Y-2619511D01*
X4016310Y-2619509D01*
X4016309Y-2619508D01*
X3913587Y-2560201D01*
X3913582Y-2560199D01*
X3799011Y-2529500D01*
X3799009Y-2529500D01*
X3680391Y-2529500D01*
X3680389Y-2529500D01*
X3565817Y-2560199D01*
X3565812Y-2560201D01*
X3463090Y-2619508D01*
X3379208Y-2703390D01*
X3319901Y-2806112D01*
X3319899Y-2806117D01*
X3289200Y-2920688D01*
X684900Y-2920688D01*
X684900Y-2830589D01*
X684899Y-2830588D01*
X654200Y-2716017D01*
X654198Y-2716012D01*
X594891Y-2613290D01*
X594890Y-2613289D01*
X594889Y-2613287D01*
X511013Y-2529411D01*
X511010Y-2529409D01*
X511009Y-2529408D01*
X408287Y-2470101D01*
X408282Y-2470099D01*
X293711Y-2439400D01*
X293709Y-2439400D01*
X175091Y-2439400D01*
X175089Y-2439400D01*
X60517Y-2470099D01*
X60512Y-2470101D01*
X-42209Y-2529408D01*
X-42210Y-2529409D01*
X-42213Y-2529411D01*
X-126089Y-2613287D01*
X-126090Y-2613289D01*
X-126091Y-2613290D01*
X-185398Y-2716012D01*
X-185400Y-2716017D01*
X-216099Y-2830588D01*
X-216100Y-2830589D01*
X-5790603Y-2830589D01*
X-5855749Y-2702733D01*
X-5858182Y-2697457D01*
X-6049753Y-2234964D01*
X-6051764Y-2229512D01*
X-6206457Y-1753418D01*
X-6208034Y-1747826D01*
X-6272786Y-1478116D01*
X-6275769Y-1465689D01*
X-2900500Y-1465689D01*
X-2900500Y-1584311D01*
X-2883955Y-1646056D01*
X-2869799Y-1698886D01*
X-2810489Y-1801613D01*
X-2726613Y-1885489D01*
X-2623886Y-1944799D01*
X-2509311Y-1975499D01*
X-2509311Y-1975500D01*
X-2509309Y-1975500D01*
X-2390689Y-1975500D01*
X-2390688Y-1975499D01*
X-2333402Y-1960149D01*
X-2276117Y-1944800D01*
X-2276115Y-1944799D01*
X-2276114Y-1944799D01*
X-2173387Y-1885489D01*
X-2089511Y-1801613D01*
X-2089509Y-1801610D01*
X-2089508Y-1801609D01*
X-2048003Y-1729720D01*
X-2003070Y-1695241D01*
X-1946917Y-1702633D01*
X-1873886Y-1744799D01*
X-1759311Y-1775499D01*
X-1759311Y-1775500D01*
X-1759309Y-1775500D01*
X-1640689Y-1775500D01*
X-1640688Y-1775499D01*
X-1558280Y-1753418D01*
X-1526117Y-1744800D01*
X-1526115Y-1744799D01*
X-1526114Y-1744799D01*
X-1526022Y-1744746D01*
X-1475692Y-1715688D01*
X2199500Y-1715688D01*
X2199500Y-1834311D01*
X2230199Y-1948882D01*
X2230201Y-1948887D01*
X2289508Y-2051609D01*
X2289509Y-2051610D01*
X2289511Y-2051613D01*
X2373387Y-2135489D01*
X2476114Y-2194799D01*
X2476115Y-2194799D01*
X2476117Y-2194800D01*
X2533402Y-2210149D01*
X2590688Y-2225499D01*
X2590689Y-2225500D01*
X2590691Y-2225500D01*
X2709311Y-2225500D01*
X2709311Y-2225499D01*
X2823886Y-2194799D01*
X2926613Y-2135489D01*
X3010489Y-2051613D01*
X3069799Y-1948886D01*
X3100499Y-1834311D01*
X3100500Y-1834311D01*
X3100500Y-1715689D01*
X3100499Y-1715688D01*
X3069800Y-1601117D01*
X3069798Y-1601112D01*
X3010491Y-1498390D01*
X3010490Y-1498389D01*
X3010489Y-1498387D01*
X2926613Y-1414511D01*
X2926610Y-1414509D01*
X2926609Y-1414508D01*
X2823887Y-1355201D01*
X2823882Y-1355199D01*
X2709311Y-1324500D01*
X2709309Y-1324500D01*
X2590691Y-1324500D01*
X2590689Y-1324500D01*
X2476117Y-1355199D01*
X2476112Y-1355201D01*
X2373390Y-1414508D01*
X2289508Y-1498390D01*
X2230201Y-1601112D01*
X2230199Y-1601117D01*
X2199500Y-1715688D01*
X-1475692Y-1715688D01*
X-1423390Y-1685491D01*
X-1423389Y-1685490D01*
X-1423387Y-1685489D01*
X-1339511Y-1601613D01*
X-1339509Y-1601610D01*
X-1339508Y-1601609D01*
X-1280201Y-1498887D01*
X-1280199Y-1498882D01*
X-1249500Y-1384311D01*
X-1249500Y-1265688D01*
X-1280201Y-1151114D01*
X-1280201Y-1151112D01*
X-1339508Y-1048390D01*
X-1423390Y-964508D01*
X-1526112Y-905201D01*
X-1526117Y-905199D01*
X-1629049Y-877619D01*
X-1640689Y-874500D01*
X-1640691Y-874500D01*
X-1759309Y-874500D01*
X-1759311Y-874500D01*
X-1873882Y-905199D01*
X-1873887Y-905201D01*
X-1976609Y-964508D01*
X-1976610Y-964509D01*
X-1976613Y-964511D01*
X-2060489Y-1048387D01*
X-2060490Y-1048389D01*
X-2060491Y-1048390D01*
X-2101996Y-1120279D01*
X-2146929Y-1154757D01*
X-2203081Y-1147365D01*
X-2276108Y-1105203D01*
X-2276117Y-1105199D01*
X-2390689Y-1074500D01*
X-2390691Y-1074500D01*
X-2509309Y-1074500D01*
X-2509311Y-1074500D01*
X-2623882Y-1105199D01*
X-2623887Y-1105201D01*
X-2726609Y-1164508D01*
X-2726610Y-1164509D01*
X-2726613Y-1164511D01*
X-2810489Y-1248387D01*
X-2810490Y-1248389D01*
X-2810491Y-1248390D01*
X-2869798Y-1351112D01*
X-2869800Y-1351117D01*
X-2900499Y-1465688D01*
X-2900500Y-1465689D01*
X-6275769Y-1465689D01*
X-6324895Y-1261067D01*
X-6326029Y-1255368D01*
X-6396411Y-810989D01*
X-301500Y-810989D01*
X-301500Y-929611D01*
X-292149Y-964508D01*
X-270799Y-1044186D01*
X-211489Y-1146913D01*
X-127613Y-1230789D01*
X-24886Y-1290099D01*
X89688Y-1320799D01*
X89689Y-1320800D01*
X89691Y-1320800D01*
X208311Y-1320800D01*
X208311Y-1320799D01*
X322886Y-1290099D01*
X425613Y-1230789D01*
X509489Y-1146913D01*
X568799Y-1044186D01*
X599499Y-929611D01*
X599500Y-929611D01*
X599500Y-810989D01*
X599499Y-810988D01*
X568800Y-696417D01*
X568798Y-696412D01*
X509491Y-593690D01*
X509490Y-593689D01*
X509489Y-593687D01*
X425613Y-509811D01*
X425610Y-509809D01*
X425609Y-509808D01*
X322887Y-450501D01*
X322882Y-450499D01*
X208311Y-419800D01*
X208309Y-419800D01*
X89691Y-419800D01*
X89689Y-419800D01*
X-24882Y-450499D01*
X-24887Y-450501D01*
X-127609Y-509808D01*
X-127610Y-509809D01*
X-127613Y-509811D01*
X-211489Y-593687D01*
X-211490Y-593689D01*
X-211491Y-593690D01*
X-270798Y-696412D01*
X-270800Y-696417D01*
X-301499Y-810988D01*
X-301500Y-810989D01*
X-6396411Y-810989D01*
X-6404340Y-760929D01*
X-6405023Y-755159D01*
X-6444300Y-256102D01*
X-6444528Y-250296D01*
X-6444528Y250296D01*
X-6444300Y256102D01*
X-6405023Y755159D01*
X-6404340Y760929D01*
X-6326029Y1255368D01*
X-6324895Y1261067D01*
X-6323972Y1264911D01*
X-3247400Y1264911D01*
X-3247400Y1146289D01*
X-3247399Y1146288D01*
X-3234382Y1097709D01*
X-3216700Y1031717D01*
X-3216698Y1031712D01*
X-3165068Y942286D01*
X-3157389Y928987D01*
X-3073513Y845111D01*
X-3073510Y845109D01*
X-3073509Y845108D01*
X-2970787Y785801D01*
X-2970782Y785799D01*
X-2856211Y755100D01*
X-2856209Y755100D01*
X-2737588Y755100D01*
X-2623017Y785799D01*
X-2623012Y785801D01*
X-2550422Y827711D01*
X-2148200Y827711D01*
X-2148200Y709089D01*
X-2148199Y709088D01*
X-2117499Y594514D01*
X-2058189Y491787D01*
X-1974313Y407911D01*
X-1974310Y407909D01*
X-1974309Y407908D01*
X-1871587Y348601D01*
X-1871582Y348599D01*
X-1757011Y317900D01*
X-1757009Y317900D01*
X-1638388Y317900D01*
X-1523817Y348599D01*
X-1523812Y348601D01*
X-1421090Y407908D01*
X-1337208Y491790D01*
X-1277901Y594512D01*
X-1277899Y594517D01*
X-1247200Y709088D01*
X-1247200Y827711D01*
X-1277899Y942282D01*
X-1277901Y942287D01*
X-1337208Y1045009D01*
X-1337209Y1045010D01*
X-1337211Y1045013D01*
X-1421087Y1128889D01*
X-1451223Y1146288D01*
X-1523812Y1188198D01*
X-1523817Y1188200D01*
X-1638389Y1218900D01*
X-1638391Y1218900D01*
X-1757009Y1218900D01*
X-1757011Y1218900D01*
X-1858044Y1191827D01*
X-1871586Y1188199D01*
X-1974313Y1128889D01*
X-2058189Y1045013D01*
X-2117499Y942286D01*
X-2134721Y878011D01*
X-2148199Y827711D01*
X-2148200Y827711D01*
X-2550422Y827711D01*
X-2520290Y845108D01*
X-2520287Y845111D01*
X-2436411Y928987D01*
X-2436410Y928987D01*
X-2436408Y928990D01*
X-2377101Y1031712D01*
X-2377099Y1031717D01*
X-2346400Y1146288D01*
X-2346400Y1264911D01*
X-2377099Y1379482D01*
X-2377101Y1379487D01*
X-2436408Y1482209D01*
X-2436409Y1482210D01*
X-2436411Y1482213D01*
X-2520287Y1566089D01*
X-2553404Y1585209D01*
X-2553407Y1585211D01*
X-668300Y1585211D01*
X-668300Y1466589D01*
X-668299Y1466588D01*
X-637600Y1352017D01*
X-637598Y1352012D01*
X-585091Y1261067D01*
X-578289Y1249287D01*
X-494413Y1165411D01*
X-494410Y1165409D01*
X-494409Y1165408D01*
X-391687Y1106101D01*
X-391682Y1106099D01*
X-360369Y1097709D01*
X-315436Y1063231D01*
X-308044Y1007078D01*
X-312110Y997262D01*
X-311642Y997069D01*
X-313496Y992590D01*
X-313499Y992586D01*
X-342357Y884885D01*
X-344199Y878011D01*
X-344200Y878011D01*
X-344200Y759389D01*
X-344199Y759388D01*
X-313499Y644814D01*
X-254189Y542087D01*
X-170313Y458211D01*
X-170310Y458209D01*
X-170309Y458208D01*
X-67587Y398901D01*
X-67582Y398899D01*
X46988Y368200D01*
X46991Y368200D01*
X165611Y368200D01*
X280182Y398899D01*
X280187Y398901D01*
X382909Y458208D01*
X382910Y458209D01*
X382913Y458211D01*
X466789Y542087D01*
X526099Y644814D01*
X556799Y759388D01*
X556800Y759389D01*
X556800Y878011D01*
X526100Y992582D01*
X526099Y992586D01*
X466789Y1095313D01*
X382913Y1179189D01*
X280186Y1238499D01*
X248869Y1246890D01*
X203937Y1281367D01*
X196543Y1337519D01*
X200607Y1347337D01*
X200142Y1347531D01*
X202000Y1352017D01*
X232699Y1466588D01*
X232700Y1466589D01*
X232700Y1585211D01*
X202000Y1699782D01*
X201999Y1699786D01*
X142689Y1802513D01*
X58813Y1886389D01*
X-43914Y1945699D01*
X-43915Y1945699D01*
X-43917Y1945700D01*
X-158489Y1976400D01*
X-158491Y1976400D01*
X-277109Y1976400D01*
X-277111Y1976400D01*
X-378144Y1949327D01*
X-391686Y1945699D01*
X-494413Y1886389D01*
X-578289Y1802513D01*
X-637599Y1699786D01*
X-657530Y1625400D01*
X-668299Y1585211D01*
X-668300Y1585211D01*
X-2553407Y1585211D01*
X-2623012Y1625398D01*
X-2623017Y1625400D01*
X-2737589Y1656100D01*
X-2737591Y1656100D01*
X-2856209Y1656100D01*
X-2856211Y1656100D01*
X-2957244Y1629027D01*
X-2970786Y1625399D01*
X-3073513Y1566089D01*
X-3157389Y1482213D01*
X-3216699Y1379486D01*
X-3241471Y1287034D01*
X-3247399Y1264911D01*
X-3247400Y1264911D01*
X-6323972Y1264911D01*
X-6318661Y1287034D01*
X-6208034Y1747826D01*
X-6206457Y1753418D01*
X-6051764Y2229512D01*
X-6049753Y2234964D01*
X-5858182Y2697457D01*
X-5855749Y2702733D01*
X-5628478Y3148778D01*
X-5625639Y3153848D01*
X-5469091Y3409311D01*
X-4425500Y3409311D01*
X-4425500Y3290689D01*
X-4425499Y3290688D01*
X-4415638Y3253887D01*
X-4394800Y3176117D01*
X-4394798Y3176112D01*
X-4344799Y3089511D01*
X-4335489Y3073387D01*
X-4251613Y2989511D01*
X-4251610Y2989509D01*
X-4251609Y2989508D01*
X-4148887Y2930201D01*
X-4148882Y2930199D01*
X-4034311Y2899500D01*
X-4034309Y2899500D01*
X-3915688Y2899500D01*
X-3801117Y2930199D01*
X-3801112Y2930201D01*
X-3698390Y2989508D01*
X-3614508Y3073390D01*
X-3555201Y3176112D01*
X-3555199Y3176117D01*
X-3524500Y3290688D01*
X-3524500Y3409311D01*
X-3555199Y3523882D01*
X-3555202Y3523888D01*
X-3568725Y3547311D01*
X-717400Y3547311D01*
X-717400Y3428689D01*
X-717399Y3428688D01*
X-707218Y3390691D01*
X-686700Y3314117D01*
X-686698Y3314112D01*
X-664759Y3276112D01*
X-627389Y3211387D01*
X-543513Y3127511D01*
X-543510Y3127509D01*
X-543509Y3127508D01*
X-440787Y3068201D01*
X-440782Y3068199D01*
X-326211Y3037500D01*
X-326209Y3037500D01*
X-207588Y3037500D01*
X-93017Y3068199D01*
X-93012Y3068201D01*
X9709Y3127508D01*
X9710Y3127509D01*
X9713Y3127511D01*
X45225Y3163023D01*
X97551Y3184696D01*
X149876Y3163022D01*
X223390Y3089508D01*
X326112Y3030201D01*
X326117Y3030199D01*
X440688Y2999500D01*
X440691Y2999500D01*
X559311Y2999500D01*
X673882Y3030199D01*
X673887Y3030201D01*
X776609Y3089508D01*
X776610Y3089509D01*
X776613Y3089511D01*
X826413Y3139311D01*
X3919500Y3139311D01*
X3919500Y3020688D01*
X3950199Y2906117D01*
X3950201Y2906112D01*
X4009508Y2803390D01*
X4093390Y2719508D01*
X4196112Y2660201D01*
X4196117Y2660199D01*
X4310688Y2629500D01*
X4310691Y2629500D01*
X4429311Y2629500D01*
X4543882Y2660199D01*
X4543887Y2660201D01*
X4646609Y2719508D01*
X4646610Y2719509D01*
X4646613Y2719511D01*
X4730489Y2803387D01*
X4785981Y2899500D01*
X4789798Y2906112D01*
X4789800Y2906117D01*
X4820499Y3020688D01*
X4820500Y3020689D01*
X4820500Y3139311D01*
X4789800Y3253882D01*
X4789799Y3253886D01*
X4730489Y3356613D01*
X4646613Y3440489D01*
X4543886Y3499799D01*
X4530344Y3503427D01*
X4429311Y3530500D01*
X4429309Y3530500D01*
X4310691Y3530500D01*
X4310689Y3530500D01*
X4196117Y3499800D01*
X4196112Y3499798D01*
X4114752Y3452824D01*
X4093387Y3440489D01*
X4009511Y3356613D01*
X4009509Y3356610D01*
X4009508Y3356609D01*
X3950201Y3253887D01*
X3950199Y3253882D01*
X3919500Y3139311D01*
X826413Y3139311D01*
X860489Y3173387D01*
X860491Y3173390D01*
X864978Y3181161D01*
X919798Y3276112D01*
X919800Y3276117D01*
X950499Y3390688D01*
X950500Y3390689D01*
X950500Y3509308D01*
X946595Y3523882D01*
X940276Y3547463D01*
X947667Y3603614D01*
X974754Y3630702D01*
X1076609Y3689508D01*
X1076610Y3689509D01*
X1076613Y3689511D01*
X1160489Y3773387D01*
X1219799Y3876114D01*
X1250499Y3990688D01*
X1250500Y3990689D01*
X1250500Y4109311D01*
X1219800Y4223882D01*
X1219799Y4223886D01*
X1160489Y4326613D01*
X1076613Y4410489D01*
X973886Y4469799D01*
X960344Y4473427D01*
X859311Y4500500D01*
X859309Y4500500D01*
X740691Y4500500D01*
X740689Y4500500D01*
X626117Y4469800D01*
X626112Y4469798D01*
X551623Y4426791D01*
X523387Y4410489D01*
X439511Y4326613D01*
X439509Y4326610D01*
X439508Y4326609D01*
X380201Y4223887D01*
X380199Y4223882D01*
X349500Y4109311D01*
X349500Y3990690D01*
X359723Y3952534D01*
X352329Y3896381D01*
X325244Y3869297D01*
X289204Y3848489D01*
X223387Y3810489D01*
X187874Y3774976D01*
X135550Y3753303D01*
X83225Y3774976D01*
X9713Y3848489D01*
X-93014Y3907799D01*
X-93015Y3907799D01*
X-93017Y3907800D01*
X-207589Y3938500D01*
X-207591Y3938500D01*
X-326209Y3938500D01*
X-326211Y3938500D01*
X-427244Y3911427D01*
X-440786Y3907799D01*
X-543513Y3848489D01*
X-627389Y3764613D01*
X-686699Y3661886D01*
X-708460Y3580671D01*
X-717399Y3547311D01*
X-717400Y3547311D01*
X-3568725Y3547311D01*
X-3614508Y3626609D01*
X-3614509Y3626610D01*
X-3614511Y3626613D01*
X-3698387Y3710489D01*
X-3792125Y3764609D01*
X-3801112Y3769798D01*
X-3801117Y3769800D01*
X-3915689Y3800500D01*
X-3915691Y3800500D01*
X-4034309Y3800500D01*
X-4034311Y3800500D01*
X-4129562Y3774977D01*
X-4148886Y3769799D01*
X-4251613Y3710489D01*
X-4335489Y3626613D01*
X-4394799Y3523886D01*
X-4420306Y3428691D01*
X-4425499Y3409311D01*
X-4425500Y3409311D01*
X-5469091Y3409311D01*
X-5442426Y3452824D01*
X-5364081Y3580671D01*
X-5360853Y3585502D01*
X-5066611Y3990492D01*
X-5063014Y3995055D01*
X-4737903Y4375711D01*
X-4733959Y4379978D01*
X-4379978Y4733959D01*
X-4375711Y4737903D01*
X-4049269Y5016711D01*
X-2830500Y5016711D01*
X-2830500Y4898089D01*
X-2830499Y4898088D01*
X-2799799Y4783514D01*
X-2740489Y4680787D01*
X-2656613Y4596911D01*
X-2656610Y4596909D01*
X-2656609Y4596908D01*
X-2553887Y4537601D01*
X-2553882Y4537599D01*
X-2439311Y4506900D01*
X-2439309Y4506900D01*
X-2320688Y4506900D01*
X-2268653Y4520843D01*
X-2212500Y4513451D01*
X-2178022Y4468518D01*
X-2175500Y4449365D01*
X-2175500Y4390689D01*
X-2175499Y4390688D01*
X-2144800Y4276117D01*
X-2144798Y4276112D01*
X-2114646Y4223887D01*
X-2085489Y4173387D01*
X-2001613Y4089511D01*
X-2001610Y4089509D01*
X-2001609Y4089508D01*
X-1898887Y4030201D01*
X-1898882Y4030199D01*
X-1784311Y3999500D01*
X-1784309Y3999500D01*
X-1665688Y3999500D01*
X-1551117Y4030199D01*
X-1551112Y4030201D01*
X-1448390Y4089508D01*
X-1364508Y4173390D01*
X-1305201Y4276112D01*
X-1305199Y4276117D01*
X-1274500Y4390688D01*
X-1274500Y4509311D01*
X-1305199Y4623882D01*
X-1305201Y4623887D01*
X-1364508Y4726609D01*
X-1364509Y4726610D01*
X-1364511Y4726613D01*
X-1448387Y4810489D01*
X-1505929Y4843711D01*
X-1551112Y4869798D01*
X-1551117Y4869800D01*
X-1665689Y4900500D01*
X-1665691Y4900500D01*
X-1784309Y4900500D01*
X-1784310Y4900500D01*
X-1793307Y4898089D01*
X-1836347Y4886556D01*
X-1892499Y4893947D01*
X-1926978Y4938880D01*
X-1929500Y4958034D01*
X-1929500Y5016711D01*
X-1960199Y5131282D01*
X-1960201Y5131287D01*
X-2019508Y5234009D01*
X-2019509Y5234010D01*
X-2019511Y5234013D01*
X-2103387Y5317889D01*
X-2137517Y5337594D01*
X-2206112Y5377198D01*
X-2206117Y5377200D01*
X-2320689Y5407900D01*
X-2320691Y5407900D01*
X-2439309Y5407900D01*
X-2439311Y5407900D01*
X-2540344Y5380827D01*
X-2553886Y5377199D01*
X-2656613Y5317889D01*
X-2740489Y5234013D01*
X-2799799Y5131286D01*
X-2818092Y5063014D01*
X-2830499Y5016711D01*
X-2830500Y5016711D01*
X-4049269Y5016711D01*
X-3995055Y5063014D01*
X-3990492Y5066611D01*
X-3970101Y5081426D01*
X-3585502Y5360853D01*
X-3580671Y5364081D01*
X-3153848Y5625639D01*
X-3148778Y5628478D01*
X-2702733Y5855749D01*
X-2697457Y5858182D01*
X-2234964Y6049753D01*
X-2229512Y6051764D01*
X-1753418Y6206457D01*
X-1747826Y6208034D01*
X-1261067Y6324895D01*
X-1255368Y6326029D01*
X-760929Y6404340D01*
X-755159Y6405023D01*
X-256103Y6444300D01*
X-250297Y6444528D01*
X250297Y6444528D01*
X256103Y6444300D01*
G37*
%TD.AperFunction*%
%TD*%
M02*
