%TF.GenerationSoftware,KiCad,Pcbnew,10.0.6+dfsg-1*%
%TF.CreationDate,2026-10-01T08:04:58+00:00*%
%TF.ProjectId,ppg_pcb_v08,7070675f-7063-4625-9f76-30382e6b6963,rev?*%
%TF.SameCoordinates,Original*%
%TF.FileFunction,Copper,L1,Top*%
%TF.FilePolarity,Positive*%
%FSLAX46Y46*%
G04 Gerber Fmt 4.6, Leading zero omitted, Abs format (unit mm)*
G04 Created by KiCad (PCBNEW 10.0.6+dfsg-1) date 2026-10-01 08:04:58*
%MOMM*%
%LPD*%
G01*
G04 APERTURE LIST*
G04 Aperture macros list*
%AMRoundRect*
0 Rectangle with rounded corners*
0 $1 Rounding radius*
0 $2 $3 $4 $5 $6 $7 $8 $9 X,Y pos of 4 corners*
0 Add a 4 corners polygon primitive as box body*
4,1,4,$2,$3,$4,$5,$6,$7,$8,$9,$2,$3,0*
0 Add four circle primitives for the rounded corners*
1,1,$1+$1,$2,$3*
1,1,$1+$1,$4,$5*
1,1,$1+$1,$6,$7*
1,1,$1+$1,$8,$9*
0 Add four rect primitives between the rounded corners*
20,1,$1+$1,$2,$3,$4,$5,0*
20,1,$1+$1,$4,$5,$6,$7,0*
20,1,$1+$1,$6,$7,$8,$9,0*
20,1,$1+$1,$8,$9,$2,$3,0*%
G04 Aperture macros list end*
%TA.AperFunction,SMDPad,CuDef*%
%ADD10RoundRect,0.100000X-0.230000X-0.100000X0.230000X-0.100000X0.230000X0.100000X-0.230000X0.100000X0*%
%TD*%
%TA.AperFunction,ViaPad*%
%ADD11C,0.500000*%
%TD*%
%TA.AperFunction,Conductor*%
%ADD12C,0.150000*%
%TD*%
%TA.AperFunction,Conductor*%
%ADD13C,0.112400*%
%TD*%
%TA.AperFunction,Conductor*%
%ADD14C,0.100000*%
%TD*%
G04 APERTURE END LIST*
D10*
%TO.P,U1,1*%
%TO.N,/SDA*%
X-950000Y1800000D03*
%TO.P,U1,2*%
%TO.N,/SCL*%
X-950000Y1200000D03*
%TO.P,U1,3*%
%TO.N,3V3*%
X-950000Y600000D03*
%TO.P,U1,4*%
%TO.N,/VLDO*%
X-950000Y0D03*
%TO.P,U1,5*%
%TO.N,5V_LED*%
X-950000Y-599999D03*
%TO.P,U1,6*%
%TO.N,unconnected-(U1-NC-Pad6)*%
X-950000Y-1200000D03*
%TO.P,U1,7*%
%TO.N,unconnected-(U1-NC-Pad7)*%
X-950000Y-1799999D03*
%TO.P,U1,8*%
%TO.N,unconnected-(U1-NC-Pad8)*%
X950000Y-1799999D03*
%TO.P,U1,9*%
%TO.N,GND*%
X950000Y-1200000D03*
%TO.P,U1,10*%
X950000Y-599999D03*
%TO.P,U1,11*%
X950000Y0D03*
%TO.P,U1,12*%
%TO.N,/VREF*%
X950000Y600000D03*
%TO.P,U1,13*%
%TO.N,unconnected-(U1-GPIO-Pad13)*%
X950000Y1200000D03*
%TO.P,U1,14*%
%TO.N,unconnected-(U1-INTB-Pad14)*%
X950000Y1800000D03*
%TD*%
D11*
%TO.N,/SDA*%
X-217800Y1525900D03*
%TO.N,/SCL*%
X106300Y818700D03*
%TO.N,3V3*%
X-2380000Y4957400D03*
X3060000Y5360000D03*
X-1697700Y768400D03*
X5142500Y-2756000D03*
X-266900Y3488000D03*
X4370000Y3080000D03*
%TO.N,/VLDO*%
X-1700000Y-1325000D03*
%TO.N,5V_LED*%
X3739700Y-2980000D03*
X234400Y-2889900D03*
%TO.N,GND*%
X-3370000Y-4370000D03*
X3500000Y4850000D03*
X4600000Y2450000D03*
X-4700000Y1150000D03*
X1350000Y-300000D03*
X3050000Y4350000D03*
X1704800Y-2314100D03*
X3003700Y-57200D03*
X2049999Y5720000D03*
X-4750000Y-1250000D03*
X-3650000Y4500000D03*
X3679200Y-3780000D03*
X4700000Y230000D03*
X-3125000Y-1490000D03*
%TO.N,/VREF*%
X149000Y-870300D03*
%TO.N,/12V_IN*%
X-2450000Y-1525000D03*
X-3675000Y-3300000D03*
%TO.N,/UART_RX*%
X-2796900Y1205600D03*
X500000Y3450000D03*
%TO.N,/NRST*%
X-3975000Y3350000D03*
X-1725000Y4450000D03*
%TO.N,/UART_TX*%
X800000Y4050000D03*
X2650000Y-1775000D03*
%TD*%
%TO.N,/SDA*%
D12*
X-950000Y1800000D02*
X-491900Y1800000D01*
X-491900Y1800000D02*
X-217800Y1525900D01*
%TO.N,/SCL*%
X-777100Y1027100D02*
X-950000Y1200000D01*
X-102100Y1027100D02*
X-777100Y1027100D01*
X106300Y818700D02*
X-102100Y1027100D01*
%TO.N,3V3*%
D13*
X-950000Y600000D02*
X-1118400Y768400D01*
X-1118400Y768400D02*
X-1697700Y768400D01*
%TO.N,/VLDO*%
D12*
X-1475000Y-325000D02*
X-1525000Y-450000D01*
X-1300000Y-150000D02*
X-1475000Y-325000D01*
X-1525000Y-450000D02*
X-1700000Y-1325000D01*
X-1250000Y-150000D02*
X-1300000Y-150000D01*
%TO.N,5V_LED*%
X-327700Y-2327800D02*
X234400Y-2889900D01*
X324500Y-2980000D02*
X234400Y-2889900D01*
X-950000Y-600000D02*
X-671300Y-600000D01*
X-327700Y-943600D02*
X-327700Y-2327800D01*
X3739700Y-2980000D02*
X324500Y-2980000D01*
X-671300Y-600000D02*
X-327700Y-943600D01*
%TO.N,GND*%
X950000Y-600000D02*
X950000Y-1200000D01*
X1704800Y-2314100D02*
X1704800Y-1747400D01*
X950000Y0D02*
X950000Y-600000D01*
X1704800Y-1747400D02*
X1157400Y-1200000D01*
X1157400Y-1200000D02*
X950000Y-1200000D01*
%TO.N,/VREF*%
X149000Y77700D02*
X671300Y600000D01*
X671300Y600000D02*
X950000Y600000D01*
X149000Y-870300D02*
X149000Y77700D01*
%TO.N,/12V_IN*%
X-3675000Y-3300000D02*
X-2450000Y-1525000D01*
%TO.N,/UART_RX*%
D14*
X500000Y3450000D02*
X-2575000Y1300000D01*
%TO.N,/NRST*%
D12*
X-1725000Y4450000D02*
X-3975000Y3350000D01*
%TO.N,/UART_TX*%
X2650000Y-1775000D02*
X2100000Y2750000D01*
X2100000Y2750000D02*
X800000Y4050000D01*
%TD*%
M02*
