%TF.GenerationSoftware,KiCad,Pcbnew,10.0.6+dfsg-1*%
%TF.CreationDate,2026-10-01T08:04:58+00:00*%
%TF.ProjectId,ppg_pcb_v08,7070675f-7063-4625-9f76-30382e6b6963,rev?*%
%TF.SameCoordinates,Original*%
%TF.FileFunction,Copper,L4,Bot*%
%TF.FilePolarity,Positive*%
%FSLAX46Y46*%
G04 Gerber Fmt 4.6, Leading zero omitted, Abs format (unit mm)*
G04 Created by KiCad (PCBNEW 10.0.6+dfsg-1) date 2026-10-01 08:04:58*
%MOMM*%
%LPD*%
G01*
G04 APERTURE LIST*
G04 Aperture macros list*
%AMRoundRect*
0 Rectangle with rounded corners*
0 $1 Rounding radius*
0 $2 $3 $4 $5 $6 $7 $8 $9 X,Y pos of 4 corners*
0 Add a 4 corners polygon primitive as box body*
4,1,4,$2,$3,$4,$5,$6,$7,$8,$9,$2,$3,0*
0 Add four circle primitives for the rounded corners*
1,1,$1+$1,$2,$3*
1,1,$1+$1,$4,$5*
1,1,$1+$1,$6,$7*
1,1,$1+$1,$8,$9*
0 Add four rect primitives between the rounded corners*
20,1,$1+$1,$2,$3,$4,$5,0*
20,1,$1+$1,$4,$5,$6,$7,0*
20,1,$1+$1,$6,$7,$8,$9,0*
20,1,$1+$1,$8,$9,$2,$3,0*%
%AMFreePoly0*
4,1,6,0.325000,0.000000,0.175000,-0.150000,-0.175000,-0.150000,-0.175000,0.150000,0.325000,0.150000,0.325000,0.000000,0.325000,0.000000,$1*%
%AMFreePoly1*
4,1,6,0.325000,0.000000,0.325000,-0.150000,-0.175000,-0.150000,-0.175000,0.150000,0.175000,0.150000,0.325000,0.000000,0.325000,0.000000,$1*%
%AMFreePoly2*
4,1,6,0.150000,-0.325000,0.000000,-0.325000,-0.150000,-0.175000,-0.150000,0.175000,0.150000,0.175000,0.150000,-0.325000,0.150000,-0.325000,$1*%
%AMFreePoly3*
4,1,6,0.150000,-0.175000,0.000000,-0.325000,-0.150000,-0.325000,-0.150000,0.175000,0.150000,0.175000,0.150000,-0.175000,0.150000,-0.175000,$1*%
%AMFreePoly4*
4,1,7,0.175000,-0.150000,-0.175000,-0.150000,-0.325000,-0.150000,-0.325000,0.000000,-0.175000,0.150000,0.175000,0.150000,0.175000,-0.150000,0.175000,-0.150000,$1*%
%AMFreePoly5*
4,1,6,0.175000,-0.150000,-0.175000,-0.150000,-0.325000,0.000000,-0.325000,0.150000,0.175000,0.150000,0.175000,-0.150000,0.175000,-0.150000,$1*%
%AMFreePoly6*
4,1,6,0.150000,0.175000,0.150000,-0.175000,-0.150000,-0.175000,-0.150000,0.325000,0.000000,0.325000,0.150000,0.175000,0.150000,0.175000,$1*%
%AMFreePoly7*
4,1,6,0.150000,-0.175000,-0.150000,-0.175000,-0.150000,0.175000,0.000000,0.325000,0.150000,0.325000,0.150000,-0.175000,0.150000,-0.175000,$1*%
G04 Aperture macros list end*
%TA.AperFunction,SMDPad,CuDef*%
%ADD10R,0.325000X0.650000*%
%TD*%
%TA.AperFunction,SMDPad,CuDef*%
%ADD11RoundRect,0.150000X0.150000X-0.512500X0.150000X0.512500X-0.150000X0.512500X-0.150000X-0.512500X0*%
%TD*%
%TA.AperFunction,SMDPad,CuDef*%
%ADD12RoundRect,0.100000X0.100000X-0.130000X0.100000X0.130000X-0.100000X0.130000X-0.100000X-0.130000X0*%
%TD*%
%TA.AperFunction,SMDPad,CuDef*%
%ADD13C,0.800000*%
%TD*%
%TA.AperFunction,SMDPad,CuDef*%
%ADD14C,1.200000*%
%TD*%
%TA.AperFunction,SMDPad,CuDef*%
%ADD15RoundRect,0.100000X0.130000X0.100000X-0.130000X0.100000X-0.130000X-0.100000X0.130000X-0.100000X0*%
%TD*%
%TA.AperFunction,SMDPad,CuDef*%
%ADD16R,0.500000X0.300000*%
%TD*%
%TA.AperFunction,SMDPad,CuDef*%
%ADD17RoundRect,0.140000X0.140000X0.170000X-0.140000X0.170000X-0.140000X-0.170000X0.140000X-0.170000X0*%
%TD*%
%TA.AperFunction,SMDPad,CuDef*%
%ADD18R,0.300000X0.500000*%
%TD*%
%TA.AperFunction,SMDPad,CuDef*%
%ADD19RoundRect,0.150000X-0.150000X0.512500X-0.150000X-0.512500X0.150000X-0.512500X0.150000X0.512500X0*%
%TD*%
%TA.AperFunction,SMDPad,CuDef*%
%ADD20RoundRect,0.062500X0.062500X-0.372500X0.062500X0.372500X-0.062500X0.372500X-0.062500X-0.372500X0*%
%TD*%
%TA.AperFunction,HeatsinkPad*%
%ADD21R,2.200000X0.610000*%
%TD*%
%TA.AperFunction,SMDPad,CuDef*%
%ADD22FreePoly0,0.000000*%
%TD*%
%TA.AperFunction,SMDPad,CuDef*%
%ADD23R,0.700000X0.300000*%
%TD*%
%TA.AperFunction,SMDPad,CuDef*%
%ADD24FreePoly1,0.000000*%
%TD*%
%TA.AperFunction,SMDPad,CuDef*%
%ADD25FreePoly2,0.000000*%
%TD*%
%TA.AperFunction,SMDPad,CuDef*%
%ADD26R,0.300000X0.700000*%
%TD*%
%TA.AperFunction,SMDPad,CuDef*%
%ADD27FreePoly3,0.000000*%
%TD*%
%TA.AperFunction,SMDPad,CuDef*%
%ADD28FreePoly4,0.000000*%
%TD*%
%TA.AperFunction,SMDPad,CuDef*%
%ADD29FreePoly5,0.000000*%
%TD*%
%TA.AperFunction,SMDPad,CuDef*%
%ADD30FreePoly6,0.000000*%
%TD*%
%TA.AperFunction,SMDPad,CuDef*%
%ADD31FreePoly7,0.000000*%
%TD*%
%TA.AperFunction,SMDPad,CuDef*%
%ADD32RoundRect,0.147500X-0.147500X-0.172500X0.147500X-0.172500X0.147500X0.172500X-0.147500X0.172500X0*%
%TD*%
%TA.AperFunction,ViaPad*%
%ADD33C,0.500000*%
%TD*%
%TA.AperFunction,Conductor*%
%ADD34C,0.150000*%
%TD*%
%TA.AperFunction,Conductor*%
%ADD35C,0.112400*%
%TD*%
%TA.AperFunction,Conductor*%
%ADD36C,0.100000*%
%TD*%
%TA.AperFunction,Conductor*%
%ADD37C,0.200000*%
%TD*%
G04 APERTURE END LIST*
D10*
%TO.P,D1,1,K*%
%TO.N,/12V_IN*%
X-4225000Y-1760000D03*
%TO.P,D1,2,A*%
%TO.N,GND*%
X-3575000Y-1760000D03*
%TD*%
D11*
%TO.P,U6,1*%
%TO.N,3V3*%
X-2100000Y-317500D03*
%TO.P,U6,2*%
%TO.N,GND*%
X-3050000Y-317500D03*
%TO.P,U6,3*%
%TO.N,/RXP*%
X-4000000Y-317500D03*
%TO.P,U6,4*%
%TO.N,/RXN*%
X-4000000Y1957500D03*
%TO.P,U6,5*%
%TO.N,/UART_RX*%
X-2100000Y1957500D03*
%TD*%
D12*
%TO.P,C14,1*%
%TO.N,3V3*%
X4600000Y-3820000D03*
%TO.P,C14,2*%
%TO.N,GND*%
X4600000Y-3180000D03*
%TD*%
D13*
%TO.P,J8,1*%
%TO.N,/SWCLK*%
X3700000Y2600000D03*
%TD*%
D12*
%TO.P,R1,1*%
%TO.N,/SDA*%
X-850000Y330000D03*
%TO.P,R1,2*%
%TO.N,3V3*%
X-850000Y970000D03*
%TD*%
D14*
%TO.P,J3,1*%
%TO.N,/TXP*%
X5600000Y-1300000D03*
%TD*%
%TO.P,J1,1*%
%TO.N,/12V_IN*%
X-4390000Y-3850000D03*
%TD*%
D15*
%TO.P,C7,1*%
%TO.N,3V3*%
X-2680000Y3400000D03*
%TO.P,C7,2*%
%TO.N,GND*%
X-3320000Y3400000D03*
%TD*%
D14*
%TO.P,J4,1*%
%TO.N,/TXN*%
X5700000Y1000000D03*
%TD*%
D12*
%TO.P,C12,1*%
%TO.N,3V3*%
X2450000Y4780000D03*
%TO.P,C12,2*%
%TO.N,GND*%
X2450000Y5420000D03*
%TD*%
D16*
%TO.P,D7,1,IO/K*%
%TO.N,/SWCLK*%
X3700000Y3650000D03*
%TO.P,D7,2,GND/A*%
%TO.N,GND*%
X3700000Y4350000D03*
%TD*%
D12*
%TO.P,R2,1*%
%TO.N,/SCL*%
X850000Y330000D03*
%TO.P,R2,2*%
%TO.N,3V3*%
X850000Y970000D03*
%TD*%
D17*
%TO.P,C13,1*%
%TO.N,12V*%
X-4220000Y-2750000D03*
%TO.P,C13,2*%
%TO.N,GND*%
X-5180000Y-2750000D03*
%TD*%
D18*
%TO.P,D2,1,IO/K*%
%TO.N,/TXP*%
X5800000Y-120000D03*
%TO.P,D2,2,GND/A*%
%TO.N,GND*%
X5100000Y-120000D03*
%TD*%
D13*
%TO.P,J9,1*%
%TO.N,/NRST*%
X-4850000Y3100000D03*
%TD*%
D18*
%TO.P,D4,1,IO/K*%
%TO.N,/RXP*%
X-5800000Y-1700000D03*
%TO.P,D4,2,GND/A*%
%TO.N,GND*%
X-5100000Y-1700000D03*
%TD*%
D16*
%TO.P,D8,1,IO/K*%
%TO.N,/NRST*%
X-4200000Y3800000D03*
%TO.P,D8,2,GND/A*%
%TO.N,GND*%
X-4200000Y4500000D03*
%TD*%
D12*
%TO.P,C6,1*%
%TO.N,3V3*%
X4870000Y3080000D03*
%TO.P,C6,2*%
%TO.N,GND*%
X4870000Y3720000D03*
%TD*%
D17*
%TO.P,C1,1*%
%TO.N,5V_LED*%
X480000Y-2170000D03*
%TO.P,C1,2*%
%TO.N,GND*%
X-480000Y-2170000D03*
%TD*%
D19*
%TO.P,U3,1*%
%TO.N,3V3*%
X2050000Y1037500D03*
%TO.P,U3,2*%
%TO.N,GND*%
X3000000Y1037500D03*
%TO.P,U3,3*%
%TO.N,/TXN*%
X3950000Y1037500D03*
%TO.P,U3,4*%
%TO.N,/TXP*%
X3950000Y-1237500D03*
%TO.P,U3,5*%
%TO.N,/UART_TX*%
X2050000Y-1237500D03*
%TD*%
D20*
%TO.P,U4,1*%
%TO.N,5V_LED*%
X-1100000Y-5310000D03*
%TO.P,U4,2*%
%TO.N,unconnected-(U4-NC-Pad2)*%
X-1600000Y-5310000D03*
%TO.P,U4,3*%
%TO.N,unconnected-(U4-NC-Pad3)*%
X-2100000Y-5310000D03*
%TO.P,U4,4*%
%TO.N,GND*%
X-2600000Y-5310000D03*
%TO.P,U4,5*%
%TO.N,unconnected-(U4-NC-Pad5)*%
X-2600000Y-3430000D03*
%TO.P,U4,6*%
%TO.N,unconnected-(U4-NC-Pad6)*%
X-2100000Y-3430000D03*
%TO.P,U4,7*%
%TO.N,unconnected-(U4-NC-Pad7)*%
X-1600000Y-3430000D03*
%TO.P,U4,8*%
%TO.N,12V*%
X-1100000Y-3430000D03*
D21*
%TO.P,U4,9*%
%TO.N,GND*%
X-1850000Y-4370000D03*
%TD*%
D14*
%TO.P,J2,1*%
%TO.N,GND*%
X0Y-5850000D03*
%TD*%
D15*
%TO.P,C11,1*%
%TO.N,3V3*%
X-2380000Y4350000D03*
%TO.P,C11,2*%
%TO.N,GND*%
X-3020000Y4350000D03*
%TD*%
D12*
%TO.P,C4,1*%
%TO.N,/VLDO*%
X-850000Y-1170000D03*
%TO.P,C4,2*%
%TO.N,GND*%
X-850000Y-530000D03*
%TD*%
D22*
%TO.P,U2,1*%
%TO.N,unconnected-(U2-PC15-Pad1)*%
X-1205000Y3000000D03*
D23*
%TO.P,U2,2*%
%TO.N,3V3*%
X-1030000Y3500000D03*
%TO.P,U2,3*%
%TO.N,GND*%
X-1030000Y4000000D03*
%TO.P,U2,4*%
%TO.N,/NRST*%
X-1030000Y4500000D03*
D24*
%TO.P,U2,5*%
%TO.N,unconnected-(U2-PA0-Pad5)*%
X-1205000Y5000000D03*
D25*
%TO.P,U2,6*%
%TO.N,unconnected-(U2-PA1-Pad6)*%
X-730000Y5475000D03*
D26*
%TO.P,U2,7*%
%TO.N,unconnected-(U2-PA2-Pad7)*%
X-230000Y5300000D03*
%TO.P,U2,8*%
%TO.N,unconnected-(U2-PA3-Pad8)*%
X270000Y5300000D03*
%TO.P,U2,9*%
%TO.N,unconnected-(U2-PA4-Pad9)*%
X770000Y5300000D03*
D27*
%TO.P,U2,10*%
%TO.N,unconnected-(U2-PA5-Pad10)*%
X1270000Y5475000D03*
D28*
%TO.P,U2,11*%
%TO.N,unconnected-(U2-PA6-Pad11)*%
X1745000Y5000000D03*
D23*
%TO.P,U2,12*%
%TO.N,unconnected-(U2-PA7-Pad12)*%
X1570000Y4500000D03*
%TO.P,U2,13*%
%TO.N,unconnected-(U2-PA8-Pad13)*%
X1570000Y4000000D03*
%TO.P,U2,14*%
%TO.N,/UART_TX*%
X1570000Y3500000D03*
D29*
%TO.P,U2,15*%
%TO.N,/UART_RX*%
X1745000Y3000000D03*
D30*
%TO.P,U2,16*%
%TO.N,/SWDIO*%
X1270000Y2525000D03*
D26*
%TO.P,U2,17*%
%TO.N,/SWCLK*%
X770000Y2700000D03*
%TO.P,U2,18*%
%TO.N,/SCL*%
X270000Y2700000D03*
%TO.P,U2,19*%
%TO.N,/SDA*%
X-230000Y2700000D03*
D31*
%TO.P,U2,20*%
%TO.N,unconnected-(U2-PC14-Pad20)*%
X-730000Y2525000D03*
%TD*%
D16*
%TO.P,D6,1,IO/K*%
%TO.N,/SWDIO*%
X2600000Y3300000D03*
%TO.P,D6,2,GND/A*%
%TO.N,GND*%
X2600000Y4000000D03*
%TD*%
D18*
%TO.P,D3,1,IO/K*%
%TO.N,/TXN*%
X5700000Y2100000D03*
%TO.P,D3,2,GND/A*%
%TO.N,GND*%
X5000000Y2100000D03*
%TD*%
%TO.P,D5,1,IO/K*%
%TO.N,/RXN*%
X-5800000Y800000D03*
%TO.P,D5,2,GND/A*%
%TO.N,GND*%
X-5100000Y800000D03*
%TD*%
D14*
%TO.P,J5,1*%
%TO.N,/RXP*%
X-5800000Y-500000D03*
%TD*%
D20*
%TO.P,U5,1*%
%TO.N,3V3*%
X2600000Y-5310000D03*
%TO.P,U5,2*%
%TO.N,unconnected-(U5-NC-Pad2)*%
X2100000Y-5310000D03*
%TO.P,U5,3*%
%TO.N,unconnected-(U5-NC-Pad3)*%
X1600000Y-5310000D03*
%TO.P,U5,4*%
%TO.N,GND*%
X1100000Y-5310000D03*
%TO.P,U5,5*%
%TO.N,unconnected-(U5-NC-Pad5)*%
X1100000Y-3430000D03*
%TO.P,U5,6*%
%TO.N,unconnected-(U5-NC-Pad6)*%
X1600000Y-3430000D03*
%TO.P,U5,7*%
%TO.N,unconnected-(U5-NC-Pad7)*%
X2100000Y-3430000D03*
%TO.P,U5,8*%
%TO.N,5V_LED*%
X2600000Y-3430000D03*
D21*
%TO.P,U5,9*%
%TO.N,GND*%
X1850000Y-4370000D03*
%TD*%
D12*
%TO.P,C5,1*%
%TO.N,/VREF*%
X850000Y-1170000D03*
%TO.P,C5,2*%
%TO.N,GND*%
X850000Y-530000D03*
%TD*%
D32*
%TO.P,FB1,1*%
%TO.N,/12V_IN*%
X-2585000Y-2150000D03*
%TO.P,FB1,2*%
%TO.N,12V*%
X-1615000Y-2150000D03*
%TD*%
D13*
%TO.P,J7,1*%
%TO.N,/SWDIO*%
X2600000Y2600000D03*
%TD*%
D14*
%TO.P,J6,1*%
%TO.N,/RXN*%
X-5490000Y2000000D03*
%TD*%
D33*
%TO.N,/SDA*%
X-217800Y1525900D03*
%TO.N,/SCL*%
X106300Y818700D03*
%TO.N,3V3*%
X-2380000Y4957400D03*
X3060000Y5360000D03*
X-1697700Y768400D03*
X5142500Y-2756000D03*
X-266900Y3488000D03*
X4370000Y3080000D03*
%TO.N,/VLDO*%
X-1700000Y-1325000D03*
%TO.N,5V_LED*%
X3739700Y-2980000D03*
X234400Y-2889900D03*
%TO.N,GND*%
X-3370000Y-4370000D03*
X3500000Y4850000D03*
X4600000Y2450000D03*
X-4700000Y1150000D03*
X1350000Y-300000D03*
X3050000Y4350000D03*
X1704800Y-2314100D03*
X3003700Y-57200D03*
X2049999Y5720000D03*
X-4750000Y-1250000D03*
X-3650000Y4500000D03*
X3679200Y-3780000D03*
X4700000Y230000D03*
X-3125000Y-1490000D03*
%TO.N,/VREF*%
X149000Y-870300D03*
%TO.N,/12V_IN*%
X-2450000Y-1525000D03*
X-3675000Y-3300000D03*
%TO.N,/UART_RX*%
X-2796900Y1205600D03*
X500000Y3450000D03*
%TO.N,/NRST*%
X-3975000Y3350000D03*
X-1725000Y4450000D03*
%TO.N,/UART_TX*%
X800000Y4050000D03*
X2650000Y-1775000D03*
%TD*%
%TO.N,/SDA*%
D34*
X-230000Y1525900D02*
X-217800Y1525900D01*
X-768000Y330000D02*
X-850000Y330000D01*
X-370400Y1385500D02*
X-370400Y727600D01*
X-230000Y2700000D02*
X-230000Y1525900D01*
X-370400Y727600D02*
X-768000Y330000D01*
X-230000Y1525900D02*
X-370400Y1385500D01*
%TO.N,/SCL*%
X270000Y2700000D02*
X270000Y818700D01*
X758700Y330000D02*
X850000Y330000D01*
X270000Y818700D02*
X758700Y330000D01*
X270000Y818700D02*
X106300Y818700D01*
%TO.N,3V3*%
X-2100000Y366100D02*
X-2100000Y-317500D01*
X2050000Y970000D02*
X2050000Y109600D01*
D35*
X4785000Y-3635600D02*
X4784400Y-3635600D01*
D36*
X4874300Y-3616200D02*
X4804400Y-3616200D01*
D34*
X2900000Y4930000D02*
X3060000Y5070000D01*
D35*
X-1034400Y785600D02*
X-982700Y837300D01*
D34*
X3106200Y-1606400D02*
X4257900Y-2758100D01*
D35*
X4738000Y-2351500D02*
X4331400Y-2758100D01*
D34*
X5142500Y-2756000D02*
X4738000Y-2351500D01*
X5142500Y-2756000D02*
X5142500Y-3348000D01*
X-982700Y837300D02*
X-850000Y970000D01*
X3060000Y5070000D02*
X3060000Y5360000D01*
X3106200Y-946600D02*
X3106200Y-1606400D01*
X-1591400Y768400D02*
X-1697700Y768400D01*
D35*
X4784400Y-3635600D02*
X4600000Y-3820000D01*
D34*
X-441300Y3488000D02*
X-266900Y3488000D01*
X4870000Y3080000D02*
X4370000Y3080000D01*
X-1697700Y768400D02*
X-2100000Y366100D01*
X-2380000Y4350000D02*
X-2380000Y4957400D01*
X-2680000Y3701500D02*
X-2564400Y3817100D01*
X-453300Y3500000D02*
X-441300Y3488000D01*
D35*
X-2564400Y3817100D02*
X-2380000Y4001500D01*
D34*
X5142500Y-3348000D02*
X4874300Y-3616200D01*
D35*
X3319700Y-4900200D02*
X3009800Y-4900200D01*
D34*
X2050000Y970000D02*
X2050000Y1037500D01*
X2050000Y970000D02*
X850000Y970000D01*
D35*
X3009800Y-4900200D02*
X2600000Y-5310000D01*
D34*
X2600000Y4930000D02*
X2900000Y4930000D01*
X4399900Y-3820000D02*
X3319700Y-4900200D01*
X-1030000Y3500000D02*
X-453300Y3500000D01*
D35*
X-1574200Y785600D02*
X-1034400Y785600D01*
D34*
X4257900Y-2758100D02*
X4276600Y-2758100D01*
X2450000Y4780000D02*
X2600000Y4930000D01*
X2050000Y109600D02*
X3106200Y-946600D01*
X4600000Y-3820000D02*
X4399900Y-3820000D01*
X-1574200Y785600D02*
X-1591400Y768400D01*
X-2680000Y3400000D02*
X-2680000Y3701500D01*
D36*
X4804400Y-3616200D02*
X4785000Y-3635600D01*
D34*
X-2380000Y4001500D02*
X-2380000Y4350000D01*
D35*
X4331400Y-2758100D02*
X4276600Y-2758100D01*
%TO.N,/VLDO*%
D34*
X-1700000Y-1325000D02*
X-1025000Y-1325000D01*
%TO.N,5V_LED*%
X-972800Y-5310000D02*
X234400Y-4102800D01*
X234400Y-2889900D02*
X234400Y-2415600D01*
X234400Y-2415600D02*
X480000Y-2170000D01*
X-1100000Y-5310000D02*
X-972800Y-5310000D01*
X234400Y-4102800D02*
X234400Y-2889900D01*
X2600000Y-3430000D02*
X3050000Y-2980000D01*
X3050000Y-2980000D02*
X3739700Y-2980000D01*
%TO.N,GND*%
X-600000Y-725000D02*
X-675000Y-700000D01*
X-1924400Y3398800D02*
X-1924400Y3875200D01*
X-400000Y-1875000D02*
X-400000Y-900000D01*
X4279200Y-3180000D02*
X4600000Y-3180000D01*
X850000Y-530000D02*
X1350000Y-300000D01*
X1850000Y-4370000D02*
X3176700Y-4370000D01*
X850000Y-530000D02*
X713600Y-393600D01*
X-3050000Y-317500D02*
X-3125000Y-1490000D01*
X-3320000Y3282000D02*
X-2995500Y2957500D01*
D37*
X5000000Y2100000D02*
X4600000Y2450000D01*
D34*
X0Y-5850000D02*
X560000Y-5850000D01*
X713600Y-393600D02*
X-713600Y-393600D01*
D35*
X-1030000Y4000000D02*
X-1587900Y4000000D01*
X-1712700Y3875200D02*
X-1587900Y4000000D01*
D37*
X5100000Y-120000D02*
X4700000Y230000D01*
D34*
X-400000Y-900000D02*
X-600000Y-725000D01*
X-3020000Y4350000D02*
X-3650000Y4500000D01*
D35*
X-1924400Y3875200D02*
X-1712700Y3875200D01*
X1249900Y-4649600D02*
X1570400Y-4649600D01*
D34*
X-713600Y-393600D02*
X-850000Y-530000D01*
X-3320000Y4050000D02*
X-3320000Y3400000D01*
X560000Y-5850000D02*
X1100000Y-5310000D01*
X2450000Y5420000D02*
X2049999Y5720000D01*
X3176700Y-4282500D02*
X3176700Y-4370000D01*
X-3320000Y3400000D02*
X-3320000Y3282000D01*
X-2365700Y2957500D02*
X-1924400Y3398800D01*
X4240000Y4350000D02*
X4870000Y3720000D01*
X-5100000Y-2176700D02*
X-5180000Y-2256700D01*
X-2600000Y-4370000D02*
X-3370000Y-4370000D01*
X-5180000Y-2256700D02*
X-5180000Y-2750000D01*
X3700000Y4350000D02*
X4240000Y4350000D01*
X3679200Y-3780000D02*
X4279200Y-3180000D01*
D35*
X1100000Y-4649600D02*
X1249600Y-4649600D01*
D34*
X-2995500Y2957500D02*
X-2365700Y2957500D01*
X1100000Y-5310000D02*
X1100000Y-4649600D01*
X1249900Y-4649600D02*
X1249600Y-4649600D01*
X-1850000Y-4370000D02*
X-2600000Y-4370000D01*
X-2600000Y-4370000D02*
X-2600000Y-5310000D01*
D37*
X-5100000Y800000D02*
X-4700000Y1150000D01*
X-3575000Y-1760000D02*
X-3125000Y-1490000D01*
D34*
X-3020000Y4350000D02*
X-3320000Y4050000D01*
X3003700Y-57200D02*
X3003700Y1033800D01*
D37*
X2600000Y4000000D02*
X3050000Y4350000D01*
X-5100000Y-1700000D02*
X-4750000Y-1250000D01*
X-4200000Y4500000D02*
X-3650000Y4500000D01*
X3700000Y4350000D02*
X3500000Y4850000D01*
D34*
X3679200Y-3780000D02*
X3176700Y-4282500D01*
D35*
X1570400Y-4649600D02*
X1850000Y-4370000D01*
D34*
X3003700Y1033800D02*
X3000000Y1037500D01*
X-5100000Y-1700000D02*
X-5100000Y-2176700D01*
%TO.N,/VREF*%
X448700Y-1170000D02*
X149000Y-870300D01*
X850000Y-1170000D02*
X448700Y-1170000D01*
%TO.N,/12V_IN*%
D35*
X-3714500Y-2318800D02*
X-3714300Y-2318800D01*
X-4225000Y-1938800D02*
X-3845000Y-2318800D01*
D34*
X-3779600Y-2318800D02*
X-3714500Y-2318800D01*
X-4225000Y-1760000D02*
X-4225000Y-1938800D01*
D35*
X-3845000Y-2318800D02*
X-3779600Y-2318800D01*
D34*
X-2450000Y-1525000D02*
X-2450000Y-1850000D01*
X-2585000Y-2150000D02*
X-2753800Y-2318800D01*
X-3900000Y-3525000D02*
X-3675000Y-3300000D01*
X-2753800Y-2318800D02*
X-3714300Y-2318800D01*
%TO.N,/RXP*%
X-5800000Y-500000D02*
X-5800000Y-1700000D01*
X-5800000Y-500000D02*
X-5617500Y-317500D01*
X-5617500Y-317500D02*
X-4000000Y-317500D01*
%TO.N,/RXN*%
X-5490000Y2000000D02*
X-5800000Y800000D01*
X-4000000Y1957500D02*
X-5447500Y1957500D01*
X-5447500Y1957500D02*
X-5490000Y2000000D01*
%TO.N,/UART_RX*%
D36*
X1150000Y3125000D02*
X1025000Y3250000D01*
X1425000Y3125000D02*
X1150000Y3125000D01*
X1025000Y3250000D02*
X500000Y3450000D01*
D34*
X-2100000Y1902500D02*
X-2100000Y1957500D01*
X-2796900Y1205600D02*
X-2100000Y1902500D01*
%TO.N,/SWCLK*%
X3027300Y1927300D02*
X3700000Y2600000D01*
X3700000Y2600000D02*
X3700000Y3650000D01*
X966000Y1927300D02*
X3027300Y1927300D01*
X770000Y2700000D02*
X770000Y2123300D01*
X770000Y2123300D02*
X966000Y1927300D01*
%TO.N,/TXP*%
X4012500Y-1300000D02*
X5600000Y-1300000D01*
X5600000Y-1300000D02*
X5800000Y-120000D01*
X3950000Y-1237500D02*
X4012500Y-1300000D01*
%TO.N,/TXN*%
X3950000Y1037500D02*
X5662500Y1037500D01*
X5700000Y1000000D02*
X5700000Y2100000D01*
X5662500Y1037500D02*
X5700000Y1000000D01*
%TO.N,12V*%
D37*
X-1615000Y-2150000D02*
X-1100000Y-2665000D01*
D34*
X-2215000Y-2750000D02*
X-4220000Y-2750000D01*
X-1615000Y-2150000D02*
X-2215000Y-2750000D01*
D37*
X-1100000Y-2665000D02*
X-1100000Y-3430000D01*
%TO.N,/NRST*%
D34*
X-4850000Y3100000D02*
X-4200000Y3800000D01*
X-1375000Y4450000D02*
X-1725000Y4450000D01*
X-3975000Y3350000D02*
X-3975000Y3675000D01*
%TO.N,/UART_TX*%
X2325000Y-1775000D02*
X2650000Y-1775000D01*
X800000Y4050000D02*
X1075000Y3650000D01*
X1075000Y3650000D02*
X1225000Y3600000D01*
%TO.N,/SWDIO*%
X2600000Y2600000D02*
X2600000Y3300000D01*
X1400000Y2600000D02*
X2225000Y2600000D01*
%TD*%
M02*
