M48
; DRILL file KiCad 10.0.6+dfsg-1 date 2026-10-01T08:04:58
; FORMAT={-:-/ absolute / metric / decimal}
; #@! TF.CreationDate,2026-10-01T08:04:58+00:00
; #@! TF.GenerationSoftware,Kicad,Pcbnew,10.0.6+dfsg-1
; #@! TF.FileFunction,Plated,1,4,PTH
FMAT,2
METRIC
; #@! TA.AperFunction,Plated,PTH,ViaDrill
T1C0.250
%
G90
G05
T1
X-4.75Y-1.25
X-4.7Y1.15
X-3.975Y3.35
X-3.675Y-3.3
X-3.65Y4.5
X-3.37Y-4.37
X-3.125Y-1.49
X-2.797Y1.206
X-2.45Y-1.525
X-2.38Y4.957
X-1.725Y4.45
X-1.7Y-1.325
X-1.698Y0.768
X-0.267Y3.488
X-0.218Y1.526
X0.106Y0.819
X0.149Y-0.87
X0.234Y-2.89
X0.5Y3.45
X0.8Y4.05
X1.35Y-0.3
X1.705Y-2.314
X2.05Y5.72
X2.65Y-1.775
X3.004Y-0.057
X3.05Y4.35
X3.06Y5.36
X3.5Y4.85
X3.679Y-3.78
X3.74Y-2.98
X4.37Y3.08
X4.6Y2.45
X4.7Y0.23
X5.143Y-2.756
M30
