%TF.GenerationSoftware,KiCad,Pcbnew,10.0.6+dfsg-1*%
%TF.CreationDate,2026-10-01T08:04:58+00:00*%
%TF.ProjectId,ppg_pcb_v08,7070675f-7063-4625-9f76-30382e6b6963,rev?*%
%TF.SameCoordinates,Original*%
%TF.FileFunction,Soldermask,Bot*%
%TF.FilePolarity,Negative*%
%FSLAX46Y46*%
G04 Gerber Fmt 4.6, Leading zero omitted, Abs format (unit mm)*
G04 Created by KiCad (PCBNEW 10.0.6+dfsg-1) date 2026-10-01 08:04:58*
%MOMM*%
%LPD*%
G01*
G04 APERTURE LIST*
G04 APERTURE END LIST*
G36*
X68858Y-5255133D02*
G01*
X78316Y-5255133D01*
X105563Y-5262433D01*
X174099Y-5276066D01*
X206448Y-5289465D01*
X229610Y-5295672D01*
X250377Y-5307662D01*
X282722Y-5321060D01*
X340816Y-5359877D01*
X365257Y-5373988D01*
X371946Y-5380677D01*
X380481Y-5386380D01*
X463619Y-5469518D01*
X469321Y-5478052D01*
X476012Y-5484743D01*
X490124Y-5509186D01*
X528939Y-5567277D01*
X542335Y-5599618D01*
X554328Y-5620390D01*
X560535Y-5643555D01*
X573933Y-5675900D01*
X587565Y-5744433D01*
X594867Y-5771684D01*
X594867Y-5781141D01*
X596870Y-5791211D01*
X596870Y-5908788D01*
X594867Y-5918857D01*
X594867Y-5928316D01*
X587564Y-5955569D01*
X573933Y-6024099D01*
X560535Y-6056441D01*
X554328Y-6079610D01*
X542334Y-6100383D01*
X528939Y-6132722D01*
X490128Y-6190805D01*
X476012Y-6215257D01*
X469319Y-6221949D01*
X463619Y-6230481D01*
X380481Y-6313619D01*
X371949Y-6319319D01*
X365257Y-6326012D01*
X340805Y-6340128D01*
X282722Y-6378939D01*
X250383Y-6392334D01*
X229610Y-6404328D01*
X206441Y-6410535D01*
X174099Y-6423933D01*
X105569Y-6437564D01*
X78316Y-6444867D01*
X68858Y-6444867D01*
X58788Y-6446870D01*
X-58788Y-6446870D01*
X-68858Y-6444867D01*
X-78316Y-6444867D01*
X-105569Y-6437564D01*
X-174099Y-6423933D01*
X-206441Y-6410535D01*
X-229610Y-6404328D01*
X-250383Y-6392334D01*
X-282722Y-6378939D01*
X-340805Y-6340128D01*
X-365257Y-6326012D01*
X-371949Y-6319319D01*
X-380481Y-6313619D01*
X-463619Y-6230481D01*
X-469319Y-6221949D01*
X-476012Y-6215257D01*
X-490128Y-6190805D01*
X-528939Y-6132722D01*
X-542334Y-6100383D01*
X-554328Y-6079610D01*
X-560535Y-6056441D01*
X-573933Y-6024099D01*
X-587564Y-5955569D01*
X-594867Y-5928316D01*
X-594867Y-5918857D01*
X-596870Y-5908788D01*
X-596870Y-5791211D01*
X-594867Y-5781141D01*
X-594867Y-5771684D01*
X-587565Y-5744433D01*
X-573933Y-5675900D01*
X-560535Y-5643555D01*
X-554328Y-5620390D01*
X-542335Y-5599618D01*
X-528939Y-5567277D01*
X-490124Y-5509186D01*
X-476012Y-5484743D01*
X-469321Y-5478052D01*
X-463619Y-5469518D01*
X-380481Y-5386380D01*
X-371946Y-5380677D01*
X-365257Y-5373988D01*
X-340816Y-5359877D01*
X-282722Y-5321060D01*
X-250377Y-5307662D01*
X-229610Y-5295672D01*
X-206448Y-5289465D01*
X-174099Y-5276066D01*
X-105563Y-5262433D01*
X-78316Y-5255133D01*
X-68858Y-5255133D01*
X-58788Y-5253130D01*
X58788Y-5253130D01*
X68858Y-5255133D01*
G37*
G36*
X-2513582Y-4879758D02*
G01*
X-2493306Y-4893306D01*
X-2479758Y-4913582D01*
X-2475000Y-4937500D01*
X-2475000Y-5682500D01*
X-2479758Y-5706418D01*
X-2493306Y-5726694D01*
X-2513582Y-5740242D01*
X-2537500Y-5745000D01*
X-2662500Y-5745000D01*
X-2686418Y-5740242D01*
X-2706694Y-5726694D01*
X-2720242Y-5706418D01*
X-2725000Y-5682500D01*
X-2725000Y-4937500D01*
X-2720242Y-4913582D01*
X-2706694Y-4893306D01*
X-2686418Y-4879758D01*
X-2662500Y-4875000D01*
X-2537500Y-4875000D01*
X-2513582Y-4879758D01*
G37*
G36*
X-2013582Y-4879758D02*
G01*
X-1993306Y-4893306D01*
X-1979758Y-4913582D01*
X-1975000Y-4937500D01*
X-1975000Y-5682500D01*
X-1979758Y-5706418D01*
X-1993306Y-5726694D01*
X-2013582Y-5740242D01*
X-2037500Y-5745000D01*
X-2162500Y-5745000D01*
X-2186418Y-5740242D01*
X-2206694Y-5726694D01*
X-2220242Y-5706418D01*
X-2225000Y-5682500D01*
X-2225000Y-4937500D01*
X-2220242Y-4913582D01*
X-2206694Y-4893306D01*
X-2186418Y-4879758D01*
X-2162500Y-4875000D01*
X-2037500Y-4875000D01*
X-2013582Y-4879758D01*
G37*
G36*
X-1513582Y-4879758D02*
G01*
X-1493306Y-4893306D01*
X-1479758Y-4913582D01*
X-1475000Y-4937500D01*
X-1475000Y-5682500D01*
X-1479758Y-5706418D01*
X-1493306Y-5726694D01*
X-1513582Y-5740242D01*
X-1537500Y-5745000D01*
X-1662500Y-5745000D01*
X-1686418Y-5740242D01*
X-1706694Y-5726694D01*
X-1720242Y-5706418D01*
X-1725000Y-5682500D01*
X-1725000Y-4937500D01*
X-1720242Y-4913582D01*
X-1706694Y-4893306D01*
X-1686418Y-4879758D01*
X-1662500Y-4875000D01*
X-1537500Y-4875000D01*
X-1513582Y-4879758D01*
G37*
G36*
X-1013582Y-4879758D02*
G01*
X-993306Y-4893306D01*
X-979758Y-4913582D01*
X-975000Y-4937500D01*
X-975000Y-5682500D01*
X-979758Y-5706418D01*
X-993306Y-5726694D01*
X-1013582Y-5740242D01*
X-1037500Y-5745000D01*
X-1162500Y-5745000D01*
X-1186418Y-5740242D01*
X-1206694Y-5726694D01*
X-1220242Y-5706418D01*
X-1225000Y-5682500D01*
X-1225000Y-4937500D01*
X-1220242Y-4913582D01*
X-1206694Y-4893306D01*
X-1186418Y-4879758D01*
X-1162500Y-4875000D01*
X-1037500Y-4875000D01*
X-1013582Y-4879758D01*
G37*
G36*
X1186418Y-4879758D02*
G01*
X1206694Y-4893306D01*
X1220242Y-4913582D01*
X1225000Y-4937500D01*
X1225000Y-5682500D01*
X1220242Y-5706418D01*
X1206694Y-5726694D01*
X1186418Y-5740242D01*
X1162500Y-5745000D01*
X1037500Y-5745000D01*
X1013582Y-5740242D01*
X993306Y-5726694D01*
X979758Y-5706418D01*
X975000Y-5682500D01*
X975000Y-4937500D01*
X979758Y-4913582D01*
X993306Y-4893306D01*
X1013582Y-4879758D01*
X1037500Y-4875000D01*
X1162500Y-4875000D01*
X1186418Y-4879758D01*
G37*
G36*
X1686418Y-4879758D02*
G01*
X1706694Y-4893306D01*
X1720242Y-4913582D01*
X1725000Y-4937500D01*
X1725000Y-5682500D01*
X1720242Y-5706418D01*
X1706694Y-5726694D01*
X1686418Y-5740242D01*
X1662500Y-5745000D01*
X1537500Y-5745000D01*
X1513582Y-5740242D01*
X1493306Y-5726694D01*
X1479758Y-5706418D01*
X1475000Y-5682500D01*
X1475000Y-4937500D01*
X1479758Y-4913582D01*
X1493306Y-4893306D01*
X1513582Y-4879758D01*
X1537500Y-4875000D01*
X1662500Y-4875000D01*
X1686418Y-4879758D01*
G37*
G36*
X2186418Y-4879758D02*
G01*
X2206694Y-4893306D01*
X2220242Y-4913582D01*
X2225000Y-4937500D01*
X2225000Y-5682500D01*
X2220242Y-5706418D01*
X2206694Y-5726694D01*
X2186418Y-5740242D01*
X2162500Y-5745000D01*
X2037500Y-5745000D01*
X2013582Y-5740242D01*
X1993306Y-5726694D01*
X1979758Y-5706418D01*
X1975000Y-5682500D01*
X1975000Y-4937500D01*
X1979758Y-4913582D01*
X1993306Y-4893306D01*
X2013582Y-4879758D01*
X2037500Y-4875000D01*
X2162500Y-4875000D01*
X2186418Y-4879758D01*
G37*
G36*
X2686418Y-4879758D02*
G01*
X2706694Y-4893306D01*
X2720242Y-4913582D01*
X2725000Y-4937500D01*
X2725000Y-5682500D01*
X2720242Y-5706418D01*
X2706694Y-5726694D01*
X2686418Y-5740242D01*
X2662500Y-5745000D01*
X2537500Y-5745000D01*
X2513582Y-5740242D01*
X2493306Y-5726694D01*
X2479758Y-5706418D01*
X2475000Y-5682500D01*
X2475000Y-4937500D01*
X2479758Y-4913582D01*
X2493306Y-4893306D01*
X2513582Y-4879758D01*
X2537500Y-4875000D01*
X2662500Y-4875000D01*
X2686418Y-4879758D01*
G37*
G36*
X-750000Y-4675000D02*
G01*
X-2950000Y-4675000D01*
X-2950000Y-4065000D01*
X-750000Y-4065000D01*
X-750000Y-4675000D01*
G37*
G36*
X2950000Y-4675000D02*
G01*
X750000Y-4675000D01*
X750000Y-4065000D01*
X2950000Y-4065000D01*
X2950000Y-4675000D01*
G37*
G36*
X-4321142Y-3255133D02*
G01*
X-4311684Y-3255133D01*
X-4284437Y-3262433D01*
X-4215900Y-3276066D01*
X-4183548Y-3289466D01*
X-4160390Y-3295672D01*
X-4139624Y-3307660D01*
X-4107277Y-3321060D01*
X-4049175Y-3359881D01*
X-4024743Y-3373988D01*
X-4018055Y-3380675D01*
X-4009518Y-3386380D01*
X-3926380Y-3469518D01*
X-3920675Y-3478055D01*
X-3913988Y-3484743D01*
X-3899881Y-3509175D01*
X-3861060Y-3567277D01*
X-3847660Y-3599624D01*
X-3835672Y-3620390D01*
X-3829466Y-3643548D01*
X-3816066Y-3675900D01*
X-3802433Y-3744439D01*
X-3795133Y-3771684D01*
X-3795133Y-3781140D01*
X-3793130Y-3791211D01*
X-3793130Y-3908788D01*
X-3795133Y-3918858D01*
X-3795133Y-3928316D01*
X-3802433Y-3955563D01*
X-3816066Y-4024099D01*
X-3829465Y-4056448D01*
X-3835672Y-4079610D01*
X-3847662Y-4100377D01*
X-3861060Y-4132722D01*
X-3899877Y-4190816D01*
X-3913988Y-4215257D01*
X-3920677Y-4221946D01*
X-3926380Y-4230481D01*
X-4009518Y-4313619D01*
X-4018052Y-4319321D01*
X-4024743Y-4326012D01*
X-4049186Y-4340124D01*
X-4107277Y-4378939D01*
X-4139618Y-4392335D01*
X-4160390Y-4404328D01*
X-4183555Y-4410535D01*
X-4215900Y-4423933D01*
X-4284432Y-4437564D01*
X-4311684Y-4444867D01*
X-4321142Y-4444867D01*
X-4331212Y-4446870D01*
X-4448788Y-4446870D01*
X-4458858Y-4444867D01*
X-4468316Y-4444867D01*
X-4495569Y-4437564D01*
X-4564099Y-4423933D01*
X-4596441Y-4410535D01*
X-4619610Y-4404328D01*
X-4640383Y-4392334D01*
X-4672722Y-4378939D01*
X-4730805Y-4340128D01*
X-4755257Y-4326012D01*
X-4761949Y-4319319D01*
X-4770481Y-4313619D01*
X-4853619Y-4230481D01*
X-4859319Y-4221949D01*
X-4866012Y-4215257D01*
X-4880128Y-4190805D01*
X-4918939Y-4132722D01*
X-4932334Y-4100383D01*
X-4944328Y-4079610D01*
X-4950535Y-4056441D01*
X-4963933Y-4024099D01*
X-4977564Y-3955569D01*
X-4984867Y-3928316D01*
X-4984867Y-3918857D01*
X-4986870Y-3908788D01*
X-4986870Y-3791211D01*
X-4984867Y-3781141D01*
X-4984867Y-3771684D01*
X-4977565Y-3744433D01*
X-4963933Y-3675900D01*
X-4950535Y-3643555D01*
X-4944328Y-3620390D01*
X-4932335Y-3599618D01*
X-4918939Y-3567277D01*
X-4880124Y-3509186D01*
X-4866012Y-3484743D01*
X-4859321Y-3478052D01*
X-4853619Y-3469518D01*
X-4770481Y-3386380D01*
X-4761946Y-3380677D01*
X-4755257Y-3373988D01*
X-4730816Y-3359877D01*
X-4672722Y-3321060D01*
X-4640377Y-3307662D01*
X-4619610Y-3295672D01*
X-4596448Y-3289465D01*
X-4564099Y-3276066D01*
X-4495563Y-3262433D01*
X-4468316Y-3255133D01*
X-4458858Y-3255133D01*
X-4448788Y-3253130D01*
X-4331212Y-3253130D01*
X-4321142Y-3255133D01*
G37*
G36*
X4738268Y-3597612D02*
G01*
X4770711Y-3619289D01*
X4792388Y-3651732D01*
X4800000Y-3690000D01*
X4800000Y-3950000D01*
X4792388Y-3988268D01*
X4770711Y-4020711D01*
X4738268Y-4042388D01*
X4700000Y-4050000D01*
X4500000Y-4050000D01*
X4461732Y-4042388D01*
X4429289Y-4020711D01*
X4407612Y-3988268D01*
X4400000Y-3950000D01*
X4400000Y-3690000D01*
X4407612Y-3651732D01*
X4429289Y-3619289D01*
X4461732Y-3597612D01*
X4500000Y-3590000D01*
X4700000Y-3590000D01*
X4738268Y-3597612D01*
G37*
G36*
X-2513582Y-2999758D02*
G01*
X-2493306Y-3013306D01*
X-2479758Y-3033582D01*
X-2475000Y-3057500D01*
X-2475000Y-3802500D01*
X-2479758Y-3826418D01*
X-2493306Y-3846694D01*
X-2513582Y-3860242D01*
X-2537500Y-3865000D01*
X-2662500Y-3865000D01*
X-2686418Y-3860242D01*
X-2706694Y-3846694D01*
X-2720242Y-3826418D01*
X-2725000Y-3802500D01*
X-2725000Y-3057500D01*
X-2720242Y-3033582D01*
X-2706694Y-3013306D01*
X-2686418Y-2999758D01*
X-2662500Y-2995000D01*
X-2537500Y-2995000D01*
X-2513582Y-2999758D01*
G37*
G36*
X-2013582Y-2999758D02*
G01*
X-1993306Y-3013306D01*
X-1979758Y-3033582D01*
X-1975000Y-3057500D01*
X-1975000Y-3802500D01*
X-1979758Y-3826418D01*
X-1993306Y-3846694D01*
X-2013582Y-3860242D01*
X-2037500Y-3865000D01*
X-2162500Y-3865000D01*
X-2186418Y-3860242D01*
X-2206694Y-3846694D01*
X-2220242Y-3826418D01*
X-2225000Y-3802500D01*
X-2225000Y-3057500D01*
X-2220242Y-3033582D01*
X-2206694Y-3013306D01*
X-2186418Y-2999758D01*
X-2162500Y-2995000D01*
X-2037500Y-2995000D01*
X-2013582Y-2999758D01*
G37*
G36*
X-1513582Y-2999758D02*
G01*
X-1493306Y-3013306D01*
X-1479758Y-3033582D01*
X-1475000Y-3057500D01*
X-1475000Y-3802500D01*
X-1479758Y-3826418D01*
X-1493306Y-3846694D01*
X-1513582Y-3860242D01*
X-1537500Y-3865000D01*
X-1662500Y-3865000D01*
X-1686418Y-3860242D01*
X-1706694Y-3846694D01*
X-1720242Y-3826418D01*
X-1725000Y-3802500D01*
X-1725000Y-3057500D01*
X-1720242Y-3033582D01*
X-1706694Y-3013306D01*
X-1686418Y-2999758D01*
X-1662500Y-2995000D01*
X-1537500Y-2995000D01*
X-1513582Y-2999758D01*
G37*
G36*
X-1013582Y-2999758D02*
G01*
X-993306Y-3013306D01*
X-979758Y-3033582D01*
X-975000Y-3057500D01*
X-975000Y-3802500D01*
X-979758Y-3826418D01*
X-993306Y-3846694D01*
X-1013582Y-3860242D01*
X-1037500Y-3865000D01*
X-1162500Y-3865000D01*
X-1186418Y-3860242D01*
X-1206694Y-3846694D01*
X-1220242Y-3826418D01*
X-1225000Y-3802500D01*
X-1225000Y-3057500D01*
X-1220242Y-3033582D01*
X-1206694Y-3013306D01*
X-1186418Y-2999758D01*
X-1162500Y-2995000D01*
X-1037500Y-2995000D01*
X-1013582Y-2999758D01*
G37*
G36*
X1186418Y-2999758D02*
G01*
X1206694Y-3013306D01*
X1220242Y-3033582D01*
X1225000Y-3057500D01*
X1225000Y-3802500D01*
X1220242Y-3826418D01*
X1206694Y-3846694D01*
X1186418Y-3860242D01*
X1162500Y-3865000D01*
X1037500Y-3865000D01*
X1013582Y-3860242D01*
X993306Y-3846694D01*
X979758Y-3826418D01*
X975000Y-3802500D01*
X975000Y-3057500D01*
X979758Y-3033582D01*
X993306Y-3013306D01*
X1013582Y-2999758D01*
X1037500Y-2995000D01*
X1162500Y-2995000D01*
X1186418Y-2999758D01*
G37*
G36*
X1686418Y-2999758D02*
G01*
X1706694Y-3013306D01*
X1720242Y-3033582D01*
X1725000Y-3057500D01*
X1725000Y-3802500D01*
X1720242Y-3826418D01*
X1706694Y-3846694D01*
X1686418Y-3860242D01*
X1662500Y-3865000D01*
X1537500Y-3865000D01*
X1513582Y-3860242D01*
X1493306Y-3846694D01*
X1479758Y-3826418D01*
X1475000Y-3802500D01*
X1475000Y-3057500D01*
X1479758Y-3033582D01*
X1493306Y-3013306D01*
X1513582Y-2999758D01*
X1537500Y-2995000D01*
X1662500Y-2995000D01*
X1686418Y-2999758D01*
G37*
G36*
X2186418Y-2999758D02*
G01*
X2206694Y-3013306D01*
X2220242Y-3033582D01*
X2225000Y-3057500D01*
X2225000Y-3802500D01*
X2220242Y-3826418D01*
X2206694Y-3846694D01*
X2186418Y-3860242D01*
X2162500Y-3865000D01*
X2037500Y-3865000D01*
X2013582Y-3860242D01*
X1993306Y-3846694D01*
X1979758Y-3826418D01*
X1975000Y-3802500D01*
X1975000Y-3057500D01*
X1979758Y-3033582D01*
X1993306Y-3013306D01*
X2013582Y-2999758D01*
X2037500Y-2995000D01*
X2162500Y-2995000D01*
X2186418Y-2999758D01*
G37*
G36*
X2686418Y-2999758D02*
G01*
X2706694Y-3013306D01*
X2720242Y-3033582D01*
X2725000Y-3057500D01*
X2725000Y-3802500D01*
X2720242Y-3826418D01*
X2706694Y-3846694D01*
X2686418Y-3860242D01*
X2662500Y-3865000D01*
X2537500Y-3865000D01*
X2513582Y-3860242D01*
X2493306Y-3846694D01*
X2479758Y-3826418D01*
X2475000Y-3802500D01*
X2475000Y-3057500D01*
X2479758Y-3033582D01*
X2493306Y-3013306D01*
X2513582Y-2999758D01*
X2537500Y-2995000D01*
X2662500Y-2995000D01*
X2686418Y-2999758D01*
G37*
G36*
X4738268Y-2957612D02*
G01*
X4770711Y-2979289D01*
X4792388Y-3011732D01*
X4800000Y-3050000D01*
X4800000Y-3310000D01*
X4792388Y-3348268D01*
X4770711Y-3380711D01*
X4738268Y-3402388D01*
X4700000Y-3410000D01*
X4500000Y-3410000D01*
X4461732Y-3402388D01*
X4429289Y-3380711D01*
X4407612Y-3348268D01*
X4400000Y-3310000D01*
X4400000Y-3050000D01*
X4407612Y-3011732D01*
X4429289Y-2979289D01*
X4461732Y-2957612D01*
X4500000Y-2950000D01*
X4700000Y-2950000D01*
X4738268Y-2957612D01*
G37*
G36*
X-4986424Y-2450657D02*
G01*
X-4941005Y-2481005D01*
X-4910657Y-2526424D01*
X-4900000Y-2580000D01*
X-4900000Y-2920000D01*
X-4910657Y-2973576D01*
X-4941005Y-3018995D01*
X-4986424Y-3049343D01*
X-5040000Y-3060000D01*
X-5320000Y-3060000D01*
X-5373576Y-3049343D01*
X-5418995Y-3018995D01*
X-5449343Y-2973576D01*
X-5460000Y-2920000D01*
X-5460000Y-2580000D01*
X-5449343Y-2526424D01*
X-5418995Y-2481005D01*
X-5373576Y-2450657D01*
X-5320000Y-2440000D01*
X-5040000Y-2440000D01*
X-4986424Y-2450657D01*
G37*
G36*
X-4026424Y-2450657D02*
G01*
X-3981005Y-2481005D01*
X-3950657Y-2526424D01*
X-3940000Y-2580000D01*
X-3940000Y-2920000D01*
X-3950657Y-2973576D01*
X-3981005Y-3018995D01*
X-4026424Y-3049343D01*
X-4080000Y-3060000D01*
X-4360000Y-3060000D01*
X-4413576Y-3049343D01*
X-4458995Y-3018995D01*
X-4489343Y-2973576D01*
X-4500000Y-2920000D01*
X-4500000Y-2580000D01*
X-4489343Y-2526424D01*
X-4458995Y-2481005D01*
X-4413576Y-2450657D01*
X-4360000Y-2440000D01*
X-4080000Y-2440000D01*
X-4026424Y-2450657D01*
G37*
G36*
X-286424Y-1870657D02*
G01*
X-241005Y-1901005D01*
X-210657Y-1946424D01*
X-200000Y-2000000D01*
X-200000Y-2340000D01*
X-210657Y-2393576D01*
X-241005Y-2438995D01*
X-286424Y-2469343D01*
X-340000Y-2480000D01*
X-620000Y-2480000D01*
X-673576Y-2469343D01*
X-718995Y-2438995D01*
X-749343Y-2393576D01*
X-760000Y-2340000D01*
X-760000Y-2000000D01*
X-749343Y-1946424D01*
X-718995Y-1901005D01*
X-673576Y-1870657D01*
X-620000Y-1860000D01*
X-340000Y-1860000D01*
X-286424Y-1870657D01*
G37*
G36*
X673576Y-1870657D02*
G01*
X718995Y-1901005D01*
X749343Y-1946424D01*
X760000Y-2000000D01*
X760000Y-2340000D01*
X749343Y-2393576D01*
X718995Y-2438995D01*
X673576Y-2469343D01*
X620000Y-2480000D01*
X340000Y-2480000D01*
X286424Y-2469343D01*
X241005Y-2438995D01*
X210657Y-2393576D01*
X200000Y-2340000D01*
X200000Y-2000000D01*
X210657Y-1946424D01*
X241005Y-1901005D01*
X286424Y-1870657D01*
X340000Y-1860000D01*
X620000Y-1860000D01*
X673576Y-1870657D01*
G37*
G36*
X-2381054Y-1841228D02*
G01*
X-2333202Y-1873202D01*
X-2301228Y-1921054D01*
X-2290000Y-1977500D01*
X-2290000Y-2322500D01*
X-2301228Y-2378946D01*
X-2333202Y-2426798D01*
X-2381054Y-2458772D01*
X-2437500Y-2470000D01*
X-2732500Y-2470000D01*
X-2788946Y-2458772D01*
X-2836798Y-2426798D01*
X-2868772Y-2378946D01*
X-2880000Y-2322500D01*
X-2880000Y-1977500D01*
X-2868772Y-1921054D01*
X-2836798Y-1873202D01*
X-2788946Y-1841228D01*
X-2732500Y-1830000D01*
X-2437500Y-1830000D01*
X-2381054Y-1841228D01*
G37*
G36*
X-1411054Y-1841228D02*
G01*
X-1363202Y-1873202D01*
X-1331228Y-1921054D01*
X-1320000Y-1977500D01*
X-1320000Y-2322500D01*
X-1331228Y-2378946D01*
X-1363202Y-2426798D01*
X-1411054Y-2458772D01*
X-1467500Y-2470000D01*
X-1762500Y-2470000D01*
X-1818946Y-2458772D01*
X-1866798Y-2426798D01*
X-1898772Y-2378946D01*
X-1910000Y-2322500D01*
X-1910000Y-1977500D01*
X-1898772Y-1921054D01*
X-1866798Y-1873202D01*
X-1818946Y-1841228D01*
X-1762500Y-1830000D01*
X-1467500Y-1830000D01*
X-1411054Y-1841228D01*
G37*
G36*
X-4062500Y-2085000D02*
G01*
X-4387500Y-2085000D01*
X-4387500Y-1435000D01*
X-4062500Y-1435000D01*
X-4062500Y-2085000D01*
G37*
G36*
X-3412500Y-2085000D02*
G01*
X-3737500Y-2085000D01*
X-3737500Y-1435000D01*
X-3412500Y-1435000D01*
X-3412500Y-2085000D01*
G37*
G36*
X-5650000Y-1950000D02*
G01*
X-5950000Y-1950000D01*
X-5950000Y-1450000D01*
X-5650000Y-1450000D01*
X-5650000Y-1950000D01*
G37*
G36*
X-4950000Y-1950000D02*
G01*
X-5250000Y-1950000D01*
X-5250000Y-1450000D01*
X-4950000Y-1450000D01*
X-4950000Y-1950000D01*
G37*
G36*
X2257403Y-586418D02*
G01*
X2306066Y-618934D01*
X2338582Y-667597D01*
X2350000Y-725000D01*
X2350000Y-1750000D01*
X2338582Y-1807403D01*
X2306066Y-1856066D01*
X2257403Y-1888582D01*
X2200000Y-1900000D01*
X1900000Y-1900000D01*
X1842597Y-1888582D01*
X1793934Y-1856066D01*
X1761418Y-1807403D01*
X1750000Y-1750000D01*
X1750000Y-725000D01*
X1761418Y-667597D01*
X1793934Y-618934D01*
X1842597Y-586418D01*
X1900000Y-575000D01*
X2200000Y-575000D01*
X2257403Y-586418D01*
G37*
G36*
X4157403Y-586418D02*
G01*
X4206066Y-618934D01*
X4238582Y-667597D01*
X4250000Y-725000D01*
X4250000Y-1750000D01*
X4238582Y-1807403D01*
X4206066Y-1856066D01*
X4157403Y-1888582D01*
X4100000Y-1900000D01*
X3800000Y-1900000D01*
X3742597Y-1888582D01*
X3693934Y-1856066D01*
X3661418Y-1807403D01*
X3650000Y-1750000D01*
X3650000Y-725000D01*
X3661418Y-667597D01*
X3693934Y-618934D01*
X3742597Y-586418D01*
X3800000Y-575000D01*
X4100000Y-575000D01*
X4157403Y-586418D01*
G37*
G36*
X5668858Y-705133D02*
G01*
X5678316Y-705133D01*
X5705563Y-712433D01*
X5774099Y-726066D01*
X5806448Y-739465D01*
X5829610Y-745672D01*
X5850377Y-757662D01*
X5882722Y-771060D01*
X5940816Y-809877D01*
X5965257Y-823988D01*
X5971946Y-830677D01*
X5980481Y-836380D01*
X6063619Y-919518D01*
X6069321Y-928052D01*
X6076012Y-934743D01*
X6090124Y-959186D01*
X6128939Y-1017277D01*
X6142335Y-1049618D01*
X6154328Y-1070390D01*
X6160535Y-1093555D01*
X6173933Y-1125900D01*
X6187565Y-1194433D01*
X6194867Y-1221684D01*
X6194867Y-1231141D01*
X6196870Y-1241211D01*
X6196870Y-1358788D01*
X6194867Y-1368857D01*
X6194867Y-1378316D01*
X6187564Y-1405569D01*
X6173933Y-1474099D01*
X6160535Y-1506441D01*
X6154328Y-1529610D01*
X6142334Y-1550383D01*
X6128939Y-1582722D01*
X6090128Y-1640805D01*
X6076012Y-1665257D01*
X6069319Y-1671949D01*
X6063619Y-1680481D01*
X5980481Y-1763619D01*
X5971949Y-1769319D01*
X5965257Y-1776012D01*
X5940805Y-1790128D01*
X5882722Y-1828939D01*
X5850383Y-1842334D01*
X5829610Y-1854328D01*
X5806441Y-1860535D01*
X5774099Y-1873933D01*
X5705569Y-1887564D01*
X5678316Y-1894867D01*
X5668858Y-1894867D01*
X5658788Y-1896870D01*
X5541212Y-1896870D01*
X5531142Y-1894867D01*
X5521684Y-1894867D01*
X5494432Y-1887564D01*
X5425900Y-1873933D01*
X5393555Y-1860535D01*
X5370390Y-1854328D01*
X5349618Y-1842335D01*
X5317277Y-1828939D01*
X5259186Y-1790124D01*
X5234743Y-1776012D01*
X5228052Y-1769321D01*
X5219518Y-1763619D01*
X5136380Y-1680481D01*
X5130677Y-1671946D01*
X5123988Y-1665257D01*
X5109877Y-1640816D01*
X5071060Y-1582722D01*
X5057662Y-1550377D01*
X5045672Y-1529610D01*
X5039465Y-1506448D01*
X5026066Y-1474099D01*
X5012433Y-1405563D01*
X5005133Y-1378316D01*
X5005133Y-1368858D01*
X5003130Y-1358788D01*
X5003130Y-1241211D01*
X5005133Y-1231140D01*
X5005133Y-1221684D01*
X5012433Y-1194439D01*
X5026066Y-1125900D01*
X5039466Y-1093548D01*
X5045672Y-1070390D01*
X5057660Y-1049624D01*
X5071060Y-1017277D01*
X5109881Y-959175D01*
X5123988Y-934743D01*
X5130675Y-928055D01*
X5136380Y-919518D01*
X5219518Y-836380D01*
X5228055Y-830675D01*
X5234743Y-823988D01*
X5259175Y-809881D01*
X5317277Y-771060D01*
X5349624Y-757660D01*
X5370390Y-745672D01*
X5393548Y-739466D01*
X5425900Y-726066D01*
X5494437Y-712433D01*
X5521684Y-705133D01*
X5531142Y-705133D01*
X5541212Y-703130D01*
X5658788Y-703130D01*
X5668858Y-705133D01*
G37*
G36*
X-711732Y-947612D02*
G01*
X-679289Y-969289D01*
X-657612Y-1001732D01*
X-650000Y-1040000D01*
X-650000Y-1300000D01*
X-657612Y-1338268D01*
X-679289Y-1370711D01*
X-711732Y-1392388D01*
X-750000Y-1400000D01*
X-950000Y-1400000D01*
X-988268Y-1392388D01*
X-1020711Y-1370711D01*
X-1042388Y-1338268D01*
X-1050000Y-1300000D01*
X-1050000Y-1040000D01*
X-1042388Y-1001732D01*
X-1020711Y-969289D01*
X-988268Y-947612D01*
X-950000Y-940000D01*
X-750000Y-940000D01*
X-711732Y-947612D01*
G37*
G36*
X988268Y-947612D02*
G01*
X1020711Y-969289D01*
X1042388Y-1001732D01*
X1050000Y-1040000D01*
X1050000Y-1300000D01*
X1042388Y-1338268D01*
X1020711Y-1370711D01*
X988268Y-1392388D01*
X950000Y-1400000D01*
X750000Y-1400000D01*
X711732Y-1392388D01*
X679289Y-1370711D01*
X657612Y-1338268D01*
X650000Y-1300000D01*
X650000Y-1040000D01*
X657612Y-1001732D01*
X679289Y-969289D01*
X711732Y-947612D01*
X750000Y-940000D01*
X950000Y-940000D01*
X988268Y-947612D01*
G37*
G36*
X-5731142Y94867D02*
G01*
X-5721684Y94867D01*
X-5694432Y87564D01*
X-5625900Y73933D01*
X-5593555Y60535D01*
X-5570390Y54328D01*
X-5549618Y42335D01*
X-5517277Y28939D01*
X-5459180Y-9879D01*
X-5434743Y-23988D01*
X-5428055Y-30675D01*
X-5419518Y-36380D01*
X-5336380Y-119518D01*
X-5330675Y-128055D01*
X-5323988Y-134743D01*
X-5309881Y-159175D01*
X-5271060Y-217277D01*
X-5257660Y-249624D01*
X-5245672Y-270390D01*
X-5239466Y-293548D01*
X-5226066Y-325900D01*
X-5212433Y-394439D01*
X-5205133Y-421684D01*
X-5205133Y-431140D01*
X-5203130Y-441211D01*
X-5203130Y-558788D01*
X-5205133Y-568858D01*
X-5205133Y-578316D01*
X-5212433Y-605563D01*
X-5226066Y-674099D01*
X-5239465Y-706448D01*
X-5245672Y-729610D01*
X-5257662Y-750377D01*
X-5271060Y-782722D01*
X-5309877Y-840816D01*
X-5323988Y-865257D01*
X-5330677Y-871946D01*
X-5336380Y-880481D01*
X-5419518Y-963619D01*
X-5428052Y-969321D01*
X-5434743Y-976012D01*
X-5459186Y-990124D01*
X-5517277Y-1028939D01*
X-5549618Y-1042335D01*
X-5570390Y-1054328D01*
X-5593555Y-1060535D01*
X-5625900Y-1073933D01*
X-5694432Y-1087564D01*
X-5721684Y-1094867D01*
X-5731142Y-1094867D01*
X-5741212Y-1096870D01*
X-5858788Y-1096870D01*
X-5868858Y-1094867D01*
X-5878316Y-1094867D01*
X-5905569Y-1087564D01*
X-5974099Y-1073933D01*
X-6006441Y-1060535D01*
X-6029610Y-1054328D01*
X-6050383Y-1042334D01*
X-6082722Y-1028939D01*
X-6140805Y-990128D01*
X-6165257Y-976012D01*
X-6171949Y-969319D01*
X-6180481Y-963619D01*
X-6263619Y-880481D01*
X-6269319Y-871949D01*
X-6276012Y-865257D01*
X-6290128Y-840805D01*
X-6328939Y-782722D01*
X-6342334Y-750383D01*
X-6354328Y-729610D01*
X-6360535Y-706441D01*
X-6373933Y-674099D01*
X-6387564Y-605569D01*
X-6394867Y-578316D01*
X-6394867Y-568857D01*
X-6396870Y-558788D01*
X-6396870Y-441211D01*
X-6394867Y-431141D01*
X-6394867Y-421684D01*
X-6387565Y-394433D01*
X-6373933Y-325900D01*
X-6360535Y-293555D01*
X-6354328Y-270390D01*
X-6342335Y-249618D01*
X-6328939Y-217277D01*
X-6290124Y-159186D01*
X-6276012Y-134743D01*
X-6269321Y-128052D01*
X-6263619Y-119518D01*
X-6180481Y-36380D01*
X-6171946Y-30677D01*
X-6165257Y-23988D01*
X-6140812Y-9874D01*
X-6082722Y28939D01*
X-6050383Y42334D01*
X-6029610Y54328D01*
X-6006441Y60535D01*
X-5974099Y73933D01*
X-5905569Y87564D01*
X-5878316Y94867D01*
X-5868858Y94867D01*
X-5858788Y96870D01*
X-5741212Y96870D01*
X-5731142Y94867D01*
G37*
G36*
X-3792597Y333582D02*
G01*
X-3743934Y301066D01*
X-3711418Y252403D01*
X-3700000Y195000D01*
X-3700000Y-830000D01*
X-3711418Y-887403D01*
X-3743934Y-936066D01*
X-3792597Y-968582D01*
X-3850000Y-980000D01*
X-4150000Y-980000D01*
X-4207403Y-968582D01*
X-4256066Y-936066D01*
X-4288582Y-887403D01*
X-4300000Y-830000D01*
X-4300000Y195000D01*
X-4288582Y252403D01*
X-4256066Y301066D01*
X-4207403Y333582D01*
X-4150000Y345000D01*
X-3850000Y345000D01*
X-3792597Y333582D01*
G37*
G36*
X-2842597Y333582D02*
G01*
X-2793934Y301066D01*
X-2761418Y252403D01*
X-2750000Y195000D01*
X-2750000Y-830000D01*
X-2761418Y-887403D01*
X-2793934Y-936066D01*
X-2842597Y-968582D01*
X-2900000Y-980000D01*
X-3200000Y-980000D01*
X-3257403Y-968582D01*
X-3306066Y-936066D01*
X-3338582Y-887403D01*
X-3350000Y-830000D01*
X-3350000Y195000D01*
X-3338582Y252403D01*
X-3306066Y301066D01*
X-3257403Y333582D01*
X-3200000Y345000D01*
X-2900000Y345000D01*
X-2842597Y333582D01*
G37*
G36*
X-1892597Y333582D02*
G01*
X-1843934Y301066D01*
X-1811418Y252403D01*
X-1800000Y195000D01*
X-1800000Y-830000D01*
X-1811418Y-887403D01*
X-1843934Y-936066D01*
X-1892597Y-968582D01*
X-1950000Y-980000D01*
X-2250000Y-980000D01*
X-2307403Y-968582D01*
X-2356066Y-936066D01*
X-2388582Y-887403D01*
X-2400000Y-830000D01*
X-2400000Y195000D01*
X-2388582Y252403D01*
X-2356066Y301066D01*
X-2307403Y333582D01*
X-2250000Y345000D01*
X-1950000Y345000D01*
X-1892597Y333582D01*
G37*
G36*
X-711732Y-307612D02*
G01*
X-679289Y-329289D01*
X-657612Y-361732D01*
X-650000Y-400000D01*
X-650000Y-660000D01*
X-657612Y-698268D01*
X-679289Y-730711D01*
X-711732Y-752388D01*
X-750000Y-760000D01*
X-950000Y-760000D01*
X-988268Y-752388D01*
X-1020711Y-730711D01*
X-1042388Y-698268D01*
X-1050000Y-660000D01*
X-1050000Y-400000D01*
X-1042388Y-361732D01*
X-1020711Y-329289D01*
X-988268Y-307612D01*
X-950000Y-300000D01*
X-750000Y-300000D01*
X-711732Y-307612D01*
G37*
G36*
X988268Y-307612D02*
G01*
X1020711Y-329289D01*
X1042388Y-361732D01*
X1050000Y-400000D01*
X1050000Y-660000D01*
X1042388Y-698268D01*
X1020711Y-730711D01*
X988268Y-752388D01*
X950000Y-760000D01*
X750000Y-760000D01*
X711732Y-752388D01*
X679289Y-730711D01*
X657612Y-698268D01*
X650000Y-660000D01*
X650000Y-400000D01*
X657612Y-361732D01*
X679289Y-329289D01*
X711732Y-307612D01*
X750000Y-300000D01*
X950000Y-300000D01*
X988268Y-307612D01*
G37*
G36*
X5250000Y-370000D02*
G01*
X4950000Y-370000D01*
X4950000Y130000D01*
X5250000Y130000D01*
X5250000Y-370000D01*
G37*
G36*
X5950000Y-370000D02*
G01*
X5650000Y-370000D01*
X5650000Y130000D01*
X5950000Y130000D01*
X5950000Y-370000D01*
G37*
G36*
X-711732Y552388D02*
G01*
X-679289Y530711D01*
X-657612Y498268D01*
X-650000Y460000D01*
X-650000Y200000D01*
X-657612Y161732D01*
X-679289Y129289D01*
X-711732Y107612D01*
X-750000Y100000D01*
X-754922Y100000D01*
X-945077Y100000D01*
X-950000Y100000D01*
X-988268Y107612D01*
X-1020711Y129289D01*
X-1042388Y161732D01*
X-1050000Y200000D01*
X-1050000Y460000D01*
X-1042388Y498268D01*
X-1020711Y530711D01*
X-988268Y552388D01*
X-950000Y560000D01*
X-750000Y560000D01*
X-711732Y552388D01*
G37*
G36*
X988268Y552388D02*
G01*
X1020711Y530711D01*
X1042388Y498268D01*
X1050000Y460000D01*
X1050000Y200000D01*
X1042388Y161732D01*
X1020711Y129289D01*
X988268Y107612D01*
X950000Y100000D01*
X945077Y100000D01*
X754922Y100000D01*
X750000Y100000D01*
X711732Y107612D01*
X679289Y129289D01*
X657612Y161732D01*
X650000Y200000D01*
X650000Y460000D01*
X657612Y498268D01*
X679289Y530711D01*
X711732Y552388D01*
X750000Y560000D01*
X950000Y560000D01*
X988268Y552388D01*
G37*
G36*
X2257403Y1688582D02*
G01*
X2306066Y1656066D01*
X2338582Y1607403D01*
X2350000Y1550000D01*
X2350000Y525000D01*
X2338582Y467597D01*
X2306066Y418934D01*
X2257403Y386418D01*
X2200000Y375000D01*
X2195076Y375000D01*
X1904922Y375000D01*
X1900000Y375000D01*
X1842597Y386418D01*
X1793934Y418934D01*
X1761418Y467597D01*
X1750000Y525000D01*
X1750000Y1550000D01*
X1761418Y1607403D01*
X1793934Y1656066D01*
X1842597Y1688582D01*
X1900000Y1700000D01*
X2200000Y1700000D01*
X2257403Y1688582D01*
G37*
G36*
X3207403Y1688582D02*
G01*
X3256066Y1656066D01*
X3288582Y1607403D01*
X3300000Y1550000D01*
X3300000Y525000D01*
X3288582Y467597D01*
X3256066Y418934D01*
X3207403Y386418D01*
X3150000Y375000D01*
X3145076Y375000D01*
X2854922Y375000D01*
X2850000Y375000D01*
X2792597Y386418D01*
X2743934Y418934D01*
X2711418Y467597D01*
X2700000Y525000D01*
X2700000Y1550000D01*
X2711418Y1607403D01*
X2743934Y1656066D01*
X2792597Y1688582D01*
X2850000Y1700000D01*
X3150000Y1700000D01*
X3207403Y1688582D01*
G37*
G36*
X4157403Y1688582D02*
G01*
X4206066Y1656066D01*
X4238582Y1607403D01*
X4250000Y1550000D01*
X4250000Y525000D01*
X4238582Y467597D01*
X4206066Y418934D01*
X4157403Y386418D01*
X4100000Y375000D01*
X4095076Y375000D01*
X3804922Y375000D01*
X3800000Y375000D01*
X3742597Y386418D01*
X3693934Y418934D01*
X3661418Y467597D01*
X3650000Y525000D01*
X3650000Y1550000D01*
X3661418Y1607403D01*
X3693934Y1656066D01*
X3742597Y1688582D01*
X3800000Y1700000D01*
X4100000Y1700000D01*
X4157403Y1688582D01*
G37*
G36*
X5768858Y1594867D02*
G01*
X5778316Y1594867D01*
X5805569Y1587564D01*
X5874099Y1573933D01*
X5906441Y1560535D01*
X5929610Y1554328D01*
X5950383Y1542334D01*
X5982722Y1528939D01*
X6040805Y1490128D01*
X6065257Y1476012D01*
X6071949Y1469319D01*
X6080481Y1463619D01*
X6163619Y1380481D01*
X6169319Y1371949D01*
X6176012Y1365257D01*
X6190128Y1340805D01*
X6228939Y1282722D01*
X6242334Y1250383D01*
X6254328Y1229610D01*
X6260535Y1206441D01*
X6273933Y1174099D01*
X6287564Y1105569D01*
X6294867Y1078316D01*
X6294867Y1068857D01*
X6296870Y1058788D01*
X6296870Y941211D01*
X6294867Y931141D01*
X6294867Y921684D01*
X6287565Y894433D01*
X6273933Y825900D01*
X6260535Y793555D01*
X6254328Y770390D01*
X6242335Y749618D01*
X6228939Y717277D01*
X6190124Y659186D01*
X6176012Y634743D01*
X6169321Y628052D01*
X6163619Y619518D01*
X6080481Y536380D01*
X6071946Y530677D01*
X6065257Y523988D01*
X6040816Y509877D01*
X5982722Y471060D01*
X5950377Y457662D01*
X5929610Y445672D01*
X5906448Y439465D01*
X5874099Y426066D01*
X5805563Y412433D01*
X5778316Y405133D01*
X5768858Y405133D01*
X5758788Y403130D01*
X5641212Y403130D01*
X5631142Y405133D01*
X5621684Y405133D01*
X5594437Y412433D01*
X5525900Y426066D01*
X5493548Y439466D01*
X5470390Y445672D01*
X5449624Y457660D01*
X5417277Y471060D01*
X5359175Y509881D01*
X5334743Y523988D01*
X5328055Y530675D01*
X5319518Y536380D01*
X5236380Y619518D01*
X5230675Y628055D01*
X5223988Y634743D01*
X5209881Y659175D01*
X5171060Y717277D01*
X5157660Y749624D01*
X5145672Y770390D01*
X5139466Y793548D01*
X5126066Y825900D01*
X5112433Y894439D01*
X5105133Y921684D01*
X5105133Y931140D01*
X5103130Y941211D01*
X5103130Y1058788D01*
X5105133Y1068858D01*
X5105133Y1078316D01*
X5112433Y1105563D01*
X5126066Y1174099D01*
X5139465Y1206448D01*
X5145672Y1229610D01*
X5157662Y1250377D01*
X5171060Y1282722D01*
X5209877Y1340816D01*
X5223988Y1365257D01*
X5230677Y1371946D01*
X5236380Y1380481D01*
X5319518Y1463619D01*
X5328052Y1469321D01*
X5334743Y1476012D01*
X5359186Y1490124D01*
X5417277Y1528939D01*
X5449618Y1542335D01*
X5470390Y1554328D01*
X5493555Y1560535D01*
X5525900Y1573933D01*
X5594432Y1587564D01*
X5621684Y1594867D01*
X5631142Y1594867D01*
X5641212Y1596870D01*
X5758788Y1596870D01*
X5768858Y1594867D01*
G37*
G36*
X-5650000Y550000D02*
G01*
X-5654924Y550000D01*
X-5945077Y550000D01*
X-5950000Y550000D01*
X-5950000Y1050000D01*
X-5650000Y1050000D01*
X-5650000Y550000D01*
G37*
G36*
X-4950000Y550000D02*
G01*
X-4954924Y550000D01*
X-5245077Y550000D01*
X-5250000Y550000D01*
X-5250000Y1050000D01*
X-4950000Y1050000D01*
X-4950000Y550000D01*
G37*
G36*
X-711732Y1192388D02*
G01*
X-679289Y1170711D01*
X-657612Y1138268D01*
X-650000Y1100000D01*
X-650000Y840000D01*
X-657612Y801732D01*
X-679289Y769289D01*
X-711732Y747612D01*
X-750000Y740000D01*
X-754922Y740000D01*
X-945077Y740000D01*
X-950000Y740000D01*
X-988268Y747612D01*
X-1020711Y769289D01*
X-1042388Y801732D01*
X-1050000Y840000D01*
X-1050000Y1100000D01*
X-1042388Y1138268D01*
X-1020711Y1170711D01*
X-988268Y1192388D01*
X-950000Y1200000D01*
X-750000Y1200000D01*
X-711732Y1192388D01*
G37*
G36*
X988268Y1192388D02*
G01*
X1020711Y1170711D01*
X1042388Y1138268D01*
X1050000Y1100000D01*
X1050000Y840000D01*
X1042388Y801732D01*
X1020711Y769289D01*
X988268Y747612D01*
X950000Y740000D01*
X945077Y740000D01*
X754922Y740000D01*
X750000Y740000D01*
X711732Y747612D01*
X679289Y769289D01*
X657612Y801732D01*
X650000Y840000D01*
X650000Y1100000D01*
X657612Y1138268D01*
X679289Y1170711D01*
X711732Y1192388D01*
X750000Y1200000D01*
X950000Y1200000D01*
X988268Y1192388D01*
G37*
G36*
X-3792597Y2608582D02*
G01*
X-3743934Y2576066D01*
X-3711418Y2527403D01*
X-3700000Y2470000D01*
X-3700000Y1445000D01*
X-3711418Y1387597D01*
X-3743934Y1338934D01*
X-3792597Y1306418D01*
X-3850000Y1295000D01*
X-3854923Y1295000D01*
X-4145077Y1295000D01*
X-4150000Y1295000D01*
X-4207403Y1306418D01*
X-4256066Y1338934D01*
X-4288582Y1387597D01*
X-4300000Y1445000D01*
X-4300000Y2470000D01*
X-4288582Y2527403D01*
X-4256066Y2576066D01*
X-4207403Y2608582D01*
X-4150000Y2620000D01*
X-3850000Y2620000D01*
X-3792597Y2608582D01*
G37*
G36*
X-1892597Y2608582D02*
G01*
X-1843934Y2576066D01*
X-1811418Y2527403D01*
X-1800000Y2470000D01*
X-1800000Y1445000D01*
X-1811418Y1387597D01*
X-1843934Y1338934D01*
X-1892597Y1306418D01*
X-1950000Y1295000D01*
X-1954923Y1295000D01*
X-2245077Y1295000D01*
X-2250000Y1295000D01*
X-2307403Y1306418D01*
X-2356066Y1338934D01*
X-2388582Y1387597D01*
X-2400000Y1445000D01*
X-2400000Y2470000D01*
X-2388582Y2527403D01*
X-2356066Y2576066D01*
X-2307403Y2608582D01*
X-2250000Y2620000D01*
X-1950000Y2620000D01*
X-1892597Y2608582D01*
G37*
G36*
X-5421142Y2594867D02*
G01*
X-5411684Y2594867D01*
X-5384432Y2587564D01*
X-5315900Y2573933D01*
X-5283555Y2560535D01*
X-5260390Y2554328D01*
X-5239618Y2542335D01*
X-5207277Y2528939D01*
X-5149186Y2490124D01*
X-5124743Y2476012D01*
X-5118052Y2469321D01*
X-5109518Y2463619D01*
X-5026380Y2380481D01*
X-5020677Y2371946D01*
X-5013988Y2365257D01*
X-4999877Y2340816D01*
X-4961060Y2282722D01*
X-4947662Y2250377D01*
X-4935672Y2229610D01*
X-4929465Y2206448D01*
X-4916066Y2174099D01*
X-4902433Y2105563D01*
X-4895133Y2078316D01*
X-4895133Y2068858D01*
X-4893130Y2058788D01*
X-4893130Y1941211D01*
X-4895133Y1931140D01*
X-4895133Y1921684D01*
X-4902433Y1894439D01*
X-4916066Y1825900D01*
X-4929466Y1793548D01*
X-4935672Y1770390D01*
X-4947660Y1749624D01*
X-4961060Y1717277D01*
X-4999881Y1659175D01*
X-5013988Y1634743D01*
X-5020675Y1628055D01*
X-5026380Y1619518D01*
X-5109518Y1536380D01*
X-5118055Y1530675D01*
X-5124743Y1523988D01*
X-5149175Y1509881D01*
X-5207277Y1471060D01*
X-5239624Y1457660D01*
X-5260390Y1445672D01*
X-5283548Y1439466D01*
X-5315900Y1426066D01*
X-5384437Y1412433D01*
X-5411684Y1405133D01*
X-5421142Y1405133D01*
X-5431212Y1403130D01*
X-5548788Y1403130D01*
X-5558858Y1405133D01*
X-5568316Y1405133D01*
X-5595563Y1412433D01*
X-5664099Y1426066D01*
X-5696448Y1439465D01*
X-5719610Y1445672D01*
X-5740377Y1457662D01*
X-5772722Y1471060D01*
X-5830816Y1509877D01*
X-5855257Y1523988D01*
X-5861946Y1530677D01*
X-5870481Y1536380D01*
X-5953619Y1619518D01*
X-5959321Y1628052D01*
X-5966012Y1634743D01*
X-5980124Y1659186D01*
X-6018939Y1717277D01*
X-6032335Y1749618D01*
X-6044328Y1770390D01*
X-6050535Y1793555D01*
X-6063933Y1825900D01*
X-6077565Y1894433D01*
X-6084867Y1921684D01*
X-6084867Y1931141D01*
X-6086870Y1941211D01*
X-6086870Y2058788D01*
X-6084867Y2068857D01*
X-6084867Y2078316D01*
X-6077564Y2105569D01*
X-6063933Y2174099D01*
X-6050535Y2206441D01*
X-6044328Y2229610D01*
X-6032334Y2250383D01*
X-6018939Y2282722D01*
X-5980128Y2340805D01*
X-5966012Y2365257D01*
X-5959319Y2371949D01*
X-5953619Y2380481D01*
X-5870481Y2463619D01*
X-5861949Y2469319D01*
X-5855257Y2476012D01*
X-5830805Y2490128D01*
X-5772722Y2528939D01*
X-5740383Y2542334D01*
X-5719610Y2554328D01*
X-5696441Y2560535D01*
X-5664099Y2573933D01*
X-5595569Y2587564D01*
X-5568316Y2594867D01*
X-5558858Y2594867D01*
X-5548788Y2596870D01*
X-5431212Y2596870D01*
X-5421142Y2594867D01*
G37*
G36*
X5150000Y1850000D02*
G01*
X5145075Y1850000D01*
X4854922Y1850000D01*
X4850000Y1850000D01*
X4850000Y2350000D01*
X5150000Y2350000D01*
X5150000Y1850000D01*
G37*
G36*
X5850000Y1850000D02*
G01*
X5845075Y1850000D01*
X5554922Y1850000D01*
X5550000Y1850000D01*
X5550000Y2350000D01*
X5850000Y2350000D01*
X5850000Y1850000D01*
G37*
G36*
X2753073Y2969552D02*
G01*
X2843505Y2917341D01*
X2917341Y2843505D01*
X2969552Y2753073D01*
X2996578Y2652210D01*
X2996578Y2547790D01*
X2969552Y2446927D01*
X2917341Y2356495D01*
X2843505Y2282659D01*
X2753073Y2230448D01*
X2652210Y2203422D01*
X2547790Y2203422D01*
X2446927Y2230448D01*
X2356495Y2282659D01*
X2282659Y2356495D01*
X2230448Y2446927D01*
X2203422Y2547790D01*
X2203422Y2652210D01*
X2230448Y2753073D01*
X2282659Y2843505D01*
X2356495Y2917341D01*
X2446927Y2969552D01*
X2547790Y2996578D01*
X2652210Y2996578D01*
X2753073Y2969552D01*
G37*
G36*
X3853073Y2969552D02*
G01*
X3943505Y2917341D01*
X4017341Y2843505D01*
X4069552Y2753073D01*
X4096578Y2652210D01*
X4096578Y2547790D01*
X4069552Y2446927D01*
X4017341Y2356495D01*
X3943505Y2282659D01*
X3853073Y2230448D01*
X3752210Y2203422D01*
X3647790Y2203422D01*
X3546927Y2230448D01*
X3456495Y2282659D01*
X3382659Y2356495D01*
X3330448Y2446927D01*
X3303422Y2547790D01*
X3303422Y2652210D01*
X3330448Y2753073D01*
X3382659Y2843505D01*
X3456495Y2917341D01*
X3546927Y2969552D01*
X3647790Y2996578D01*
X3752210Y2996578D01*
X3853073Y2969552D01*
G37*
G36*
X-576464Y2853536D02*
G01*
X-575000Y2850000D01*
X-575000Y2350000D01*
X-576464Y2346464D01*
X-580000Y2345000D01*
X-589946Y2345000D01*
X-870054Y2345000D01*
X-880000Y2345000D01*
X-883536Y2346464D01*
X-885000Y2350000D01*
X-885000Y2700000D01*
X-883536Y2703536D01*
X-733536Y2853536D01*
X-730000Y2855000D01*
X-580000Y2855000D01*
X-576464Y2853536D01*
G37*
G36*
X1273536Y2853536D02*
G01*
X1423536Y2703536D01*
X1425000Y2700000D01*
X1425000Y2350000D01*
X1423536Y2346464D01*
X1420000Y2345000D01*
X1410054Y2345000D01*
X1129946Y2345000D01*
X1120000Y2345000D01*
X1116464Y2346464D01*
X1115000Y2350000D01*
X1115000Y2850000D01*
X1116464Y2853536D01*
X1120000Y2855000D01*
X1270000Y2855000D01*
X1273536Y2853536D01*
G37*
G36*
X-80000Y2350000D02*
G01*
X-84924Y2350000D01*
X-375077Y2350000D01*
X-380000Y2350000D01*
X-380000Y3050000D01*
X-80000Y3050000D01*
X-80000Y2350000D01*
G37*
G36*
X420000Y2350000D02*
G01*
X415075Y2350000D01*
X124922Y2350000D01*
X120000Y2350000D01*
X120000Y3050000D01*
X420000Y3050000D01*
X420000Y2350000D01*
G37*
G36*
X920000Y2350000D02*
G01*
X915075Y2350000D01*
X624922Y2350000D01*
X620000Y2350000D01*
X620000Y3050000D01*
X920000Y3050000D01*
X920000Y2350000D01*
G37*
G36*
X-4696927Y3469552D02*
G01*
X-4606495Y3417341D01*
X-4532659Y3343505D01*
X-4480448Y3253073D01*
X-4453422Y3152210D01*
X-4453422Y3047790D01*
X-4480448Y2946927D01*
X-4532659Y2856495D01*
X-4606495Y2782659D01*
X-4696927Y2730448D01*
X-4797790Y2703422D01*
X-4902210Y2703422D01*
X-5003073Y2730448D01*
X-5093505Y2782659D01*
X-5167341Y2856495D01*
X-5219552Y2946927D01*
X-5246578Y3047790D01*
X-5246578Y3152210D01*
X-5219552Y3253073D01*
X-5167341Y3343505D01*
X-5093505Y3417341D01*
X-5003073Y3469552D01*
X-4902210Y3496578D01*
X-4797790Y3496578D01*
X-4696927Y3469552D01*
G37*
G36*
X-876464Y3153536D02*
G01*
X-875000Y3150000D01*
X-875000Y3000000D01*
X-876464Y2996464D01*
X-1026464Y2846464D01*
X-1030000Y2845000D01*
X-1039946Y2845000D01*
X-1370054Y2845000D01*
X-1380000Y2845000D01*
X-1383536Y2846464D01*
X-1385000Y2850000D01*
X-1385000Y3150000D01*
X-1383536Y3153536D01*
X-1380000Y3155000D01*
X-880000Y3155000D01*
X-876464Y3153536D01*
G37*
G36*
X1923536Y3153536D02*
G01*
X1925000Y3150000D01*
X1925000Y2850000D01*
X1923536Y2846464D01*
X1920000Y2845000D01*
X1910054Y2845000D01*
X1579946Y2845000D01*
X1570000Y2845000D01*
X1566464Y2846464D01*
X1416464Y2996464D01*
X1415000Y3000000D01*
X1415000Y3150000D01*
X1416464Y3153536D01*
X1420000Y3155000D01*
X1920000Y3155000D01*
X1923536Y3153536D01*
G37*
G36*
X5008268Y3302388D02*
G01*
X5040711Y3280711D01*
X5062388Y3248268D01*
X5070000Y3210000D01*
X5070000Y2950000D01*
X5062388Y2911732D01*
X5040711Y2879289D01*
X5008268Y2857612D01*
X4970000Y2850000D01*
X4965077Y2850000D01*
X4774922Y2850000D01*
X4770000Y2850000D01*
X4731732Y2857612D01*
X4699289Y2879289D01*
X4677612Y2911732D01*
X4670000Y2950000D01*
X4670000Y3210000D01*
X4677612Y3248268D01*
X4699289Y3280711D01*
X4731732Y3302388D01*
X4770000Y3310000D01*
X4970000Y3310000D01*
X5008268Y3302388D01*
G37*
G36*
X2850000Y3150000D02*
G01*
X2845075Y3150000D01*
X2354922Y3150000D01*
X2350000Y3150000D01*
X2350000Y3450000D01*
X2850000Y3450000D01*
X2850000Y3150000D01*
G37*
G36*
X-3151732Y3592388D02*
G01*
X-3119289Y3570711D01*
X-3097612Y3538268D01*
X-3090000Y3500000D01*
X-3090000Y3300000D01*
X-3097612Y3261732D01*
X-3119289Y3229289D01*
X-3151732Y3207612D01*
X-3190000Y3200000D01*
X-3194922Y3200000D01*
X-3445077Y3200000D01*
X-3450000Y3200000D01*
X-3488268Y3207612D01*
X-3520711Y3229289D01*
X-3542388Y3261732D01*
X-3550000Y3300000D01*
X-3550000Y3500000D01*
X-3542388Y3538268D01*
X-3520711Y3570711D01*
X-3488268Y3592388D01*
X-3450000Y3600000D01*
X-3190000Y3600000D01*
X-3151732Y3592388D01*
G37*
G36*
X-2511732Y3592388D02*
G01*
X-2479289Y3570711D01*
X-2457612Y3538268D01*
X-2450000Y3500000D01*
X-2450000Y3300000D01*
X-2457612Y3261732D01*
X-2479289Y3229289D01*
X-2511732Y3207612D01*
X-2550000Y3200000D01*
X-2554922Y3200000D01*
X-2805077Y3200000D01*
X-2810000Y3200000D01*
X-2848268Y3207612D01*
X-2880711Y3229289D01*
X-2902388Y3261732D01*
X-2910000Y3300000D01*
X-2910000Y3500000D01*
X-2902388Y3538268D01*
X-2880711Y3570711D01*
X-2848268Y3592388D01*
X-2810000Y3600000D01*
X-2550000Y3600000D01*
X-2511732Y3592388D01*
G37*
G36*
X-680000Y3350000D02*
G01*
X-684924Y3350000D01*
X-1375077Y3350000D01*
X-1380000Y3350000D01*
X-1380000Y3650000D01*
X-680000Y3650000D01*
X-680000Y3350000D01*
G37*
G36*
X1920000Y3350000D02*
G01*
X1915075Y3350000D01*
X1224922Y3350000D01*
X1220000Y3350000D01*
X1220000Y3650000D01*
X1920000Y3650000D01*
X1920000Y3350000D01*
G37*
G36*
X5008268Y3942388D02*
G01*
X5040711Y3920711D01*
X5062388Y3888268D01*
X5070000Y3850000D01*
X5070000Y3590000D01*
X5062388Y3551732D01*
X5040711Y3519289D01*
X5008268Y3497612D01*
X4970000Y3490000D01*
X4965077Y3490000D01*
X4774922Y3490000D01*
X4770000Y3490000D01*
X4731732Y3497612D01*
X4699289Y3519289D01*
X4677612Y3551732D01*
X4670000Y3590000D01*
X4670000Y3850000D01*
X4677612Y3888268D01*
X4699289Y3920711D01*
X4731732Y3942388D01*
X4770000Y3950000D01*
X4970000Y3950000D01*
X5008268Y3942388D01*
G37*
G36*
X3950000Y3500000D02*
G01*
X3945075Y3500000D01*
X3454922Y3500000D01*
X3450000Y3500000D01*
X3450000Y3800000D01*
X3950000Y3800000D01*
X3950000Y3500000D01*
G37*
G36*
X-3950000Y3650000D02*
G01*
X-3954924Y3650000D01*
X-4445077Y3650000D01*
X-4450000Y3650000D01*
X-4450000Y3950000D01*
X-3950000Y3950000D01*
X-3950000Y3650000D01*
G37*
G36*
X-680000Y3850000D02*
G01*
X-684924Y3850000D01*
X-1375077Y3850000D01*
X-1380000Y3850000D01*
X-1380000Y4150000D01*
X-680000Y4150000D01*
X-680000Y3850000D01*
G37*
G36*
X1920000Y3850000D02*
G01*
X1915075Y3850000D01*
X1224922Y3850000D01*
X1220000Y3850000D01*
X1220000Y4150000D01*
X1920000Y4150000D01*
X1920000Y3850000D01*
G37*
G36*
X2850000Y3850000D02*
G01*
X2845075Y3850000D01*
X2354922Y3850000D01*
X2350000Y3850000D01*
X2350000Y4150000D01*
X2850000Y4150000D01*
X2850000Y3850000D01*
G37*
G36*
X-2851732Y4542388D02*
G01*
X-2819289Y4520711D01*
X-2797612Y4488268D01*
X-2790000Y4450000D01*
X-2790000Y4250000D01*
X-2797612Y4211732D01*
X-2819289Y4179289D01*
X-2851732Y4157612D01*
X-2890000Y4150000D01*
X-2894922Y4150000D01*
X-3145077Y4150000D01*
X-3150000Y4150000D01*
X-3188268Y4157612D01*
X-3220711Y4179289D01*
X-3242388Y4211732D01*
X-3250000Y4250000D01*
X-3250000Y4450000D01*
X-3242388Y4488268D01*
X-3220711Y4520711D01*
X-3188268Y4542388D01*
X-3150000Y4550000D01*
X-2890000Y4550000D01*
X-2851732Y4542388D01*
G37*
G36*
X-2211732Y4542388D02*
G01*
X-2179289Y4520711D01*
X-2157612Y4488268D01*
X-2150000Y4450000D01*
X-2150000Y4250000D01*
X-2157612Y4211732D01*
X-2179289Y4179289D01*
X-2211732Y4157612D01*
X-2250000Y4150000D01*
X-2254922Y4150000D01*
X-2505077Y4150000D01*
X-2510000Y4150000D01*
X-2548268Y4157612D01*
X-2580711Y4179289D01*
X-2602388Y4211732D01*
X-2610000Y4250000D01*
X-2610000Y4450000D01*
X-2602388Y4488268D01*
X-2580711Y4520711D01*
X-2548268Y4542388D01*
X-2510000Y4550000D01*
X-2250000Y4550000D01*
X-2211732Y4542388D01*
G37*
G36*
X3950000Y4200000D02*
G01*
X3945075Y4200000D01*
X3454922Y4200000D01*
X3450000Y4200000D01*
X3450000Y4500000D01*
X3950000Y4500000D01*
X3950000Y4200000D01*
G37*
G36*
X-3950000Y4350000D02*
G01*
X-3954924Y4350000D01*
X-4445077Y4350000D01*
X-4450000Y4350000D01*
X-4450000Y4650000D01*
X-3950000Y4650000D01*
X-3950000Y4350000D01*
G37*
G36*
X-680000Y4350000D02*
G01*
X-684924Y4350000D01*
X-1375077Y4350000D01*
X-1380000Y4350000D01*
X-1380000Y4650000D01*
X-680000Y4650000D01*
X-680000Y4350000D01*
G37*
G36*
X1920000Y4350000D02*
G01*
X1915075Y4350000D01*
X1224922Y4350000D01*
X1220000Y4350000D01*
X1220000Y4650000D01*
X1920000Y4650000D01*
X1920000Y4350000D01*
G37*
G36*
X2588268Y5002388D02*
G01*
X2620711Y4980711D01*
X2642388Y4948268D01*
X2650000Y4910000D01*
X2650000Y4650000D01*
X2642388Y4611732D01*
X2620711Y4579289D01*
X2588268Y4557612D01*
X2550000Y4550000D01*
X2545077Y4550000D01*
X2354922Y4550000D01*
X2350000Y4550000D01*
X2311732Y4557612D01*
X2279289Y4579289D01*
X2257612Y4611732D01*
X2250000Y4650000D01*
X2250000Y4910000D01*
X2257612Y4948268D01*
X2279289Y4980711D01*
X2311732Y5002388D01*
X2350000Y5010000D01*
X2550000Y5010000D01*
X2588268Y5002388D01*
G37*
G36*
X-1026464Y5153536D02*
G01*
X-876464Y5003536D01*
X-875000Y5000000D01*
X-875000Y4850000D01*
X-876464Y4846464D01*
X-880000Y4845000D01*
X-889946Y4845000D01*
X-1370054Y4845000D01*
X-1380000Y4845000D01*
X-1383536Y4846464D01*
X-1385000Y4850000D01*
X-1385000Y5150000D01*
X-1383536Y5153536D01*
X-1380000Y5155000D01*
X-1030000Y5155000D01*
X-1026464Y5153536D01*
G37*
G36*
X1923536Y5153536D02*
G01*
X1925000Y5150000D01*
X1925000Y4850000D01*
X1923536Y4846464D01*
X1920000Y4845000D01*
X1910054Y4845000D01*
X1429946Y4845000D01*
X1420000Y4845000D01*
X1416464Y4846464D01*
X1415000Y4850000D01*
X1415000Y5000000D01*
X1416464Y5003536D01*
X1566464Y5153536D01*
X1570000Y5155000D01*
X1920000Y5155000D01*
X1923536Y5153536D01*
G37*
G36*
X-80000Y4950000D02*
G01*
X-84924Y4950000D01*
X-375077Y4950000D01*
X-380000Y4950000D01*
X-380000Y5650000D01*
X-80000Y5650000D01*
X-80000Y4950000D01*
G37*
G36*
X420000Y4950000D02*
G01*
X415075Y4950000D01*
X124922Y4950000D01*
X120000Y4950000D01*
X120000Y5650000D01*
X420000Y5650000D01*
X420000Y4950000D01*
G37*
G36*
X920000Y4950000D02*
G01*
X915075Y4950000D01*
X624922Y4950000D01*
X620000Y4950000D01*
X620000Y5650000D01*
X920000Y5650000D01*
X920000Y4950000D01*
G37*
G36*
X-576464Y5653536D02*
G01*
X-575000Y5650000D01*
X-575000Y5150000D01*
X-576464Y5146464D01*
X-580000Y5145000D01*
X-589946Y5145000D01*
X-720054Y5145000D01*
X-730000Y5145000D01*
X-733536Y5146464D01*
X-883536Y5296464D01*
X-885000Y5300000D01*
X-885000Y5650000D01*
X-883536Y5653536D01*
X-880000Y5655000D01*
X-580000Y5655000D01*
X-576464Y5653536D01*
G37*
G36*
X1423536Y5653536D02*
G01*
X1425000Y5650000D01*
X1425000Y5300000D01*
X1423536Y5296464D01*
X1273536Y5146464D01*
X1270000Y5145000D01*
X1260054Y5145000D01*
X1129946Y5145000D01*
X1120000Y5145000D01*
X1116464Y5146464D01*
X1115000Y5150000D01*
X1115000Y5650000D01*
X1116464Y5653536D01*
X1120000Y5655000D01*
X1420000Y5655000D01*
X1423536Y5653536D01*
G37*
G36*
X2588268Y5642388D02*
G01*
X2620711Y5620711D01*
X2642388Y5588268D01*
X2650000Y5550000D01*
X2650000Y5290000D01*
X2642388Y5251732D01*
X2620711Y5219289D01*
X2588268Y5197612D01*
X2550000Y5190000D01*
X2545077Y5190000D01*
X2354922Y5190000D01*
X2350000Y5190000D01*
X2311732Y5197612D01*
X2279289Y5219289D01*
X2257612Y5251732D01*
X2250000Y5290000D01*
X2250000Y5550000D01*
X2257612Y5588268D01*
X2279289Y5620711D01*
X2311732Y5642388D01*
X2350000Y5650000D01*
X2550000Y5650000D01*
X2588268Y5642388D01*
G37*
M02*
