%TF.GenerationSoftware,KiCad,Pcbnew,10.0.6+dfsg-1*%
%TF.CreationDate,2026-10-01T08:04:58+00:00*%
%TF.ProjectId,ppg_pcb_v08,7070675f-7063-4625-9f76-30382e6b6963,rev?*%
%TF.SameCoordinates,Original*%
%TF.FileFunction,AssemblyDrawing,Bot*%
%FSLAX46Y46*%
G04 Gerber Fmt 4.6, Leading zero omitted, Abs format (unit mm)*
G04 Created by KiCad (PCBNEW 10.0.6+dfsg-1) date 2026-10-01 08:04:58*
%MOMM*%
%LPD*%
G01*
G04 APERTURE LIST*
%ADD10C,0.080000*%
%ADD11C,0.110000*%
%ADD12C,0.040000*%
%ADD13C,0.100000*%
G04 APERTURE END LIST*
D10*
X-5466666Y272850D02*
X-5300000Y510945D01*
X-5180952Y272850D02*
X-5180952Y772850D01*
X-5180952Y772850D02*
X-5371428Y772850D01*
X-5371428Y772850D02*
X-5419047Y749040D01*
X-5419047Y749040D02*
X-5442857Y725231D01*
X-5442857Y725231D02*
X-5466666Y677612D01*
X-5466666Y677612D02*
X-5466666Y606183D01*
X-5466666Y606183D02*
X-5442857Y558564D01*
X-5442857Y558564D02*
X-5419047Y534755D01*
X-5419047Y534755D02*
X-5371428Y510945D01*
X-5371428Y510945D02*
X-5180952Y510945D01*
X-5633333Y772850D02*
X-5966666Y272850D01*
X-5966666Y772850D02*
X-5633333Y272850D01*
X-6157142Y272850D02*
X-6157142Y772850D01*
X-6157142Y772850D02*
X-6347618Y772850D01*
X-6347618Y772850D02*
X-6395237Y749040D01*
X-6395237Y749040D02*
X-6419047Y725231D01*
X-6419047Y725231D02*
X-6442856Y677612D01*
X-6442856Y677612D02*
X-6442856Y606183D01*
X-6442856Y606183D02*
X-6419047Y558564D01*
X-6419047Y558564D02*
X-6395237Y534755D01*
X-6395237Y534755D02*
X-6347618Y510945D01*
X-6347618Y510945D02*
X-6157142Y510945D01*
X-5144761Y2772850D02*
X-4978095Y3010945D01*
X-4859047Y2772850D02*
X-4859047Y3272850D01*
X-4859047Y3272850D02*
X-5049523Y3272850D01*
X-5049523Y3272850D02*
X-5097142Y3249040D01*
X-5097142Y3249040D02*
X-5120952Y3225231D01*
X-5120952Y3225231D02*
X-5144761Y3177612D01*
X-5144761Y3177612D02*
X-5144761Y3106183D01*
X-5144761Y3106183D02*
X-5120952Y3058564D01*
X-5120952Y3058564D02*
X-5097142Y3034755D01*
X-5097142Y3034755D02*
X-5049523Y3010945D01*
X-5049523Y3010945D02*
X-4859047Y3010945D01*
X-5311428Y3272850D02*
X-5644761Y2772850D01*
X-5644761Y3272850D02*
X-5311428Y2772850D01*
X-5835237Y2772850D02*
X-5835237Y3272850D01*
X-5835237Y3272850D02*
X-6120951Y2772850D01*
X-6120951Y2772850D02*
X-6120951Y3272850D01*
X-4028571Y3872850D02*
X-4028571Y4372850D01*
X-4028571Y4372850D02*
X-4314285Y3872850D01*
X-4314285Y3872850D02*
X-4314285Y4372850D01*
X-4838095Y3872850D02*
X-4671429Y4110945D01*
X-4552381Y3872850D02*
X-4552381Y4372850D01*
X-4552381Y4372850D02*
X-4742857Y4372850D01*
X-4742857Y4372850D02*
X-4790476Y4349040D01*
X-4790476Y4349040D02*
X-4814286Y4325231D01*
X-4814286Y4325231D02*
X-4838095Y4277612D01*
X-4838095Y4277612D02*
X-4838095Y4206183D01*
X-4838095Y4206183D02*
X-4814286Y4158564D01*
X-4814286Y4158564D02*
X-4790476Y4134755D01*
X-4790476Y4134755D02*
X-4742857Y4110945D01*
X-4742857Y4110945D02*
X-4552381Y4110945D01*
X-5028572Y3896660D02*
X-5100000Y3872850D01*
X-5100000Y3872850D02*
X-5219048Y3872850D01*
X-5219048Y3872850D02*
X-5266667Y3896660D01*
X-5266667Y3896660D02*
X-5290476Y3920469D01*
X-5290476Y3920469D02*
X-5314286Y3968088D01*
X-5314286Y3968088D02*
X-5314286Y4015707D01*
X-5314286Y4015707D02*
X-5290476Y4063326D01*
X-5290476Y4063326D02*
X-5266667Y4087136D01*
X-5266667Y4087136D02*
X-5219048Y4110945D01*
X-5219048Y4110945D02*
X-5123810Y4134755D01*
X-5123810Y4134755D02*
X-5076191Y4158564D01*
X-5076191Y4158564D02*
X-5052381Y4182374D01*
X-5052381Y4182374D02*
X-5028572Y4229993D01*
X-5028572Y4229993D02*
X-5028572Y4277612D01*
X-5028572Y4277612D02*
X-5052381Y4325231D01*
X-5052381Y4325231D02*
X-5076191Y4349040D01*
X-5076191Y4349040D02*
X-5123810Y4372850D01*
X-5123810Y4372850D02*
X-5242857Y4372850D01*
X-5242857Y4372850D02*
X-5314286Y4349040D01*
X-5457143Y4372850D02*
X-5742857Y4372850D01*
X-5600000Y3872850D02*
X-5600000Y4372850D01*
X-4080477Y-3077149D02*
X-3794763Y-3077149D01*
X-3937620Y-3077149D02*
X-3937620Y-2577149D01*
X-3937620Y-2577149D02*
X-3890001Y-2648578D01*
X-3890001Y-2648578D02*
X-3842382Y-2696197D01*
X-3842382Y-2696197D02*
X-3794763Y-2720006D01*
X-4270953Y-2624768D02*
X-4294762Y-2600959D01*
X-4294762Y-2600959D02*
X-4342381Y-2577149D01*
X-4342381Y-2577149D02*
X-4461429Y-2577149D01*
X-4461429Y-2577149D02*
X-4509048Y-2600959D01*
X-4509048Y-2600959D02*
X-4532857Y-2624768D01*
X-4532857Y-2624768D02*
X-4556667Y-2672387D01*
X-4556667Y-2672387D02*
X-4556667Y-2720006D01*
X-4556667Y-2720006D02*
X-4532857Y-2791435D01*
X-4532857Y-2791435D02*
X-4247143Y-3077149D01*
X-4247143Y-3077149D02*
X-4556667Y-3077149D01*
X-4699524Y-2577149D02*
X-4866190Y-3077149D01*
X-4866190Y-3077149D02*
X-5032857Y-2577149D01*
X380952Y-4600959D02*
X428571Y-4577149D01*
X428571Y-4577149D02*
X500000Y-4577149D01*
X500000Y-4577149D02*
X571428Y-4600959D01*
X571428Y-4600959D02*
X619047Y-4648578D01*
X619047Y-4648578D02*
X642857Y-4696197D01*
X642857Y-4696197D02*
X666666Y-4791435D01*
X666666Y-4791435D02*
X666666Y-4862863D01*
X666666Y-4862863D02*
X642857Y-4958101D01*
X642857Y-4958101D02*
X619047Y-5005720D01*
X619047Y-5005720D02*
X571428Y-5053340D01*
X571428Y-5053340D02*
X500000Y-5077149D01*
X500000Y-5077149D02*
X452381Y-5077149D01*
X452381Y-5077149D02*
X380952Y-5053340D01*
X380952Y-5053340D02*
X357143Y-5029530D01*
X357143Y-5029530D02*
X357143Y-4862863D01*
X357143Y-4862863D02*
X452381Y-4862863D01*
X142857Y-5077149D02*
X142857Y-4577149D01*
X142857Y-4577149D02*
X-142856Y-5077149D01*
X-142856Y-5077149D02*
X-142856Y-4577149D01*
X-380952Y-5077149D02*
X-380952Y-4577149D01*
X-380952Y-4577149D02*
X-500000Y-4577149D01*
X-500000Y-4577149D02*
X-571428Y-4600959D01*
X-571428Y-4600959D02*
X-619047Y-4648578D01*
X-619047Y-4648578D02*
X-642857Y-4696197D01*
X-642857Y-4696197D02*
X-666666Y-4791435D01*
X-666666Y-4791435D02*
X-666666Y-4862863D01*
X-666666Y-4862863D02*
X-642857Y-4958101D01*
X-642857Y-4958101D02*
X-619047Y-5005720D01*
X-619047Y-5005720D02*
X-571428Y-5053340D01*
X-571428Y-5053340D02*
X-500000Y-5077149D01*
X-500000Y-5077149D02*
X-380952Y-5077149D01*
X3547616Y-6803340D02*
X3476188Y-6827149D01*
X3476188Y-6827149D02*
X3357140Y-6827149D01*
X3357140Y-6827149D02*
X3309521Y-6803340D01*
X3309521Y-6803340D02*
X3285712Y-6779530D01*
X3285712Y-6779530D02*
X3261902Y-6731911D01*
X3261902Y-6731911D02*
X3261902Y-6684292D01*
X3261902Y-6684292D02*
X3285712Y-6636673D01*
X3285712Y-6636673D02*
X3309521Y-6612863D01*
X3309521Y-6612863D02*
X3357140Y-6589054D01*
X3357140Y-6589054D02*
X3452378Y-6565244D01*
X3452378Y-6565244D02*
X3499997Y-6541435D01*
X3499997Y-6541435D02*
X3523807Y-6517625D01*
X3523807Y-6517625D02*
X3547616Y-6470006D01*
X3547616Y-6470006D02*
X3547616Y-6422387D01*
X3547616Y-6422387D02*
X3523807Y-6374768D01*
X3523807Y-6374768D02*
X3499997Y-6350959D01*
X3499997Y-6350959D02*
X3452378Y-6327149D01*
X3452378Y-6327149D02*
X3333331Y-6327149D01*
X3333331Y-6327149D02*
X3261902Y-6350959D01*
X2976188Y-6827149D02*
X3023807Y-6803340D01*
X3023807Y-6803340D02*
X3047617Y-6755720D01*
X3047617Y-6755720D02*
X3047617Y-6327149D01*
X2595236Y-6803340D02*
X2642855Y-6827149D01*
X2642855Y-6827149D02*
X2738093Y-6827149D01*
X2738093Y-6827149D02*
X2785712Y-6803340D01*
X2785712Y-6803340D02*
X2809521Y-6755720D01*
X2809521Y-6755720D02*
X2809521Y-6565244D01*
X2809521Y-6565244D02*
X2785712Y-6517625D01*
X2785712Y-6517625D02*
X2738093Y-6493816D01*
X2738093Y-6493816D02*
X2642855Y-6493816D01*
X2642855Y-6493816D02*
X2595236Y-6517625D01*
X2595236Y-6517625D02*
X2571426Y-6565244D01*
X2571426Y-6565244D02*
X2571426Y-6612863D01*
X2571426Y-6612863D02*
X2809521Y-6660482D01*
X2166665Y-6803340D02*
X2214284Y-6827149D01*
X2214284Y-6827149D02*
X2309522Y-6827149D01*
X2309522Y-6827149D02*
X2357141Y-6803340D01*
X2357141Y-6803340D02*
X2380950Y-6755720D01*
X2380950Y-6755720D02*
X2380950Y-6565244D01*
X2380950Y-6565244D02*
X2357141Y-6517625D01*
X2357141Y-6517625D02*
X2309522Y-6493816D01*
X2309522Y-6493816D02*
X2214284Y-6493816D01*
X2214284Y-6493816D02*
X2166665Y-6517625D01*
X2166665Y-6517625D02*
X2142855Y-6565244D01*
X2142855Y-6565244D02*
X2142855Y-6612863D01*
X2142855Y-6612863D02*
X2380950Y-6660482D01*
X1928570Y-6493816D02*
X1928570Y-6993816D01*
X1928570Y-6517625D02*
X1880951Y-6493816D01*
X1880951Y-6493816D02*
X1785713Y-6493816D01*
X1785713Y-6493816D02*
X1738094Y-6517625D01*
X1738094Y-6517625D02*
X1714284Y-6541435D01*
X1714284Y-6541435D02*
X1690475Y-6589054D01*
X1690475Y-6589054D02*
X1690475Y-6731911D01*
X1690475Y-6731911D02*
X1714284Y-6779530D01*
X1714284Y-6779530D02*
X1738094Y-6803340D01*
X1738094Y-6803340D02*
X1785713Y-6827149D01*
X1785713Y-6827149D02*
X1880951Y-6827149D01*
X1880951Y-6827149D02*
X1928570Y-6803340D01*
X1309522Y-6565244D02*
X1238094Y-6589054D01*
X1238094Y-6589054D02*
X1214284Y-6612863D01*
X1214284Y-6612863D02*
X1190475Y-6660482D01*
X1190475Y-6660482D02*
X1190475Y-6731911D01*
X1190475Y-6731911D02*
X1214284Y-6779530D01*
X1214284Y-6779530D02*
X1238094Y-6803340D01*
X1238094Y-6803340D02*
X1285713Y-6827149D01*
X1285713Y-6827149D02*
X1476189Y-6827149D01*
X1476189Y-6827149D02*
X1476189Y-6327149D01*
X1476189Y-6327149D02*
X1309522Y-6327149D01*
X1309522Y-6327149D02*
X1261903Y-6350959D01*
X1261903Y-6350959D02*
X1238094Y-6374768D01*
X1238094Y-6374768D02*
X1214284Y-6422387D01*
X1214284Y-6422387D02*
X1214284Y-6470006D01*
X1214284Y-6470006D02*
X1238094Y-6517625D01*
X1238094Y-6517625D02*
X1261903Y-6541435D01*
X1261903Y-6541435D02*
X1309522Y-6565244D01*
X1309522Y-6565244D02*
X1476189Y-6565244D01*
X761903Y-6493816D02*
X761903Y-6827149D01*
X976189Y-6493816D02*
X976189Y-6755720D01*
X976189Y-6755720D02*
X952379Y-6803340D01*
X952379Y-6803340D02*
X904760Y-6827149D01*
X904760Y-6827149D02*
X833332Y-6827149D01*
X833332Y-6827149D02*
X785713Y-6803340D01*
X785713Y-6803340D02*
X761903Y-6779530D01*
X309522Y-6827149D02*
X309522Y-6327149D01*
X309522Y-6803340D02*
X357141Y-6827149D01*
X357141Y-6827149D02*
X452379Y-6827149D01*
X452379Y-6827149D02*
X499998Y-6803340D01*
X499998Y-6803340D02*
X523808Y-6779530D01*
X523808Y-6779530D02*
X547617Y-6731911D01*
X547617Y-6731911D02*
X547617Y-6589054D01*
X547617Y-6589054D02*
X523808Y-6541435D01*
X523808Y-6541435D02*
X499998Y-6517625D01*
X499998Y-6517625D02*
X452379Y-6493816D01*
X452379Y-6493816D02*
X357141Y-6493816D01*
X357141Y-6493816D02*
X309522Y-6517625D01*
X-309524Y-6827149D02*
X-309524Y-6327149D01*
X-309524Y-6327149D02*
X-500000Y-6327149D01*
X-500000Y-6327149D02*
X-547619Y-6350959D01*
X-547619Y-6350959D02*
X-571429Y-6374768D01*
X-571429Y-6374768D02*
X-595238Y-6422387D01*
X-595238Y-6422387D02*
X-595238Y-6493816D01*
X-595238Y-6493816D02*
X-571429Y-6541435D01*
X-571429Y-6541435D02*
X-547619Y-6565244D01*
X-547619Y-6565244D02*
X-500000Y-6589054D01*
X-500000Y-6589054D02*
X-309524Y-6589054D01*
X-809524Y-6827149D02*
X-809524Y-6327149D01*
X-809524Y-6327149D02*
X-1000000Y-6327149D01*
X-1000000Y-6327149D02*
X-1047619Y-6350959D01*
X-1047619Y-6350959D02*
X-1071429Y-6374768D01*
X-1071429Y-6374768D02*
X-1095238Y-6422387D01*
X-1095238Y-6422387D02*
X-1095238Y-6493816D01*
X-1095238Y-6493816D02*
X-1071429Y-6541435D01*
X-1071429Y-6541435D02*
X-1047619Y-6565244D01*
X-1047619Y-6565244D02*
X-1000000Y-6589054D01*
X-1000000Y-6589054D02*
X-809524Y-6589054D01*
X-1571429Y-6350959D02*
X-1523810Y-6327149D01*
X-1523810Y-6327149D02*
X-1452381Y-6327149D01*
X-1452381Y-6327149D02*
X-1380953Y-6350959D01*
X-1380953Y-6350959D02*
X-1333334Y-6398578D01*
X-1333334Y-6398578D02*
X-1309524Y-6446197D01*
X-1309524Y-6446197D02*
X-1285715Y-6541435D01*
X-1285715Y-6541435D02*
X-1285715Y-6612863D01*
X-1285715Y-6612863D02*
X-1309524Y-6708101D01*
X-1309524Y-6708101D02*
X-1333334Y-6755720D01*
X-1333334Y-6755720D02*
X-1380953Y-6803340D01*
X-1380953Y-6803340D02*
X-1452381Y-6827149D01*
X-1452381Y-6827149D02*
X-1500000Y-6827149D01*
X-1500000Y-6827149D02*
X-1571429Y-6803340D01*
X-1571429Y-6803340D02*
X-1595238Y-6779530D01*
X-1595238Y-6779530D02*
X-1595238Y-6612863D01*
X-1595238Y-6612863D02*
X-1500000Y-6612863D01*
X-2142857Y-6493816D02*
X-2261905Y-6827149D01*
X-2261905Y-6827149D02*
X-2380952Y-6493816D01*
X-2666666Y-6327149D02*
X-2714285Y-6327149D01*
X-2714285Y-6327149D02*
X-2761904Y-6350959D01*
X-2761904Y-6350959D02*
X-2785714Y-6374768D01*
X-2785714Y-6374768D02*
X-2809523Y-6422387D01*
X-2809523Y-6422387D02*
X-2833333Y-6517625D01*
X-2833333Y-6517625D02*
X-2833333Y-6636673D01*
X-2833333Y-6636673D02*
X-2809523Y-6731911D01*
X-2809523Y-6731911D02*
X-2785714Y-6779530D01*
X-2785714Y-6779530D02*
X-2761904Y-6803340D01*
X-2761904Y-6803340D02*
X-2714285Y-6827149D01*
X-2714285Y-6827149D02*
X-2666666Y-6827149D01*
X-2666666Y-6827149D02*
X-2619047Y-6803340D01*
X-2619047Y-6803340D02*
X-2595238Y-6779530D01*
X-2595238Y-6779530D02*
X-2571428Y-6731911D01*
X-2571428Y-6731911D02*
X-2547619Y-6636673D01*
X-2547619Y-6636673D02*
X-2547619Y-6517625D01*
X-2547619Y-6517625D02*
X-2571428Y-6422387D01*
X-2571428Y-6422387D02*
X-2595238Y-6374768D01*
X-2595238Y-6374768D02*
X-2619047Y-6350959D01*
X-2619047Y-6350959D02*
X-2666666Y-6327149D01*
X-3047618Y-6779530D02*
X-3071428Y-6803340D01*
X-3071428Y-6803340D02*
X-3047618Y-6827149D01*
X-3047618Y-6827149D02*
X-3023809Y-6803340D01*
X-3023809Y-6803340D02*
X-3047618Y-6779530D01*
X-3047618Y-6779530D02*
X-3047618Y-6827149D01*
X-3357142Y-6541435D02*
X-3309523Y-6517625D01*
X-3309523Y-6517625D02*
X-3285713Y-6493816D01*
X-3285713Y-6493816D02*
X-3261904Y-6446197D01*
X-3261904Y-6446197D02*
X-3261904Y-6422387D01*
X-3261904Y-6422387D02*
X-3285713Y-6374768D01*
X-3285713Y-6374768D02*
X-3309523Y-6350959D01*
X-3309523Y-6350959D02*
X-3357142Y-6327149D01*
X-3357142Y-6327149D02*
X-3452380Y-6327149D01*
X-3452380Y-6327149D02*
X-3499999Y-6350959D01*
X-3499999Y-6350959D02*
X-3523808Y-6374768D01*
X-3523808Y-6374768D02*
X-3547618Y-6422387D01*
X-3547618Y-6422387D02*
X-3547618Y-6446197D01*
X-3547618Y-6446197D02*
X-3523808Y-6493816D01*
X-3523808Y-6493816D02*
X-3499999Y-6517625D01*
X-3499999Y-6517625D02*
X-3452380Y-6541435D01*
X-3452380Y-6541435D02*
X-3357142Y-6541435D01*
X-3357142Y-6541435D02*
X-3309523Y-6565244D01*
X-3309523Y-6565244D02*
X-3285713Y-6589054D01*
X-3285713Y-6589054D02*
X-3261904Y-6636673D01*
X-3261904Y-6636673D02*
X-3261904Y-6731911D01*
X-3261904Y-6731911D02*
X-3285713Y-6779530D01*
X-3285713Y-6779530D02*
X-3309523Y-6803340D01*
X-3309523Y-6803340D02*
X-3357142Y-6827149D01*
X-3357142Y-6827149D02*
X-3452380Y-6827149D01*
X-3452380Y-6827149D02*
X-3499999Y-6803340D01*
X-3499999Y-6803340D02*
X-3523808Y-6779530D01*
X-3523808Y-6779530D02*
X-3547618Y-6731911D01*
X-3547618Y-6731911D02*
X-3547618Y-6636673D01*
X-3547618Y-6636673D02*
X-3523808Y-6589054D01*
X-3523808Y-6589054D02*
X-3499999Y-6565244D01*
X-3499999Y-6565244D02*
X-3452380Y-6541435D01*
X3659523Y3396660D02*
X3588095Y3372850D01*
X3588095Y3372850D02*
X3469047Y3372850D01*
X3469047Y3372850D02*
X3421428Y3396660D01*
X3421428Y3396660D02*
X3397619Y3420469D01*
X3397619Y3420469D02*
X3373809Y3468088D01*
X3373809Y3468088D02*
X3373809Y3515707D01*
X3373809Y3515707D02*
X3397619Y3563326D01*
X3397619Y3563326D02*
X3421428Y3587136D01*
X3421428Y3587136D02*
X3469047Y3610945D01*
X3469047Y3610945D02*
X3564285Y3634755D01*
X3564285Y3634755D02*
X3611904Y3658564D01*
X3611904Y3658564D02*
X3635714Y3682374D01*
X3635714Y3682374D02*
X3659523Y3729993D01*
X3659523Y3729993D02*
X3659523Y3777612D01*
X3659523Y3777612D02*
X3635714Y3825231D01*
X3635714Y3825231D02*
X3611904Y3849040D01*
X3611904Y3849040D02*
X3564285Y3872850D01*
X3564285Y3872850D02*
X3445238Y3872850D01*
X3445238Y3872850D02*
X3373809Y3849040D01*
X3207143Y3872850D02*
X3088095Y3372850D01*
X3088095Y3372850D02*
X2992857Y3729993D01*
X2992857Y3729993D02*
X2897619Y3372850D01*
X2897619Y3372850D02*
X2778572Y3872850D01*
X2588095Y3372850D02*
X2588095Y3872850D01*
X2588095Y3872850D02*
X2469047Y3872850D01*
X2469047Y3872850D02*
X2397619Y3849040D01*
X2397619Y3849040D02*
X2350000Y3801421D01*
X2350000Y3801421D02*
X2326190Y3753802D01*
X2326190Y3753802D02*
X2302381Y3658564D01*
X2302381Y3658564D02*
X2302381Y3587136D01*
X2302381Y3587136D02*
X2326190Y3491898D01*
X2326190Y3491898D02*
X2350000Y3444279D01*
X2350000Y3444279D02*
X2397619Y3396660D01*
X2397619Y3396660D02*
X2469047Y3372850D01*
X2469047Y3372850D02*
X2588095Y3372850D01*
X2088095Y3372850D02*
X2088095Y3872850D01*
X1754762Y3872850D02*
X1659524Y3872850D01*
X1659524Y3872850D02*
X1611905Y3849040D01*
X1611905Y3849040D02*
X1564286Y3801421D01*
X1564286Y3801421D02*
X1540476Y3706183D01*
X1540476Y3706183D02*
X1540476Y3539517D01*
X1540476Y3539517D02*
X1564286Y3444279D01*
X1564286Y3444279D02*
X1611905Y3396660D01*
X1611905Y3396660D02*
X1659524Y3372850D01*
X1659524Y3372850D02*
X1754762Y3372850D01*
X1754762Y3372850D02*
X1802381Y3396660D01*
X1802381Y3396660D02*
X1850000Y3444279D01*
X1850000Y3444279D02*
X1873809Y3539517D01*
X1873809Y3539517D02*
X1873809Y3706183D01*
X1873809Y3706183D02*
X1850000Y3801421D01*
X1850000Y3801421D02*
X1802381Y3849040D01*
X1802381Y3849040D02*
X1754762Y3872850D01*
X4830951Y3396660D02*
X4759523Y3372850D01*
X4759523Y3372850D02*
X4640475Y3372850D01*
X4640475Y3372850D02*
X4592856Y3396660D01*
X4592856Y3396660D02*
X4569047Y3420469D01*
X4569047Y3420469D02*
X4545237Y3468088D01*
X4545237Y3468088D02*
X4545237Y3515707D01*
X4545237Y3515707D02*
X4569047Y3563326D01*
X4569047Y3563326D02*
X4592856Y3587136D01*
X4592856Y3587136D02*
X4640475Y3610945D01*
X4640475Y3610945D02*
X4735713Y3634755D01*
X4735713Y3634755D02*
X4783332Y3658564D01*
X4783332Y3658564D02*
X4807142Y3682374D01*
X4807142Y3682374D02*
X4830951Y3729993D01*
X4830951Y3729993D02*
X4830951Y3777612D01*
X4830951Y3777612D02*
X4807142Y3825231D01*
X4807142Y3825231D02*
X4783332Y3849040D01*
X4783332Y3849040D02*
X4735713Y3872850D01*
X4735713Y3872850D02*
X4616666Y3872850D01*
X4616666Y3872850D02*
X4545237Y3849040D01*
X4378571Y3872850D02*
X4259523Y3372850D01*
X4259523Y3372850D02*
X4164285Y3729993D01*
X4164285Y3729993D02*
X4069047Y3372850D01*
X4069047Y3372850D02*
X3950000Y3872850D01*
X3473809Y3420469D02*
X3497618Y3396660D01*
X3497618Y3396660D02*
X3569047Y3372850D01*
X3569047Y3372850D02*
X3616666Y3372850D01*
X3616666Y3372850D02*
X3688094Y3396660D01*
X3688094Y3396660D02*
X3735713Y3444279D01*
X3735713Y3444279D02*
X3759523Y3491898D01*
X3759523Y3491898D02*
X3783332Y3587136D01*
X3783332Y3587136D02*
X3783332Y3658564D01*
X3783332Y3658564D02*
X3759523Y3753802D01*
X3759523Y3753802D02*
X3735713Y3801421D01*
X3735713Y3801421D02*
X3688094Y3849040D01*
X3688094Y3849040D02*
X3616666Y3872850D01*
X3616666Y3872850D02*
X3569047Y3872850D01*
X3569047Y3872850D02*
X3497618Y3849040D01*
X3497618Y3849040D02*
X3473809Y3825231D01*
X3021428Y3372850D02*
X3259523Y3372850D01*
X3259523Y3372850D02*
X3259523Y3872850D01*
X2854761Y3372850D02*
X2854761Y3872850D01*
X2569047Y3372850D02*
X2783332Y3658564D01*
X2569047Y3872850D02*
X2854761Y3587136D01*
X6230951Y-27149D02*
X5945237Y-27149D01*
X6088094Y-527149D02*
X6088094Y-27149D01*
X5826190Y-27149D02*
X5492857Y-527149D01*
X5492857Y-27149D02*
X5826190Y-527149D01*
X5302381Y-527149D02*
X5302381Y-27149D01*
X5302381Y-27149D02*
X5111905Y-27149D01*
X5111905Y-27149D02*
X5064286Y-50959D01*
X5064286Y-50959D02*
X5040476Y-74768D01*
X5040476Y-74768D02*
X5016667Y-122387D01*
X5016667Y-122387D02*
X5016667Y-193816D01*
X5016667Y-193816D02*
X5040476Y-241435D01*
X5040476Y-241435D02*
X5064286Y-265244D01*
X5064286Y-265244D02*
X5111905Y-289054D01*
X5111905Y-289054D02*
X5302381Y-289054D01*
X6342856Y2272850D02*
X6057142Y2272850D01*
X6199999Y1772850D02*
X6199999Y2272850D01*
X5938095Y2272850D02*
X5604762Y1772850D01*
X5604762Y2272850D02*
X5938095Y1772850D01*
X5414286Y1772850D02*
X5414286Y2272850D01*
X5414286Y2272850D02*
X5128572Y1772850D01*
X5128572Y1772850D02*
X5128572Y2272850D01*
X-3530952Y-3087149D02*
X-3530952Y-2587149D01*
X-3530952Y-2587149D02*
X-3650000Y-2587149D01*
X-3650000Y-2587149D02*
X-3721428Y-2610959D01*
X-3721428Y-2610959D02*
X-3769047Y-2658578D01*
X-3769047Y-2658578D02*
X-3792857Y-2706197D01*
X-3792857Y-2706197D02*
X-3816666Y-2801435D01*
X-3816666Y-2801435D02*
X-3816666Y-2872863D01*
X-3816666Y-2872863D02*
X-3792857Y-2968101D01*
X-3792857Y-2968101D02*
X-3769047Y-3015720D01*
X-3769047Y-3015720D02*
X-3721428Y-3063340D01*
X-3721428Y-3063340D02*
X-3650000Y-3087149D01*
X-3650000Y-3087149D02*
X-3530952Y-3087149D01*
X-4292857Y-3087149D02*
X-4007143Y-3087149D01*
X-4150000Y-3087149D02*
X-4150000Y-2587149D01*
X-4150000Y-2587149D02*
X-4102381Y-2658578D01*
X-4102381Y-2658578D02*
X-4054762Y-2706197D01*
X-4054762Y-2706197D02*
X-4007143Y-2730006D01*
X-922850Y1200952D02*
X-518088Y1200952D01*
X-518088Y1200952D02*
X-470469Y1177142D01*
X-470469Y1177142D02*
X-446660Y1153333D01*
X-446660Y1153333D02*
X-422850Y1105714D01*
X-422850Y1105714D02*
X-422850Y1010476D01*
X-422850Y1010476D02*
X-446660Y962857D01*
X-446660Y962857D02*
X-470469Y939047D01*
X-470469Y939047D02*
X-518088Y915238D01*
X-518088Y915238D02*
X-922850Y915238D01*
X-922850Y462856D02*
X-922850Y558094D01*
X-922850Y558094D02*
X-899040Y605713D01*
X-899040Y605713D02*
X-875231Y629523D01*
X-875231Y629523D02*
X-803802Y677142D01*
X-803802Y677142D02*
X-708564Y700951D01*
X-708564Y700951D02*
X-518088Y700951D01*
X-518088Y700951D02*
X-470469Y677142D01*
X-470469Y677142D02*
X-446660Y653332D01*
X-446660Y653332D02*
X-422850Y605713D01*
X-422850Y605713D02*
X-422850Y510475D01*
X-422850Y510475D02*
X-446660Y462856D01*
X-446660Y462856D02*
X-470469Y439047D01*
X-470469Y439047D02*
X-518088Y415237D01*
X-518088Y415237D02*
X-637136Y415237D01*
X-637136Y415237D02*
X-684755Y439047D01*
X-684755Y439047D02*
X-708564Y462856D01*
X-708564Y462856D02*
X-732374Y510475D01*
X-732374Y510475D02*
X-732374Y605713D01*
X-732374Y605713D02*
X-708564Y653332D01*
X-708564Y653332D02*
X-684755Y677142D01*
X-684755Y677142D02*
X-637136Y700951D01*
D11*
X-2501428Y1212634D02*
X-2501428Y629777D01*
X-2501428Y629777D02*
X-2535714Y561205D01*
X-2535714Y561205D02*
X-2570000Y526920D01*
X-2570000Y526920D02*
X-2638571Y492634D01*
X-2638571Y492634D02*
X-2775714Y492634D01*
X-2775714Y492634D02*
X-2844285Y526920D01*
X-2844285Y526920D02*
X-2878571Y561205D01*
X-2878571Y561205D02*
X-2912857Y629777D01*
X-2912857Y629777D02*
X-2912857Y1212634D01*
X-3564286Y1212634D02*
X-3427143Y1212634D01*
X-3427143Y1212634D02*
X-3358571Y1178348D01*
X-3358571Y1178348D02*
X-3324286Y1144062D01*
X-3324286Y1144062D02*
X-3255714Y1041205D01*
X-3255714Y1041205D02*
X-3221428Y904062D01*
X-3221428Y904062D02*
X-3221428Y629777D01*
X-3221428Y629777D02*
X-3255714Y561205D01*
X-3255714Y561205D02*
X-3290000Y526920D01*
X-3290000Y526920D02*
X-3358571Y492634D01*
X-3358571Y492634D02*
X-3495714Y492634D01*
X-3495714Y492634D02*
X-3564286Y526920D01*
X-3564286Y526920D02*
X-3598571Y561205D01*
X-3598571Y561205D02*
X-3632857Y629777D01*
X-3632857Y629777D02*
X-3632857Y801205D01*
X-3632857Y801205D02*
X-3598571Y869777D01*
X-3598571Y869777D02*
X-3564286Y904062D01*
X-3564286Y904062D02*
X-3495714Y938348D01*
X-3495714Y938348D02*
X-3358571Y938348D01*
X-3358571Y938348D02*
X-3290000Y904062D01*
X-3290000Y904062D02*
X-3255714Y869777D01*
X-3255714Y869777D02*
X-3221428Y801205D01*
D10*
X5829530Y-3178571D02*
X5853340Y-3154762D01*
X5853340Y-3154762D02*
X5877149Y-3083333D01*
X5877149Y-3083333D02*
X5877149Y-3035714D01*
X5877149Y-3035714D02*
X5853340Y-2964286D01*
X5853340Y-2964286D02*
X5805720Y-2916667D01*
X5805720Y-2916667D02*
X5758101Y-2892857D01*
X5758101Y-2892857D02*
X5662863Y-2869048D01*
X5662863Y-2869048D02*
X5591435Y-2869048D01*
X5591435Y-2869048D02*
X5496197Y-2892857D01*
X5496197Y-2892857D02*
X5448578Y-2916667D01*
X5448578Y-2916667D02*
X5400959Y-2964286D01*
X5400959Y-2964286D02*
X5377149Y-3035714D01*
X5377149Y-3035714D02*
X5377149Y-3083333D01*
X5377149Y-3083333D02*
X5400959Y-3154762D01*
X5400959Y-3154762D02*
X5424768Y-3178571D01*
X5877149Y-3654762D02*
X5877149Y-3369048D01*
X5877149Y-3511905D02*
X5377149Y-3511905D01*
X5377149Y-3511905D02*
X5448578Y-3464286D01*
X5448578Y-3464286D02*
X5496197Y-3416667D01*
X5496197Y-3416667D02*
X5520006Y-3369048D01*
X5543816Y-4083333D02*
X5877149Y-4083333D01*
X5353340Y-3964285D02*
X5710482Y-3845238D01*
X5710482Y-3845238D02*
X5710482Y-4154761D01*
D12*
X5369765Y-3339285D02*
X5381670Y-3327381D01*
X5381670Y-3327381D02*
X5393574Y-3291666D01*
X5393574Y-3291666D02*
X5393574Y-3267857D01*
X5393574Y-3267857D02*
X5381670Y-3232143D01*
X5381670Y-3232143D02*
X5357860Y-3208333D01*
X5357860Y-3208333D02*
X5334050Y-3196428D01*
X5334050Y-3196428D02*
X5286431Y-3184524D01*
X5286431Y-3184524D02*
X5250717Y-3184524D01*
X5250717Y-3184524D02*
X5203098Y-3196428D01*
X5203098Y-3196428D02*
X5179289Y-3208333D01*
X5179289Y-3208333D02*
X5155479Y-3232143D01*
X5155479Y-3232143D02*
X5143574Y-3267857D01*
X5143574Y-3267857D02*
X5143574Y-3291666D01*
X5143574Y-3291666D02*
X5155479Y-3327381D01*
X5155479Y-3327381D02*
X5167384Y-3339285D01*
X5393574Y-3577381D02*
X5393574Y-3434524D01*
X5393574Y-3505952D02*
X5143574Y-3505952D01*
X5143574Y-3505952D02*
X5179289Y-3482143D01*
X5179289Y-3482143D02*
X5203098Y-3458333D01*
X5203098Y-3458333D02*
X5215003Y-3434524D01*
X5226908Y-3791666D02*
X5393574Y-3791666D01*
X5131670Y-3732142D02*
X5310241Y-3672619D01*
X5310241Y-3672619D02*
X5310241Y-3827380D01*
D10*
X427149Y733333D02*
X189054Y899999D01*
X427149Y1019047D02*
X-72850Y1019047D01*
X-72850Y1019047D02*
X-72850Y828571D01*
X-72850Y828571D02*
X-49040Y780952D01*
X-49040Y780952D02*
X-25231Y757142D01*
X-25231Y757142D02*
X22387Y733333D01*
X22387Y733333D02*
X93816Y733333D01*
X93816Y733333D02*
X141435Y757142D01*
X141435Y757142D02*
X165244Y780952D01*
X165244Y780952D02*
X189054Y828571D01*
X189054Y828571D02*
X189054Y1019047D01*
X427149Y257142D02*
X427149Y542856D01*
X427149Y399999D02*
X-72850Y399999D01*
X-72850Y399999D02*
X-1421Y447618D01*
X-1421Y447618D02*
X46197Y495237D01*
X46197Y495237D02*
X70006Y542856D01*
D12*
X-56425Y691666D02*
X-175472Y774999D01*
X-56425Y834523D02*
X-306425Y834523D01*
X-306425Y834523D02*
X-306425Y739285D01*
X-306425Y739285D02*
X-294520Y715475D01*
X-294520Y715475D02*
X-282615Y703570D01*
X-282615Y703570D02*
X-258806Y691666D01*
X-258806Y691666D02*
X-223091Y691666D01*
X-223091Y691666D02*
X-199282Y703570D01*
X-199282Y703570D02*
X-187377Y715475D01*
X-187377Y715475D02*
X-175472Y739285D01*
X-175472Y739285D02*
X-175472Y834523D01*
X-56425Y453570D02*
X-56425Y596427D01*
X-56425Y524999D02*
X-306425Y524999D01*
X-306425Y524999D02*
X-270710Y548808D01*
X-270710Y548808D02*
X-246901Y572618D01*
X-246901Y572618D02*
X-234996Y596427D01*
D10*
X-2916666Y4270469D02*
X-2892857Y4246660D01*
X-2892857Y4246660D02*
X-2821428Y4222850D01*
X-2821428Y4222850D02*
X-2773809Y4222850D01*
X-2773809Y4222850D02*
X-2702381Y4246660D01*
X-2702381Y4246660D02*
X-2654762Y4294279D01*
X-2654762Y4294279D02*
X-2630952Y4341898D01*
X-2630952Y4341898D02*
X-2607143Y4437136D01*
X-2607143Y4437136D02*
X-2607143Y4508564D01*
X-2607143Y4508564D02*
X-2630952Y4603802D01*
X-2630952Y4603802D02*
X-2654762Y4651421D01*
X-2654762Y4651421D02*
X-2702381Y4699040D01*
X-2702381Y4699040D02*
X-2773809Y4722850D01*
X-2773809Y4722850D02*
X-2821428Y4722850D01*
X-2821428Y4722850D02*
X-2892857Y4699040D01*
X-2892857Y4699040D02*
X-2916666Y4675231D01*
X-3083333Y4722850D02*
X-3416666Y4722850D01*
X-3416666Y4722850D02*
X-3202381Y4222850D01*
D12*
X-2958333Y3990234D02*
X-2946429Y3978330D01*
X-2946429Y3978330D02*
X-2910714Y3966425D01*
X-2910714Y3966425D02*
X-2886905Y3966425D01*
X-2886905Y3966425D02*
X-2851191Y3978330D01*
X-2851191Y3978330D02*
X-2827381Y4002139D01*
X-2827381Y4002139D02*
X-2815476Y4025949D01*
X-2815476Y4025949D02*
X-2803572Y4073568D01*
X-2803572Y4073568D02*
X-2803572Y4109282D01*
X-2803572Y4109282D02*
X-2815476Y4156901D01*
X-2815476Y4156901D02*
X-2827381Y4180710D01*
X-2827381Y4180710D02*
X-2851191Y4204520D01*
X-2851191Y4204520D02*
X-2886905Y4216425D01*
X-2886905Y4216425D02*
X-2910714Y4216425D01*
X-2910714Y4216425D02*
X-2946429Y4204520D01*
X-2946429Y4204520D02*
X-2958333Y4192615D01*
X-3041667Y4216425D02*
X-3208333Y4216425D01*
X-3208333Y4216425D02*
X-3101191Y3966425D01*
D10*
X3679530Y5421428D02*
X3703340Y5445237D01*
X3703340Y5445237D02*
X3727149Y5516666D01*
X3727149Y5516666D02*
X3727149Y5564285D01*
X3727149Y5564285D02*
X3703340Y5635713D01*
X3703340Y5635713D02*
X3655720Y5683332D01*
X3655720Y5683332D02*
X3608101Y5707142D01*
X3608101Y5707142D02*
X3512863Y5730951D01*
X3512863Y5730951D02*
X3441435Y5730951D01*
X3441435Y5730951D02*
X3346197Y5707142D01*
X3346197Y5707142D02*
X3298578Y5683332D01*
X3298578Y5683332D02*
X3250959Y5635713D01*
X3250959Y5635713D02*
X3227149Y5564285D01*
X3227149Y5564285D02*
X3227149Y5516666D01*
X3227149Y5516666D02*
X3250959Y5445237D01*
X3250959Y5445237D02*
X3274768Y5421428D01*
X3727149Y4945237D02*
X3727149Y5230951D01*
X3727149Y5088094D02*
X3227149Y5088094D01*
X3227149Y5088094D02*
X3298578Y5135713D01*
X3298578Y5135713D02*
X3346197Y5183332D01*
X3346197Y5183332D02*
X3370006Y5230951D01*
X3274768Y4754761D02*
X3250959Y4730952D01*
X3250959Y4730952D02*
X3227149Y4683333D01*
X3227149Y4683333D02*
X3227149Y4564285D01*
X3227149Y4564285D02*
X3250959Y4516666D01*
X3250959Y4516666D02*
X3274768Y4492857D01*
X3274768Y4492857D02*
X3322387Y4469047D01*
X3322387Y4469047D02*
X3370006Y4469047D01*
X3370006Y4469047D02*
X3441435Y4492857D01*
X3441435Y4492857D02*
X3727149Y4778571D01*
X3727149Y4778571D02*
X3727149Y4469047D01*
D12*
X3219765Y5260714D02*
X3231670Y5272618D01*
X3231670Y5272618D02*
X3243574Y5308333D01*
X3243574Y5308333D02*
X3243574Y5332142D01*
X3243574Y5332142D02*
X3231670Y5367856D01*
X3231670Y5367856D02*
X3207860Y5391666D01*
X3207860Y5391666D02*
X3184050Y5403571D01*
X3184050Y5403571D02*
X3136431Y5415475D01*
X3136431Y5415475D02*
X3100717Y5415475D01*
X3100717Y5415475D02*
X3053098Y5403571D01*
X3053098Y5403571D02*
X3029289Y5391666D01*
X3029289Y5391666D02*
X3005479Y5367856D01*
X3005479Y5367856D02*
X2993574Y5332142D01*
X2993574Y5332142D02*
X2993574Y5308333D01*
X2993574Y5308333D02*
X3005479Y5272618D01*
X3005479Y5272618D02*
X3017384Y5260714D01*
X3243574Y5022618D02*
X3243574Y5165475D01*
X3243574Y5094047D02*
X2993574Y5094047D01*
X2993574Y5094047D02*
X3029289Y5117856D01*
X3029289Y5117856D02*
X3053098Y5141666D01*
X3053098Y5141666D02*
X3065003Y5165475D01*
X3017384Y4927380D02*
X3005479Y4915476D01*
X3005479Y4915476D02*
X2993574Y4891666D01*
X2993574Y4891666D02*
X2993574Y4832142D01*
X2993574Y4832142D02*
X3005479Y4808333D01*
X3005479Y4808333D02*
X3017384Y4796428D01*
X3017384Y4796428D02*
X3041193Y4784523D01*
X3041193Y4784523D02*
X3065003Y4784523D01*
X3065003Y4784523D02*
X3100717Y4796428D01*
X3100717Y4796428D02*
X3243574Y4939285D01*
X3243574Y4939285D02*
X3243574Y4784523D01*
D10*
X5027149Y4369047D02*
X4527149Y4369047D01*
X4527149Y4369047D02*
X4527149Y4249999D01*
X4527149Y4249999D02*
X4550959Y4178571D01*
X4550959Y4178571D02*
X4598578Y4130952D01*
X4598578Y4130952D02*
X4646197Y4107142D01*
X4646197Y4107142D02*
X4741435Y4083333D01*
X4741435Y4083333D02*
X4812863Y4083333D01*
X4812863Y4083333D02*
X4908101Y4107142D01*
X4908101Y4107142D02*
X4955720Y4130952D01*
X4955720Y4130952D02*
X5003340Y4178571D01*
X5003340Y4178571D02*
X5027149Y4249999D01*
X5027149Y4249999D02*
X5027149Y4369047D01*
X4527149Y3916666D02*
X4527149Y3583333D01*
X4527149Y3583333D02*
X5027149Y3797618D01*
X2127149Y733333D02*
X1889054Y899999D01*
X2127149Y1019047D02*
X1627149Y1019047D01*
X1627149Y1019047D02*
X1627149Y828571D01*
X1627149Y828571D02*
X1650959Y780952D01*
X1650959Y780952D02*
X1674768Y757142D01*
X1674768Y757142D02*
X1722387Y733333D01*
X1722387Y733333D02*
X1793816Y733333D01*
X1793816Y733333D02*
X1841435Y757142D01*
X1841435Y757142D02*
X1865244Y780952D01*
X1865244Y780952D02*
X1889054Y828571D01*
X1889054Y828571D02*
X1889054Y1019047D01*
X1674768Y542856D02*
X1650959Y519047D01*
X1650959Y519047D02*
X1627149Y471428D01*
X1627149Y471428D02*
X1627149Y352380D01*
X1627149Y352380D02*
X1650959Y304761D01*
X1650959Y304761D02*
X1674768Y280952D01*
X1674768Y280952D02*
X1722387Y257142D01*
X1722387Y257142D02*
X1770006Y257142D01*
X1770006Y257142D02*
X1841435Y280952D01*
X1841435Y280952D02*
X2127149Y566666D01*
X2127149Y566666D02*
X2127149Y257142D01*
D12*
X1643574Y691666D02*
X1524527Y774999D01*
X1643574Y834523D02*
X1393574Y834523D01*
X1393574Y834523D02*
X1393574Y739285D01*
X1393574Y739285D02*
X1405479Y715475D01*
X1405479Y715475D02*
X1417384Y703570D01*
X1417384Y703570D02*
X1441193Y691666D01*
X1441193Y691666D02*
X1476908Y691666D01*
X1476908Y691666D02*
X1500717Y703570D01*
X1500717Y703570D02*
X1512622Y715475D01*
X1512622Y715475D02*
X1524527Y739285D01*
X1524527Y739285D02*
X1524527Y834523D01*
X1417384Y596427D02*
X1405479Y584523D01*
X1405479Y584523D02*
X1393574Y560713D01*
X1393574Y560713D02*
X1393574Y501189D01*
X1393574Y501189D02*
X1405479Y477380D01*
X1405479Y477380D02*
X1417384Y465475D01*
X1417384Y465475D02*
X1441193Y453570D01*
X1441193Y453570D02*
X1465003Y453570D01*
X1465003Y453570D02*
X1500717Y465475D01*
X1500717Y465475D02*
X1643574Y608332D01*
X1643574Y608332D02*
X1643574Y453570D01*
D10*
X-4378571Y-1769530D02*
X-4354762Y-1793340D01*
X-4354762Y-1793340D02*
X-4283333Y-1817149D01*
X-4283333Y-1817149D02*
X-4235714Y-1817149D01*
X-4235714Y-1817149D02*
X-4164286Y-1793340D01*
X-4164286Y-1793340D02*
X-4116667Y-1745720D01*
X-4116667Y-1745720D02*
X-4092857Y-1698101D01*
X-4092857Y-1698101D02*
X-4069048Y-1602863D01*
X-4069048Y-1602863D02*
X-4069048Y-1531435D01*
X-4069048Y-1531435D02*
X-4092857Y-1436197D01*
X-4092857Y-1436197D02*
X-4116667Y-1388578D01*
X-4116667Y-1388578D02*
X-4164286Y-1340959D01*
X-4164286Y-1340959D02*
X-4235714Y-1317149D01*
X-4235714Y-1317149D02*
X-4283333Y-1317149D01*
X-4283333Y-1317149D02*
X-4354762Y-1340959D01*
X-4354762Y-1340959D02*
X-4378571Y-1364768D01*
X-4854762Y-1817149D02*
X-4569048Y-1817149D01*
X-4711905Y-1817149D02*
X-4711905Y-1317149D01*
X-4711905Y-1317149D02*
X-4664286Y-1388578D01*
X-4664286Y-1388578D02*
X-4616667Y-1436197D01*
X-4616667Y-1436197D02*
X-4569048Y-1460006D01*
X-5021428Y-1317149D02*
X-5330952Y-1317149D01*
X-5330952Y-1317149D02*
X-5164285Y-1507625D01*
X-5164285Y-1507625D02*
X-5235714Y-1507625D01*
X-5235714Y-1507625D02*
X-5283333Y-1531435D01*
X-5283333Y-1531435D02*
X-5307142Y-1555244D01*
X-5307142Y-1555244D02*
X-5330952Y-1602863D01*
X-5330952Y-1602863D02*
X-5330952Y-1721911D01*
X-5330952Y-1721911D02*
X-5307142Y-1769530D01*
X-5307142Y-1769530D02*
X-5283333Y-1793340D01*
X-5283333Y-1793340D02*
X-5235714Y-1817149D01*
X-5235714Y-1817149D02*
X-5092857Y-1817149D01*
X-5092857Y-1817149D02*
X-5045238Y-1793340D01*
X-5045238Y-1793340D02*
X-5021428Y-1769530D01*
D12*
X-4539285Y-2839765D02*
X-4527381Y-2851670D01*
X-4527381Y-2851670D02*
X-4491666Y-2863574D01*
X-4491666Y-2863574D02*
X-4467857Y-2863574D01*
X-4467857Y-2863574D02*
X-4432143Y-2851670D01*
X-4432143Y-2851670D02*
X-4408333Y-2827860D01*
X-4408333Y-2827860D02*
X-4396428Y-2804050D01*
X-4396428Y-2804050D02*
X-4384524Y-2756431D01*
X-4384524Y-2756431D02*
X-4384524Y-2720717D01*
X-4384524Y-2720717D02*
X-4396428Y-2673098D01*
X-4396428Y-2673098D02*
X-4408333Y-2649289D01*
X-4408333Y-2649289D02*
X-4432143Y-2625479D01*
X-4432143Y-2625479D02*
X-4467857Y-2613574D01*
X-4467857Y-2613574D02*
X-4491666Y-2613574D01*
X-4491666Y-2613574D02*
X-4527381Y-2625479D01*
X-4527381Y-2625479D02*
X-4539285Y-2637384D01*
X-4777381Y-2863574D02*
X-4634524Y-2863574D01*
X-4705952Y-2863574D02*
X-4705952Y-2613574D01*
X-4705952Y-2613574D02*
X-4682143Y-2649289D01*
X-4682143Y-2649289D02*
X-4658333Y-2673098D01*
X-4658333Y-2673098D02*
X-4634524Y-2685003D01*
X-4860714Y-2613574D02*
X-5015476Y-2613574D01*
X-5015476Y-2613574D02*
X-4932142Y-2708812D01*
X-4932142Y-2708812D02*
X-4967857Y-2708812D01*
X-4967857Y-2708812D02*
X-4991666Y-2720717D01*
X-4991666Y-2720717D02*
X-5003571Y-2732622D01*
X-5003571Y-2732622D02*
X-5015476Y-2756431D01*
X-5015476Y-2756431D02*
X-5015476Y-2815955D01*
X-5015476Y-2815955D02*
X-5003571Y-2839765D01*
X-5003571Y-2839765D02*
X-4991666Y-2851670D01*
X-4991666Y-2851670D02*
X-4967857Y-2863574D01*
X-4967857Y-2863574D02*
X-4896428Y-2863574D01*
X-4896428Y-2863574D02*
X-4872619Y-2851670D01*
X-4872619Y-2851670D02*
X-4860714Y-2839765D01*
D10*
X5819047Y752850D02*
X5819047Y1252850D01*
X5819047Y1252850D02*
X5699999Y1252850D01*
X5699999Y1252850D02*
X5628571Y1229040D01*
X5628571Y1229040D02*
X5580952Y1181421D01*
X5580952Y1181421D02*
X5557142Y1133802D01*
X5557142Y1133802D02*
X5533333Y1038564D01*
X5533333Y1038564D02*
X5533333Y967136D01*
X5533333Y967136D02*
X5557142Y871898D01*
X5557142Y871898D02*
X5580952Y824279D01*
X5580952Y824279D02*
X5628571Y776660D01*
X5628571Y776660D02*
X5699999Y752850D01*
X5699999Y752850D02*
X5819047Y752850D01*
X5342856Y1205231D02*
X5319047Y1229040D01*
X5319047Y1229040D02*
X5271428Y1252850D01*
X5271428Y1252850D02*
X5152380Y1252850D01*
X5152380Y1252850D02*
X5104761Y1229040D01*
X5104761Y1229040D02*
X5080952Y1205231D01*
X5080952Y1205231D02*
X5057142Y1157612D01*
X5057142Y1157612D02*
X5057142Y1109993D01*
X5057142Y1109993D02*
X5080952Y1038564D01*
X5080952Y1038564D02*
X5366666Y752850D01*
X5366666Y752850D02*
X5057142Y752850D01*
X-5080952Y-3027149D02*
X-5080952Y-2527149D01*
X-5080952Y-2527149D02*
X-5200000Y-2527149D01*
X-5200000Y-2527149D02*
X-5271428Y-2550959D01*
X-5271428Y-2550959D02*
X-5319047Y-2598578D01*
X-5319047Y-2598578D02*
X-5342857Y-2646197D01*
X-5342857Y-2646197D02*
X-5366666Y-2741435D01*
X-5366666Y-2741435D02*
X-5366666Y-2812863D01*
X-5366666Y-2812863D02*
X-5342857Y-2908101D01*
X-5342857Y-2908101D02*
X-5319047Y-2955720D01*
X-5319047Y-2955720D02*
X-5271428Y-3003340D01*
X-5271428Y-3003340D02*
X-5200000Y-3027149D01*
X-5200000Y-3027149D02*
X-5080952Y-3027149D01*
X-5795238Y-2693816D02*
X-5795238Y-3027149D01*
X-5676190Y-2503340D02*
X-5557143Y-2860482D01*
X-5557143Y-2860482D02*
X-5866666Y-2860482D01*
X-2872850Y4519047D02*
X-3372850Y4519047D01*
X-3372850Y4519047D02*
X-3372850Y4399999D01*
X-3372850Y4399999D02*
X-3349040Y4328571D01*
X-3349040Y4328571D02*
X-3301421Y4280952D01*
X-3301421Y4280952D02*
X-3253802Y4257142D01*
X-3253802Y4257142D02*
X-3158564Y4233333D01*
X-3158564Y4233333D02*
X-3087136Y4233333D01*
X-3087136Y4233333D02*
X-2991898Y4257142D01*
X-2991898Y4257142D02*
X-2944279Y4280952D01*
X-2944279Y4280952D02*
X-2896660Y4328571D01*
X-2896660Y4328571D02*
X-2872850Y4399999D01*
X-2872850Y4399999D02*
X-2872850Y4519047D01*
X-3158564Y3947618D02*
X-3182374Y3995237D01*
X-3182374Y3995237D02*
X-3206183Y4019047D01*
X-3206183Y4019047D02*
X-3253802Y4042856D01*
X-3253802Y4042856D02*
X-3277612Y4042856D01*
X-3277612Y4042856D02*
X-3325231Y4019047D01*
X-3325231Y4019047D02*
X-3349040Y3995237D01*
X-3349040Y3995237D02*
X-3372850Y3947618D01*
X-3372850Y3947618D02*
X-3372850Y3852380D01*
X-3372850Y3852380D02*
X-3349040Y3804761D01*
X-3349040Y3804761D02*
X-3325231Y3780952D01*
X-3325231Y3780952D02*
X-3277612Y3757142D01*
X-3277612Y3757142D02*
X-3253802Y3757142D01*
X-3253802Y3757142D02*
X-3206183Y3780952D01*
X-3206183Y3780952D02*
X-3182374Y3804761D01*
X-3182374Y3804761D02*
X-3158564Y3852380D01*
X-3158564Y3852380D02*
X-3158564Y3947618D01*
X-3158564Y3947618D02*
X-3134755Y3995237D01*
X-3134755Y3995237D02*
X-3110945Y4019047D01*
X-3110945Y4019047D02*
X-3063326Y4042856D01*
X-3063326Y4042856D02*
X-2968088Y4042856D01*
X-2968088Y4042856D02*
X-2920469Y4019047D01*
X-2920469Y4019047D02*
X-2896660Y3995237D01*
X-2896660Y3995237D02*
X-2872850Y3947618D01*
X-2872850Y3947618D02*
X-2872850Y3852380D01*
X-2872850Y3852380D02*
X-2896660Y3804761D01*
X-2896660Y3804761D02*
X-2920469Y3780952D01*
X-2920469Y3780952D02*
X-2968088Y3757142D01*
X-2968088Y3757142D02*
X-3063326Y3757142D01*
X-3063326Y3757142D02*
X-3110945Y3780952D01*
X-3110945Y3780952D02*
X-3134755Y3804761D01*
X-3134755Y3804761D02*
X-3158564Y3852380D01*
X6099530Y3483333D02*
X6123340Y3507142D01*
X6123340Y3507142D02*
X6147149Y3578571D01*
X6147149Y3578571D02*
X6147149Y3626190D01*
X6147149Y3626190D02*
X6123340Y3697618D01*
X6123340Y3697618D02*
X6075720Y3745237D01*
X6075720Y3745237D02*
X6028101Y3769047D01*
X6028101Y3769047D02*
X5932863Y3792856D01*
X5932863Y3792856D02*
X5861435Y3792856D01*
X5861435Y3792856D02*
X5766197Y3769047D01*
X5766197Y3769047D02*
X5718578Y3745237D01*
X5718578Y3745237D02*
X5670959Y3697618D01*
X5670959Y3697618D02*
X5647149Y3626190D01*
X5647149Y3626190D02*
X5647149Y3578571D01*
X5647149Y3578571D02*
X5670959Y3507142D01*
X5670959Y3507142D02*
X5694768Y3483333D01*
X5647149Y3054761D02*
X5647149Y3149999D01*
X5647149Y3149999D02*
X5670959Y3197618D01*
X5670959Y3197618D02*
X5694768Y3221428D01*
X5694768Y3221428D02*
X5766197Y3269047D01*
X5766197Y3269047D02*
X5861435Y3292856D01*
X5861435Y3292856D02*
X6051911Y3292856D01*
X6051911Y3292856D02*
X6099530Y3269047D01*
X6099530Y3269047D02*
X6123340Y3245237D01*
X6123340Y3245237D02*
X6147149Y3197618D01*
X6147149Y3197618D02*
X6147149Y3102380D01*
X6147149Y3102380D02*
X6123340Y3054761D01*
X6123340Y3054761D02*
X6099530Y3030952D01*
X6099530Y3030952D02*
X6051911Y3007142D01*
X6051911Y3007142D02*
X5932863Y3007142D01*
X5932863Y3007142D02*
X5885244Y3030952D01*
X5885244Y3030952D02*
X5861435Y3054761D01*
X5861435Y3054761D02*
X5837625Y3102380D01*
X5837625Y3102380D02*
X5837625Y3197618D01*
X5837625Y3197618D02*
X5861435Y3245237D01*
X5861435Y3245237D02*
X5885244Y3269047D01*
X5885244Y3269047D02*
X5932863Y3292856D01*
D12*
X5639765Y3441666D02*
X5651670Y3453570D01*
X5651670Y3453570D02*
X5663574Y3489285D01*
X5663574Y3489285D02*
X5663574Y3513094D01*
X5663574Y3513094D02*
X5651670Y3548808D01*
X5651670Y3548808D02*
X5627860Y3572618D01*
X5627860Y3572618D02*
X5604050Y3584523D01*
X5604050Y3584523D02*
X5556431Y3596427D01*
X5556431Y3596427D02*
X5520717Y3596427D01*
X5520717Y3596427D02*
X5473098Y3584523D01*
X5473098Y3584523D02*
X5449289Y3572618D01*
X5449289Y3572618D02*
X5425479Y3548808D01*
X5425479Y3548808D02*
X5413574Y3513094D01*
X5413574Y3513094D02*
X5413574Y3489285D01*
X5413574Y3489285D02*
X5425479Y3453570D01*
X5425479Y3453570D02*
X5437384Y3441666D01*
X5413574Y3227380D02*
X5413574Y3274999D01*
X5413574Y3274999D02*
X5425479Y3298808D01*
X5425479Y3298808D02*
X5437384Y3310713D01*
X5437384Y3310713D02*
X5473098Y3334523D01*
X5473098Y3334523D02*
X5520717Y3346427D01*
X5520717Y3346427D02*
X5615955Y3346427D01*
X5615955Y3346427D02*
X5639765Y3334523D01*
X5639765Y3334523D02*
X5651670Y3322618D01*
X5651670Y3322618D02*
X5663574Y3298808D01*
X5663574Y3298808D02*
X5663574Y3251189D01*
X5663574Y3251189D02*
X5651670Y3227380D01*
X5651670Y3227380D02*
X5639765Y3215475D01*
X5639765Y3215475D02*
X5615955Y3203570D01*
X5615955Y3203570D02*
X5556431Y3203570D01*
X5556431Y3203570D02*
X5532622Y3215475D01*
X5532622Y3215475D02*
X5520717Y3227380D01*
X5520717Y3227380D02*
X5508812Y3251189D01*
X5508812Y3251189D02*
X5508812Y3298808D01*
X5508812Y3298808D02*
X5520717Y3322618D01*
X5520717Y3322618D02*
X5532622Y3334523D01*
X5532622Y3334523D02*
X5556431Y3346427D01*
D10*
X83333Y-1189530D02*
X107142Y-1213340D01*
X107142Y-1213340D02*
X178571Y-1237149D01*
X178571Y-1237149D02*
X226190Y-1237149D01*
X226190Y-1237149D02*
X297618Y-1213340D01*
X297618Y-1213340D02*
X345237Y-1165720D01*
X345237Y-1165720D02*
X369047Y-1118101D01*
X369047Y-1118101D02*
X392856Y-1022863D01*
X392856Y-1022863D02*
X392856Y-951435D01*
X392856Y-951435D02*
X369047Y-856197D01*
X369047Y-856197D02*
X345237Y-808578D01*
X345237Y-808578D02*
X297618Y-760959D01*
X297618Y-760959D02*
X226190Y-737149D01*
X226190Y-737149D02*
X178571Y-737149D01*
X178571Y-737149D02*
X107142Y-760959D01*
X107142Y-760959D02*
X83333Y-784768D01*
X-392857Y-1237149D02*
X-107143Y-1237149D01*
X-250000Y-1237149D02*
X-250000Y-737149D01*
X-250000Y-737149D02*
X-202381Y-808578D01*
X-202381Y-808578D02*
X-154762Y-856197D01*
X-154762Y-856197D02*
X-107143Y-880006D01*
D12*
X41666Y-2259765D02*
X53570Y-2271670D01*
X53570Y-2271670D02*
X89285Y-2283574D01*
X89285Y-2283574D02*
X113094Y-2283574D01*
X113094Y-2283574D02*
X148808Y-2271670D01*
X148808Y-2271670D02*
X172618Y-2247860D01*
X172618Y-2247860D02*
X184523Y-2224050D01*
X184523Y-2224050D02*
X196427Y-2176431D01*
X196427Y-2176431D02*
X196427Y-2140717D01*
X196427Y-2140717D02*
X184523Y-2093098D01*
X184523Y-2093098D02*
X172618Y-2069289D01*
X172618Y-2069289D02*
X148808Y-2045479D01*
X148808Y-2045479D02*
X113094Y-2033574D01*
X113094Y-2033574D02*
X89285Y-2033574D01*
X89285Y-2033574D02*
X53570Y-2045479D01*
X53570Y-2045479D02*
X41666Y-2057384D01*
X-196429Y-2283574D02*
X-53572Y-2283574D01*
X-125000Y-2283574D02*
X-125000Y-2033574D01*
X-125000Y-2033574D02*
X-101191Y-2069289D01*
X-101191Y-2069289D02*
X-77381Y-2093098D01*
X-77381Y-2093098D02*
X-53572Y-2105003D01*
D10*
X327149Y280952D02*
X731911Y280952D01*
X731911Y280952D02*
X779530Y257142D01*
X779530Y257142D02*
X803340Y233333D01*
X803340Y233333D02*
X827149Y185714D01*
X827149Y185714D02*
X827149Y90476D01*
X827149Y90476D02*
X803340Y42857D01*
X803340Y42857D02*
X779530Y19047D01*
X779530Y19047D02*
X731911Y-4761D01*
X731911Y-4761D02*
X327149Y-4761D01*
X327149Y-195238D02*
X327149Y-504762D01*
X327149Y-504762D02*
X517625Y-338095D01*
X517625Y-338095D02*
X517625Y-409524D01*
X517625Y-409524D02*
X541435Y-457143D01*
X541435Y-457143D02*
X565244Y-480952D01*
X565244Y-480952D02*
X612863Y-504762D01*
X612863Y-504762D02*
X731911Y-504762D01*
X731911Y-504762D02*
X779530Y-480952D01*
X779530Y-480952D02*
X803340Y-457143D01*
X803340Y-457143D02*
X827149Y-409524D01*
X827149Y-409524D02*
X827149Y-266667D01*
X827149Y-266667D02*
X803340Y-219048D01*
X803340Y-219048D02*
X779530Y-195238D01*
D11*
X3548571Y292634D02*
X3548571Y-290222D01*
X3548571Y-290222D02*
X3514285Y-358794D01*
X3514285Y-358794D02*
X3480000Y-393080D01*
X3480000Y-393080D02*
X3411428Y-427365D01*
X3411428Y-427365D02*
X3274285Y-427365D01*
X3274285Y-427365D02*
X3205714Y-393080D01*
X3205714Y-393080D02*
X3171428Y-358794D01*
X3171428Y-358794D02*
X3137142Y-290222D01*
X3137142Y-290222D02*
X3137142Y292634D01*
X2862856Y292634D02*
X2417142Y292634D01*
X2417142Y292634D02*
X2657142Y18348D01*
X2657142Y18348D02*
X2554285Y18348D01*
X2554285Y18348D02*
X2485714Y-15937D01*
X2485714Y-15937D02*
X2451428Y-50222D01*
X2451428Y-50222D02*
X2417142Y-118794D01*
X2417142Y-118794D02*
X2417142Y-290222D01*
X2417142Y-290222D02*
X2451428Y-358794D01*
X2451428Y-358794D02*
X2485714Y-393080D01*
X2485714Y-393080D02*
X2554285Y-427365D01*
X2554285Y-427365D02*
X2759999Y-427365D01*
X2759999Y-427365D02*
X2828571Y-393080D01*
X2828571Y-393080D02*
X2862856Y-358794D01*
D10*
X327149Y-3989047D02*
X731911Y-3989047D01*
X731911Y-3989047D02*
X779530Y-4012857D01*
X779530Y-4012857D02*
X803340Y-4036666D01*
X803340Y-4036666D02*
X827149Y-4084285D01*
X827149Y-4084285D02*
X827149Y-4179523D01*
X827149Y-4179523D02*
X803340Y-4227142D01*
X803340Y-4227142D02*
X779530Y-4250952D01*
X779530Y-4250952D02*
X731911Y-4274761D01*
X731911Y-4274761D02*
X327149Y-4274761D01*
X493816Y-4727143D02*
X827149Y-4727143D01*
X303340Y-4608095D02*
X660482Y-4489048D01*
X660482Y-4489048D02*
X660482Y-4798571D01*
D11*
X-1278571Y-3961244D02*
X-1278571Y-4568387D01*
X-1278571Y-4568387D02*
X-1314285Y-4639815D01*
X-1314285Y-4639815D02*
X-1350000Y-4675530D01*
X-1350000Y-4675530D02*
X-1421428Y-4711244D01*
X-1421428Y-4711244D02*
X-1564285Y-4711244D01*
X-1564285Y-4711244D02*
X-1635714Y-4675530D01*
X-1635714Y-4675530D02*
X-1671428Y-4639815D01*
X-1671428Y-4639815D02*
X-1707142Y-4568387D01*
X-1707142Y-4568387D02*
X-1707142Y-3961244D01*
X-2385714Y-4211244D02*
X-2385714Y-4711244D01*
X-2207142Y-3925530D02*
X-2028571Y-4461244D01*
X-2028571Y-4461244D02*
X-2492856Y-4461244D01*
D10*
X-2378571Y5220469D02*
X-2354762Y5196660D01*
X-2354762Y5196660D02*
X-2283333Y5172850D01*
X-2283333Y5172850D02*
X-2235714Y5172850D01*
X-2235714Y5172850D02*
X-2164286Y5196660D01*
X-2164286Y5196660D02*
X-2116667Y5244279D01*
X-2116667Y5244279D02*
X-2092857Y5291898D01*
X-2092857Y5291898D02*
X-2069048Y5387136D01*
X-2069048Y5387136D02*
X-2069048Y5458564D01*
X-2069048Y5458564D02*
X-2092857Y5553802D01*
X-2092857Y5553802D02*
X-2116667Y5601421D01*
X-2116667Y5601421D02*
X-2164286Y5649040D01*
X-2164286Y5649040D02*
X-2235714Y5672850D01*
X-2235714Y5672850D02*
X-2283333Y5672850D01*
X-2283333Y5672850D02*
X-2354762Y5649040D01*
X-2354762Y5649040D02*
X-2378571Y5625231D01*
X-2854762Y5172850D02*
X-2569048Y5172850D01*
X-2711905Y5172850D02*
X-2711905Y5672850D01*
X-2711905Y5672850D02*
X-2664286Y5601421D01*
X-2664286Y5601421D02*
X-2616667Y5553802D01*
X-2616667Y5553802D02*
X-2569048Y5529993D01*
X-3330952Y5172850D02*
X-3045238Y5172850D01*
X-3188095Y5172850D02*
X-3188095Y5672850D01*
X-3188095Y5672850D02*
X-3140476Y5601421D01*
X-3140476Y5601421D02*
X-3092857Y5553802D01*
X-3092857Y5553802D02*
X-3045238Y5529993D01*
D12*
X-2539285Y4940234D02*
X-2527381Y4928330D01*
X-2527381Y4928330D02*
X-2491666Y4916425D01*
X-2491666Y4916425D02*
X-2467857Y4916425D01*
X-2467857Y4916425D02*
X-2432143Y4928330D01*
X-2432143Y4928330D02*
X-2408333Y4952139D01*
X-2408333Y4952139D02*
X-2396428Y4975949D01*
X-2396428Y4975949D02*
X-2384524Y5023568D01*
X-2384524Y5023568D02*
X-2384524Y5059282D01*
X-2384524Y5059282D02*
X-2396428Y5106901D01*
X-2396428Y5106901D02*
X-2408333Y5130710D01*
X-2408333Y5130710D02*
X-2432143Y5154520D01*
X-2432143Y5154520D02*
X-2467857Y5166425D01*
X-2467857Y5166425D02*
X-2491666Y5166425D01*
X-2491666Y5166425D02*
X-2527381Y5154520D01*
X-2527381Y5154520D02*
X-2539285Y5142615D01*
X-2777381Y4916425D02*
X-2634524Y4916425D01*
X-2705952Y4916425D02*
X-2705952Y5166425D01*
X-2705952Y5166425D02*
X-2682143Y5130710D01*
X-2682143Y5130710D02*
X-2658333Y5106901D01*
X-2658333Y5106901D02*
X-2634524Y5094996D01*
X-3015476Y4916425D02*
X-2872619Y4916425D01*
X-2944047Y4916425D02*
X-2944047Y5166425D01*
X-2944047Y5166425D02*
X-2920238Y5130710D01*
X-2920238Y5130710D02*
X-2896428Y5106901D01*
X-2896428Y5106901D02*
X-2872619Y5094996D01*
D10*
X379530Y-766666D02*
X403340Y-742857D01*
X403340Y-742857D02*
X427149Y-671428D01*
X427149Y-671428D02*
X427149Y-623809D01*
X427149Y-623809D02*
X403340Y-552381D01*
X403340Y-552381D02*
X355720Y-504762D01*
X355720Y-504762D02*
X308101Y-480952D01*
X308101Y-480952D02*
X212863Y-457143D01*
X212863Y-457143D02*
X141435Y-457143D01*
X141435Y-457143D02*
X46197Y-480952D01*
X46197Y-480952D02*
X-1421Y-504762D01*
X-1421Y-504762D02*
X-49040Y-552381D01*
X-49040Y-552381D02*
X-72850Y-623809D01*
X-72850Y-623809D02*
X-72850Y-671428D01*
X-72850Y-671428D02*
X-49040Y-742857D01*
X-49040Y-742857D02*
X-25231Y-766666D01*
X93816Y-1195238D02*
X427149Y-1195238D01*
X-96660Y-1076190D02*
X260482Y-957143D01*
X260482Y-957143D02*
X260482Y-1266666D01*
D12*
X-80234Y-808333D02*
X-68330Y-796429D01*
X-68330Y-796429D02*
X-56425Y-760714D01*
X-56425Y-760714D02*
X-56425Y-736905D01*
X-56425Y-736905D02*
X-68330Y-701191D01*
X-68330Y-701191D02*
X-92139Y-677381D01*
X-92139Y-677381D02*
X-115949Y-665476D01*
X-115949Y-665476D02*
X-163568Y-653572D01*
X-163568Y-653572D02*
X-199282Y-653572D01*
X-199282Y-653572D02*
X-246901Y-665476D01*
X-246901Y-665476D02*
X-270710Y-677381D01*
X-270710Y-677381D02*
X-294520Y-701191D01*
X-294520Y-701191D02*
X-306425Y-736905D01*
X-306425Y-736905D02*
X-306425Y-760714D01*
X-306425Y-760714D02*
X-294520Y-796429D01*
X-294520Y-796429D02*
X-282615Y-808333D01*
X-223091Y-1022619D02*
X-56425Y-1022619D01*
X-318330Y-963095D02*
X-139758Y-903572D01*
X-139758Y-903572D02*
X-139758Y-1058333D01*
D10*
X650952Y1772850D02*
X650952Y1368088D01*
X650952Y1368088D02*
X627142Y1320469D01*
X627142Y1320469D02*
X603333Y1296660D01*
X603333Y1296660D02*
X555714Y1272850D01*
X555714Y1272850D02*
X460476Y1272850D01*
X460476Y1272850D02*
X412857Y1296660D01*
X412857Y1296660D02*
X389047Y1320469D01*
X389047Y1320469D02*
X365238Y1368088D01*
X365238Y1368088D02*
X365238Y1772850D01*
X150951Y1725231D02*
X127142Y1749040D01*
X127142Y1749040D02*
X79523Y1772850D01*
X79523Y1772850D02*
X-39524Y1772850D01*
X-39524Y1772850D02*
X-87143Y1749040D01*
X-87143Y1749040D02*
X-110952Y1725231D01*
X-110952Y1725231D02*
X-134762Y1677612D01*
X-134762Y1677612D02*
X-134762Y1629993D01*
X-134762Y1629993D02*
X-110952Y1558564D01*
X-110952Y1558564D02*
X174761Y1272850D01*
X174761Y1272850D02*
X-134762Y1272850D01*
D13*
X803333Y4381366D02*
X803333Y3814700D01*
X803333Y3814700D02*
X770000Y3748033D01*
X770000Y3748033D02*
X736666Y3714700D01*
X736666Y3714700D02*
X670000Y3681366D01*
X670000Y3681366D02*
X536666Y3681366D01*
X536666Y3681366D02*
X470000Y3714700D01*
X470000Y3714700D02*
X436666Y3748033D01*
X436666Y3748033D02*
X403333Y3814700D01*
X403333Y3814700D02*
X403333Y4381366D01*
X103333Y4314700D02*
X70000Y4348033D01*
X70000Y4348033D02*
X3333Y4381366D01*
X3333Y4381366D02*
X-163333Y4381366D01*
X-163333Y4381366D02*
X-229999Y4348033D01*
X-229999Y4348033D02*
X-263333Y4314700D01*
X-263333Y4314700D02*
X-296666Y4248033D01*
X-296666Y4248033D02*
X-296666Y4181366D01*
X-296666Y4181366D02*
X-263333Y4081366D01*
X-263333Y4081366D02*
X136667Y3681366D01*
X136667Y3681366D02*
X-296666Y3681366D01*
D10*
X3927149Y4019047D02*
X3427149Y4019047D01*
X3427149Y4019047D02*
X3427149Y3899999D01*
X3427149Y3899999D02*
X3450959Y3828571D01*
X3450959Y3828571D02*
X3498578Y3780952D01*
X3498578Y3780952D02*
X3546197Y3757142D01*
X3546197Y3757142D02*
X3641435Y3733333D01*
X3641435Y3733333D02*
X3712863Y3733333D01*
X3712863Y3733333D02*
X3808101Y3757142D01*
X3808101Y3757142D02*
X3855720Y3780952D01*
X3855720Y3780952D02*
X3903340Y3828571D01*
X3903340Y3828571D02*
X3927149Y3899999D01*
X3927149Y3899999D02*
X3927149Y4019047D01*
X3427149Y3304761D02*
X3427149Y3399999D01*
X3427149Y3399999D02*
X3450959Y3447618D01*
X3450959Y3447618D02*
X3474768Y3471428D01*
X3474768Y3471428D02*
X3546197Y3519047D01*
X3546197Y3519047D02*
X3641435Y3542856D01*
X3641435Y3542856D02*
X3831911Y3542856D01*
X3831911Y3542856D02*
X3879530Y3519047D01*
X3879530Y3519047D02*
X3903340Y3495237D01*
X3903340Y3495237D02*
X3927149Y3447618D01*
X3927149Y3447618D02*
X3927149Y3352380D01*
X3927149Y3352380D02*
X3903340Y3304761D01*
X3903340Y3304761D02*
X3879530Y3280952D01*
X3879530Y3280952D02*
X3831911Y3257142D01*
X3831911Y3257142D02*
X3712863Y3257142D01*
X3712863Y3257142D02*
X3665244Y3280952D01*
X3665244Y3280952D02*
X3641435Y3304761D01*
X3641435Y3304761D02*
X3617625Y3352380D01*
X3617625Y3352380D02*
X3617625Y3447618D01*
X3617625Y3447618D02*
X3641435Y3495237D01*
X3641435Y3495237D02*
X3665244Y3519047D01*
X3665244Y3519047D02*
X3712863Y3542856D01*
X5719047Y2972850D02*
X5719047Y3472850D01*
X5719047Y3472850D02*
X5599999Y3472850D01*
X5599999Y3472850D02*
X5528571Y3449040D01*
X5528571Y3449040D02*
X5480952Y3401421D01*
X5480952Y3401421D02*
X5457142Y3353802D01*
X5457142Y3353802D02*
X5433333Y3258564D01*
X5433333Y3258564D02*
X5433333Y3187136D01*
X5433333Y3187136D02*
X5457142Y3091898D01*
X5457142Y3091898D02*
X5480952Y3044279D01*
X5480952Y3044279D02*
X5528571Y2996660D01*
X5528571Y2996660D02*
X5599999Y2972850D01*
X5599999Y2972850D02*
X5719047Y2972850D01*
X5266666Y3472850D02*
X4957142Y3472850D01*
X4957142Y3472850D02*
X5123809Y3282374D01*
X5123809Y3282374D02*
X5052380Y3282374D01*
X5052380Y3282374D02*
X5004761Y3258564D01*
X5004761Y3258564D02*
X4980952Y3234755D01*
X4980952Y3234755D02*
X4957142Y3187136D01*
X4957142Y3187136D02*
X4957142Y3068088D01*
X4957142Y3068088D02*
X4980952Y3020469D01*
X4980952Y3020469D02*
X5004761Y2996660D01*
X5004761Y2996660D02*
X5052380Y2972850D01*
X5052380Y2972850D02*
X5195237Y2972850D01*
X5195237Y2972850D02*
X5242856Y2996660D01*
X5242856Y2996660D02*
X5266666Y3020469D01*
X-5080952Y-527149D02*
X-5080952Y-27149D01*
X-5080952Y-27149D02*
X-5200000Y-27149D01*
X-5200000Y-27149D02*
X-5271428Y-50959D01*
X-5271428Y-50959D02*
X-5319047Y-98578D01*
X-5319047Y-98578D02*
X-5342857Y-146197D01*
X-5342857Y-146197D02*
X-5366666Y-241435D01*
X-5366666Y-241435D02*
X-5366666Y-312863D01*
X-5366666Y-312863D02*
X-5342857Y-408101D01*
X-5342857Y-408101D02*
X-5319047Y-455720D01*
X-5319047Y-455720D02*
X-5271428Y-503340D01*
X-5271428Y-503340D02*
X-5200000Y-527149D01*
X-5200000Y-527149D02*
X-5080952Y-527149D01*
X-5819047Y-27149D02*
X-5580952Y-27149D01*
X-5580952Y-27149D02*
X-5557143Y-265244D01*
X-5557143Y-265244D02*
X-5580952Y-241435D01*
X-5580952Y-241435D02*
X-5628571Y-217625D01*
X-5628571Y-217625D02*
X-5747619Y-217625D01*
X-5747619Y-217625D02*
X-5795238Y-241435D01*
X-5795238Y-241435D02*
X-5819047Y-265244D01*
X-5819047Y-265244D02*
X-5842857Y-312863D01*
X-5842857Y-312863D02*
X-5842857Y-431911D01*
X-5842857Y-431911D02*
X-5819047Y-479530D01*
X-5819047Y-479530D02*
X-5795238Y-503340D01*
X-5795238Y-503340D02*
X-5747619Y-527149D01*
X-5747619Y-527149D02*
X-5628571Y-527149D01*
X-5628571Y-527149D02*
X-5580952Y-503340D01*
X-5580952Y-503340D02*
X-5557143Y-479530D01*
X4027149Y-3989047D02*
X4431911Y-3989047D01*
X4431911Y-3989047D02*
X4479530Y-4012857D01*
X4479530Y-4012857D02*
X4503340Y-4036666D01*
X4503340Y-4036666D02*
X4527149Y-4084285D01*
X4527149Y-4084285D02*
X4527149Y-4179523D01*
X4527149Y-4179523D02*
X4503340Y-4227142D01*
X4503340Y-4227142D02*
X4479530Y-4250952D01*
X4479530Y-4250952D02*
X4431911Y-4274761D01*
X4431911Y-4274761D02*
X4027149Y-4274761D01*
X4027149Y-4750952D02*
X4027149Y-4512857D01*
X4027149Y-4512857D02*
X4265244Y-4489048D01*
X4265244Y-4489048D02*
X4241435Y-4512857D01*
X4241435Y-4512857D02*
X4217625Y-4560476D01*
X4217625Y-4560476D02*
X4217625Y-4679524D01*
X4217625Y-4679524D02*
X4241435Y-4727143D01*
X4241435Y-4727143D02*
X4265244Y-4750952D01*
X4265244Y-4750952D02*
X4312863Y-4774762D01*
X4312863Y-4774762D02*
X4431911Y-4774762D01*
X4431911Y-4774762D02*
X4479530Y-4750952D01*
X4479530Y-4750952D02*
X4503340Y-4727143D01*
X4503340Y-4727143D02*
X4527149Y-4679524D01*
X4527149Y-4679524D02*
X4527149Y-4560476D01*
X4527149Y-4560476D02*
X4503340Y-4512857D01*
X4503340Y-4512857D02*
X4479530Y-4489048D01*
D11*
X2421428Y-3961244D02*
X2421428Y-4568387D01*
X2421428Y-4568387D02*
X2385714Y-4639815D01*
X2385714Y-4639815D02*
X2350000Y-4675530D01*
X2350000Y-4675530D02*
X2278571Y-4711244D01*
X2278571Y-4711244D02*
X2135714Y-4711244D01*
X2135714Y-4711244D02*
X2064285Y-4675530D01*
X2064285Y-4675530D02*
X2028571Y-4639815D01*
X2028571Y-4639815D02*
X1992857Y-4568387D01*
X1992857Y-4568387D02*
X1992857Y-3961244D01*
X1278571Y-3961244D02*
X1635714Y-3961244D01*
X1635714Y-3961244D02*
X1671428Y-4318387D01*
X1671428Y-4318387D02*
X1635714Y-4282672D01*
X1635714Y-4282672D02*
X1564286Y-4246958D01*
X1564286Y-4246958D02*
X1385714Y-4246958D01*
X1385714Y-4246958D02*
X1314286Y-4282672D01*
X1314286Y-4282672D02*
X1278571Y-4318387D01*
X1278571Y-4318387D02*
X1242857Y-4389815D01*
X1242857Y-4389815D02*
X1242857Y-4568387D01*
X1242857Y-4568387D02*
X1278571Y-4639815D01*
X1278571Y-4639815D02*
X1314286Y-4675530D01*
X1314286Y-4675530D02*
X1385714Y-4711244D01*
X1385714Y-4711244D02*
X1564286Y-4711244D01*
X1564286Y-4711244D02*
X1635714Y-4675530D01*
X1635714Y-4675530D02*
X1671428Y-4639815D01*
D10*
X2079530Y-766666D02*
X2103340Y-742857D01*
X2103340Y-742857D02*
X2127149Y-671428D01*
X2127149Y-671428D02*
X2127149Y-623809D01*
X2127149Y-623809D02*
X2103340Y-552381D01*
X2103340Y-552381D02*
X2055720Y-504762D01*
X2055720Y-504762D02*
X2008101Y-480952D01*
X2008101Y-480952D02*
X1912863Y-457143D01*
X1912863Y-457143D02*
X1841435Y-457143D01*
X1841435Y-457143D02*
X1746197Y-480952D01*
X1746197Y-480952D02*
X1698578Y-504762D01*
X1698578Y-504762D02*
X1650959Y-552381D01*
X1650959Y-552381D02*
X1627149Y-623809D01*
X1627149Y-623809D02*
X1627149Y-671428D01*
X1627149Y-671428D02*
X1650959Y-742857D01*
X1650959Y-742857D02*
X1674768Y-766666D01*
X1627149Y-1219047D02*
X1627149Y-980952D01*
X1627149Y-980952D02*
X1865244Y-957143D01*
X1865244Y-957143D02*
X1841435Y-980952D01*
X1841435Y-980952D02*
X1817625Y-1028571D01*
X1817625Y-1028571D02*
X1817625Y-1147619D01*
X1817625Y-1147619D02*
X1841435Y-1195238D01*
X1841435Y-1195238D02*
X1865244Y-1219047D01*
X1865244Y-1219047D02*
X1912863Y-1242857D01*
X1912863Y-1242857D02*
X2031911Y-1242857D01*
X2031911Y-1242857D02*
X2079530Y-1219047D01*
X2079530Y-1219047D02*
X2103340Y-1195238D01*
X2103340Y-1195238D02*
X2127149Y-1147619D01*
X2127149Y-1147619D02*
X2127149Y-1028571D01*
X2127149Y-1028571D02*
X2103340Y-980952D01*
X2103340Y-980952D02*
X2079530Y-957143D01*
D12*
X1619765Y-808333D02*
X1631670Y-796429D01*
X1631670Y-796429D02*
X1643574Y-760714D01*
X1643574Y-760714D02*
X1643574Y-736905D01*
X1643574Y-736905D02*
X1631670Y-701191D01*
X1631670Y-701191D02*
X1607860Y-677381D01*
X1607860Y-677381D02*
X1584050Y-665476D01*
X1584050Y-665476D02*
X1536431Y-653572D01*
X1536431Y-653572D02*
X1500717Y-653572D01*
X1500717Y-653572D02*
X1453098Y-665476D01*
X1453098Y-665476D02*
X1429289Y-677381D01*
X1429289Y-677381D02*
X1405479Y-701191D01*
X1405479Y-701191D02*
X1393574Y-736905D01*
X1393574Y-736905D02*
X1393574Y-760714D01*
X1393574Y-760714D02*
X1405479Y-796429D01*
X1405479Y-796429D02*
X1417384Y-808333D01*
X1393574Y-1034524D02*
X1393574Y-915476D01*
X1393574Y-915476D02*
X1512622Y-903572D01*
X1512622Y-903572D02*
X1500717Y-915476D01*
X1500717Y-915476D02*
X1488812Y-939286D01*
X1488812Y-939286D02*
X1488812Y-998810D01*
X1488812Y-998810D02*
X1500717Y-1022619D01*
X1500717Y-1022619D02*
X1512622Y-1034524D01*
X1512622Y-1034524D02*
X1536431Y-1046429D01*
X1536431Y-1046429D02*
X1595955Y-1046429D01*
X1595955Y-1046429D02*
X1619765Y-1034524D01*
X1619765Y-1034524D02*
X1631670Y-1022619D01*
X1631670Y-1022619D02*
X1643574Y-998810D01*
X1643574Y-998810D02*
X1643574Y-939286D01*
X1643574Y-939286D02*
X1631670Y-915476D01*
X1631670Y-915476D02*
X1619765Y-903572D01*
D10*
X-1683334Y-3285244D02*
X-1516667Y-3285244D01*
X-1516667Y-3547149D02*
X-1516667Y-3047149D01*
X-1516667Y-3047149D02*
X-1754762Y-3047149D01*
X-2111905Y-3285244D02*
X-2183333Y-3309054D01*
X-2183333Y-3309054D02*
X-2207143Y-3332863D01*
X-2207143Y-3332863D02*
X-2230952Y-3380482D01*
X-2230952Y-3380482D02*
X-2230952Y-3451911D01*
X-2230952Y-3451911D02*
X-2207143Y-3499530D01*
X-2207143Y-3499530D02*
X-2183333Y-3523340D01*
X-2183333Y-3523340D02*
X-2135714Y-3547149D01*
X-2135714Y-3547149D02*
X-1945238Y-3547149D01*
X-1945238Y-3547149D02*
X-1945238Y-3047149D01*
X-1945238Y-3047149D02*
X-2111905Y-3047149D01*
X-2111905Y-3047149D02*
X-2159524Y-3070959D01*
X-2159524Y-3070959D02*
X-2183333Y-3094768D01*
X-2183333Y-3094768D02*
X-2207143Y-3142387D01*
X-2207143Y-3142387D02*
X-2207143Y-3190006D01*
X-2207143Y-3190006D02*
X-2183333Y-3237625D01*
X-2183333Y-3237625D02*
X-2159524Y-3261435D01*
X-2159524Y-3261435D02*
X-2111905Y-3285244D01*
X-2111905Y-3285244D02*
X-1945238Y-3285244D01*
X-2707143Y-3547149D02*
X-2421429Y-3547149D01*
X-2564286Y-3547149D02*
X-2564286Y-3047149D01*
X-2564286Y-3047149D02*
X-2516667Y-3118578D01*
X-2516667Y-3118578D02*
X-2469048Y-3166197D01*
X-2469048Y-3166197D02*
X-2421429Y-3190006D01*
D12*
X-1891667Y-2132622D02*
X-1808333Y-2132622D01*
X-1808333Y-2263574D02*
X-1808333Y-2013574D01*
X-1808333Y-2013574D02*
X-1927381Y-2013574D01*
X-2105953Y-2132622D02*
X-2141667Y-2144527D01*
X-2141667Y-2144527D02*
X-2153572Y-2156431D01*
X-2153572Y-2156431D02*
X-2165476Y-2180241D01*
X-2165476Y-2180241D02*
X-2165476Y-2215955D01*
X-2165476Y-2215955D02*
X-2153572Y-2239765D01*
X-2153572Y-2239765D02*
X-2141667Y-2251670D01*
X-2141667Y-2251670D02*
X-2117857Y-2263574D01*
X-2117857Y-2263574D02*
X-2022619Y-2263574D01*
X-2022619Y-2263574D02*
X-2022619Y-2013574D01*
X-2022619Y-2013574D02*
X-2105953Y-2013574D01*
X-2105953Y-2013574D02*
X-2129762Y-2025479D01*
X-2129762Y-2025479D02*
X-2141667Y-2037384D01*
X-2141667Y-2037384D02*
X-2153572Y-2061193D01*
X-2153572Y-2061193D02*
X-2153572Y-2085003D01*
X-2153572Y-2085003D02*
X-2141667Y-2108812D01*
X-2141667Y-2108812D02*
X-2129762Y-2120717D01*
X-2129762Y-2120717D02*
X-2105953Y-2132622D01*
X-2105953Y-2132622D02*
X-2022619Y-2132622D01*
X-2403572Y-2263574D02*
X-2260715Y-2263574D01*
X-2332143Y-2263574D02*
X-2332143Y-2013574D01*
X-2332143Y-2013574D02*
X-2308334Y-2049289D01*
X-2308334Y-2049289D02*
X-2284524Y-2073098D01*
X-2284524Y-2073098D02*
X-2260715Y-2085003D01*
%TO.C,D1*%
D10*
X-4200000Y-2060000D02*
X-4200000Y-1460000D01*
X-4400000Y-1460000D02*
X-3400000Y-1460000D01*
X-3400000Y-2060000D01*
X-4400000Y-2060000D01*
X-4400000Y-1460000D01*
D13*
%TO.C,U6*%
X-1600000Y420000D02*
X-1600000Y1620000D01*
X-4500000Y1620000D01*
X-4500000Y20000D01*
X-2000000Y20000D01*
X-1600000Y420000D01*
%TO.C,C14*%
X4450000Y-3200000D02*
X4750000Y-3200000D01*
X4750000Y-3800000D01*
X4450000Y-3800000D01*
X4450000Y-3200000D01*
%TO.C,R1*%
X-1000000Y950000D02*
X-700000Y950000D01*
X-700000Y350000D01*
X-1000000Y350000D01*
X-1000000Y950000D01*
%TO.C,C7*%
X-3300000Y3550000D02*
X-2700000Y3550000D01*
X-2700000Y3250000D01*
X-3300000Y3250000D01*
X-3300000Y3550000D01*
%TO.C,C12*%
X2300000Y5400000D02*
X2600000Y5400000D01*
X2600000Y4800000D01*
X2300000Y4800000D01*
X2300000Y5400000D01*
%TO.C,D7*%
D10*
X4000000Y3700000D02*
X3400000Y3700000D01*
X3400000Y4500000D02*
X4000000Y4500000D01*
X4000000Y3500000D01*
X3400000Y3500000D01*
X3400000Y4500000D01*
%TO.C,R2*%
D13*
X700000Y950000D02*
X1000000Y950000D01*
X1000000Y350000D01*
X700000Y350000D01*
X700000Y950000D01*
%TO.C,C13*%
X-5200000Y-2500000D02*
X-4200000Y-2500000D01*
X-4200000Y-3000000D01*
X-5200000Y-3000000D01*
X-5200000Y-2500000D01*
%TO.C,D2*%
D10*
X5750000Y180000D02*
X5750000Y-420000D01*
X4950000Y180000D02*
X5950000Y180000D01*
X5950000Y-420000D01*
X4950000Y-420000D01*
X4950000Y180000D01*
%TO.C,D4*%
X-5750000Y-2000000D02*
X-5750000Y-1400000D01*
X-5950000Y-1400000D02*
X-4950000Y-1400000D01*
X-4950000Y-2000000D01*
X-5950000Y-2000000D01*
X-5950000Y-1400000D01*
%TO.C,D8*%
X-3900000Y3850000D02*
X-4500000Y3850000D01*
X-4500000Y4650000D02*
X-3900000Y4650000D01*
X-3900000Y3650000D01*
X-4500000Y3650000D01*
X-4500000Y4650000D01*
%TO.C,C6*%
D13*
X4720000Y3700000D02*
X5020000Y3700000D01*
X5020000Y3100000D01*
X4720000Y3100000D01*
X4720000Y3700000D01*
%TO.C,C1*%
X-500000Y-1920000D02*
X500000Y-1920000D01*
X500000Y-2420000D01*
X-500000Y-2420000D01*
X-500000Y-1920000D01*
%TO.C,U3*%
X1550000Y300000D02*
X1550000Y-900000D01*
X4450000Y-900000D01*
X4450000Y700000D01*
X1950000Y700000D01*
X1550000Y300000D01*
%TO.C,U4*%
X-350000Y-4870000D02*
X-350000Y-3370000D01*
X-3350000Y-3370000D01*
X-3350000Y-5370000D01*
X-850000Y-5370000D01*
X-350000Y-4870000D01*
%TO.C,C11*%
X-3000000Y4500000D02*
X-2400000Y4500000D01*
X-2400000Y4200000D01*
X-3000000Y4200000D01*
X-3000000Y4500000D01*
%TO.C,C4*%
X-1000000Y-550000D02*
X-700000Y-550000D01*
X-700000Y-1150000D01*
X-1000000Y-1150000D01*
X-1000000Y-550000D01*
%TO.C,U2*%
X-1230000Y5500000D02*
X-1230000Y3500000D01*
X-1230000Y3500000D02*
X-230000Y2500000D01*
X-230000Y2500000D02*
X1770000Y2500000D01*
X1770000Y5500000D02*
X-1230000Y5500000D01*
X1770000Y2500000D02*
X1770000Y5500000D01*
%TO.C,D6*%
D10*
X2900000Y3350000D02*
X2300000Y3350000D01*
X2300000Y4150000D02*
X2900000Y4150000D01*
X2900000Y3150000D01*
X2300000Y3150000D01*
X2300000Y4150000D01*
%TO.C,D3*%
X5650000Y2400000D02*
X5650000Y1800000D01*
X4850000Y2400000D02*
X5850000Y2400000D01*
X5850000Y1800000D01*
X4850000Y1800000D01*
X4850000Y2400000D01*
%TO.C,D5*%
X-5750000Y500000D02*
X-5750000Y1100000D01*
X-5950000Y1100000D02*
X-4950000Y1100000D01*
X-4950000Y500000D01*
X-5950000Y500000D01*
X-5950000Y1100000D01*
D13*
%TO.C,U5*%
X3350000Y-4870000D02*
X3350000Y-3370000D01*
X350000Y-3370000D01*
X350000Y-5370000D01*
X2850000Y-5370000D01*
X3350000Y-4870000D01*
%TO.C,C5*%
X700000Y-550000D02*
X1000000Y-550000D01*
X1000000Y-1150000D01*
X700000Y-1150000D01*
X700000Y-550000D01*
%TO.C,FB1*%
X-2600000Y-1900000D02*
X-1600000Y-1900000D01*
X-1600000Y-2400000D01*
X-2600000Y-2400000D01*
X-2600000Y-1900000D01*
%TD*%
M02*
