G04 #@! TF.GenerationSoftware,KiCad,Pcbnew,10.0.6*
G04 #@! TF.CreationDate,2026-09-30T23:40:46+09:00*
G04 #@! TF.ProjectId,ppg_pcb_v08,7070675f-7063-4625-9f76-30382e6b6963,rev?*
G04 #@! TF.SameCoordinates,Original*
G04 #@! TF.FileFunction,AssemblyDrawing,Bot*
%FSLAX46Y46*%
G04 Gerber Fmt 4.6, Leading zero omitted, Abs format (unit mm)*
G04 Created by KiCad (PCBNEW 10.0.6) date 2026-09-30 23:40:46*
%MOMM*%
%LPD*%
G01*
G04 APERTURE LIST*
%ADD10C,0.055000*%
%ADD11C,0.110000*%
%ADD12C,0.040000*%
%ADD13C,0.100000*%
G04 APERTURE END LIST*
D10*
X2128571Y-6321640D02*
X2085714Y-6335925D01*
X2085714Y-6335925D02*
X2014285Y-6335925D01*
X2014285Y-6335925D02*
X1985714Y-6321640D01*
X1985714Y-6321640D02*
X1971428Y-6307354D01*
X1971428Y-6307354D02*
X1957142Y-6278782D01*
X1957142Y-6278782D02*
X1957142Y-6250211D01*
X1957142Y-6250211D02*
X1971428Y-6221640D01*
X1971428Y-6221640D02*
X1985714Y-6207354D01*
X1985714Y-6207354D02*
X2014285Y-6193068D01*
X2014285Y-6193068D02*
X2071428Y-6178782D01*
X2071428Y-6178782D02*
X2099999Y-6164497D01*
X2099999Y-6164497D02*
X2114285Y-6150211D01*
X2114285Y-6150211D02*
X2128571Y-6121640D01*
X2128571Y-6121640D02*
X2128571Y-6093068D01*
X2128571Y-6093068D02*
X2114285Y-6064497D01*
X2114285Y-6064497D02*
X2099999Y-6050211D01*
X2099999Y-6050211D02*
X2071428Y-6035925D01*
X2071428Y-6035925D02*
X1999999Y-6035925D01*
X1999999Y-6035925D02*
X1957142Y-6050211D01*
X1785714Y-6335925D02*
X1814285Y-6321640D01*
X1814285Y-6321640D02*
X1828571Y-6293068D01*
X1828571Y-6293068D02*
X1828571Y-6035925D01*
X1557142Y-6321640D02*
X1585714Y-6335925D01*
X1585714Y-6335925D02*
X1642857Y-6335925D01*
X1642857Y-6335925D02*
X1671428Y-6321640D01*
X1671428Y-6321640D02*
X1685714Y-6293068D01*
X1685714Y-6293068D02*
X1685714Y-6178782D01*
X1685714Y-6178782D02*
X1671428Y-6150211D01*
X1671428Y-6150211D02*
X1642857Y-6135925D01*
X1642857Y-6135925D02*
X1585714Y-6135925D01*
X1585714Y-6135925D02*
X1557142Y-6150211D01*
X1557142Y-6150211D02*
X1542857Y-6178782D01*
X1542857Y-6178782D02*
X1542857Y-6207354D01*
X1542857Y-6207354D02*
X1685714Y-6235925D01*
X1299999Y-6321640D02*
X1328571Y-6335925D01*
X1328571Y-6335925D02*
X1385714Y-6335925D01*
X1385714Y-6335925D02*
X1414285Y-6321640D01*
X1414285Y-6321640D02*
X1428571Y-6293068D01*
X1428571Y-6293068D02*
X1428571Y-6178782D01*
X1428571Y-6178782D02*
X1414285Y-6150211D01*
X1414285Y-6150211D02*
X1385714Y-6135925D01*
X1385714Y-6135925D02*
X1328571Y-6135925D01*
X1328571Y-6135925D02*
X1299999Y-6150211D01*
X1299999Y-6150211D02*
X1285714Y-6178782D01*
X1285714Y-6178782D02*
X1285714Y-6207354D01*
X1285714Y-6207354D02*
X1428571Y-6235925D01*
X1157142Y-6135925D02*
X1157142Y-6435925D01*
X1157142Y-6150211D02*
X1128571Y-6135925D01*
X1128571Y-6135925D02*
X1071428Y-6135925D01*
X1071428Y-6135925D02*
X1042856Y-6150211D01*
X1042856Y-6150211D02*
X1028571Y-6164497D01*
X1028571Y-6164497D02*
X1014285Y-6193068D01*
X1014285Y-6193068D02*
X1014285Y-6278782D01*
X1014285Y-6278782D02*
X1028571Y-6307354D01*
X1028571Y-6307354D02*
X1042856Y-6321640D01*
X1042856Y-6321640D02*
X1071428Y-6335925D01*
X1071428Y-6335925D02*
X1128571Y-6335925D01*
X1128571Y-6335925D02*
X1157142Y-6321640D01*
X785713Y-6178782D02*
X742856Y-6193068D01*
X742856Y-6193068D02*
X728570Y-6207354D01*
X728570Y-6207354D02*
X714284Y-6235925D01*
X714284Y-6235925D02*
X714284Y-6278782D01*
X714284Y-6278782D02*
X728570Y-6307354D01*
X728570Y-6307354D02*
X742856Y-6321640D01*
X742856Y-6321640D02*
X771427Y-6335925D01*
X771427Y-6335925D02*
X885713Y-6335925D01*
X885713Y-6335925D02*
X885713Y-6035925D01*
X885713Y-6035925D02*
X785713Y-6035925D01*
X785713Y-6035925D02*
X757142Y-6050211D01*
X757142Y-6050211D02*
X742856Y-6064497D01*
X742856Y-6064497D02*
X728570Y-6093068D01*
X728570Y-6093068D02*
X728570Y-6121640D01*
X728570Y-6121640D02*
X742856Y-6150211D01*
X742856Y-6150211D02*
X757142Y-6164497D01*
X757142Y-6164497D02*
X785713Y-6178782D01*
X785713Y-6178782D02*
X885713Y-6178782D01*
X457142Y-6135925D02*
X457142Y-6335925D01*
X585713Y-6135925D02*
X585713Y-6293068D01*
X585713Y-6293068D02*
X571427Y-6321640D01*
X571427Y-6321640D02*
X542856Y-6335925D01*
X542856Y-6335925D02*
X499999Y-6335925D01*
X499999Y-6335925D02*
X471427Y-6321640D01*
X471427Y-6321640D02*
X457142Y-6307354D01*
X185713Y-6335925D02*
X185713Y-6035925D01*
X185713Y-6321640D02*
X214284Y-6335925D01*
X214284Y-6335925D02*
X271427Y-6335925D01*
X271427Y-6335925D02*
X299998Y-6321640D01*
X299998Y-6321640D02*
X314284Y-6307354D01*
X314284Y-6307354D02*
X328570Y-6278782D01*
X328570Y-6278782D02*
X328570Y-6193068D01*
X328570Y-6193068D02*
X314284Y-6164497D01*
X314284Y-6164497D02*
X299998Y-6150211D01*
X299998Y-6150211D02*
X271427Y-6135925D01*
X271427Y-6135925D02*
X214284Y-6135925D01*
X214284Y-6135925D02*
X185713Y-6150211D01*
X-185715Y-6335925D02*
X-185715Y-6035925D01*
X-185715Y-6035925D02*
X-300001Y-6035925D01*
X-300001Y-6035925D02*
X-328572Y-6050211D01*
X-328572Y-6050211D02*
X-342858Y-6064497D01*
X-342858Y-6064497D02*
X-357144Y-6093068D01*
X-357144Y-6093068D02*
X-357144Y-6135925D01*
X-357144Y-6135925D02*
X-342858Y-6164497D01*
X-342858Y-6164497D02*
X-328572Y-6178782D01*
X-328572Y-6178782D02*
X-300001Y-6193068D01*
X-300001Y-6193068D02*
X-185715Y-6193068D01*
X-485715Y-6335925D02*
X-485715Y-6035925D01*
X-485715Y-6035925D02*
X-600001Y-6035925D01*
X-600001Y-6035925D02*
X-628572Y-6050211D01*
X-628572Y-6050211D02*
X-642858Y-6064497D01*
X-642858Y-6064497D02*
X-657144Y-6093068D01*
X-657144Y-6093068D02*
X-657144Y-6135925D01*
X-657144Y-6135925D02*
X-642858Y-6164497D01*
X-642858Y-6164497D02*
X-628572Y-6178782D01*
X-628572Y-6178782D02*
X-600001Y-6193068D01*
X-600001Y-6193068D02*
X-485715Y-6193068D01*
X-942858Y-6050211D02*
X-914287Y-6035925D01*
X-914287Y-6035925D02*
X-871429Y-6035925D01*
X-871429Y-6035925D02*
X-828572Y-6050211D01*
X-828572Y-6050211D02*
X-800001Y-6078782D01*
X-800001Y-6078782D02*
X-785715Y-6107354D01*
X-785715Y-6107354D02*
X-771429Y-6164497D01*
X-771429Y-6164497D02*
X-771429Y-6207354D01*
X-771429Y-6207354D02*
X-785715Y-6264497D01*
X-785715Y-6264497D02*
X-800001Y-6293068D01*
X-800001Y-6293068D02*
X-828572Y-6321640D01*
X-828572Y-6321640D02*
X-871429Y-6335925D01*
X-871429Y-6335925D02*
X-900001Y-6335925D01*
X-900001Y-6335925D02*
X-942858Y-6321640D01*
X-942858Y-6321640D02*
X-957144Y-6307354D01*
X-957144Y-6307354D02*
X-957144Y-6207354D01*
X-957144Y-6207354D02*
X-900001Y-6207354D01*
X-1285715Y-6135925D02*
X-1357143Y-6335925D01*
X-1357143Y-6335925D02*
X-1428572Y-6135925D01*
X-1600000Y-6035925D02*
X-1628571Y-6035925D01*
X-1628571Y-6035925D02*
X-1657143Y-6050211D01*
X-1657143Y-6050211D02*
X-1671429Y-6064497D01*
X-1671429Y-6064497D02*
X-1685714Y-6093068D01*
X-1685714Y-6093068D02*
X-1700000Y-6150211D01*
X-1700000Y-6150211D02*
X-1700000Y-6221640D01*
X-1700000Y-6221640D02*
X-1685714Y-6278782D01*
X-1685714Y-6278782D02*
X-1671429Y-6307354D01*
X-1671429Y-6307354D02*
X-1657143Y-6321640D01*
X-1657143Y-6321640D02*
X-1628571Y-6335925D01*
X-1628571Y-6335925D02*
X-1600000Y-6335925D01*
X-1600000Y-6335925D02*
X-1571429Y-6321640D01*
X-1571429Y-6321640D02*
X-1557143Y-6307354D01*
X-1557143Y-6307354D02*
X-1542857Y-6278782D01*
X-1542857Y-6278782D02*
X-1528571Y-6221640D01*
X-1528571Y-6221640D02*
X-1528571Y-6150211D01*
X-1528571Y-6150211D02*
X-1542857Y-6093068D01*
X-1542857Y-6093068D02*
X-1557143Y-6064497D01*
X-1557143Y-6064497D02*
X-1571429Y-6050211D01*
X-1571429Y-6050211D02*
X-1600000Y-6035925D01*
X-1828571Y-6307354D02*
X-1842857Y-6321640D01*
X-1842857Y-6321640D02*
X-1828571Y-6335925D01*
X-1828571Y-6335925D02*
X-1814285Y-6321640D01*
X-1814285Y-6321640D02*
X-1828571Y-6307354D01*
X-1828571Y-6307354D02*
X-1828571Y-6335925D01*
X-2014285Y-6164497D02*
X-1985714Y-6150211D01*
X-1985714Y-6150211D02*
X-1971428Y-6135925D01*
X-1971428Y-6135925D02*
X-1957142Y-6107354D01*
X-1957142Y-6107354D02*
X-1957142Y-6093068D01*
X-1957142Y-6093068D02*
X-1971428Y-6064497D01*
X-1971428Y-6064497D02*
X-1985714Y-6050211D01*
X-1985714Y-6050211D02*
X-2014285Y-6035925D01*
X-2014285Y-6035925D02*
X-2071428Y-6035925D01*
X-2071428Y-6035925D02*
X-2100000Y-6050211D01*
X-2100000Y-6050211D02*
X-2114285Y-6064497D01*
X-2114285Y-6064497D02*
X-2128571Y-6093068D01*
X-2128571Y-6093068D02*
X-2128571Y-6107354D01*
X-2128571Y-6107354D02*
X-2114285Y-6135925D01*
X-2114285Y-6135925D02*
X-2100000Y-6150211D01*
X-2100000Y-6150211D02*
X-2071428Y-6164497D01*
X-2071428Y-6164497D02*
X-2014285Y-6164497D01*
X-2014285Y-6164497D02*
X-1985714Y-6178782D01*
X-1985714Y-6178782D02*
X-1971428Y-6193068D01*
X-1971428Y-6193068D02*
X-1957142Y-6221640D01*
X-1957142Y-6221640D02*
X-1957142Y-6278782D01*
X-1957142Y-6278782D02*
X-1971428Y-6307354D01*
X-1971428Y-6307354D02*
X-1985714Y-6321640D01*
X-1985714Y-6321640D02*
X-2014285Y-6335925D01*
X-2014285Y-6335925D02*
X-2071428Y-6335925D01*
X-2071428Y-6335925D02*
X-2100000Y-6321640D01*
X-2100000Y-6321640D02*
X-2114285Y-6307354D01*
X-2114285Y-6307354D02*
X-2128571Y-6278782D01*
X-2128571Y-6278782D02*
X-2128571Y-6221640D01*
X-2128571Y-6221640D02*
X-2114285Y-6193068D01*
X-2114285Y-6193068D02*
X-2100000Y-6178782D01*
X-2100000Y-6178782D02*
X-2071428Y-6164497D01*
X-5593333Y1174821D02*
X-5593333Y946250D01*
X-5593333Y946250D02*
X-5578094Y900536D01*
X-5578094Y900536D02*
X-5547618Y870060D01*
X-5547618Y870060D02*
X-5501904Y854821D01*
X-5501904Y854821D02*
X-5471428Y854821D01*
X-5882857Y1174821D02*
X-5821904Y1174821D01*
X-5821904Y1174821D02*
X-5791428Y1159583D01*
X-5791428Y1159583D02*
X-5776190Y1144345D01*
X-5776190Y1144345D02*
X-5745714Y1098631D01*
X-5745714Y1098631D02*
X-5730476Y1037679D01*
X-5730476Y1037679D02*
X-5730476Y915774D01*
X-5730476Y915774D02*
X-5745714Y885298D01*
X-5745714Y885298D02*
X-5760952Y870060D01*
X-5760952Y870060D02*
X-5791428Y854821D01*
X-5791428Y854821D02*
X-5852381Y854821D01*
X-5852381Y854821D02*
X-5882857Y870060D01*
X-5882857Y870060D02*
X-5898095Y885298D01*
X-5898095Y885298D02*
X-5913333Y915774D01*
X-5913333Y915774D02*
X-5913333Y991964D01*
X-5913333Y991964D02*
X-5898095Y1022440D01*
X-5898095Y1022440D02*
X-5882857Y1037679D01*
X-5882857Y1037679D02*
X-5852381Y1052917D01*
X-5852381Y1052917D02*
X-5791428Y1052917D01*
X-5791428Y1052917D02*
X-5760952Y1037679D01*
X-5760952Y1037679D02*
X-5745714Y1022440D01*
X-5745714Y1022440D02*
X-5730476Y991964D01*
X-5493333Y-1125178D02*
X-5493333Y-1353749D01*
X-5493333Y-1353749D02*
X-5478094Y-1399463D01*
X-5478094Y-1399463D02*
X-5447618Y-1429940D01*
X-5447618Y-1429940D02*
X-5401904Y-1445178D01*
X-5401904Y-1445178D02*
X-5371428Y-1445178D01*
X-5798095Y-1125178D02*
X-5645714Y-1125178D01*
X-5645714Y-1125178D02*
X-5630476Y-1277559D01*
X-5630476Y-1277559D02*
X-5645714Y-1262320D01*
X-5645714Y-1262320D02*
X-5676190Y-1247082D01*
X-5676190Y-1247082D02*
X-5752381Y-1247082D01*
X-5752381Y-1247082D02*
X-5782857Y-1262320D01*
X-5782857Y-1262320D02*
X-5798095Y-1277559D01*
X-5798095Y-1277559D02*
X-5813333Y-1308035D01*
X-5813333Y-1308035D02*
X-5813333Y-1384225D01*
X-5813333Y-1384225D02*
X-5798095Y-1414701D01*
X-5798095Y-1414701D02*
X-5782857Y-1429940D01*
X-5782857Y-1429940D02*
X-5752381Y-1445178D01*
X-5752381Y-1445178D02*
X-5676190Y-1445178D01*
X-5676190Y-1445178D02*
X-5645714Y-1429940D01*
X-5645714Y-1429940D02*
X-5630476Y-1414701D01*
X-4593333Y2774821D02*
X-4593333Y2546250D01*
X-4593333Y2546250D02*
X-4578094Y2500536D01*
X-4578094Y2500536D02*
X-4547618Y2470060D01*
X-4547618Y2470060D02*
X-4501904Y2454821D01*
X-4501904Y2454821D02*
X-4471428Y2454821D01*
X-4760952Y2454821D02*
X-4821904Y2454821D01*
X-4821904Y2454821D02*
X-4852381Y2470060D01*
X-4852381Y2470060D02*
X-4867619Y2485298D01*
X-4867619Y2485298D02*
X-4898095Y2531012D01*
X-4898095Y2531012D02*
X-4913333Y2591964D01*
X-4913333Y2591964D02*
X-4913333Y2713869D01*
X-4913333Y2713869D02*
X-4898095Y2744345D01*
X-4898095Y2744345D02*
X-4882857Y2759583D01*
X-4882857Y2759583D02*
X-4852381Y2774821D01*
X-4852381Y2774821D02*
X-4791428Y2774821D01*
X-4791428Y2774821D02*
X-4760952Y2759583D01*
X-4760952Y2759583D02*
X-4745714Y2744345D01*
X-4745714Y2744345D02*
X-4730476Y2713869D01*
X-4730476Y2713869D02*
X-4730476Y2637679D01*
X-4730476Y2637679D02*
X-4745714Y2607202D01*
X-4745714Y2607202D02*
X-4760952Y2591964D01*
X-4760952Y2591964D02*
X-4791428Y2576726D01*
X-4791428Y2576726D02*
X-4852381Y2576726D01*
X-4852381Y2576726D02*
X-4882857Y2591964D01*
X-4882857Y2591964D02*
X-4898095Y2607202D01*
X-4898095Y2607202D02*
X-4913333Y2637679D01*
X-4293333Y-3675178D02*
X-4293333Y-3903749D01*
X-4293333Y-3903749D02*
X-4278094Y-3949463D01*
X-4278094Y-3949463D02*
X-4247618Y-3979940D01*
X-4247618Y-3979940D02*
X-4201904Y-3995178D01*
X-4201904Y-3995178D02*
X-4171428Y-3995178D01*
X-4613333Y-3995178D02*
X-4430476Y-3995178D01*
X-4521904Y-3995178D02*
X-4521904Y-3675178D01*
X-4521904Y-3675178D02*
X-4491428Y-3720892D01*
X-4491428Y-3720892D02*
X-4460952Y-3751368D01*
X-4460952Y-3751368D02*
X-4430476Y-3766606D01*
X106666Y-5675178D02*
X106666Y-5903749D01*
X106666Y-5903749D02*
X121905Y-5949463D01*
X121905Y-5949463D02*
X152381Y-5979940D01*
X152381Y-5979940D02*
X198095Y-5995178D01*
X198095Y-5995178D02*
X228571Y-5995178D01*
X-30476Y-5705654D02*
X-45714Y-5690416D01*
X-45714Y-5690416D02*
X-76190Y-5675178D01*
X-76190Y-5675178D02*
X-152381Y-5675178D01*
X-152381Y-5675178D02*
X-182857Y-5690416D01*
X-182857Y-5690416D02*
X-198095Y-5705654D01*
X-198095Y-5705654D02*
X-213333Y-5736130D01*
X-213333Y-5736130D02*
X-213333Y-5766606D01*
X-213333Y-5766606D02*
X-198095Y-5812320D01*
X-198095Y-5812320D02*
X-15238Y-5995178D01*
X-15238Y-5995178D02*
X-213333Y-5995178D01*
X2706666Y2774821D02*
X2706666Y2546250D01*
X2706666Y2546250D02*
X2721905Y2500536D01*
X2721905Y2500536D02*
X2752381Y2470060D01*
X2752381Y2470060D02*
X2798095Y2454821D01*
X2798095Y2454821D02*
X2828571Y2454821D01*
X2584761Y2774821D02*
X2371428Y2774821D01*
X2371428Y2774821D02*
X2508571Y2454821D01*
X3806666Y3024821D02*
X3806666Y2796250D01*
X3806666Y2796250D02*
X3821905Y2750536D01*
X3821905Y2750536D02*
X3852381Y2720060D01*
X3852381Y2720060D02*
X3898095Y2704821D01*
X3898095Y2704821D02*
X3928571Y2704821D01*
X3608571Y2887679D02*
X3639047Y2902917D01*
X3639047Y2902917D02*
X3654285Y2918155D01*
X3654285Y2918155D02*
X3669523Y2948631D01*
X3669523Y2948631D02*
X3669523Y2963869D01*
X3669523Y2963869D02*
X3654285Y2994345D01*
X3654285Y2994345D02*
X3639047Y3009583D01*
X3639047Y3009583D02*
X3608571Y3024821D01*
X3608571Y3024821D02*
X3547618Y3024821D01*
X3547618Y3024821D02*
X3517142Y3009583D01*
X3517142Y3009583D02*
X3501904Y2994345D01*
X3501904Y2994345D02*
X3486666Y2963869D01*
X3486666Y2963869D02*
X3486666Y2948631D01*
X3486666Y2948631D02*
X3501904Y2918155D01*
X3501904Y2918155D02*
X3517142Y2902917D01*
X3517142Y2902917D02*
X3547618Y2887679D01*
X3547618Y2887679D02*
X3608571Y2887679D01*
X3608571Y2887679D02*
X3639047Y2872440D01*
X3639047Y2872440D02*
X3654285Y2857202D01*
X3654285Y2857202D02*
X3669523Y2826726D01*
X3669523Y2826726D02*
X3669523Y2765774D01*
X3669523Y2765774D02*
X3654285Y2735298D01*
X3654285Y2735298D02*
X3639047Y2720060D01*
X3639047Y2720060D02*
X3608571Y2704821D01*
X3608571Y2704821D02*
X3547618Y2704821D01*
X3547618Y2704821D02*
X3517142Y2720060D01*
X3517142Y2720060D02*
X3501904Y2735298D01*
X3501904Y2735298D02*
X3486666Y2765774D01*
X3486666Y2765774D02*
X3486666Y2826726D01*
X3486666Y2826726D02*
X3501904Y2857202D01*
X3501904Y2857202D02*
X3517142Y2872440D01*
X3517142Y2872440D02*
X3547618Y2887679D01*
X5706666Y-1125178D02*
X5706666Y-1353749D01*
X5706666Y-1353749D02*
X5721905Y-1399463D01*
X5721905Y-1399463D02*
X5752381Y-1429940D01*
X5752381Y-1429940D02*
X5798095Y-1445178D01*
X5798095Y-1445178D02*
X5828571Y-1445178D01*
X5584761Y-1125178D02*
X5386666Y-1125178D01*
X5386666Y-1125178D02*
X5493333Y-1247082D01*
X5493333Y-1247082D02*
X5447618Y-1247082D01*
X5447618Y-1247082D02*
X5417142Y-1262320D01*
X5417142Y-1262320D02*
X5401904Y-1277559D01*
X5401904Y-1277559D02*
X5386666Y-1308035D01*
X5386666Y-1308035D02*
X5386666Y-1384225D01*
X5386666Y-1384225D02*
X5401904Y-1414701D01*
X5401904Y-1414701D02*
X5417142Y-1429940D01*
X5417142Y-1429940D02*
X5447618Y-1445178D01*
X5447618Y-1445178D02*
X5539047Y-1445178D01*
X5539047Y-1445178D02*
X5569523Y-1429940D01*
X5569523Y-1429940D02*
X5584761Y-1414701D01*
X5806666Y1174821D02*
X5806666Y946250D01*
X5806666Y946250D02*
X5821905Y900536D01*
X5821905Y900536D02*
X5852381Y870060D01*
X5852381Y870060D02*
X5898095Y854821D01*
X5898095Y854821D02*
X5928571Y854821D01*
X5517142Y1068155D02*
X5517142Y854821D01*
X5593333Y1190060D02*
X5669523Y961488D01*
X5669523Y961488D02*
X5471428Y961488D01*
D11*
X-2751428Y292634D02*
X-2751428Y-290222D01*
X-2751428Y-290222D02*
X-2785714Y-358794D01*
X-2785714Y-358794D02*
X-2820000Y-393080D01*
X-2820000Y-393080D02*
X-2888571Y-427365D01*
X-2888571Y-427365D02*
X-3025714Y-427365D01*
X-3025714Y-427365D02*
X-3094285Y-393080D01*
X-3094285Y-393080D02*
X-3128571Y-358794D01*
X-3128571Y-358794D02*
X-3162857Y-290222D01*
X-3162857Y-290222D02*
X-3162857Y292634D01*
X-3814286Y292634D02*
X-3677143Y292634D01*
X-3677143Y292634D02*
X-3608571Y258348D01*
X-3608571Y258348D02*
X-3574286Y224062D01*
X-3574286Y224062D02*
X-3505714Y121205D01*
X-3505714Y121205D02*
X-3471428Y-15937D01*
X-3471428Y-15937D02*
X-3471428Y-290222D01*
X-3471428Y-290222D02*
X-3505714Y-358794D01*
X-3505714Y-358794D02*
X-3540000Y-393080D01*
X-3540000Y-393080D02*
X-3608571Y-427365D01*
X-3608571Y-427365D02*
X-3745714Y-427365D01*
X-3745714Y-427365D02*
X-3814286Y-393080D01*
X-3814286Y-393080D02*
X-3848571Y-358794D01*
X-3848571Y-358794D02*
X-3882857Y-290222D01*
X-3882857Y-290222D02*
X-3882857Y-118794D01*
X-3882857Y-118794D02*
X-3848571Y-50222D01*
X-3848571Y-50222D02*
X-3814286Y-15937D01*
X-3814286Y-15937D02*
X-3745714Y18348D01*
X-3745714Y18348D02*
X-3608571Y18348D01*
X-3608571Y18348D02*
X-3540000Y-15937D01*
X-3540000Y-15937D02*
X-3505714Y-50222D01*
X-3505714Y-50222D02*
X-3471428Y-118794D01*
D12*
X5369765Y-3339285D02*
X5381670Y-3327381D01*
X5381670Y-3327381D02*
X5393574Y-3291666D01*
X5393574Y-3291666D02*
X5393574Y-3267857D01*
X5393574Y-3267857D02*
X5381670Y-3232143D01*
X5381670Y-3232143D02*
X5357860Y-3208333D01*
X5357860Y-3208333D02*
X5334050Y-3196428D01*
X5334050Y-3196428D02*
X5286431Y-3184524D01*
X5286431Y-3184524D02*
X5250717Y-3184524D01*
X5250717Y-3184524D02*
X5203098Y-3196428D01*
X5203098Y-3196428D02*
X5179289Y-3208333D01*
X5179289Y-3208333D02*
X5155479Y-3232143D01*
X5155479Y-3232143D02*
X5143574Y-3267857D01*
X5143574Y-3267857D02*
X5143574Y-3291666D01*
X5143574Y-3291666D02*
X5155479Y-3327381D01*
X5155479Y-3327381D02*
X5167384Y-3339285D01*
X5393574Y-3577381D02*
X5393574Y-3434524D01*
X5393574Y-3505952D02*
X5143574Y-3505952D01*
X5143574Y-3505952D02*
X5179289Y-3482143D01*
X5179289Y-3482143D02*
X5203098Y-3458333D01*
X5203098Y-3458333D02*
X5215003Y-3434524D01*
X5226908Y-3791666D02*
X5393574Y-3791666D01*
X5131670Y-3732142D02*
X5310241Y-3672619D01*
X5310241Y-3672619D02*
X5310241Y-3827380D01*
X-206425Y691666D02*
X-325472Y774999D01*
X-206425Y834523D02*
X-456425Y834523D01*
X-456425Y834523D02*
X-456425Y739285D01*
X-456425Y739285D02*
X-444520Y715475D01*
X-444520Y715475D02*
X-432615Y703570D01*
X-432615Y703570D02*
X-408806Y691666D01*
X-408806Y691666D02*
X-373091Y691666D01*
X-373091Y691666D02*
X-349282Y703570D01*
X-349282Y703570D02*
X-337377Y715475D01*
X-337377Y715475D02*
X-325472Y739285D01*
X-325472Y739285D02*
X-325472Y834523D01*
X-206425Y453570D02*
X-206425Y596427D01*
X-206425Y524999D02*
X-456425Y524999D01*
X-456425Y524999D02*
X-420710Y548808D01*
X-420710Y548808D02*
X-396901Y572618D01*
X-396901Y572618D02*
X-384996Y596427D01*
X-2958333Y3090234D02*
X-2946429Y3078330D01*
X-2946429Y3078330D02*
X-2910714Y3066425D01*
X-2910714Y3066425D02*
X-2886905Y3066425D01*
X-2886905Y3066425D02*
X-2851191Y3078330D01*
X-2851191Y3078330D02*
X-2827381Y3102139D01*
X-2827381Y3102139D02*
X-2815476Y3125949D01*
X-2815476Y3125949D02*
X-2803572Y3173568D01*
X-2803572Y3173568D02*
X-2803572Y3209282D01*
X-2803572Y3209282D02*
X-2815476Y3256901D01*
X-2815476Y3256901D02*
X-2827381Y3280710D01*
X-2827381Y3280710D02*
X-2851191Y3304520D01*
X-2851191Y3304520D02*
X-2886905Y3316425D01*
X-2886905Y3316425D02*
X-2910714Y3316425D01*
X-2910714Y3316425D02*
X-2946429Y3304520D01*
X-2946429Y3304520D02*
X-2958333Y3292615D01*
X-3041667Y3316425D02*
X-3208333Y3316425D01*
X-3208333Y3316425D02*
X-3101191Y3066425D01*
X2860714Y5490234D02*
X2872618Y5478330D01*
X2872618Y5478330D02*
X2908333Y5466425D01*
X2908333Y5466425D02*
X2932142Y5466425D01*
X2932142Y5466425D02*
X2967856Y5478330D01*
X2967856Y5478330D02*
X2991666Y5502139D01*
X2991666Y5502139D02*
X3003571Y5525949D01*
X3003571Y5525949D02*
X3015475Y5573568D01*
X3015475Y5573568D02*
X3015475Y5609282D01*
X3015475Y5609282D02*
X3003571Y5656901D01*
X3003571Y5656901D02*
X2991666Y5680710D01*
X2991666Y5680710D02*
X2967856Y5704520D01*
X2967856Y5704520D02*
X2932142Y5716425D01*
X2932142Y5716425D02*
X2908333Y5716425D01*
X2908333Y5716425D02*
X2872618Y5704520D01*
X2872618Y5704520D02*
X2860714Y5692615D01*
X2622618Y5466425D02*
X2765475Y5466425D01*
X2694047Y5466425D02*
X2694047Y5716425D01*
X2694047Y5716425D02*
X2717856Y5680710D01*
X2717856Y5680710D02*
X2741666Y5656901D01*
X2741666Y5656901D02*
X2765475Y5644996D01*
X2527380Y5692615D02*
X2515476Y5704520D01*
X2515476Y5704520D02*
X2491666Y5716425D01*
X2491666Y5716425D02*
X2432142Y5716425D01*
X2432142Y5716425D02*
X2408333Y5704520D01*
X2408333Y5704520D02*
X2396428Y5692615D01*
X2396428Y5692615D02*
X2384523Y5668806D01*
X2384523Y5668806D02*
X2384523Y5644996D01*
X2384523Y5644996D02*
X2396428Y5609282D01*
X2396428Y5609282D02*
X2539285Y5466425D01*
X2539285Y5466425D02*
X2384523Y5466425D01*
X1793574Y691666D02*
X1674527Y774999D01*
X1793574Y834523D02*
X1543574Y834523D01*
X1543574Y834523D02*
X1543574Y739285D01*
X1543574Y739285D02*
X1555479Y715475D01*
X1555479Y715475D02*
X1567384Y703570D01*
X1567384Y703570D02*
X1591193Y691666D01*
X1591193Y691666D02*
X1626908Y691666D01*
X1626908Y691666D02*
X1650717Y703570D01*
X1650717Y703570D02*
X1662622Y715475D01*
X1662622Y715475D02*
X1674527Y739285D01*
X1674527Y739285D02*
X1674527Y834523D01*
X1567384Y596427D02*
X1555479Y584523D01*
X1555479Y584523D02*
X1543574Y560713D01*
X1543574Y560713D02*
X1543574Y501189D01*
X1543574Y501189D02*
X1555479Y477380D01*
X1555479Y477380D02*
X1567384Y465475D01*
X1567384Y465475D02*
X1591193Y453570D01*
X1591193Y453570D02*
X1615003Y453570D01*
X1615003Y453570D02*
X1650717Y465475D01*
X1650717Y465475D02*
X1793574Y608332D01*
X1793574Y608332D02*
X1793574Y453570D01*
X-4539285Y-2839765D02*
X-4527381Y-2851670D01*
X-4527381Y-2851670D02*
X-4491666Y-2863574D01*
X-4491666Y-2863574D02*
X-4467857Y-2863574D01*
X-4467857Y-2863574D02*
X-4432143Y-2851670D01*
X-4432143Y-2851670D02*
X-4408333Y-2827860D01*
X-4408333Y-2827860D02*
X-4396428Y-2804050D01*
X-4396428Y-2804050D02*
X-4384524Y-2756431D01*
X-4384524Y-2756431D02*
X-4384524Y-2720717D01*
X-4384524Y-2720717D02*
X-4396428Y-2673098D01*
X-4396428Y-2673098D02*
X-4408333Y-2649289D01*
X-4408333Y-2649289D02*
X-4432143Y-2625479D01*
X-4432143Y-2625479D02*
X-4467857Y-2613574D01*
X-4467857Y-2613574D02*
X-4491666Y-2613574D01*
X-4491666Y-2613574D02*
X-4527381Y-2625479D01*
X-4527381Y-2625479D02*
X-4539285Y-2637384D01*
X-4777381Y-2863574D02*
X-4634524Y-2863574D01*
X-4705952Y-2863574D02*
X-4705952Y-2613574D01*
X-4705952Y-2613574D02*
X-4682143Y-2649289D01*
X-4682143Y-2649289D02*
X-4658333Y-2673098D01*
X-4658333Y-2673098D02*
X-4634524Y-2685003D01*
X-4860714Y-2613574D02*
X-5015476Y-2613574D01*
X-5015476Y-2613574D02*
X-4932142Y-2708812D01*
X-4932142Y-2708812D02*
X-4967857Y-2708812D01*
X-4967857Y-2708812D02*
X-4991666Y-2720717D01*
X-4991666Y-2720717D02*
X-5003571Y-2732622D01*
X-5003571Y-2732622D02*
X-5015476Y-2756431D01*
X-5015476Y-2756431D02*
X-5015476Y-2815955D01*
X-5015476Y-2815955D02*
X-5003571Y-2839765D01*
X-5003571Y-2839765D02*
X-4991666Y-2851670D01*
X-4991666Y-2851670D02*
X-4967857Y-2863574D01*
X-4967857Y-2863574D02*
X-4896428Y-2863574D01*
X-4896428Y-2863574D02*
X-4872619Y-2851670D01*
X-4872619Y-2851670D02*
X-4860714Y-2839765D01*
X5269765Y3341666D02*
X5281670Y3353570D01*
X5281670Y3353570D02*
X5293574Y3389285D01*
X5293574Y3389285D02*
X5293574Y3413094D01*
X5293574Y3413094D02*
X5281670Y3448808D01*
X5281670Y3448808D02*
X5257860Y3472618D01*
X5257860Y3472618D02*
X5234050Y3484523D01*
X5234050Y3484523D02*
X5186431Y3496427D01*
X5186431Y3496427D02*
X5150717Y3496427D01*
X5150717Y3496427D02*
X5103098Y3484523D01*
X5103098Y3484523D02*
X5079289Y3472618D01*
X5079289Y3472618D02*
X5055479Y3448808D01*
X5055479Y3448808D02*
X5043574Y3413094D01*
X5043574Y3413094D02*
X5043574Y3389285D01*
X5043574Y3389285D02*
X5055479Y3353570D01*
X5055479Y3353570D02*
X5067384Y3341666D01*
X5043574Y3127380D02*
X5043574Y3174999D01*
X5043574Y3174999D02*
X5055479Y3198808D01*
X5055479Y3198808D02*
X5067384Y3210713D01*
X5067384Y3210713D02*
X5103098Y3234523D01*
X5103098Y3234523D02*
X5150717Y3246427D01*
X5150717Y3246427D02*
X5245955Y3246427D01*
X5245955Y3246427D02*
X5269765Y3234523D01*
X5269765Y3234523D02*
X5281670Y3222618D01*
X5281670Y3222618D02*
X5293574Y3198808D01*
X5293574Y3198808D02*
X5293574Y3151189D01*
X5293574Y3151189D02*
X5281670Y3127380D01*
X5281670Y3127380D02*
X5269765Y3115475D01*
X5269765Y3115475D02*
X5245955Y3103570D01*
X5245955Y3103570D02*
X5186431Y3103570D01*
X5186431Y3103570D02*
X5162622Y3115475D01*
X5162622Y3115475D02*
X5150717Y3127380D01*
X5150717Y3127380D02*
X5138812Y3151189D01*
X5138812Y3151189D02*
X5138812Y3198808D01*
X5138812Y3198808D02*
X5150717Y3222618D01*
X5150717Y3222618D02*
X5162622Y3234523D01*
X5162622Y3234523D02*
X5186431Y3246427D01*
X41666Y-2259765D02*
X53570Y-2271670D01*
X53570Y-2271670D02*
X89285Y-2283574D01*
X89285Y-2283574D02*
X113094Y-2283574D01*
X113094Y-2283574D02*
X148808Y-2271670D01*
X148808Y-2271670D02*
X172618Y-2247860D01*
X172618Y-2247860D02*
X184523Y-2224050D01*
X184523Y-2224050D02*
X196427Y-2176431D01*
X196427Y-2176431D02*
X196427Y-2140717D01*
X196427Y-2140717D02*
X184523Y-2093098D01*
X184523Y-2093098D02*
X172618Y-2069289D01*
X172618Y-2069289D02*
X148808Y-2045479D01*
X148808Y-2045479D02*
X113094Y-2033574D01*
X113094Y-2033574D02*
X89285Y-2033574D01*
X89285Y-2033574D02*
X53570Y-2045479D01*
X53570Y-2045479D02*
X41666Y-2057384D01*
X-196429Y-2283574D02*
X-53572Y-2283574D01*
X-125000Y-2283574D02*
X-125000Y-2033574D01*
X-125000Y-2033574D02*
X-101191Y-2069289D01*
X-101191Y-2069289D02*
X-77381Y-2093098D01*
X-77381Y-2093098D02*
X-53572Y-2105003D01*
D11*
X3848571Y292634D02*
X3848571Y-290222D01*
X3848571Y-290222D02*
X3814285Y-358794D01*
X3814285Y-358794D02*
X3780000Y-393080D01*
X3780000Y-393080D02*
X3711428Y-427365D01*
X3711428Y-427365D02*
X3574285Y-427365D01*
X3574285Y-427365D02*
X3505714Y-393080D01*
X3505714Y-393080D02*
X3471428Y-358794D01*
X3471428Y-358794D02*
X3437142Y-290222D01*
X3437142Y-290222D02*
X3437142Y292634D01*
X3162856Y292634D02*
X2717142Y292634D01*
X2717142Y292634D02*
X2957142Y18348D01*
X2957142Y18348D02*
X2854285Y18348D01*
X2854285Y18348D02*
X2785714Y-15937D01*
X2785714Y-15937D02*
X2751428Y-50222D01*
X2751428Y-50222D02*
X2717142Y-118794D01*
X2717142Y-118794D02*
X2717142Y-290222D01*
X2717142Y-290222D02*
X2751428Y-358794D01*
X2751428Y-358794D02*
X2785714Y-393080D01*
X2785714Y-393080D02*
X2854285Y-427365D01*
X2854285Y-427365D02*
X3059999Y-427365D01*
X3059999Y-427365D02*
X3128571Y-393080D01*
X3128571Y-393080D02*
X3162856Y-358794D01*
X-1278571Y-3961244D02*
X-1278571Y-4568387D01*
X-1278571Y-4568387D02*
X-1314285Y-4639815D01*
X-1314285Y-4639815D02*
X-1350000Y-4675530D01*
X-1350000Y-4675530D02*
X-1421428Y-4711244D01*
X-1421428Y-4711244D02*
X-1564285Y-4711244D01*
X-1564285Y-4711244D02*
X-1635714Y-4675530D01*
X-1635714Y-4675530D02*
X-1671428Y-4639815D01*
X-1671428Y-4639815D02*
X-1707142Y-4568387D01*
X-1707142Y-4568387D02*
X-1707142Y-3961244D01*
X-2385714Y-4211244D02*
X-2385714Y-4711244D01*
X-2207142Y-3925530D02*
X-2028571Y-4461244D01*
X-2028571Y-4461244D02*
X-2492856Y-4461244D01*
D12*
X-2539285Y4390234D02*
X-2527381Y4378330D01*
X-2527381Y4378330D02*
X-2491666Y4366425D01*
X-2491666Y4366425D02*
X-2467857Y4366425D01*
X-2467857Y4366425D02*
X-2432143Y4378330D01*
X-2432143Y4378330D02*
X-2408333Y4402139D01*
X-2408333Y4402139D02*
X-2396428Y4425949D01*
X-2396428Y4425949D02*
X-2384524Y4473568D01*
X-2384524Y4473568D02*
X-2384524Y4509282D01*
X-2384524Y4509282D02*
X-2396428Y4556901D01*
X-2396428Y4556901D02*
X-2408333Y4580710D01*
X-2408333Y4580710D02*
X-2432143Y4604520D01*
X-2432143Y4604520D02*
X-2467857Y4616425D01*
X-2467857Y4616425D02*
X-2491666Y4616425D01*
X-2491666Y4616425D02*
X-2527381Y4604520D01*
X-2527381Y4604520D02*
X-2539285Y4592615D01*
X-2777381Y4366425D02*
X-2634524Y4366425D01*
X-2705952Y4366425D02*
X-2705952Y4616425D01*
X-2705952Y4616425D02*
X-2682143Y4580710D01*
X-2682143Y4580710D02*
X-2658333Y4556901D01*
X-2658333Y4556901D02*
X-2634524Y4544996D01*
X-3015476Y4366425D02*
X-2872619Y4366425D01*
X-2944047Y4366425D02*
X-2944047Y4616425D01*
X-2944047Y4616425D02*
X-2920238Y4580710D01*
X-2920238Y4580710D02*
X-2896428Y4556901D01*
X-2896428Y4556901D02*
X-2872619Y4544996D01*
X-230234Y-808333D02*
X-218330Y-796429D01*
X-218330Y-796429D02*
X-206425Y-760714D01*
X-206425Y-760714D02*
X-206425Y-736905D01*
X-206425Y-736905D02*
X-218330Y-701191D01*
X-218330Y-701191D02*
X-242139Y-677381D01*
X-242139Y-677381D02*
X-265949Y-665476D01*
X-265949Y-665476D02*
X-313568Y-653572D01*
X-313568Y-653572D02*
X-349282Y-653572D01*
X-349282Y-653572D02*
X-396901Y-665476D01*
X-396901Y-665476D02*
X-420710Y-677381D01*
X-420710Y-677381D02*
X-444520Y-701191D01*
X-444520Y-701191D02*
X-456425Y-736905D01*
X-456425Y-736905D02*
X-456425Y-760714D01*
X-456425Y-760714D02*
X-444520Y-796429D01*
X-444520Y-796429D02*
X-432615Y-808333D01*
X-373091Y-1022619D02*
X-206425Y-1022619D01*
X-468330Y-963095D02*
X-289758Y-903572D01*
X-289758Y-903572D02*
X-289758Y-1058333D01*
D13*
X533333Y4381366D02*
X533333Y3814700D01*
X533333Y3814700D02*
X500000Y3748033D01*
X500000Y3748033D02*
X466666Y3714700D01*
X466666Y3714700D02*
X400000Y3681366D01*
X400000Y3681366D02*
X266666Y3681366D01*
X266666Y3681366D02*
X200000Y3714700D01*
X200000Y3714700D02*
X166666Y3748033D01*
X166666Y3748033D02*
X133333Y3814700D01*
X133333Y3814700D02*
X133333Y4381366D01*
X-166666Y4314700D02*
X-199999Y4348033D01*
X-199999Y4348033D02*
X-266666Y4381366D01*
X-266666Y4381366D02*
X-433333Y4381366D01*
X-433333Y4381366D02*
X-499999Y4348033D01*
X-499999Y4348033D02*
X-533333Y4314700D01*
X-533333Y4314700D02*
X-566666Y4248033D01*
X-566666Y4248033D02*
X-566666Y4181366D01*
X-566666Y4181366D02*
X-533333Y4081366D01*
X-533333Y4081366D02*
X-133333Y3681366D01*
X-133333Y3681366D02*
X-566666Y3681366D01*
D11*
X2421428Y-3961244D02*
X2421428Y-4568387D01*
X2421428Y-4568387D02*
X2385714Y-4639815D01*
X2385714Y-4639815D02*
X2350000Y-4675530D01*
X2350000Y-4675530D02*
X2278571Y-4711244D01*
X2278571Y-4711244D02*
X2135714Y-4711244D01*
X2135714Y-4711244D02*
X2064285Y-4675530D01*
X2064285Y-4675530D02*
X2028571Y-4639815D01*
X2028571Y-4639815D02*
X1992857Y-4568387D01*
X1992857Y-4568387D02*
X1992857Y-3961244D01*
X1278571Y-3961244D02*
X1635714Y-3961244D01*
X1635714Y-3961244D02*
X1671428Y-4318387D01*
X1671428Y-4318387D02*
X1635714Y-4282672D01*
X1635714Y-4282672D02*
X1564286Y-4246958D01*
X1564286Y-4246958D02*
X1385714Y-4246958D01*
X1385714Y-4246958D02*
X1314286Y-4282672D01*
X1314286Y-4282672D02*
X1278571Y-4318387D01*
X1278571Y-4318387D02*
X1242857Y-4389815D01*
X1242857Y-4389815D02*
X1242857Y-4568387D01*
X1242857Y-4568387D02*
X1278571Y-4639815D01*
X1278571Y-4639815D02*
X1314286Y-4675530D01*
X1314286Y-4675530D02*
X1385714Y-4711244D01*
X1385714Y-4711244D02*
X1564286Y-4711244D01*
X1564286Y-4711244D02*
X1635714Y-4675530D01*
X1635714Y-4675530D02*
X1671428Y-4639815D01*
D12*
X1769765Y-808333D02*
X1781670Y-796429D01*
X1781670Y-796429D02*
X1793574Y-760714D01*
X1793574Y-760714D02*
X1793574Y-736905D01*
X1793574Y-736905D02*
X1781670Y-701191D01*
X1781670Y-701191D02*
X1757860Y-677381D01*
X1757860Y-677381D02*
X1734050Y-665476D01*
X1734050Y-665476D02*
X1686431Y-653572D01*
X1686431Y-653572D02*
X1650717Y-653572D01*
X1650717Y-653572D02*
X1603098Y-665476D01*
X1603098Y-665476D02*
X1579289Y-677381D01*
X1579289Y-677381D02*
X1555479Y-701191D01*
X1555479Y-701191D02*
X1543574Y-736905D01*
X1543574Y-736905D02*
X1543574Y-760714D01*
X1543574Y-760714D02*
X1555479Y-796429D01*
X1555479Y-796429D02*
X1567384Y-808333D01*
X1543574Y-1034524D02*
X1543574Y-915476D01*
X1543574Y-915476D02*
X1662622Y-903572D01*
X1662622Y-903572D02*
X1650717Y-915476D01*
X1650717Y-915476D02*
X1638812Y-939286D01*
X1638812Y-939286D02*
X1638812Y-998810D01*
X1638812Y-998810D02*
X1650717Y-1022619D01*
X1650717Y-1022619D02*
X1662622Y-1034524D01*
X1662622Y-1034524D02*
X1686431Y-1046429D01*
X1686431Y-1046429D02*
X1745955Y-1046429D01*
X1745955Y-1046429D02*
X1769765Y-1034524D01*
X1769765Y-1034524D02*
X1781670Y-1022619D01*
X1781670Y-1022619D02*
X1793574Y-998810D01*
X1793574Y-998810D02*
X1793574Y-939286D01*
X1793574Y-939286D02*
X1781670Y-915476D01*
X1781670Y-915476D02*
X1769765Y-903572D01*
D13*
G04 #@! TO.C,U6*
X-1850000Y-500000D02*
X-1850000Y700000D01*
X-4750000Y700000D01*
X-4750000Y-900000D01*
X-2250000Y-900000D01*
X-1850000Y-500000D01*
G04 #@! TO.C,C14*
X4450000Y-3200000D02*
X4750000Y-3200000D01*
X4750000Y-3800000D01*
X4450000Y-3800000D01*
X4450000Y-3200000D01*
G04 #@! TO.C,R1*
X-1150000Y950000D02*
X-850000Y950000D01*
X-850000Y350000D01*
X-1150000Y350000D01*
X-1150000Y950000D01*
G04 #@! TO.C,C7*
X-3300000Y2650000D02*
X-2700000Y2650000D01*
X-2700000Y2350000D01*
X-3300000Y2350000D01*
X-3300000Y2650000D01*
G04 #@! TO.C,C12*
X2400000Y5050000D02*
X3000000Y5050000D01*
X3000000Y4750000D01*
X2400000Y4750000D01*
X2400000Y5050000D01*
G04 #@! TO.C,R2*
X850000Y950000D02*
X1150000Y950000D01*
X1150000Y350000D01*
X850000Y350000D01*
X850000Y950000D01*
G04 #@! TO.C,C13*
X-5200000Y-2500000D02*
X-4200000Y-2500000D01*
X-4200000Y-3000000D01*
X-5200000Y-3000000D01*
X-5200000Y-2500000D01*
G04 #@! TO.C,C6*
X4350000Y3600000D02*
X4650000Y3600000D01*
X4650000Y3000000D01*
X4350000Y3000000D01*
X4350000Y3600000D01*
G04 #@! TO.C,C1*
X-500000Y-1920000D02*
X500000Y-1920000D01*
X500000Y-2420000D01*
X-500000Y-2420000D01*
X-500000Y-1920000D01*
G04 #@! TO.C,U3*
X1850000Y300000D02*
X1850000Y-900000D01*
X4750000Y-900000D01*
X4750000Y700000D01*
X2250000Y700000D01*
X1850000Y300000D01*
G04 #@! TO.C,U4*
X-350000Y-4870000D02*
X-350000Y-3370000D01*
X-3350000Y-3370000D01*
X-3350000Y-5370000D01*
X-850000Y-5370000D01*
X-350000Y-4870000D01*
G04 #@! TO.C,C11*
X-3000000Y3950000D02*
X-2400000Y3950000D01*
X-2400000Y3650000D01*
X-3000000Y3650000D01*
X-3000000Y3950000D01*
G04 #@! TO.C,C4*
X-1150000Y-550000D02*
X-850000Y-550000D01*
X-850000Y-1150000D01*
X-1150000Y-1150000D01*
X-1150000Y-550000D01*
G04 #@! TO.C,U2*
X-1500000Y5500000D02*
X-1500000Y3500000D01*
X-1500000Y3500000D02*
X-500000Y2500000D01*
X-500000Y2500000D02*
X1500000Y2500000D01*
X1500000Y5500000D02*
X-1500000Y5500000D01*
X1500000Y2500000D02*
X1500000Y5500000D01*
G04 #@! TO.C,U5*
X3350000Y-4870000D02*
X3350000Y-3370000D01*
X350000Y-3370000D01*
X350000Y-5370000D01*
X2850000Y-5370000D01*
X3350000Y-4870000D01*
G04 #@! TO.C,C5*
X850000Y-550000D02*
X1150000Y-550000D01*
X1150000Y-1150000D01*
X850000Y-1150000D01*
X850000Y-550000D01*
G04 #@! TD*
M02*
