G04 #@! TF.GenerationSoftware,KiCad,Pcbnew,10.0.6*
G04 #@! TF.CreationDate,2026-09-15T12:42:51+09:00*
G04 #@! TF.ProjectId,ppg_pcb_v08,7070675f-7063-4625-9f76-30382e6b6963,rev?*
G04 #@! TF.SameCoordinates,Original*
G04 #@! TF.FileFunction,AssemblyDrawing,Bot*
%FSLAX46Y46*%
G04 Gerber Fmt 4.6, Leading zero omitted, Abs format (unit mm)*
G04 Created by KiCad (PCBNEW 10.0.6) date 2026-09-15 12:42:51*
%MOMM*%
%LPD*%
G01*
G04 APERTURE LIST*
%ADD10C,0.080000*%
%ADD11C,0.110000*%
%ADD12C,0.040000*%
%ADD13C,0.100000*%
G04 APERTURE END LIST*
D10*
X-5354761Y1772850D02*
X-5188095Y2010945D01*
X-5069047Y1772850D02*
X-5069047Y2272850D01*
X-5069047Y2272850D02*
X-5259523Y2272850D01*
X-5259523Y2272850D02*
X-5307142Y2249040D01*
X-5307142Y2249040D02*
X-5330952Y2225231D01*
X-5330952Y2225231D02*
X-5354761Y2177612D01*
X-5354761Y2177612D02*
X-5354761Y2106183D01*
X-5354761Y2106183D02*
X-5330952Y2058564D01*
X-5330952Y2058564D02*
X-5307142Y2034755D01*
X-5307142Y2034755D02*
X-5259523Y2010945D01*
X-5259523Y2010945D02*
X-5069047Y2010945D01*
X-5521428Y2272850D02*
X-5854761Y1772850D01*
X-5854761Y2272850D02*
X-5521428Y1772850D01*
X-6045237Y1772850D02*
X-6045237Y2272850D01*
X-6045237Y2272850D02*
X-6330951Y1772850D01*
X-6330951Y1772850D02*
X-6330951Y2272850D01*
X-5266666Y-527149D02*
X-5100000Y-289054D01*
X-4980952Y-527149D02*
X-4980952Y-27149D01*
X-4980952Y-27149D02*
X-5171428Y-27149D01*
X-5171428Y-27149D02*
X-5219047Y-50959D01*
X-5219047Y-50959D02*
X-5242857Y-74768D01*
X-5242857Y-74768D02*
X-5266666Y-122387D01*
X-5266666Y-122387D02*
X-5266666Y-193816D01*
X-5266666Y-193816D02*
X-5242857Y-241435D01*
X-5242857Y-241435D02*
X-5219047Y-265244D01*
X-5219047Y-265244D02*
X-5171428Y-289054D01*
X-5171428Y-289054D02*
X-4980952Y-289054D01*
X-5433333Y-27149D02*
X-5766666Y-527149D01*
X-5766666Y-27149D02*
X-5433333Y-527149D01*
X-5957142Y-527149D02*
X-5957142Y-27149D01*
X-5957142Y-27149D02*
X-6147618Y-27149D01*
X-6147618Y-27149D02*
X-6195237Y-50959D01*
X-6195237Y-50959D02*
X-6219047Y-74768D01*
X-6219047Y-74768D02*
X-6242856Y-122387D01*
X-6242856Y-122387D02*
X-6242856Y-193816D01*
X-6242856Y-193816D02*
X-6219047Y-241435D01*
X-6219047Y-241435D02*
X-6195237Y-265244D01*
X-6195237Y-265244D02*
X-6147618Y-289054D01*
X-6147618Y-289054D02*
X-5957142Y-289054D01*
X-3878571Y3372850D02*
X-3878571Y3872850D01*
X-3878571Y3872850D02*
X-4164285Y3372850D01*
X-4164285Y3372850D02*
X-4164285Y3872850D01*
X-4688095Y3372850D02*
X-4521429Y3610945D01*
X-4402381Y3372850D02*
X-4402381Y3872850D01*
X-4402381Y3872850D02*
X-4592857Y3872850D01*
X-4592857Y3872850D02*
X-4640476Y3849040D01*
X-4640476Y3849040D02*
X-4664286Y3825231D01*
X-4664286Y3825231D02*
X-4688095Y3777612D01*
X-4688095Y3777612D02*
X-4688095Y3706183D01*
X-4688095Y3706183D02*
X-4664286Y3658564D01*
X-4664286Y3658564D02*
X-4640476Y3634755D01*
X-4640476Y3634755D02*
X-4592857Y3610945D01*
X-4592857Y3610945D02*
X-4402381Y3610945D01*
X-4878572Y3396660D02*
X-4950000Y3372850D01*
X-4950000Y3372850D02*
X-5069048Y3372850D01*
X-5069048Y3372850D02*
X-5116667Y3396660D01*
X-5116667Y3396660D02*
X-5140476Y3420469D01*
X-5140476Y3420469D02*
X-5164286Y3468088D01*
X-5164286Y3468088D02*
X-5164286Y3515707D01*
X-5164286Y3515707D02*
X-5140476Y3563326D01*
X-5140476Y3563326D02*
X-5116667Y3587136D01*
X-5116667Y3587136D02*
X-5069048Y3610945D01*
X-5069048Y3610945D02*
X-4973810Y3634755D01*
X-4973810Y3634755D02*
X-4926191Y3658564D01*
X-4926191Y3658564D02*
X-4902381Y3682374D01*
X-4902381Y3682374D02*
X-4878572Y3729993D01*
X-4878572Y3729993D02*
X-4878572Y3777612D01*
X-4878572Y3777612D02*
X-4902381Y3825231D01*
X-4902381Y3825231D02*
X-4926191Y3849040D01*
X-4926191Y3849040D02*
X-4973810Y3872850D01*
X-4973810Y3872850D02*
X-5092857Y3872850D01*
X-5092857Y3872850D02*
X-5164286Y3849040D01*
X-5307143Y3872850D02*
X-5592857Y3872850D01*
X-5450000Y3372850D02*
X-5450000Y3872850D01*
X-4090477Y-3077149D02*
X-3804763Y-3077149D01*
X-3947620Y-3077149D02*
X-3947620Y-2577149D01*
X-3947620Y-2577149D02*
X-3900001Y-2648578D01*
X-3900001Y-2648578D02*
X-3852382Y-2696197D01*
X-3852382Y-2696197D02*
X-3804763Y-2720006D01*
X-4280953Y-2624768D02*
X-4304762Y-2600959D01*
X-4304762Y-2600959D02*
X-4352381Y-2577149D01*
X-4352381Y-2577149D02*
X-4471429Y-2577149D01*
X-4471429Y-2577149D02*
X-4519048Y-2600959D01*
X-4519048Y-2600959D02*
X-4542857Y-2624768D01*
X-4542857Y-2624768D02*
X-4566667Y-2672387D01*
X-4566667Y-2672387D02*
X-4566667Y-2720006D01*
X-4566667Y-2720006D02*
X-4542857Y-2791435D01*
X-4542857Y-2791435D02*
X-4257143Y-3077149D01*
X-4257143Y-3077149D02*
X-4566667Y-3077149D01*
X-4709524Y-2577149D02*
X-4876190Y-3077149D01*
X-4876190Y-3077149D02*
X-5042857Y-2577149D01*
X380952Y-4600959D02*
X428571Y-4577149D01*
X428571Y-4577149D02*
X500000Y-4577149D01*
X500000Y-4577149D02*
X571428Y-4600959D01*
X571428Y-4600959D02*
X619047Y-4648578D01*
X619047Y-4648578D02*
X642857Y-4696197D01*
X642857Y-4696197D02*
X666666Y-4791435D01*
X666666Y-4791435D02*
X666666Y-4862863D01*
X666666Y-4862863D02*
X642857Y-4958101D01*
X642857Y-4958101D02*
X619047Y-5005720D01*
X619047Y-5005720D02*
X571428Y-5053340D01*
X571428Y-5053340D02*
X500000Y-5077149D01*
X500000Y-5077149D02*
X452381Y-5077149D01*
X452381Y-5077149D02*
X380952Y-5053340D01*
X380952Y-5053340D02*
X357143Y-5029530D01*
X357143Y-5029530D02*
X357143Y-4862863D01*
X357143Y-4862863D02*
X452381Y-4862863D01*
X142857Y-5077149D02*
X142857Y-4577149D01*
X142857Y-4577149D02*
X-142856Y-5077149D01*
X-142856Y-5077149D02*
X-142856Y-4577149D01*
X-380952Y-5077149D02*
X-380952Y-4577149D01*
X-380952Y-4577149D02*
X-500000Y-4577149D01*
X-500000Y-4577149D02*
X-571428Y-4600959D01*
X-571428Y-4600959D02*
X-619047Y-4648578D01*
X-619047Y-4648578D02*
X-642857Y-4696197D01*
X-642857Y-4696197D02*
X-666666Y-4791435D01*
X-666666Y-4791435D02*
X-666666Y-4862863D01*
X-666666Y-4862863D02*
X-642857Y-4958101D01*
X-642857Y-4958101D02*
X-619047Y-5005720D01*
X-619047Y-5005720D02*
X-571428Y-5053340D01*
X-571428Y-5053340D02*
X-500000Y-5077149D01*
X-500000Y-5077149D02*
X-380952Y-5077149D01*
X3547616Y-6803340D02*
X3476188Y-6827149D01*
X3476188Y-6827149D02*
X3357140Y-6827149D01*
X3357140Y-6827149D02*
X3309521Y-6803340D01*
X3309521Y-6803340D02*
X3285712Y-6779530D01*
X3285712Y-6779530D02*
X3261902Y-6731911D01*
X3261902Y-6731911D02*
X3261902Y-6684292D01*
X3261902Y-6684292D02*
X3285712Y-6636673D01*
X3285712Y-6636673D02*
X3309521Y-6612863D01*
X3309521Y-6612863D02*
X3357140Y-6589054D01*
X3357140Y-6589054D02*
X3452378Y-6565244D01*
X3452378Y-6565244D02*
X3499997Y-6541435D01*
X3499997Y-6541435D02*
X3523807Y-6517625D01*
X3523807Y-6517625D02*
X3547616Y-6470006D01*
X3547616Y-6470006D02*
X3547616Y-6422387D01*
X3547616Y-6422387D02*
X3523807Y-6374768D01*
X3523807Y-6374768D02*
X3499997Y-6350959D01*
X3499997Y-6350959D02*
X3452378Y-6327149D01*
X3452378Y-6327149D02*
X3333331Y-6327149D01*
X3333331Y-6327149D02*
X3261902Y-6350959D01*
X2976188Y-6827149D02*
X3023807Y-6803340D01*
X3023807Y-6803340D02*
X3047617Y-6755720D01*
X3047617Y-6755720D02*
X3047617Y-6327149D01*
X2595236Y-6803340D02*
X2642855Y-6827149D01*
X2642855Y-6827149D02*
X2738093Y-6827149D01*
X2738093Y-6827149D02*
X2785712Y-6803340D01*
X2785712Y-6803340D02*
X2809521Y-6755720D01*
X2809521Y-6755720D02*
X2809521Y-6565244D01*
X2809521Y-6565244D02*
X2785712Y-6517625D01*
X2785712Y-6517625D02*
X2738093Y-6493816D01*
X2738093Y-6493816D02*
X2642855Y-6493816D01*
X2642855Y-6493816D02*
X2595236Y-6517625D01*
X2595236Y-6517625D02*
X2571426Y-6565244D01*
X2571426Y-6565244D02*
X2571426Y-6612863D01*
X2571426Y-6612863D02*
X2809521Y-6660482D01*
X2166665Y-6803340D02*
X2214284Y-6827149D01*
X2214284Y-6827149D02*
X2309522Y-6827149D01*
X2309522Y-6827149D02*
X2357141Y-6803340D01*
X2357141Y-6803340D02*
X2380950Y-6755720D01*
X2380950Y-6755720D02*
X2380950Y-6565244D01*
X2380950Y-6565244D02*
X2357141Y-6517625D01*
X2357141Y-6517625D02*
X2309522Y-6493816D01*
X2309522Y-6493816D02*
X2214284Y-6493816D01*
X2214284Y-6493816D02*
X2166665Y-6517625D01*
X2166665Y-6517625D02*
X2142855Y-6565244D01*
X2142855Y-6565244D02*
X2142855Y-6612863D01*
X2142855Y-6612863D02*
X2380950Y-6660482D01*
X1928570Y-6493816D02*
X1928570Y-6993816D01*
X1928570Y-6517625D02*
X1880951Y-6493816D01*
X1880951Y-6493816D02*
X1785713Y-6493816D01*
X1785713Y-6493816D02*
X1738094Y-6517625D01*
X1738094Y-6517625D02*
X1714284Y-6541435D01*
X1714284Y-6541435D02*
X1690475Y-6589054D01*
X1690475Y-6589054D02*
X1690475Y-6731911D01*
X1690475Y-6731911D02*
X1714284Y-6779530D01*
X1714284Y-6779530D02*
X1738094Y-6803340D01*
X1738094Y-6803340D02*
X1785713Y-6827149D01*
X1785713Y-6827149D02*
X1880951Y-6827149D01*
X1880951Y-6827149D02*
X1928570Y-6803340D01*
X1309522Y-6565244D02*
X1238094Y-6589054D01*
X1238094Y-6589054D02*
X1214284Y-6612863D01*
X1214284Y-6612863D02*
X1190475Y-6660482D01*
X1190475Y-6660482D02*
X1190475Y-6731911D01*
X1190475Y-6731911D02*
X1214284Y-6779530D01*
X1214284Y-6779530D02*
X1238094Y-6803340D01*
X1238094Y-6803340D02*
X1285713Y-6827149D01*
X1285713Y-6827149D02*
X1476189Y-6827149D01*
X1476189Y-6827149D02*
X1476189Y-6327149D01*
X1476189Y-6327149D02*
X1309522Y-6327149D01*
X1309522Y-6327149D02*
X1261903Y-6350959D01*
X1261903Y-6350959D02*
X1238094Y-6374768D01*
X1238094Y-6374768D02*
X1214284Y-6422387D01*
X1214284Y-6422387D02*
X1214284Y-6470006D01*
X1214284Y-6470006D02*
X1238094Y-6517625D01*
X1238094Y-6517625D02*
X1261903Y-6541435D01*
X1261903Y-6541435D02*
X1309522Y-6565244D01*
X1309522Y-6565244D02*
X1476189Y-6565244D01*
X761903Y-6493816D02*
X761903Y-6827149D01*
X976189Y-6493816D02*
X976189Y-6755720D01*
X976189Y-6755720D02*
X952379Y-6803340D01*
X952379Y-6803340D02*
X904760Y-6827149D01*
X904760Y-6827149D02*
X833332Y-6827149D01*
X833332Y-6827149D02*
X785713Y-6803340D01*
X785713Y-6803340D02*
X761903Y-6779530D01*
X309522Y-6827149D02*
X309522Y-6327149D01*
X309522Y-6803340D02*
X357141Y-6827149D01*
X357141Y-6827149D02*
X452379Y-6827149D01*
X452379Y-6827149D02*
X499998Y-6803340D01*
X499998Y-6803340D02*
X523808Y-6779530D01*
X523808Y-6779530D02*
X547617Y-6731911D01*
X547617Y-6731911D02*
X547617Y-6589054D01*
X547617Y-6589054D02*
X523808Y-6541435D01*
X523808Y-6541435D02*
X499998Y-6517625D01*
X499998Y-6517625D02*
X452379Y-6493816D01*
X452379Y-6493816D02*
X357141Y-6493816D01*
X357141Y-6493816D02*
X309522Y-6517625D01*
X-309524Y-6827149D02*
X-309524Y-6327149D01*
X-309524Y-6327149D02*
X-500000Y-6327149D01*
X-500000Y-6327149D02*
X-547619Y-6350959D01*
X-547619Y-6350959D02*
X-571429Y-6374768D01*
X-571429Y-6374768D02*
X-595238Y-6422387D01*
X-595238Y-6422387D02*
X-595238Y-6493816D01*
X-595238Y-6493816D02*
X-571429Y-6541435D01*
X-571429Y-6541435D02*
X-547619Y-6565244D01*
X-547619Y-6565244D02*
X-500000Y-6589054D01*
X-500000Y-6589054D02*
X-309524Y-6589054D01*
X-809524Y-6827149D02*
X-809524Y-6327149D01*
X-809524Y-6327149D02*
X-1000000Y-6327149D01*
X-1000000Y-6327149D02*
X-1047619Y-6350959D01*
X-1047619Y-6350959D02*
X-1071429Y-6374768D01*
X-1071429Y-6374768D02*
X-1095238Y-6422387D01*
X-1095238Y-6422387D02*
X-1095238Y-6493816D01*
X-1095238Y-6493816D02*
X-1071429Y-6541435D01*
X-1071429Y-6541435D02*
X-1047619Y-6565244D01*
X-1047619Y-6565244D02*
X-1000000Y-6589054D01*
X-1000000Y-6589054D02*
X-809524Y-6589054D01*
X-1571429Y-6350959D02*
X-1523810Y-6327149D01*
X-1523810Y-6327149D02*
X-1452381Y-6327149D01*
X-1452381Y-6327149D02*
X-1380953Y-6350959D01*
X-1380953Y-6350959D02*
X-1333334Y-6398578D01*
X-1333334Y-6398578D02*
X-1309524Y-6446197D01*
X-1309524Y-6446197D02*
X-1285715Y-6541435D01*
X-1285715Y-6541435D02*
X-1285715Y-6612863D01*
X-1285715Y-6612863D02*
X-1309524Y-6708101D01*
X-1309524Y-6708101D02*
X-1333334Y-6755720D01*
X-1333334Y-6755720D02*
X-1380953Y-6803340D01*
X-1380953Y-6803340D02*
X-1452381Y-6827149D01*
X-1452381Y-6827149D02*
X-1500000Y-6827149D01*
X-1500000Y-6827149D02*
X-1571429Y-6803340D01*
X-1571429Y-6803340D02*
X-1595238Y-6779530D01*
X-1595238Y-6779530D02*
X-1595238Y-6612863D01*
X-1595238Y-6612863D02*
X-1500000Y-6612863D01*
X-2142857Y-6493816D02*
X-2261905Y-6827149D01*
X-2261905Y-6827149D02*
X-2380952Y-6493816D01*
X-2666666Y-6327149D02*
X-2714285Y-6327149D01*
X-2714285Y-6327149D02*
X-2761904Y-6350959D01*
X-2761904Y-6350959D02*
X-2785714Y-6374768D01*
X-2785714Y-6374768D02*
X-2809523Y-6422387D01*
X-2809523Y-6422387D02*
X-2833333Y-6517625D01*
X-2833333Y-6517625D02*
X-2833333Y-6636673D01*
X-2833333Y-6636673D02*
X-2809523Y-6731911D01*
X-2809523Y-6731911D02*
X-2785714Y-6779530D01*
X-2785714Y-6779530D02*
X-2761904Y-6803340D01*
X-2761904Y-6803340D02*
X-2714285Y-6827149D01*
X-2714285Y-6827149D02*
X-2666666Y-6827149D01*
X-2666666Y-6827149D02*
X-2619047Y-6803340D01*
X-2619047Y-6803340D02*
X-2595238Y-6779530D01*
X-2595238Y-6779530D02*
X-2571428Y-6731911D01*
X-2571428Y-6731911D02*
X-2547619Y-6636673D01*
X-2547619Y-6636673D02*
X-2547619Y-6517625D01*
X-2547619Y-6517625D02*
X-2571428Y-6422387D01*
X-2571428Y-6422387D02*
X-2595238Y-6374768D01*
X-2595238Y-6374768D02*
X-2619047Y-6350959D01*
X-2619047Y-6350959D02*
X-2666666Y-6327149D01*
X-3047618Y-6779530D02*
X-3071428Y-6803340D01*
X-3071428Y-6803340D02*
X-3047618Y-6827149D01*
X-3047618Y-6827149D02*
X-3023809Y-6803340D01*
X-3023809Y-6803340D02*
X-3047618Y-6779530D01*
X-3047618Y-6779530D02*
X-3047618Y-6827149D01*
X-3357142Y-6541435D02*
X-3309523Y-6517625D01*
X-3309523Y-6517625D02*
X-3285713Y-6493816D01*
X-3285713Y-6493816D02*
X-3261904Y-6446197D01*
X-3261904Y-6446197D02*
X-3261904Y-6422387D01*
X-3261904Y-6422387D02*
X-3285713Y-6374768D01*
X-3285713Y-6374768D02*
X-3309523Y-6350959D01*
X-3309523Y-6350959D02*
X-3357142Y-6327149D01*
X-3357142Y-6327149D02*
X-3452380Y-6327149D01*
X-3452380Y-6327149D02*
X-3499999Y-6350959D01*
X-3499999Y-6350959D02*
X-3523808Y-6374768D01*
X-3523808Y-6374768D02*
X-3547618Y-6422387D01*
X-3547618Y-6422387D02*
X-3547618Y-6446197D01*
X-3547618Y-6446197D02*
X-3523808Y-6493816D01*
X-3523808Y-6493816D02*
X-3499999Y-6517625D01*
X-3499999Y-6517625D02*
X-3452380Y-6541435D01*
X-3452380Y-6541435D02*
X-3357142Y-6541435D01*
X-3357142Y-6541435D02*
X-3309523Y-6565244D01*
X-3309523Y-6565244D02*
X-3285713Y-6589054D01*
X-3285713Y-6589054D02*
X-3261904Y-6636673D01*
X-3261904Y-6636673D02*
X-3261904Y-6731911D01*
X-3261904Y-6731911D02*
X-3285713Y-6779530D01*
X-3285713Y-6779530D02*
X-3309523Y-6803340D01*
X-3309523Y-6803340D02*
X-3357142Y-6827149D01*
X-3357142Y-6827149D02*
X-3452380Y-6827149D01*
X-3452380Y-6827149D02*
X-3499999Y-6803340D01*
X-3499999Y-6803340D02*
X-3523808Y-6779530D01*
X-3523808Y-6779530D02*
X-3547618Y-6731911D01*
X-3547618Y-6731911D02*
X-3547618Y-6636673D01*
X-3547618Y-6636673D02*
X-3523808Y-6589054D01*
X-3523808Y-6589054D02*
X-3499999Y-6565244D01*
X-3499999Y-6565244D02*
X-3452380Y-6541435D01*
X3659523Y3396660D02*
X3588095Y3372850D01*
X3588095Y3372850D02*
X3469047Y3372850D01*
X3469047Y3372850D02*
X3421428Y3396660D01*
X3421428Y3396660D02*
X3397619Y3420469D01*
X3397619Y3420469D02*
X3373809Y3468088D01*
X3373809Y3468088D02*
X3373809Y3515707D01*
X3373809Y3515707D02*
X3397619Y3563326D01*
X3397619Y3563326D02*
X3421428Y3587136D01*
X3421428Y3587136D02*
X3469047Y3610945D01*
X3469047Y3610945D02*
X3564285Y3634755D01*
X3564285Y3634755D02*
X3611904Y3658564D01*
X3611904Y3658564D02*
X3635714Y3682374D01*
X3635714Y3682374D02*
X3659523Y3729993D01*
X3659523Y3729993D02*
X3659523Y3777612D01*
X3659523Y3777612D02*
X3635714Y3825231D01*
X3635714Y3825231D02*
X3611904Y3849040D01*
X3611904Y3849040D02*
X3564285Y3872850D01*
X3564285Y3872850D02*
X3445238Y3872850D01*
X3445238Y3872850D02*
X3373809Y3849040D01*
X3207143Y3872850D02*
X3088095Y3372850D01*
X3088095Y3372850D02*
X2992857Y3729993D01*
X2992857Y3729993D02*
X2897619Y3372850D01*
X2897619Y3372850D02*
X2778572Y3872850D01*
X2588095Y3372850D02*
X2588095Y3872850D01*
X2588095Y3872850D02*
X2469047Y3872850D01*
X2469047Y3872850D02*
X2397619Y3849040D01*
X2397619Y3849040D02*
X2350000Y3801421D01*
X2350000Y3801421D02*
X2326190Y3753802D01*
X2326190Y3753802D02*
X2302381Y3658564D01*
X2302381Y3658564D02*
X2302381Y3587136D01*
X2302381Y3587136D02*
X2326190Y3491898D01*
X2326190Y3491898D02*
X2350000Y3444279D01*
X2350000Y3444279D02*
X2397619Y3396660D01*
X2397619Y3396660D02*
X2469047Y3372850D01*
X2469047Y3372850D02*
X2588095Y3372850D01*
X2088095Y3372850D02*
X2088095Y3872850D01*
X1754762Y3872850D02*
X1659524Y3872850D01*
X1659524Y3872850D02*
X1611905Y3849040D01*
X1611905Y3849040D02*
X1564286Y3801421D01*
X1564286Y3801421D02*
X1540476Y3706183D01*
X1540476Y3706183D02*
X1540476Y3539517D01*
X1540476Y3539517D02*
X1564286Y3444279D01*
X1564286Y3444279D02*
X1611905Y3396660D01*
X1611905Y3396660D02*
X1659524Y3372850D01*
X1659524Y3372850D02*
X1754762Y3372850D01*
X1754762Y3372850D02*
X1802381Y3396660D01*
X1802381Y3396660D02*
X1850000Y3444279D01*
X1850000Y3444279D02*
X1873809Y3539517D01*
X1873809Y3539517D02*
X1873809Y3706183D01*
X1873809Y3706183D02*
X1850000Y3801421D01*
X1850000Y3801421D02*
X1802381Y3849040D01*
X1802381Y3849040D02*
X1754762Y3872850D01*
X4830951Y3396660D02*
X4759523Y3372850D01*
X4759523Y3372850D02*
X4640475Y3372850D01*
X4640475Y3372850D02*
X4592856Y3396660D01*
X4592856Y3396660D02*
X4569047Y3420469D01*
X4569047Y3420469D02*
X4545237Y3468088D01*
X4545237Y3468088D02*
X4545237Y3515707D01*
X4545237Y3515707D02*
X4569047Y3563326D01*
X4569047Y3563326D02*
X4592856Y3587136D01*
X4592856Y3587136D02*
X4640475Y3610945D01*
X4640475Y3610945D02*
X4735713Y3634755D01*
X4735713Y3634755D02*
X4783332Y3658564D01*
X4783332Y3658564D02*
X4807142Y3682374D01*
X4807142Y3682374D02*
X4830951Y3729993D01*
X4830951Y3729993D02*
X4830951Y3777612D01*
X4830951Y3777612D02*
X4807142Y3825231D01*
X4807142Y3825231D02*
X4783332Y3849040D01*
X4783332Y3849040D02*
X4735713Y3872850D01*
X4735713Y3872850D02*
X4616666Y3872850D01*
X4616666Y3872850D02*
X4545237Y3849040D01*
X4378571Y3872850D02*
X4259523Y3372850D01*
X4259523Y3372850D02*
X4164285Y3729993D01*
X4164285Y3729993D02*
X4069047Y3372850D01*
X4069047Y3372850D02*
X3950000Y3872850D01*
X3473809Y3420469D02*
X3497618Y3396660D01*
X3497618Y3396660D02*
X3569047Y3372850D01*
X3569047Y3372850D02*
X3616666Y3372850D01*
X3616666Y3372850D02*
X3688094Y3396660D01*
X3688094Y3396660D02*
X3735713Y3444279D01*
X3735713Y3444279D02*
X3759523Y3491898D01*
X3759523Y3491898D02*
X3783332Y3587136D01*
X3783332Y3587136D02*
X3783332Y3658564D01*
X3783332Y3658564D02*
X3759523Y3753802D01*
X3759523Y3753802D02*
X3735713Y3801421D01*
X3735713Y3801421D02*
X3688094Y3849040D01*
X3688094Y3849040D02*
X3616666Y3872850D01*
X3616666Y3872850D02*
X3569047Y3872850D01*
X3569047Y3872850D02*
X3497618Y3849040D01*
X3497618Y3849040D02*
X3473809Y3825231D01*
X3021428Y3372850D02*
X3259523Y3372850D01*
X3259523Y3372850D02*
X3259523Y3872850D01*
X2854761Y3372850D02*
X2854761Y3872850D01*
X2569047Y3372850D02*
X2783332Y3658564D01*
X2569047Y3872850D02*
X2854761Y3587136D01*
X6230951Y-27149D02*
X5945237Y-27149D01*
X6088094Y-527149D02*
X6088094Y-27149D01*
X5826190Y-27149D02*
X5492857Y-527149D01*
X5492857Y-27149D02*
X5826190Y-527149D01*
X5302381Y-527149D02*
X5302381Y-27149D01*
X5302381Y-27149D02*
X5111905Y-27149D01*
X5111905Y-27149D02*
X5064286Y-50959D01*
X5064286Y-50959D02*
X5040476Y-74768D01*
X5040476Y-74768D02*
X5016667Y-122387D01*
X5016667Y-122387D02*
X5016667Y-193816D01*
X5016667Y-193816D02*
X5040476Y-241435D01*
X5040476Y-241435D02*
X5064286Y-265244D01*
X5064286Y-265244D02*
X5111905Y-289054D01*
X5111905Y-289054D02*
X5302381Y-289054D01*
X6342856Y2272850D02*
X6057142Y2272850D01*
X6199999Y1772850D02*
X6199999Y2272850D01*
X5938095Y2272850D02*
X5604762Y1772850D01*
X5604762Y2272850D02*
X5938095Y1772850D01*
X5414286Y1772850D02*
X5414286Y2272850D01*
X5414286Y2272850D02*
X5128572Y1772850D01*
X5128572Y1772850D02*
X5128572Y2272850D01*
X-1172850Y280952D02*
X-768088Y280952D01*
X-768088Y280952D02*
X-720469Y257142D01*
X-720469Y257142D02*
X-696660Y233333D01*
X-696660Y233333D02*
X-672850Y185714D01*
X-672850Y185714D02*
X-672850Y90476D01*
X-672850Y90476D02*
X-696660Y42857D01*
X-696660Y42857D02*
X-720469Y19047D01*
X-720469Y19047D02*
X-768088Y-4761D01*
X-768088Y-4761D02*
X-1172850Y-4761D01*
X-1172850Y-457143D02*
X-1172850Y-361905D01*
X-1172850Y-361905D02*
X-1149040Y-314286D01*
X-1149040Y-314286D02*
X-1125231Y-290476D01*
X-1125231Y-290476D02*
X-1053802Y-242857D01*
X-1053802Y-242857D02*
X-958564Y-219048D01*
X-958564Y-219048D02*
X-768088Y-219048D01*
X-768088Y-219048D02*
X-720469Y-242857D01*
X-720469Y-242857D02*
X-696660Y-266667D01*
X-696660Y-266667D02*
X-672850Y-314286D01*
X-672850Y-314286D02*
X-672850Y-409524D01*
X-672850Y-409524D02*
X-696660Y-457143D01*
X-696660Y-457143D02*
X-720469Y-480952D01*
X-720469Y-480952D02*
X-768088Y-504762D01*
X-768088Y-504762D02*
X-887136Y-504762D01*
X-887136Y-504762D02*
X-934755Y-480952D01*
X-934755Y-480952D02*
X-958564Y-457143D01*
X-958564Y-457143D02*
X-982374Y-409524D01*
X-982374Y-409524D02*
X-982374Y-314286D01*
X-982374Y-314286D02*
X-958564Y-266667D01*
X-958564Y-266667D02*
X-934755Y-242857D01*
X-934755Y-242857D02*
X-887136Y-219048D01*
D11*
X-2751428Y292634D02*
X-2751428Y-290222D01*
X-2751428Y-290222D02*
X-2785714Y-358794D01*
X-2785714Y-358794D02*
X-2820000Y-393080D01*
X-2820000Y-393080D02*
X-2888571Y-427365D01*
X-2888571Y-427365D02*
X-3025714Y-427365D01*
X-3025714Y-427365D02*
X-3094285Y-393080D01*
X-3094285Y-393080D02*
X-3128571Y-358794D01*
X-3128571Y-358794D02*
X-3162857Y-290222D01*
X-3162857Y-290222D02*
X-3162857Y292634D01*
X-3814286Y292634D02*
X-3677143Y292634D01*
X-3677143Y292634D02*
X-3608571Y258348D01*
X-3608571Y258348D02*
X-3574286Y224062D01*
X-3574286Y224062D02*
X-3505714Y121205D01*
X-3505714Y121205D02*
X-3471428Y-15937D01*
X-3471428Y-15937D02*
X-3471428Y-290222D01*
X-3471428Y-290222D02*
X-3505714Y-358794D01*
X-3505714Y-358794D02*
X-3540000Y-393080D01*
X-3540000Y-393080D02*
X-3608571Y-427365D01*
X-3608571Y-427365D02*
X-3745714Y-427365D01*
X-3745714Y-427365D02*
X-3814286Y-393080D01*
X-3814286Y-393080D02*
X-3848571Y-358794D01*
X-3848571Y-358794D02*
X-3882857Y-290222D01*
X-3882857Y-290222D02*
X-3882857Y-118794D01*
X-3882857Y-118794D02*
X-3848571Y-50222D01*
X-3848571Y-50222D02*
X-3814286Y-15937D01*
X-3814286Y-15937D02*
X-3745714Y18348D01*
X-3745714Y18348D02*
X-3608571Y18348D01*
X-3608571Y18348D02*
X-3540000Y-15937D01*
X-3540000Y-15937D02*
X-3505714Y-50222D01*
X-3505714Y-50222D02*
X-3471428Y-118794D01*
D10*
X5829530Y-3178571D02*
X5853340Y-3154762D01*
X5853340Y-3154762D02*
X5877149Y-3083333D01*
X5877149Y-3083333D02*
X5877149Y-3035714D01*
X5877149Y-3035714D02*
X5853340Y-2964286D01*
X5853340Y-2964286D02*
X5805720Y-2916667D01*
X5805720Y-2916667D02*
X5758101Y-2892857D01*
X5758101Y-2892857D02*
X5662863Y-2869048D01*
X5662863Y-2869048D02*
X5591435Y-2869048D01*
X5591435Y-2869048D02*
X5496197Y-2892857D01*
X5496197Y-2892857D02*
X5448578Y-2916667D01*
X5448578Y-2916667D02*
X5400959Y-2964286D01*
X5400959Y-2964286D02*
X5377149Y-3035714D01*
X5377149Y-3035714D02*
X5377149Y-3083333D01*
X5377149Y-3083333D02*
X5400959Y-3154762D01*
X5400959Y-3154762D02*
X5424768Y-3178571D01*
X5877149Y-3654762D02*
X5877149Y-3369048D01*
X5877149Y-3511905D02*
X5377149Y-3511905D01*
X5377149Y-3511905D02*
X5448578Y-3464286D01*
X5448578Y-3464286D02*
X5496197Y-3416667D01*
X5496197Y-3416667D02*
X5520006Y-3369048D01*
X5543816Y-4083333D02*
X5877149Y-4083333D01*
X5353340Y-3964285D02*
X5710482Y-3845238D01*
X5710482Y-3845238D02*
X5710482Y-4154761D01*
D12*
X5369765Y-3339285D02*
X5381670Y-3327381D01*
X5381670Y-3327381D02*
X5393574Y-3291666D01*
X5393574Y-3291666D02*
X5393574Y-3267857D01*
X5393574Y-3267857D02*
X5381670Y-3232143D01*
X5381670Y-3232143D02*
X5357860Y-3208333D01*
X5357860Y-3208333D02*
X5334050Y-3196428D01*
X5334050Y-3196428D02*
X5286431Y-3184524D01*
X5286431Y-3184524D02*
X5250717Y-3184524D01*
X5250717Y-3184524D02*
X5203098Y-3196428D01*
X5203098Y-3196428D02*
X5179289Y-3208333D01*
X5179289Y-3208333D02*
X5155479Y-3232143D01*
X5155479Y-3232143D02*
X5143574Y-3267857D01*
X5143574Y-3267857D02*
X5143574Y-3291666D01*
X5143574Y-3291666D02*
X5155479Y-3327381D01*
X5155479Y-3327381D02*
X5167384Y-3339285D01*
X5393574Y-3577381D02*
X5393574Y-3434524D01*
X5393574Y-3505952D02*
X5143574Y-3505952D01*
X5143574Y-3505952D02*
X5179289Y-3482143D01*
X5179289Y-3482143D02*
X5203098Y-3458333D01*
X5203098Y-3458333D02*
X5215003Y-3434524D01*
X5226908Y-3791666D02*
X5393574Y-3791666D01*
X5131670Y-3732142D02*
X5310241Y-3672619D01*
X5310241Y-3672619D02*
X5310241Y-3827380D01*
D10*
X277149Y733333D02*
X39054Y899999D01*
X277149Y1019047D02*
X-222850Y1019047D01*
X-222850Y1019047D02*
X-222850Y828571D01*
X-222850Y828571D02*
X-199040Y780952D01*
X-199040Y780952D02*
X-175231Y757142D01*
X-175231Y757142D02*
X-127612Y733333D01*
X-127612Y733333D02*
X-56183Y733333D01*
X-56183Y733333D02*
X-8564Y757142D01*
X-8564Y757142D02*
X15244Y780952D01*
X15244Y780952D02*
X39054Y828571D01*
X39054Y828571D02*
X39054Y1019047D01*
X277149Y257142D02*
X277149Y542856D01*
X277149Y399999D02*
X-222850Y399999D01*
X-222850Y399999D02*
X-151421Y447618D01*
X-151421Y447618D02*
X-103802Y495237D01*
X-103802Y495237D02*
X-79993Y542856D01*
D12*
X-206425Y691666D02*
X-325472Y774999D01*
X-206425Y834523D02*
X-456425Y834523D01*
X-456425Y834523D02*
X-456425Y739285D01*
X-456425Y739285D02*
X-444520Y715475D01*
X-444520Y715475D02*
X-432615Y703570D01*
X-432615Y703570D02*
X-408806Y691666D01*
X-408806Y691666D02*
X-373091Y691666D01*
X-373091Y691666D02*
X-349282Y703570D01*
X-349282Y703570D02*
X-337377Y715475D01*
X-337377Y715475D02*
X-325472Y739285D01*
X-325472Y739285D02*
X-325472Y834523D01*
X-206425Y453570D02*
X-206425Y596427D01*
X-206425Y524999D02*
X-456425Y524999D01*
X-456425Y524999D02*
X-420710Y548808D01*
X-420710Y548808D02*
X-396901Y572618D01*
X-396901Y572618D02*
X-384996Y596427D01*
D10*
X-2916666Y3370469D02*
X-2892857Y3346660D01*
X-2892857Y3346660D02*
X-2821428Y3322850D01*
X-2821428Y3322850D02*
X-2773809Y3322850D01*
X-2773809Y3322850D02*
X-2702381Y3346660D01*
X-2702381Y3346660D02*
X-2654762Y3394279D01*
X-2654762Y3394279D02*
X-2630952Y3441898D01*
X-2630952Y3441898D02*
X-2607143Y3537136D01*
X-2607143Y3537136D02*
X-2607143Y3608564D01*
X-2607143Y3608564D02*
X-2630952Y3703802D01*
X-2630952Y3703802D02*
X-2654762Y3751421D01*
X-2654762Y3751421D02*
X-2702381Y3799040D01*
X-2702381Y3799040D02*
X-2773809Y3822850D01*
X-2773809Y3822850D02*
X-2821428Y3822850D01*
X-2821428Y3822850D02*
X-2892857Y3799040D01*
X-2892857Y3799040D02*
X-2916666Y3775231D01*
X-3083333Y3822850D02*
X-3416666Y3822850D01*
X-3416666Y3822850D02*
X-3202381Y3322850D01*
D12*
X-2958333Y3090234D02*
X-2946429Y3078330D01*
X-2946429Y3078330D02*
X-2910714Y3066425D01*
X-2910714Y3066425D02*
X-2886905Y3066425D01*
X-2886905Y3066425D02*
X-2851191Y3078330D01*
X-2851191Y3078330D02*
X-2827381Y3102139D01*
X-2827381Y3102139D02*
X-2815476Y3125949D01*
X-2815476Y3125949D02*
X-2803572Y3173568D01*
X-2803572Y3173568D02*
X-2803572Y3209282D01*
X-2803572Y3209282D02*
X-2815476Y3256901D01*
X-2815476Y3256901D02*
X-2827381Y3280710D01*
X-2827381Y3280710D02*
X-2851191Y3304520D01*
X-2851191Y3304520D02*
X-2886905Y3316425D01*
X-2886905Y3316425D02*
X-2910714Y3316425D01*
X-2910714Y3316425D02*
X-2946429Y3304520D01*
X-2946429Y3304520D02*
X-2958333Y3292615D01*
X-3041667Y3316425D02*
X-3208333Y3316425D01*
X-3208333Y3316425D02*
X-3101191Y3066425D01*
D10*
X3021428Y5770469D02*
X3045237Y5746660D01*
X3045237Y5746660D02*
X3116666Y5722850D01*
X3116666Y5722850D02*
X3164285Y5722850D01*
X3164285Y5722850D02*
X3235713Y5746660D01*
X3235713Y5746660D02*
X3283332Y5794279D01*
X3283332Y5794279D02*
X3307142Y5841898D01*
X3307142Y5841898D02*
X3330951Y5937136D01*
X3330951Y5937136D02*
X3330951Y6008564D01*
X3330951Y6008564D02*
X3307142Y6103802D01*
X3307142Y6103802D02*
X3283332Y6151421D01*
X3283332Y6151421D02*
X3235713Y6199040D01*
X3235713Y6199040D02*
X3164285Y6222850D01*
X3164285Y6222850D02*
X3116666Y6222850D01*
X3116666Y6222850D02*
X3045237Y6199040D01*
X3045237Y6199040D02*
X3021428Y6175231D01*
X2545237Y5722850D02*
X2830951Y5722850D01*
X2688094Y5722850D02*
X2688094Y6222850D01*
X2688094Y6222850D02*
X2735713Y6151421D01*
X2735713Y6151421D02*
X2783332Y6103802D01*
X2783332Y6103802D02*
X2830951Y6079993D01*
X2354761Y6175231D02*
X2330952Y6199040D01*
X2330952Y6199040D02*
X2283333Y6222850D01*
X2283333Y6222850D02*
X2164285Y6222850D01*
X2164285Y6222850D02*
X2116666Y6199040D01*
X2116666Y6199040D02*
X2092857Y6175231D01*
X2092857Y6175231D02*
X2069047Y6127612D01*
X2069047Y6127612D02*
X2069047Y6079993D01*
X2069047Y6079993D02*
X2092857Y6008564D01*
X2092857Y6008564D02*
X2378571Y5722850D01*
X2378571Y5722850D02*
X2069047Y5722850D01*
D12*
X2860714Y5490234D02*
X2872618Y5478330D01*
X2872618Y5478330D02*
X2908333Y5466425D01*
X2908333Y5466425D02*
X2932142Y5466425D01*
X2932142Y5466425D02*
X2967856Y5478330D01*
X2967856Y5478330D02*
X2991666Y5502139D01*
X2991666Y5502139D02*
X3003571Y5525949D01*
X3003571Y5525949D02*
X3015475Y5573568D01*
X3015475Y5573568D02*
X3015475Y5609282D01*
X3015475Y5609282D02*
X3003571Y5656901D01*
X3003571Y5656901D02*
X2991666Y5680710D01*
X2991666Y5680710D02*
X2967856Y5704520D01*
X2967856Y5704520D02*
X2932142Y5716425D01*
X2932142Y5716425D02*
X2908333Y5716425D01*
X2908333Y5716425D02*
X2872618Y5704520D01*
X2872618Y5704520D02*
X2860714Y5692615D01*
X2622618Y5466425D02*
X2765475Y5466425D01*
X2694047Y5466425D02*
X2694047Y5716425D01*
X2694047Y5716425D02*
X2717856Y5680710D01*
X2717856Y5680710D02*
X2741666Y5656901D01*
X2741666Y5656901D02*
X2765475Y5644996D01*
X2527380Y5692615D02*
X2515476Y5704520D01*
X2515476Y5704520D02*
X2491666Y5716425D01*
X2491666Y5716425D02*
X2432142Y5716425D01*
X2432142Y5716425D02*
X2408333Y5704520D01*
X2408333Y5704520D02*
X2396428Y5692615D01*
X2396428Y5692615D02*
X2384523Y5668806D01*
X2384523Y5668806D02*
X2384523Y5644996D01*
X2384523Y5644996D02*
X2396428Y5609282D01*
X2396428Y5609282D02*
X2539285Y5466425D01*
X2539285Y5466425D02*
X2384523Y5466425D01*
D10*
X2277149Y733333D02*
X2039054Y899999D01*
X2277149Y1019047D02*
X1777149Y1019047D01*
X1777149Y1019047D02*
X1777149Y828571D01*
X1777149Y828571D02*
X1800959Y780952D01*
X1800959Y780952D02*
X1824768Y757142D01*
X1824768Y757142D02*
X1872387Y733333D01*
X1872387Y733333D02*
X1943816Y733333D01*
X1943816Y733333D02*
X1991435Y757142D01*
X1991435Y757142D02*
X2015244Y780952D01*
X2015244Y780952D02*
X2039054Y828571D01*
X2039054Y828571D02*
X2039054Y1019047D01*
X1824768Y542856D02*
X1800959Y519047D01*
X1800959Y519047D02*
X1777149Y471428D01*
X1777149Y471428D02*
X1777149Y352380D01*
X1777149Y352380D02*
X1800959Y304761D01*
X1800959Y304761D02*
X1824768Y280952D01*
X1824768Y280952D02*
X1872387Y257142D01*
X1872387Y257142D02*
X1920006Y257142D01*
X1920006Y257142D02*
X1991435Y280952D01*
X1991435Y280952D02*
X2277149Y566666D01*
X2277149Y566666D02*
X2277149Y257142D01*
D12*
X1793574Y691666D02*
X1674527Y774999D01*
X1793574Y834523D02*
X1543574Y834523D01*
X1543574Y834523D02*
X1543574Y739285D01*
X1543574Y739285D02*
X1555479Y715475D01*
X1555479Y715475D02*
X1567384Y703570D01*
X1567384Y703570D02*
X1591193Y691666D01*
X1591193Y691666D02*
X1626908Y691666D01*
X1626908Y691666D02*
X1650717Y703570D01*
X1650717Y703570D02*
X1662622Y715475D01*
X1662622Y715475D02*
X1674527Y739285D01*
X1674527Y739285D02*
X1674527Y834523D01*
X1567384Y596427D02*
X1555479Y584523D01*
X1555479Y584523D02*
X1543574Y560713D01*
X1543574Y560713D02*
X1543574Y501189D01*
X1543574Y501189D02*
X1555479Y477380D01*
X1555479Y477380D02*
X1567384Y465475D01*
X1567384Y465475D02*
X1591193Y453570D01*
X1591193Y453570D02*
X1615003Y453570D01*
X1615003Y453570D02*
X1650717Y465475D01*
X1650717Y465475D02*
X1793574Y608332D01*
X1793574Y608332D02*
X1793574Y453570D01*
D10*
X-4378571Y-1769530D02*
X-4354762Y-1793340D01*
X-4354762Y-1793340D02*
X-4283333Y-1817149D01*
X-4283333Y-1817149D02*
X-4235714Y-1817149D01*
X-4235714Y-1817149D02*
X-4164286Y-1793340D01*
X-4164286Y-1793340D02*
X-4116667Y-1745720D01*
X-4116667Y-1745720D02*
X-4092857Y-1698101D01*
X-4092857Y-1698101D02*
X-4069048Y-1602863D01*
X-4069048Y-1602863D02*
X-4069048Y-1531435D01*
X-4069048Y-1531435D02*
X-4092857Y-1436197D01*
X-4092857Y-1436197D02*
X-4116667Y-1388578D01*
X-4116667Y-1388578D02*
X-4164286Y-1340959D01*
X-4164286Y-1340959D02*
X-4235714Y-1317149D01*
X-4235714Y-1317149D02*
X-4283333Y-1317149D01*
X-4283333Y-1317149D02*
X-4354762Y-1340959D01*
X-4354762Y-1340959D02*
X-4378571Y-1364768D01*
X-4854762Y-1817149D02*
X-4569048Y-1817149D01*
X-4711905Y-1817149D02*
X-4711905Y-1317149D01*
X-4711905Y-1317149D02*
X-4664286Y-1388578D01*
X-4664286Y-1388578D02*
X-4616667Y-1436197D01*
X-4616667Y-1436197D02*
X-4569048Y-1460006D01*
X-5021428Y-1317149D02*
X-5330952Y-1317149D01*
X-5330952Y-1317149D02*
X-5164285Y-1507625D01*
X-5164285Y-1507625D02*
X-5235714Y-1507625D01*
X-5235714Y-1507625D02*
X-5283333Y-1531435D01*
X-5283333Y-1531435D02*
X-5307142Y-1555244D01*
X-5307142Y-1555244D02*
X-5330952Y-1602863D01*
X-5330952Y-1602863D02*
X-5330952Y-1721911D01*
X-5330952Y-1721911D02*
X-5307142Y-1769530D01*
X-5307142Y-1769530D02*
X-5283333Y-1793340D01*
X-5283333Y-1793340D02*
X-5235714Y-1817149D01*
X-5235714Y-1817149D02*
X-5092857Y-1817149D01*
X-5092857Y-1817149D02*
X-5045238Y-1793340D01*
X-5045238Y-1793340D02*
X-5021428Y-1769530D01*
D12*
X-4539285Y-2839765D02*
X-4527381Y-2851670D01*
X-4527381Y-2851670D02*
X-4491666Y-2863574D01*
X-4491666Y-2863574D02*
X-4467857Y-2863574D01*
X-4467857Y-2863574D02*
X-4432143Y-2851670D01*
X-4432143Y-2851670D02*
X-4408333Y-2827860D01*
X-4408333Y-2827860D02*
X-4396428Y-2804050D01*
X-4396428Y-2804050D02*
X-4384524Y-2756431D01*
X-4384524Y-2756431D02*
X-4384524Y-2720717D01*
X-4384524Y-2720717D02*
X-4396428Y-2673098D01*
X-4396428Y-2673098D02*
X-4408333Y-2649289D01*
X-4408333Y-2649289D02*
X-4432143Y-2625479D01*
X-4432143Y-2625479D02*
X-4467857Y-2613574D01*
X-4467857Y-2613574D02*
X-4491666Y-2613574D01*
X-4491666Y-2613574D02*
X-4527381Y-2625479D01*
X-4527381Y-2625479D02*
X-4539285Y-2637384D01*
X-4777381Y-2863574D02*
X-4634524Y-2863574D01*
X-4705952Y-2863574D02*
X-4705952Y-2613574D01*
X-4705952Y-2613574D02*
X-4682143Y-2649289D01*
X-4682143Y-2649289D02*
X-4658333Y-2673098D01*
X-4658333Y-2673098D02*
X-4634524Y-2685003D01*
X-4860714Y-2613574D02*
X-5015476Y-2613574D01*
X-5015476Y-2613574D02*
X-4932142Y-2708812D01*
X-4932142Y-2708812D02*
X-4967857Y-2708812D01*
X-4967857Y-2708812D02*
X-4991666Y-2720717D01*
X-4991666Y-2720717D02*
X-5003571Y-2732622D01*
X-5003571Y-2732622D02*
X-5015476Y-2756431D01*
X-5015476Y-2756431D02*
X-5015476Y-2815955D01*
X-5015476Y-2815955D02*
X-5003571Y-2839765D01*
X-5003571Y-2839765D02*
X-4991666Y-2851670D01*
X-4991666Y-2851670D02*
X-4967857Y-2863574D01*
X-4967857Y-2863574D02*
X-4896428Y-2863574D01*
X-4896428Y-2863574D02*
X-4872619Y-2851670D01*
X-4872619Y-2851670D02*
X-4860714Y-2839765D01*
D10*
X5729530Y3383333D02*
X5753340Y3407142D01*
X5753340Y3407142D02*
X5777149Y3478571D01*
X5777149Y3478571D02*
X5777149Y3526190D01*
X5777149Y3526190D02*
X5753340Y3597618D01*
X5753340Y3597618D02*
X5705720Y3645237D01*
X5705720Y3645237D02*
X5658101Y3669047D01*
X5658101Y3669047D02*
X5562863Y3692856D01*
X5562863Y3692856D02*
X5491435Y3692856D01*
X5491435Y3692856D02*
X5396197Y3669047D01*
X5396197Y3669047D02*
X5348578Y3645237D01*
X5348578Y3645237D02*
X5300959Y3597618D01*
X5300959Y3597618D02*
X5277149Y3526190D01*
X5277149Y3526190D02*
X5277149Y3478571D01*
X5277149Y3478571D02*
X5300959Y3407142D01*
X5300959Y3407142D02*
X5324768Y3383333D01*
X5277149Y2954761D02*
X5277149Y3049999D01*
X5277149Y3049999D02*
X5300959Y3097618D01*
X5300959Y3097618D02*
X5324768Y3121428D01*
X5324768Y3121428D02*
X5396197Y3169047D01*
X5396197Y3169047D02*
X5491435Y3192856D01*
X5491435Y3192856D02*
X5681911Y3192856D01*
X5681911Y3192856D02*
X5729530Y3169047D01*
X5729530Y3169047D02*
X5753340Y3145237D01*
X5753340Y3145237D02*
X5777149Y3097618D01*
X5777149Y3097618D02*
X5777149Y3002380D01*
X5777149Y3002380D02*
X5753340Y2954761D01*
X5753340Y2954761D02*
X5729530Y2930952D01*
X5729530Y2930952D02*
X5681911Y2907142D01*
X5681911Y2907142D02*
X5562863Y2907142D01*
X5562863Y2907142D02*
X5515244Y2930952D01*
X5515244Y2930952D02*
X5491435Y2954761D01*
X5491435Y2954761D02*
X5467625Y3002380D01*
X5467625Y3002380D02*
X5467625Y3097618D01*
X5467625Y3097618D02*
X5491435Y3145237D01*
X5491435Y3145237D02*
X5515244Y3169047D01*
X5515244Y3169047D02*
X5562863Y3192856D01*
D12*
X5269765Y3341666D02*
X5281670Y3353570D01*
X5281670Y3353570D02*
X5293574Y3389285D01*
X5293574Y3389285D02*
X5293574Y3413094D01*
X5293574Y3413094D02*
X5281670Y3448808D01*
X5281670Y3448808D02*
X5257860Y3472618D01*
X5257860Y3472618D02*
X5234050Y3484523D01*
X5234050Y3484523D02*
X5186431Y3496427D01*
X5186431Y3496427D02*
X5150717Y3496427D01*
X5150717Y3496427D02*
X5103098Y3484523D01*
X5103098Y3484523D02*
X5079289Y3472618D01*
X5079289Y3472618D02*
X5055479Y3448808D01*
X5055479Y3448808D02*
X5043574Y3413094D01*
X5043574Y3413094D02*
X5043574Y3389285D01*
X5043574Y3389285D02*
X5055479Y3353570D01*
X5055479Y3353570D02*
X5067384Y3341666D01*
X5043574Y3127380D02*
X5043574Y3174999D01*
X5043574Y3174999D02*
X5055479Y3198808D01*
X5055479Y3198808D02*
X5067384Y3210713D01*
X5067384Y3210713D02*
X5103098Y3234523D01*
X5103098Y3234523D02*
X5150717Y3246427D01*
X5150717Y3246427D02*
X5245955Y3246427D01*
X5245955Y3246427D02*
X5269765Y3234523D01*
X5269765Y3234523D02*
X5281670Y3222618D01*
X5281670Y3222618D02*
X5293574Y3198808D01*
X5293574Y3198808D02*
X5293574Y3151189D01*
X5293574Y3151189D02*
X5281670Y3127380D01*
X5281670Y3127380D02*
X5269765Y3115475D01*
X5269765Y3115475D02*
X5245955Y3103570D01*
X5245955Y3103570D02*
X5186431Y3103570D01*
X5186431Y3103570D02*
X5162622Y3115475D01*
X5162622Y3115475D02*
X5150717Y3127380D01*
X5150717Y3127380D02*
X5138812Y3151189D01*
X5138812Y3151189D02*
X5138812Y3198808D01*
X5138812Y3198808D02*
X5150717Y3222618D01*
X5150717Y3222618D02*
X5162622Y3234523D01*
X5162622Y3234523D02*
X5186431Y3246427D01*
D10*
X83333Y-1189530D02*
X107142Y-1213340D01*
X107142Y-1213340D02*
X178571Y-1237149D01*
X178571Y-1237149D02*
X226190Y-1237149D01*
X226190Y-1237149D02*
X297618Y-1213340D01*
X297618Y-1213340D02*
X345237Y-1165720D01*
X345237Y-1165720D02*
X369047Y-1118101D01*
X369047Y-1118101D02*
X392856Y-1022863D01*
X392856Y-1022863D02*
X392856Y-951435D01*
X392856Y-951435D02*
X369047Y-856197D01*
X369047Y-856197D02*
X345237Y-808578D01*
X345237Y-808578D02*
X297618Y-760959D01*
X297618Y-760959D02*
X226190Y-737149D01*
X226190Y-737149D02*
X178571Y-737149D01*
X178571Y-737149D02*
X107142Y-760959D01*
X107142Y-760959D02*
X83333Y-784768D01*
X-392857Y-1237149D02*
X-107143Y-1237149D01*
X-250000Y-1237149D02*
X-250000Y-737149D01*
X-250000Y-737149D02*
X-202381Y-808578D01*
X-202381Y-808578D02*
X-154762Y-856197D01*
X-154762Y-856197D02*
X-107143Y-880006D01*
D12*
X41666Y-2259765D02*
X53570Y-2271670D01*
X53570Y-2271670D02*
X89285Y-2283574D01*
X89285Y-2283574D02*
X113094Y-2283574D01*
X113094Y-2283574D02*
X148808Y-2271670D01*
X148808Y-2271670D02*
X172618Y-2247860D01*
X172618Y-2247860D02*
X184523Y-2224050D01*
X184523Y-2224050D02*
X196427Y-2176431D01*
X196427Y-2176431D02*
X196427Y-2140717D01*
X196427Y-2140717D02*
X184523Y-2093098D01*
X184523Y-2093098D02*
X172618Y-2069289D01*
X172618Y-2069289D02*
X148808Y-2045479D01*
X148808Y-2045479D02*
X113094Y-2033574D01*
X113094Y-2033574D02*
X89285Y-2033574D01*
X89285Y-2033574D02*
X53570Y-2045479D01*
X53570Y-2045479D02*
X41666Y-2057384D01*
X-196429Y-2283574D02*
X-53572Y-2283574D01*
X-125000Y-2283574D02*
X-125000Y-2033574D01*
X-125000Y-2033574D02*
X-101191Y-2069289D01*
X-101191Y-2069289D02*
X-77381Y-2093098D01*
X-77381Y-2093098D02*
X-53572Y-2105003D01*
D10*
X627149Y280952D02*
X1031911Y280952D01*
X1031911Y280952D02*
X1079530Y257142D01*
X1079530Y257142D02*
X1103340Y233333D01*
X1103340Y233333D02*
X1127149Y185714D01*
X1127149Y185714D02*
X1127149Y90476D01*
X1127149Y90476D02*
X1103340Y42857D01*
X1103340Y42857D02*
X1079530Y19047D01*
X1079530Y19047D02*
X1031911Y-4761D01*
X1031911Y-4761D02*
X627149Y-4761D01*
X627149Y-195238D02*
X627149Y-504762D01*
X627149Y-504762D02*
X817625Y-338095D01*
X817625Y-338095D02*
X817625Y-409524D01*
X817625Y-409524D02*
X841435Y-457143D01*
X841435Y-457143D02*
X865244Y-480952D01*
X865244Y-480952D02*
X912863Y-504762D01*
X912863Y-504762D02*
X1031911Y-504762D01*
X1031911Y-504762D02*
X1079530Y-480952D01*
X1079530Y-480952D02*
X1103340Y-457143D01*
X1103340Y-457143D02*
X1127149Y-409524D01*
X1127149Y-409524D02*
X1127149Y-266667D01*
X1127149Y-266667D02*
X1103340Y-219048D01*
X1103340Y-219048D02*
X1079530Y-195238D01*
D11*
X3848571Y292634D02*
X3848571Y-290222D01*
X3848571Y-290222D02*
X3814285Y-358794D01*
X3814285Y-358794D02*
X3780000Y-393080D01*
X3780000Y-393080D02*
X3711428Y-427365D01*
X3711428Y-427365D02*
X3574285Y-427365D01*
X3574285Y-427365D02*
X3505714Y-393080D01*
X3505714Y-393080D02*
X3471428Y-358794D01*
X3471428Y-358794D02*
X3437142Y-290222D01*
X3437142Y-290222D02*
X3437142Y292634D01*
X3162856Y292634D02*
X2717142Y292634D01*
X2717142Y292634D02*
X2957142Y18348D01*
X2957142Y18348D02*
X2854285Y18348D01*
X2854285Y18348D02*
X2785714Y-15937D01*
X2785714Y-15937D02*
X2751428Y-50222D01*
X2751428Y-50222D02*
X2717142Y-118794D01*
X2717142Y-118794D02*
X2717142Y-290222D01*
X2717142Y-290222D02*
X2751428Y-358794D01*
X2751428Y-358794D02*
X2785714Y-393080D01*
X2785714Y-393080D02*
X2854285Y-427365D01*
X2854285Y-427365D02*
X3059999Y-427365D01*
X3059999Y-427365D02*
X3128571Y-393080D01*
X3128571Y-393080D02*
X3162856Y-358794D01*
D10*
X327149Y-3989047D02*
X731911Y-3989047D01*
X731911Y-3989047D02*
X779530Y-4012857D01*
X779530Y-4012857D02*
X803340Y-4036666D01*
X803340Y-4036666D02*
X827149Y-4084285D01*
X827149Y-4084285D02*
X827149Y-4179523D01*
X827149Y-4179523D02*
X803340Y-4227142D01*
X803340Y-4227142D02*
X779530Y-4250952D01*
X779530Y-4250952D02*
X731911Y-4274761D01*
X731911Y-4274761D02*
X327149Y-4274761D01*
X493816Y-4727143D02*
X827149Y-4727143D01*
X303340Y-4608095D02*
X660482Y-4489048D01*
X660482Y-4489048D02*
X660482Y-4798571D01*
D11*
X-1278571Y-3961244D02*
X-1278571Y-4568387D01*
X-1278571Y-4568387D02*
X-1314285Y-4639815D01*
X-1314285Y-4639815D02*
X-1350000Y-4675530D01*
X-1350000Y-4675530D02*
X-1421428Y-4711244D01*
X-1421428Y-4711244D02*
X-1564285Y-4711244D01*
X-1564285Y-4711244D02*
X-1635714Y-4675530D01*
X-1635714Y-4675530D02*
X-1671428Y-4639815D01*
X-1671428Y-4639815D02*
X-1707142Y-4568387D01*
X-1707142Y-4568387D02*
X-1707142Y-3961244D01*
X-2385714Y-4211244D02*
X-2385714Y-4711244D01*
X-2207142Y-3925530D02*
X-2028571Y-4461244D01*
X-2028571Y-4461244D02*
X-2492856Y-4461244D01*
D10*
X-2378571Y4670469D02*
X-2354762Y4646660D01*
X-2354762Y4646660D02*
X-2283333Y4622850D01*
X-2283333Y4622850D02*
X-2235714Y4622850D01*
X-2235714Y4622850D02*
X-2164286Y4646660D01*
X-2164286Y4646660D02*
X-2116667Y4694279D01*
X-2116667Y4694279D02*
X-2092857Y4741898D01*
X-2092857Y4741898D02*
X-2069048Y4837136D01*
X-2069048Y4837136D02*
X-2069048Y4908564D01*
X-2069048Y4908564D02*
X-2092857Y5003802D01*
X-2092857Y5003802D02*
X-2116667Y5051421D01*
X-2116667Y5051421D02*
X-2164286Y5099040D01*
X-2164286Y5099040D02*
X-2235714Y5122850D01*
X-2235714Y5122850D02*
X-2283333Y5122850D01*
X-2283333Y5122850D02*
X-2354762Y5099040D01*
X-2354762Y5099040D02*
X-2378571Y5075231D01*
X-2854762Y4622850D02*
X-2569048Y4622850D01*
X-2711905Y4622850D02*
X-2711905Y5122850D01*
X-2711905Y5122850D02*
X-2664286Y5051421D01*
X-2664286Y5051421D02*
X-2616667Y5003802D01*
X-2616667Y5003802D02*
X-2569048Y4979993D01*
X-3330952Y4622850D02*
X-3045238Y4622850D01*
X-3188095Y4622850D02*
X-3188095Y5122850D01*
X-3188095Y5122850D02*
X-3140476Y5051421D01*
X-3140476Y5051421D02*
X-3092857Y5003802D01*
X-3092857Y5003802D02*
X-3045238Y4979993D01*
D12*
X-2539285Y4390234D02*
X-2527381Y4378330D01*
X-2527381Y4378330D02*
X-2491666Y4366425D01*
X-2491666Y4366425D02*
X-2467857Y4366425D01*
X-2467857Y4366425D02*
X-2432143Y4378330D01*
X-2432143Y4378330D02*
X-2408333Y4402139D01*
X-2408333Y4402139D02*
X-2396428Y4425949D01*
X-2396428Y4425949D02*
X-2384524Y4473568D01*
X-2384524Y4473568D02*
X-2384524Y4509282D01*
X-2384524Y4509282D02*
X-2396428Y4556901D01*
X-2396428Y4556901D02*
X-2408333Y4580710D01*
X-2408333Y4580710D02*
X-2432143Y4604520D01*
X-2432143Y4604520D02*
X-2467857Y4616425D01*
X-2467857Y4616425D02*
X-2491666Y4616425D01*
X-2491666Y4616425D02*
X-2527381Y4604520D01*
X-2527381Y4604520D02*
X-2539285Y4592615D01*
X-2777381Y4366425D02*
X-2634524Y4366425D01*
X-2705952Y4366425D02*
X-2705952Y4616425D01*
X-2705952Y4616425D02*
X-2682143Y4580710D01*
X-2682143Y4580710D02*
X-2658333Y4556901D01*
X-2658333Y4556901D02*
X-2634524Y4544996D01*
X-3015476Y4366425D02*
X-2872619Y4366425D01*
X-2944047Y4366425D02*
X-2944047Y4616425D01*
X-2944047Y4616425D02*
X-2920238Y4580710D01*
X-2920238Y4580710D02*
X-2896428Y4556901D01*
X-2896428Y4556901D02*
X-2872619Y4544996D01*
D10*
X229530Y-766666D02*
X253340Y-742857D01*
X253340Y-742857D02*
X277149Y-671428D01*
X277149Y-671428D02*
X277149Y-623809D01*
X277149Y-623809D02*
X253340Y-552381D01*
X253340Y-552381D02*
X205720Y-504762D01*
X205720Y-504762D02*
X158101Y-480952D01*
X158101Y-480952D02*
X62863Y-457143D01*
X62863Y-457143D02*
X-8564Y-457143D01*
X-8564Y-457143D02*
X-103802Y-480952D01*
X-103802Y-480952D02*
X-151421Y-504762D01*
X-151421Y-504762D02*
X-199040Y-552381D01*
X-199040Y-552381D02*
X-222850Y-623809D01*
X-222850Y-623809D02*
X-222850Y-671428D01*
X-222850Y-671428D02*
X-199040Y-742857D01*
X-199040Y-742857D02*
X-175231Y-766666D01*
X-56183Y-1195238D02*
X277149Y-1195238D01*
X-246660Y-1076190D02*
X110482Y-957143D01*
X110482Y-957143D02*
X110482Y-1266666D01*
D12*
X-230234Y-808333D02*
X-218330Y-796429D01*
X-218330Y-796429D02*
X-206425Y-760714D01*
X-206425Y-760714D02*
X-206425Y-736905D01*
X-206425Y-736905D02*
X-218330Y-701191D01*
X-218330Y-701191D02*
X-242139Y-677381D01*
X-242139Y-677381D02*
X-265949Y-665476D01*
X-265949Y-665476D02*
X-313568Y-653572D01*
X-313568Y-653572D02*
X-349282Y-653572D01*
X-349282Y-653572D02*
X-396901Y-665476D01*
X-396901Y-665476D02*
X-420710Y-677381D01*
X-420710Y-677381D02*
X-444520Y-701191D01*
X-444520Y-701191D02*
X-456425Y-736905D01*
X-456425Y-736905D02*
X-456425Y-760714D01*
X-456425Y-760714D02*
X-444520Y-796429D01*
X-444520Y-796429D02*
X-432615Y-808333D01*
X-373091Y-1022619D02*
X-206425Y-1022619D01*
X-468330Y-963095D02*
X-289758Y-903572D01*
X-289758Y-903572D02*
X-289758Y-1058333D01*
D10*
X380952Y1772850D02*
X380952Y1368088D01*
X380952Y1368088D02*
X357142Y1320469D01*
X357142Y1320469D02*
X333333Y1296660D01*
X333333Y1296660D02*
X285714Y1272850D01*
X285714Y1272850D02*
X190476Y1272850D01*
X190476Y1272850D02*
X142857Y1296660D01*
X142857Y1296660D02*
X119047Y1320469D01*
X119047Y1320469D02*
X95238Y1368088D01*
X95238Y1368088D02*
X95238Y1772850D01*
X-119048Y1725231D02*
X-142857Y1749040D01*
X-142857Y1749040D02*
X-190476Y1772850D01*
X-190476Y1772850D02*
X-309524Y1772850D01*
X-309524Y1772850D02*
X-357143Y1749040D01*
X-357143Y1749040D02*
X-380952Y1725231D01*
X-380952Y1725231D02*
X-404762Y1677612D01*
X-404762Y1677612D02*
X-404762Y1629993D01*
X-404762Y1629993D02*
X-380952Y1558564D01*
X-380952Y1558564D02*
X-95238Y1272850D01*
X-95238Y1272850D02*
X-404762Y1272850D01*
D13*
X533333Y4381366D02*
X533333Y3814700D01*
X533333Y3814700D02*
X500000Y3748033D01*
X500000Y3748033D02*
X466666Y3714700D01*
X466666Y3714700D02*
X400000Y3681366D01*
X400000Y3681366D02*
X266666Y3681366D01*
X266666Y3681366D02*
X200000Y3714700D01*
X200000Y3714700D02*
X166666Y3748033D01*
X166666Y3748033D02*
X133333Y3814700D01*
X133333Y3814700D02*
X133333Y4381366D01*
X-166666Y4314700D02*
X-199999Y4348033D01*
X-199999Y4348033D02*
X-266666Y4381366D01*
X-266666Y4381366D02*
X-433333Y4381366D01*
X-433333Y4381366D02*
X-499999Y4348033D01*
X-499999Y4348033D02*
X-533333Y4314700D01*
X-533333Y4314700D02*
X-566666Y4248033D01*
X-566666Y4248033D02*
X-566666Y4181366D01*
X-566666Y4181366D02*
X-533333Y4081366D01*
X-533333Y4081366D02*
X-133333Y3681366D01*
X-133333Y3681366D02*
X-566666Y3681366D01*
D10*
X4027149Y-3989047D02*
X4431911Y-3989047D01*
X4431911Y-3989047D02*
X4479530Y-4012857D01*
X4479530Y-4012857D02*
X4503340Y-4036666D01*
X4503340Y-4036666D02*
X4527149Y-4084285D01*
X4527149Y-4084285D02*
X4527149Y-4179523D01*
X4527149Y-4179523D02*
X4503340Y-4227142D01*
X4503340Y-4227142D02*
X4479530Y-4250952D01*
X4479530Y-4250952D02*
X4431911Y-4274761D01*
X4431911Y-4274761D02*
X4027149Y-4274761D01*
X4027149Y-4750952D02*
X4027149Y-4512857D01*
X4027149Y-4512857D02*
X4265244Y-4489048D01*
X4265244Y-4489048D02*
X4241435Y-4512857D01*
X4241435Y-4512857D02*
X4217625Y-4560476D01*
X4217625Y-4560476D02*
X4217625Y-4679524D01*
X4217625Y-4679524D02*
X4241435Y-4727143D01*
X4241435Y-4727143D02*
X4265244Y-4750952D01*
X4265244Y-4750952D02*
X4312863Y-4774762D01*
X4312863Y-4774762D02*
X4431911Y-4774762D01*
X4431911Y-4774762D02*
X4479530Y-4750952D01*
X4479530Y-4750952D02*
X4503340Y-4727143D01*
X4503340Y-4727143D02*
X4527149Y-4679524D01*
X4527149Y-4679524D02*
X4527149Y-4560476D01*
X4527149Y-4560476D02*
X4503340Y-4512857D01*
X4503340Y-4512857D02*
X4479530Y-4489048D01*
D11*
X2421428Y-3961244D02*
X2421428Y-4568387D01*
X2421428Y-4568387D02*
X2385714Y-4639815D01*
X2385714Y-4639815D02*
X2350000Y-4675530D01*
X2350000Y-4675530D02*
X2278571Y-4711244D01*
X2278571Y-4711244D02*
X2135714Y-4711244D01*
X2135714Y-4711244D02*
X2064285Y-4675530D01*
X2064285Y-4675530D02*
X2028571Y-4639815D01*
X2028571Y-4639815D02*
X1992857Y-4568387D01*
X1992857Y-4568387D02*
X1992857Y-3961244D01*
X1278571Y-3961244D02*
X1635714Y-3961244D01*
X1635714Y-3961244D02*
X1671428Y-4318387D01*
X1671428Y-4318387D02*
X1635714Y-4282672D01*
X1635714Y-4282672D02*
X1564286Y-4246958D01*
X1564286Y-4246958D02*
X1385714Y-4246958D01*
X1385714Y-4246958D02*
X1314286Y-4282672D01*
X1314286Y-4282672D02*
X1278571Y-4318387D01*
X1278571Y-4318387D02*
X1242857Y-4389815D01*
X1242857Y-4389815D02*
X1242857Y-4568387D01*
X1242857Y-4568387D02*
X1278571Y-4639815D01*
X1278571Y-4639815D02*
X1314286Y-4675530D01*
X1314286Y-4675530D02*
X1385714Y-4711244D01*
X1385714Y-4711244D02*
X1564286Y-4711244D01*
X1564286Y-4711244D02*
X1635714Y-4675530D01*
X1635714Y-4675530D02*
X1671428Y-4639815D01*
D10*
X2229530Y-766666D02*
X2253340Y-742857D01*
X2253340Y-742857D02*
X2277149Y-671428D01*
X2277149Y-671428D02*
X2277149Y-623809D01*
X2277149Y-623809D02*
X2253340Y-552381D01*
X2253340Y-552381D02*
X2205720Y-504762D01*
X2205720Y-504762D02*
X2158101Y-480952D01*
X2158101Y-480952D02*
X2062863Y-457143D01*
X2062863Y-457143D02*
X1991435Y-457143D01*
X1991435Y-457143D02*
X1896197Y-480952D01*
X1896197Y-480952D02*
X1848578Y-504762D01*
X1848578Y-504762D02*
X1800959Y-552381D01*
X1800959Y-552381D02*
X1777149Y-623809D01*
X1777149Y-623809D02*
X1777149Y-671428D01*
X1777149Y-671428D02*
X1800959Y-742857D01*
X1800959Y-742857D02*
X1824768Y-766666D01*
X1777149Y-1219047D02*
X1777149Y-980952D01*
X1777149Y-980952D02*
X2015244Y-957143D01*
X2015244Y-957143D02*
X1991435Y-980952D01*
X1991435Y-980952D02*
X1967625Y-1028571D01*
X1967625Y-1028571D02*
X1967625Y-1147619D01*
X1967625Y-1147619D02*
X1991435Y-1195238D01*
X1991435Y-1195238D02*
X2015244Y-1219047D01*
X2015244Y-1219047D02*
X2062863Y-1242857D01*
X2062863Y-1242857D02*
X2181911Y-1242857D01*
X2181911Y-1242857D02*
X2229530Y-1219047D01*
X2229530Y-1219047D02*
X2253340Y-1195238D01*
X2253340Y-1195238D02*
X2277149Y-1147619D01*
X2277149Y-1147619D02*
X2277149Y-1028571D01*
X2277149Y-1028571D02*
X2253340Y-980952D01*
X2253340Y-980952D02*
X2229530Y-957143D01*
D12*
X1769765Y-808333D02*
X1781670Y-796429D01*
X1781670Y-796429D02*
X1793574Y-760714D01*
X1793574Y-760714D02*
X1793574Y-736905D01*
X1793574Y-736905D02*
X1781670Y-701191D01*
X1781670Y-701191D02*
X1757860Y-677381D01*
X1757860Y-677381D02*
X1734050Y-665476D01*
X1734050Y-665476D02*
X1686431Y-653572D01*
X1686431Y-653572D02*
X1650717Y-653572D01*
X1650717Y-653572D02*
X1603098Y-665476D01*
X1603098Y-665476D02*
X1579289Y-677381D01*
X1579289Y-677381D02*
X1555479Y-701191D01*
X1555479Y-701191D02*
X1543574Y-736905D01*
X1543574Y-736905D02*
X1543574Y-760714D01*
X1543574Y-760714D02*
X1555479Y-796429D01*
X1555479Y-796429D02*
X1567384Y-808333D01*
X1543574Y-1034524D02*
X1543574Y-915476D01*
X1543574Y-915476D02*
X1662622Y-903572D01*
X1662622Y-903572D02*
X1650717Y-915476D01*
X1650717Y-915476D02*
X1638812Y-939286D01*
X1638812Y-939286D02*
X1638812Y-998810D01*
X1638812Y-998810D02*
X1650717Y-1022619D01*
X1650717Y-1022619D02*
X1662622Y-1034524D01*
X1662622Y-1034524D02*
X1686431Y-1046429D01*
X1686431Y-1046429D02*
X1745955Y-1046429D01*
X1745955Y-1046429D02*
X1769765Y-1034524D01*
X1769765Y-1034524D02*
X1781670Y-1022619D01*
X1781670Y-1022619D02*
X1793574Y-998810D01*
X1793574Y-998810D02*
X1793574Y-939286D01*
X1793574Y-939286D02*
X1781670Y-915476D01*
X1781670Y-915476D02*
X1769765Y-903572D01*
D13*
G04 #@! TO.C,U6*
X-1850000Y-500000D02*
X-1850000Y700000D01*
X-4750000Y700000D01*
X-4750000Y-900000D01*
X-2250000Y-900000D01*
X-1850000Y-500000D01*
G04 #@! TO.C,C14*
X4450000Y-3200000D02*
X4750000Y-3200000D01*
X4750000Y-3800000D01*
X4450000Y-3800000D01*
X4450000Y-3200000D01*
G04 #@! TO.C,R1*
X-1150000Y950000D02*
X-850000Y950000D01*
X-850000Y350000D01*
X-1150000Y350000D01*
X-1150000Y950000D01*
G04 #@! TO.C,C7*
X-3300000Y2650000D02*
X-2700000Y2650000D01*
X-2700000Y2350000D01*
X-3300000Y2350000D01*
X-3300000Y2650000D01*
G04 #@! TO.C,C12*
X2400000Y5050000D02*
X3000000Y5050000D01*
X3000000Y4750000D01*
X2400000Y4750000D01*
X2400000Y5050000D01*
G04 #@! TO.C,R2*
X850000Y950000D02*
X1150000Y950000D01*
X1150000Y350000D01*
X850000Y350000D01*
X850000Y950000D01*
G04 #@! TO.C,C13*
X-5200000Y-2500000D02*
X-4200000Y-2500000D01*
X-4200000Y-3000000D01*
X-5200000Y-3000000D01*
X-5200000Y-2500000D01*
G04 #@! TO.C,C6*
X4350000Y3600000D02*
X4650000Y3600000D01*
X4650000Y3000000D01*
X4350000Y3000000D01*
X4350000Y3600000D01*
G04 #@! TO.C,C1*
X-500000Y-1920000D02*
X500000Y-1920000D01*
X500000Y-2420000D01*
X-500000Y-2420000D01*
X-500000Y-1920000D01*
G04 #@! TO.C,U3*
X1850000Y300000D02*
X1850000Y-900000D01*
X4750000Y-900000D01*
X4750000Y700000D01*
X2250000Y700000D01*
X1850000Y300000D01*
G04 #@! TO.C,U4*
X-350000Y-4870000D02*
X-350000Y-3370000D01*
X-3350000Y-3370000D01*
X-3350000Y-5370000D01*
X-850000Y-5370000D01*
X-350000Y-4870000D01*
G04 #@! TO.C,C11*
X-3000000Y3950000D02*
X-2400000Y3950000D01*
X-2400000Y3650000D01*
X-3000000Y3650000D01*
X-3000000Y3950000D01*
G04 #@! TO.C,C4*
X-1150000Y-550000D02*
X-850000Y-550000D01*
X-850000Y-1150000D01*
X-1150000Y-1150000D01*
X-1150000Y-550000D01*
G04 #@! TO.C,U2*
X-1500000Y5500000D02*
X-1500000Y3500000D01*
X-1500000Y3500000D02*
X-500000Y2500000D01*
X-500000Y2500000D02*
X1500000Y2500000D01*
X1500000Y5500000D02*
X-1500000Y5500000D01*
X1500000Y2500000D02*
X1500000Y5500000D01*
G04 #@! TO.C,U5*
X3350000Y-4870000D02*
X3350000Y-3370000D01*
X350000Y-3370000D01*
X350000Y-5370000D01*
X2850000Y-5370000D01*
X3350000Y-4870000D01*
G04 #@! TO.C,C5*
X850000Y-550000D02*
X1150000Y-550000D01*
X1150000Y-1150000D01*
X850000Y-1150000D01*
X850000Y-550000D01*
G04 #@! TD*
M02*
