G04 #@! TF.GenerationSoftware,KiCad,Pcbnew,10.0.6*
G04 #@! TF.CreationDate,2026-09-15T12:42:51+09:00*
G04 #@! TF.ProjectId,ppg_pcb_v08,7070675f-7063-4625-9f76-30382e6b6963,rev?*
G04 #@! TF.SameCoordinates,Original*
G04 #@! TF.FileFunction,Soldermask,Top*
G04 #@! TF.FilePolarity,Negative*
%FSLAX46Y46*%
G04 Gerber Fmt 4.6, Leading zero omitted, Abs format (unit mm)*
G04 Created by KiCad (PCBNEW 10.0.6) date 2026-09-15 12:42:51*
%MOMM*%
%LPD*%
G01*
G04 APERTURE LIST*
G04 APERTURE END LIST*
G36*
X-681732Y-1607611D02*
G01*
X-649289Y-1629288D01*
X-627612Y-1661731D01*
X-620000Y-1699999D01*
X-620000Y-1899999D01*
X-627612Y-1938267D01*
X-649289Y-1970710D01*
X-681732Y-1992387D01*
X-720000Y-1999999D01*
X-1180000Y-1999999D01*
X-1218268Y-1992387D01*
X-1250711Y-1970710D01*
X-1272388Y-1938267D01*
X-1280000Y-1899999D01*
X-1280000Y-1699999D01*
X-1272388Y-1661731D01*
X-1250711Y-1629288D01*
X-1218268Y-1607611D01*
X-1180000Y-1599999D01*
X-720000Y-1599999D01*
X-681732Y-1607611D01*
G37*
G36*
X1218268Y-1607611D02*
G01*
X1250711Y-1629288D01*
X1272388Y-1661731D01*
X1280000Y-1699999D01*
X1280000Y-1899999D01*
X1272388Y-1938267D01*
X1250711Y-1970710D01*
X1218268Y-1992387D01*
X1180000Y-1999999D01*
X720000Y-1999999D01*
X681732Y-1992387D01*
X649289Y-1970710D01*
X627612Y-1938267D01*
X620000Y-1899999D01*
X620000Y-1699999D01*
X627612Y-1661731D01*
X649289Y-1629288D01*
X681732Y-1607611D01*
X720000Y-1599999D01*
X1180000Y-1599999D01*
X1218268Y-1607611D01*
G37*
G36*
X-681732Y-1007612D02*
G01*
X-649289Y-1029289D01*
X-627612Y-1061732D01*
X-620000Y-1100000D01*
X-620000Y-1300000D01*
X-627612Y-1338268D01*
X-649289Y-1370711D01*
X-681732Y-1392388D01*
X-720000Y-1400000D01*
X-1180000Y-1400000D01*
X-1218268Y-1392388D01*
X-1250711Y-1370711D01*
X-1272388Y-1338268D01*
X-1280000Y-1300000D01*
X-1280000Y-1100000D01*
X-1272388Y-1061732D01*
X-1250711Y-1029289D01*
X-1218268Y-1007612D01*
X-1180000Y-1000000D01*
X-720000Y-1000000D01*
X-681732Y-1007612D01*
G37*
G36*
X1218268Y-1007612D02*
G01*
X1250711Y-1029289D01*
X1272388Y-1061732D01*
X1280000Y-1100000D01*
X1280000Y-1300000D01*
X1272388Y-1338268D01*
X1250711Y-1370711D01*
X1218268Y-1392388D01*
X1180000Y-1400000D01*
X720000Y-1400000D01*
X681732Y-1392388D01*
X649289Y-1370711D01*
X627612Y-1338268D01*
X620000Y-1300000D01*
X620000Y-1100000D01*
X627612Y-1061732D01*
X649289Y-1029289D01*
X681732Y-1007612D01*
X720000Y-1000000D01*
X1180000Y-1000000D01*
X1218268Y-1007612D01*
G37*
G36*
X-681732Y-407611D02*
G01*
X-649289Y-429288D01*
X-627612Y-461731D01*
X-620000Y-499999D01*
X-620000Y-699999D01*
X-627612Y-738267D01*
X-649289Y-770710D01*
X-681732Y-792387D01*
X-720000Y-799999D01*
X-1180000Y-799999D01*
X-1218268Y-792387D01*
X-1250711Y-770710D01*
X-1272388Y-738267D01*
X-1280000Y-699999D01*
X-1280000Y-499999D01*
X-1272388Y-461731D01*
X-1250711Y-429288D01*
X-1218268Y-407611D01*
X-1180000Y-399999D01*
X-720000Y-399999D01*
X-681732Y-407611D01*
G37*
G36*
X1218268Y-407611D02*
G01*
X1250711Y-429288D01*
X1272388Y-461731D01*
X1280000Y-499999D01*
X1280000Y-699999D01*
X1272388Y-738267D01*
X1250711Y-770710D01*
X1218268Y-792387D01*
X1180000Y-799999D01*
X720000Y-799999D01*
X681732Y-792387D01*
X649289Y-770710D01*
X627612Y-738267D01*
X620000Y-699999D01*
X620000Y-499999D01*
X627612Y-461731D01*
X649289Y-429288D01*
X681732Y-407611D01*
X720000Y-399999D01*
X1180000Y-399999D01*
X1218268Y-407611D01*
G37*
G36*
X-681732Y192388D02*
G01*
X-649289Y170711D01*
X-627612Y138268D01*
X-620000Y100000D01*
X-620000Y-100000D01*
X-627612Y-138268D01*
X-649289Y-170711D01*
X-681732Y-192388D01*
X-720000Y-200000D01*
X-1180000Y-200000D01*
X-1218268Y-192388D01*
X-1250711Y-170711D01*
X-1272388Y-138268D01*
X-1280000Y-100000D01*
X-1280000Y100000D01*
X-1272388Y138268D01*
X-1250711Y170711D01*
X-1218268Y192388D01*
X-1180000Y200000D01*
X-720000Y200000D01*
X-681732Y192388D01*
G37*
G36*
X1218268Y192388D02*
G01*
X1250711Y170711D01*
X1272388Y138268D01*
X1280000Y100000D01*
X1280000Y-100000D01*
X1272388Y-138268D01*
X1250711Y-170711D01*
X1218268Y-192388D01*
X1180000Y-200000D01*
X720000Y-200000D01*
X681732Y-192388D01*
X649289Y-170711D01*
X627612Y-138268D01*
X620000Y-100000D01*
X620000Y100000D01*
X627612Y138268D01*
X649289Y170711D01*
X681732Y192388D01*
X720000Y200000D01*
X1180000Y200000D01*
X1218268Y192388D01*
G37*
G36*
X-681732Y792388D02*
G01*
X-649289Y770711D01*
X-627612Y738268D01*
X-620000Y700000D01*
X-620000Y500000D01*
X-627612Y461732D01*
X-649289Y429289D01*
X-681732Y407612D01*
X-720000Y400000D01*
X-724922Y400000D01*
X-1175077Y400000D01*
X-1180000Y400000D01*
X-1218268Y407612D01*
X-1250711Y429289D01*
X-1272388Y461732D01*
X-1280000Y500000D01*
X-1280000Y700000D01*
X-1272388Y738268D01*
X-1250711Y770711D01*
X-1218268Y792388D01*
X-1180000Y800000D01*
X-720000Y800000D01*
X-681732Y792388D01*
G37*
G36*
X1218268Y792388D02*
G01*
X1250711Y770711D01*
X1272388Y738268D01*
X1280000Y700000D01*
X1280000Y500000D01*
X1272388Y461732D01*
X1250711Y429289D01*
X1218268Y407612D01*
X1180000Y400000D01*
X1175077Y400000D01*
X724922Y400000D01*
X720000Y400000D01*
X681732Y407612D01*
X649289Y429289D01*
X627612Y461732D01*
X620000Y500000D01*
X620000Y700000D01*
X627612Y738268D01*
X649289Y770711D01*
X681732Y792388D01*
X720000Y800000D01*
X1180000Y800000D01*
X1218268Y792388D01*
G37*
G36*
X-681732Y1392388D02*
G01*
X-649289Y1370711D01*
X-627612Y1338268D01*
X-620000Y1300000D01*
X-620000Y1100000D01*
X-627612Y1061732D01*
X-649289Y1029289D01*
X-681732Y1007612D01*
X-720000Y1000000D01*
X-724922Y1000000D01*
X-1175077Y1000000D01*
X-1180000Y1000000D01*
X-1218268Y1007612D01*
X-1250711Y1029289D01*
X-1272388Y1061732D01*
X-1280000Y1100000D01*
X-1280000Y1300000D01*
X-1272388Y1338268D01*
X-1250711Y1370711D01*
X-1218268Y1392388D01*
X-1180000Y1400000D01*
X-720000Y1400000D01*
X-681732Y1392388D01*
G37*
G36*
X1218268Y1392388D02*
G01*
X1250711Y1370711D01*
X1272388Y1338268D01*
X1280000Y1300000D01*
X1280000Y1100000D01*
X1272388Y1061732D01*
X1250711Y1029289D01*
X1218268Y1007612D01*
X1180000Y1000000D01*
X1175077Y1000000D01*
X724922Y1000000D01*
X720000Y1000000D01*
X681732Y1007612D01*
X649289Y1029289D01*
X627612Y1061732D01*
X620000Y1100000D01*
X620000Y1300000D01*
X627612Y1338268D01*
X649289Y1370711D01*
X681732Y1392388D01*
X720000Y1400000D01*
X1180000Y1400000D01*
X1218268Y1392388D01*
G37*
G36*
X-681732Y1992388D02*
G01*
X-649289Y1970711D01*
X-627612Y1938268D01*
X-620000Y1900000D01*
X-620000Y1700000D01*
X-627612Y1661732D01*
X-649289Y1629289D01*
X-681732Y1607612D01*
X-720000Y1600000D01*
X-724922Y1600000D01*
X-1175077Y1600000D01*
X-1180000Y1600000D01*
X-1218268Y1607612D01*
X-1250711Y1629289D01*
X-1272388Y1661732D01*
X-1280000Y1700000D01*
X-1280000Y1900000D01*
X-1272388Y1938268D01*
X-1250711Y1970711D01*
X-1218268Y1992388D01*
X-1180000Y2000000D01*
X-720000Y2000000D01*
X-681732Y1992388D01*
G37*
G36*
X1218268Y1992388D02*
G01*
X1250711Y1970711D01*
X1272388Y1938268D01*
X1280000Y1900000D01*
X1280000Y1700000D01*
X1272388Y1661732D01*
X1250711Y1629289D01*
X1218268Y1607612D01*
X1180000Y1600000D01*
X1175077Y1600000D01*
X724922Y1600000D01*
X720000Y1600000D01*
X681732Y1607612D01*
X649289Y1629289D01*
X627612Y1661732D01*
X620000Y1700000D01*
X620000Y1900000D01*
X627612Y1938268D01*
X649289Y1970711D01*
X681732Y1992388D01*
X720000Y2000000D01*
X1180000Y2000000D01*
X1218268Y1992388D01*
G37*
M02*
