G04 #@! TF.GenerationSoftware,KiCad,Pcbnew,10.0.6*
G04 #@! TF.CreationDate,2026-09-30T23:40:46+09:00*
G04 #@! TF.ProjectId,ppg_pcb_v08,7070675f-7063-4625-9f76-30382e6b6963,rev?*
G04 #@! TF.SameCoordinates,Original*
G04 #@! TF.FileFunction,Paste,Bot*
G04 #@! TF.FilePolarity,Positive*
%FSLAX46Y46*%
G04 Gerber Fmt 4.6, Leading zero omitted, Abs format (unit mm)*
G04 Created by KiCad (PCBNEW 10.0.6) date 2026-09-30 23:40:46*
%MOMM*%
%LPD*%
G01*
G04 APERTURE LIST*
G04 Aperture macros list*
%AMRoundRect*
0 Rectangle with rounded corners*
0 $1 Rounding radius*
0 $2 $3 $4 $5 $6 $7 $8 $9 X,Y pos of 4 corners*
0 Add a 4 corners polygon primitive as box body*
4,1,4,$2,$3,$4,$5,$6,$7,$8,$9,$2,$3,0*
0 Add four circle primitives for the rounded corners*
1,1,$1+$1,$2,$3*
1,1,$1+$1,$4,$5*
1,1,$1+$1,$6,$7*
1,1,$1+$1,$8,$9*
0 Add four rect primitives between the rounded corners*
20,1,$1+$1,$2,$3,$4,$5,0*
20,1,$1+$1,$4,$5,$6,$7,0*
20,1,$1+$1,$6,$7,$8,$9,0*
20,1,$1+$1,$8,$9,$2,$3,0*%
%AMFreePoly0*
4,1,6,0.325000,0.000000,0.175000,-0.150000,-0.175000,-0.150000,-0.175000,0.150000,0.325000,0.150000,0.325000,0.000000,0.325000,0.000000,$1*%
%AMFreePoly1*
4,1,6,0.325000,0.000000,0.325000,-0.150000,-0.175000,-0.150000,-0.175000,0.150000,0.175000,0.150000,0.325000,0.000000,0.325000,0.000000,$1*%
%AMFreePoly2*
4,1,6,0.150000,-0.325000,0.000000,-0.325000,-0.150000,-0.175000,-0.150000,0.175000,0.150000,0.175000,0.150000,-0.325000,0.150000,-0.325000,$1*%
%AMFreePoly3*
4,1,6,0.150000,-0.175000,0.000000,-0.325000,-0.150000,-0.325000,-0.150000,0.175000,0.150000,0.175000,0.150000,-0.175000,0.150000,-0.175000,$1*%
%AMFreePoly4*
4,1,7,0.175000,-0.150000,-0.175000,-0.150000,-0.325000,-0.150000,-0.325000,0.000000,-0.175000,0.150000,0.175000,0.150000,0.175000,-0.150000,0.175000,-0.150000,$1*%
%AMFreePoly5*
4,1,6,0.175000,-0.150000,-0.175000,-0.150000,-0.325000,0.000000,-0.325000,0.150000,0.175000,0.150000,0.175000,-0.150000,0.175000,-0.150000,$1*%
%AMFreePoly6*
4,1,6,0.150000,0.175000,0.150000,-0.175000,-0.150000,-0.175000,-0.150000,0.325000,0.000000,0.325000,0.150000,0.175000,0.150000,0.175000,$1*%
%AMFreePoly7*
4,1,6,0.150000,-0.175000,-0.150000,-0.175000,-0.150000,0.175000,0.000000,0.325000,0.150000,0.325000,0.150000,-0.175000,0.150000,-0.175000,$1*%
G04 Aperture macros list end*
%ADD10RoundRect,0.150000X0.150000X-0.512500X0.150000X0.512500X-0.150000X0.512500X-0.150000X-0.512500X0*%
%ADD11RoundRect,0.079500X0.100500X-0.079500X0.100500X0.079500X-0.100500X0.079500X-0.100500X-0.079500X0*%
%ADD12C,0.800000*%
%ADD13C,1.200000*%
%ADD14RoundRect,0.079500X0.079500X0.100500X-0.079500X0.100500X-0.079500X-0.100500X0.079500X-0.100500X0*%
%ADD15RoundRect,0.140000X0.140000X0.170000X-0.140000X0.170000X-0.140000X-0.170000X0.140000X-0.170000X0*%
%ADD16RoundRect,0.150000X-0.150000X0.512500X-0.150000X-0.512500X0.150000X-0.512500X0.150000X0.512500X0*%
%ADD17RoundRect,0.122500X0.322500X-0.122500X0.322500X0.122500X-0.322500X0.122500X-0.322500X-0.122500X0*%
%ADD18RoundRect,0.062500X0.062500X-0.372500X0.062500X0.372500X-0.062500X0.372500X-0.062500X-0.372500X0*%
%ADD19FreePoly0,0.000000*%
%ADD20R,0.700000X0.300000*%
%ADD21FreePoly1,0.000000*%
%ADD22FreePoly2,0.000000*%
%ADD23R,0.300000X0.700000*%
%ADD24FreePoly3,0.000000*%
%ADD25FreePoly4,0.000000*%
%ADD26FreePoly5,0.000000*%
%ADD27FreePoly6,0.000000*%
%ADD28FreePoly7,0.000000*%
G04 APERTURE END LIST*
D10*
G04 #@! TO.C,U6*
X-2350000Y-1237500D03*
X-3300000Y-1237500D03*
X-4250000Y-1237500D03*
X-4250000Y1037500D03*
X-2350000Y1037500D03*
G04 #@! TD*
D11*
G04 #@! TO.C,C14*
X4600000Y-3845000D03*
X4600000Y-3155000D03*
G04 #@! TD*
D12*
G04 #@! TO.C,J8*
X3700000Y2850000D03*
G04 #@! TD*
D11*
G04 #@! TO.C,R1*
X-1000000Y305000D03*
X-1000000Y995000D03*
G04 #@! TD*
D13*
G04 #@! TO.C,J3*
X5600000Y-1300000D03*
G04 #@! TD*
G04 #@! TO.C,J1*
X-4400000Y-3850000D03*
G04 #@! TD*
D14*
G04 #@! TO.C,C7*
X-2655000Y2500000D03*
X-3345000Y2500000D03*
G04 #@! TD*
D13*
G04 #@! TO.C,J4*
X5700000Y1000000D03*
G04 #@! TD*
D14*
G04 #@! TO.C,C12*
X3045000Y4900000D03*
X2355000Y4900000D03*
G04 #@! TD*
D11*
G04 #@! TO.C,R2*
X1000000Y305000D03*
X1000000Y995000D03*
G04 #@! TD*
D15*
G04 #@! TO.C,C13*
X-4220000Y-2750000D03*
X-5180000Y-2750000D03*
G04 #@! TD*
D12*
G04 #@! TO.C,J9*
X-4700000Y2600000D03*
G04 #@! TD*
D11*
G04 #@! TO.C,C6*
X4500000Y2955000D03*
X4500000Y3645000D03*
G04 #@! TD*
D15*
G04 #@! TO.C,C1*
X480000Y-2170000D03*
X-480000Y-2170000D03*
G04 #@! TD*
D16*
G04 #@! TO.C,U3*
X2350000Y1037500D03*
X3300000Y1037500D03*
X4250000Y1037500D03*
X4250000Y-1237500D03*
X2350000Y-1237500D03*
G04 #@! TD*
D17*
G04 #@! TO.C,U4*
X-2400000Y-4370000D03*
X-1300000Y-4370000D03*
D18*
X-1100000Y-5310000D03*
X-1600000Y-5310000D03*
X-2100000Y-5310000D03*
X-2600000Y-5310000D03*
X-2600000Y-3430000D03*
X-2100000Y-3430000D03*
X-1600000Y-3430000D03*
X-1100000Y-3430000D03*
G04 #@! TD*
D13*
G04 #@! TO.C,J2*
X0Y-5850000D03*
G04 #@! TD*
D14*
G04 #@! TO.C,C11*
X-2355000Y3800000D03*
X-3045000Y3800000D03*
G04 #@! TD*
D11*
G04 #@! TO.C,C4*
X-1000000Y-1195000D03*
X-1000000Y-505000D03*
G04 #@! TD*
D19*
G04 #@! TO.C,U2*
X-1475000Y3000000D03*
D20*
X-1300000Y3500000D03*
X-1300000Y4000000D03*
X-1300000Y4500000D03*
D21*
X-1475000Y5000000D03*
D22*
X-1000000Y5475000D03*
D23*
X-500000Y5300000D03*
X0Y5300000D03*
X500000Y5300000D03*
D24*
X1000000Y5475000D03*
D25*
X1475000Y5000000D03*
D20*
X1300000Y4500000D03*
X1300000Y4000000D03*
X1300000Y3500000D03*
D26*
X1475000Y3000000D03*
D27*
X1000000Y2525000D03*
D23*
X500000Y2700000D03*
X0Y2700000D03*
X-500000Y2700000D03*
D28*
X-1000000Y2525000D03*
G04 #@! TD*
D13*
G04 #@! TO.C,J5*
X-5600000Y-1300000D03*
G04 #@! TD*
D17*
G04 #@! TO.C,U5*
X1300000Y-4370000D03*
X2400000Y-4370000D03*
D18*
X2600000Y-5310000D03*
X2100000Y-5310000D03*
X1600000Y-5310000D03*
X1100000Y-5310000D03*
X1100000Y-3430000D03*
X1600000Y-3430000D03*
X2100000Y-3430000D03*
X2600000Y-3430000D03*
G04 #@! TD*
D11*
G04 #@! TO.C,C5*
X1000000Y-1195000D03*
X1000000Y-505000D03*
G04 #@! TD*
D12*
G04 #@! TO.C,J7*
X2600000Y2600000D03*
G04 #@! TD*
D13*
G04 #@! TO.C,J6*
X-5700000Y1000000D03*
G04 #@! TD*
M02*
