M48
; DRILL file KiCad 10.0.6 date 2026-09-30T23:40:46
; FORMAT={-:-/ absolute / metric / decimal}
; #@! TF.CreationDate,2026-09-30T23:40:46+09:00
; #@! TF.GenerationSoftware,Kicad,Pcbnew,10.0.6
; #@! TF.FileFunction,Plated,1,4,PTH
FMAT,2
METRIC
; #@! TA.AperFunction,Plated,PTH,ViaDrill
T1C0.250
%
G90
G05
T1
X-5.5Y2.1
X-4.8Y1.2
X-4.8Y-1.15
X-4.7Y2.6
X-4.5Y3.8
X-4.4Y-0.1
X-3.6Y-3.35
X-3.391Y1.142
X-3.352Y-4.37
X-3.106Y-2.32
X-2.043Y2.206
X-1.778Y0.106
X-0.553Y-2.972
X-0.544Y4.0
X-0.3Y-3.8
X-0.196Y-0.421
X-0.176Y1.642
X0.185Y-1.451
X0.336Y3.457
X1.611Y2.436
X1.688Y-0.322
X2.079Y3.925
X2.5Y-0.1
X2.55Y2.6
X2.744Y4.155
X3.057Y-1.315
X3.405Y-2.126
X3.519Y3.488
X3.636Y4.539
X3.7Y2.85
X3.912Y-4.11
X4.1Y3.9
X4.4Y-0.1
X4.8Y1.2
X4.8Y-1.15
X4.991Y2.489
X5.6Y2.1
M30
