G04 #@! TF.GenerationSoftware,KiCad,Pcbnew,10.0.6*
G04 #@! TF.CreationDate,2026-09-15T12:42:51+09:00*
G04 #@! TF.ProjectId,ppg_pcb_v08,7070675f-7063-4625-9f76-30382e6b6963,rev?*
G04 #@! TF.SameCoordinates,Original*
G04 #@! TF.FileFunction,Copper,L2,Inr*
G04 #@! TF.FilePolarity,Positive*
%FSLAX46Y46*%
G04 Gerber Fmt 4.6, Leading zero omitted, Abs format (unit mm)*
G04 Created by KiCad (PCBNEW 10.0.6) date 2026-09-15 12:42:51*
%MOMM*%
%LPD*%
G01*
G04 APERTURE LIST*
G04 #@! TA.AperFunction,ViaPad*
%ADD10C,0.500000*%
G04 #@! TD*
G04 #@! TA.AperFunction,Conductor*
%ADD11C,0.150000*%
G04 #@! TD*
G04 APERTURE END LIST*
D10*
G04 #@! TO.N,SDA*
X-1777700Y106100D03*
G04 #@! TO.N,SCL*
X-176200Y1641900D03*
G04 #@! TO.N,3V3*
X4990900Y2489100D03*
X3635900Y4538800D03*
X-2042700Y2205600D03*
X-3105600Y-2320300D03*
X3912200Y-4110300D03*
G04 #@! TO.N,VLDO*
X-553000Y-2972500D03*
G04 #@! TO.N,5V_LED*
X185100Y-1451000D03*
G04 #@! TO.N,GND*
X3404600Y-2125800D03*
X2744100Y4154800D03*
X-544300Y4000000D03*
X-3352300Y-4370000D03*
X1688300Y-322100D03*
G04 #@! TO.N,VREF*
X-196200Y-420700D03*
G04 #@! TO.N,UART_RX*
X1611100Y2435700D03*
X-3391100Y1142200D03*
G04 #@! TO.N,SWCLK*
X336400Y3456900D03*
X3519000Y3487600D03*
G04 #@! TO.N,UART_TX*
X2078700Y3924700D03*
X3057500Y-1315500D03*
G04 #@! TD*
G04 #@! TO.N,UART_RX*
D11*
X1611100Y2435700D02*
X317600Y1142200D01*
X317600Y1142200D02*
X-3391100Y1142200D01*
G04 #@! TD*
G04 #@! TA.AperFunction,Conductor*
G04 #@! TO.N,GND*
G36*
X256103Y6444300D02*
G01*
X755159Y6405023D01*
X760929Y6404340D01*
X1255368Y6326029D01*
X1261067Y6324895D01*
X1747826Y6208034D01*
X1753418Y6206457D01*
X2229512Y6051764D01*
X2234964Y6049753D01*
X2697457Y5858182D01*
X2702733Y5855749D01*
X3148778Y5628478D01*
X3153848Y5625639D01*
X3580671Y5364081D01*
X3585502Y5360853D01*
X3990492Y5066611D01*
X3995055Y5063014D01*
X4375711Y4737903D01*
X4379978Y4733959D01*
X4733959Y4379978D01*
X4737903Y4375711D01*
X5063014Y3995055D01*
X5066611Y3990492D01*
X5360853Y3585502D01*
X5364081Y3580671D01*
X5625639Y3153848D01*
X5628478Y3148778D01*
X5855749Y2702733D01*
X5858182Y2697457D01*
X6049753Y2234964D01*
X6051764Y2229512D01*
X6206457Y1753418D01*
X6208034Y1747826D01*
X6324895Y1261067D01*
X6326029Y1255368D01*
X6404340Y760929D01*
X6405023Y755159D01*
X6444300Y256102D01*
X6444528Y250296D01*
X6444528Y-250296D01*
X6444300Y-256102D01*
X6405023Y-755159D01*
X6404340Y-760929D01*
X6326029Y-1255368D01*
X6324895Y-1261067D01*
X6208034Y-1747826D01*
X6206457Y-1753418D01*
X6051764Y-2229512D01*
X6049753Y-2234964D01*
X5858182Y-2697457D01*
X5855749Y-2702733D01*
X5628478Y-3148778D01*
X5625639Y-3153848D01*
X5364081Y-3580671D01*
X5360853Y-3585502D01*
X5066611Y-3990492D01*
X5063014Y-3995055D01*
X4737903Y-4375711D01*
X4733959Y-4379978D01*
X4379978Y-4733959D01*
X4375711Y-4737903D01*
X3995055Y-5063014D01*
X3990492Y-5066611D01*
X3585502Y-5360853D01*
X3580671Y-5364081D01*
X3153848Y-5625639D01*
X3148778Y-5628478D01*
X2702733Y-5855749D01*
X2697457Y-5858182D01*
X2234964Y-6049753D01*
X2229512Y-6051764D01*
X1753418Y-6206457D01*
X1747826Y-6208034D01*
X1261067Y-6324895D01*
X1255368Y-6326029D01*
X760929Y-6404340D01*
X755159Y-6405023D01*
X256103Y-6444300D01*
X250297Y-6444528D01*
X-250297Y-6444528D01*
X-256103Y-6444300D01*
X-755159Y-6405023D01*
X-760929Y-6404340D01*
X-1255368Y-6326029D01*
X-1261067Y-6324895D01*
X-1747826Y-6208034D01*
X-1753418Y-6206457D01*
X-2229512Y-6051764D01*
X-2234964Y-6049753D01*
X-2697457Y-5858182D01*
X-2702733Y-5855749D01*
X-3148778Y-5628478D01*
X-3153848Y-5625639D01*
X-3580671Y-5364081D01*
X-3585502Y-5360853D01*
X-3990492Y-5066611D01*
X-3995055Y-5063014D01*
X-4375711Y-4737903D01*
X-4379978Y-4733959D01*
X-4733959Y-4379978D01*
X-4737903Y-4375711D01*
X-4978336Y-4094200D01*
X-5015243Y-4050988D01*
X3461700Y-4050988D01*
X3461700Y-4169611D01*
X3492399Y-4284182D01*
X3492401Y-4284187D01*
X3551708Y-4386909D01*
X3551709Y-4386910D01*
X3551711Y-4386913D01*
X3635587Y-4470789D01*
X3738314Y-4530099D01*
X3738315Y-4530099D01*
X3738317Y-4530100D01*
X3795602Y-4545449D01*
X3852888Y-4560799D01*
X3852889Y-4560800D01*
X3852891Y-4560800D01*
X3971511Y-4560800D01*
X3971511Y-4560799D01*
X4086086Y-4530099D01*
X4188813Y-4470789D01*
X4272689Y-4386913D01*
X4331999Y-4284186D01*
X4362699Y-4169611D01*
X4362700Y-4169611D01*
X4362700Y-4050989D01*
X4362699Y-4050988D01*
X4332000Y-3936417D01*
X4331998Y-3936412D01*
X4272691Y-3833690D01*
X4272690Y-3833689D01*
X4272689Y-3833687D01*
X4188813Y-3749811D01*
X4188810Y-3749809D01*
X4188809Y-3749808D01*
X4086087Y-3690501D01*
X4086082Y-3690499D01*
X3971511Y-3659800D01*
X3971509Y-3659800D01*
X3852891Y-3659800D01*
X3852889Y-3659800D01*
X3738317Y-3690499D01*
X3738312Y-3690501D01*
X3635590Y-3749808D01*
X3551708Y-3833690D01*
X3492401Y-3936412D01*
X3492399Y-3936417D01*
X3461700Y-4050988D01*
X-5015243Y-4050988D01*
X-5063014Y-3995055D01*
X-5066611Y-3990492D01*
X-5360853Y-3585502D01*
X-5364081Y-3580671D01*
X-5625639Y-3153848D01*
X-5628479Y-3148778D01*
X-5733870Y-2941936D01*
X-5733870Y-2941933D01*
X-5748516Y-2913189D01*
X-1003500Y-2913189D01*
X-1003500Y-3031811D01*
X-976427Y-3132844D01*
X-972799Y-3146386D01*
X-913489Y-3249113D01*
X-829613Y-3332989D01*
X-726886Y-3392299D01*
X-612311Y-3422999D01*
X-612311Y-3423000D01*
X-612309Y-3423000D01*
X-493689Y-3423000D01*
X-493688Y-3422999D01*
X-436402Y-3407649D01*
X-379117Y-3392300D01*
X-379115Y-3392299D01*
X-379114Y-3392299D01*
X-276387Y-3332989D01*
X-192511Y-3249113D01*
X-192509Y-3249110D01*
X-192508Y-3249109D01*
X-133201Y-3146387D01*
X-133199Y-3146382D01*
X-102500Y-3031811D01*
X-102500Y-2913188D01*
X-133199Y-2798617D01*
X-133201Y-2798612D01*
X-192508Y-2695890D01*
X-276390Y-2612008D01*
X-379112Y-2552701D01*
X-379117Y-2552699D01*
X-493689Y-2522000D01*
X-493691Y-2522000D01*
X-612309Y-2522000D01*
X-612311Y-2522000D01*
X-726882Y-2552699D01*
X-726887Y-2552701D01*
X-829609Y-2612008D01*
X-829610Y-2612009D01*
X-829613Y-2612011D01*
X-913489Y-2695887D01*
X-913490Y-2695889D01*
X-913491Y-2695890D01*
X-972798Y-2798612D01*
X-972800Y-2798617D01*
X-1003499Y-2913188D01*
X-1003500Y-2913189D01*
X-5748516Y-2913189D01*
X-5855749Y-2702733D01*
X-5858182Y-2697457D01*
X-6029251Y-2284460D01*
X-6038973Y-2260989D01*
X-3556100Y-2260989D01*
X-3556100Y-2379611D01*
X-3529027Y-2480644D01*
X-3525399Y-2494186D01*
X-3466089Y-2596913D01*
X-3382213Y-2680789D01*
X-3279486Y-2740099D01*
X-3164911Y-2770799D01*
X-3164911Y-2770800D01*
X-3164909Y-2770800D01*
X-3046289Y-2770800D01*
X-3046288Y-2770799D01*
X-2989002Y-2755449D01*
X-2931717Y-2740100D01*
X-2931715Y-2740099D01*
X-2931714Y-2740099D01*
X-2931712Y-2740098D01*
X-2828990Y-2680791D01*
X-2828989Y-2680790D01*
X-2828987Y-2680789D01*
X-2745111Y-2596913D01*
X-2745109Y-2596910D01*
X-2745108Y-2596909D01*
X-2685801Y-2494187D01*
X-2685799Y-2494182D01*
X-2655100Y-2379611D01*
X-2655100Y-2260988D01*
X-2685799Y-2146417D01*
X-2685801Y-2146412D01*
X-2745108Y-2043690D01*
X-2828990Y-1959808D01*
X-2931712Y-1900501D01*
X-2931717Y-1900499D01*
X-3046289Y-1869800D01*
X-3046291Y-1869800D01*
X-3164909Y-1869800D01*
X-3164911Y-1869800D01*
X-3279482Y-1900499D01*
X-3279487Y-1900501D01*
X-3382209Y-1959808D01*
X-3382210Y-1959809D01*
X-3382213Y-1959811D01*
X-3466089Y-2043687D01*
X-3466090Y-2043689D01*
X-3466091Y-2043690D01*
X-3525398Y-2146412D01*
X-3525400Y-2146417D01*
X-3556099Y-2260988D01*
X-3556100Y-2260989D01*
X-6038973Y-2260989D01*
X-6049753Y-2234964D01*
X-6051764Y-2229512D01*
X-6206457Y-1753418D01*
X-6208034Y-1747826D01*
X-6290552Y-1404116D01*
X-6293536Y-1391689D01*
X-265400Y-1391689D01*
X-265400Y-1510311D01*
X-243482Y-1592109D01*
X-234699Y-1624886D01*
X-175389Y-1727613D01*
X-91513Y-1811489D01*
X-23028Y-1851029D01*
X9483Y-1869800D01*
X11214Y-1870799D01*
X11215Y-1870799D01*
X11217Y-1870800D01*
X68502Y-1886149D01*
X125788Y-1901499D01*
X125789Y-1901500D01*
X125791Y-1901500D01*
X244411Y-1901500D01*
X244411Y-1901499D01*
X358986Y-1870799D01*
X461713Y-1811489D01*
X545589Y-1727613D01*
X604899Y-1624886D01*
X635599Y-1510311D01*
X635600Y-1510311D01*
X635600Y-1391689D01*
X635599Y-1391688D01*
X604899Y-1277114D01*
X592817Y-1256188D01*
X2607000Y-1256188D01*
X2607000Y-1374811D01*
X2637699Y-1489382D01*
X2637701Y-1489387D01*
X2697008Y-1592109D01*
X2697009Y-1592110D01*
X2697011Y-1592113D01*
X2780887Y-1675989D01*
X2780889Y-1675990D01*
X2780890Y-1675991D01*
X2883612Y-1735298D01*
X2883614Y-1735299D01*
X2883615Y-1735299D01*
X2883617Y-1735300D01*
X2918870Y-1744746D01*
X2998188Y-1765999D01*
X2998189Y-1766000D01*
X2998191Y-1766000D01*
X3116811Y-1766000D01*
X3116811Y-1765999D01*
X3231386Y-1735299D01*
X3334113Y-1675989D01*
X3417989Y-1592113D01*
X3477299Y-1489386D01*
X3507999Y-1374811D01*
X3508000Y-1374811D01*
X3508000Y-1256189D01*
X3507999Y-1256188D01*
X3477300Y-1141617D01*
X3477298Y-1141612D01*
X3417991Y-1038890D01*
X3417990Y-1038889D01*
X3417989Y-1038887D01*
X3334113Y-955011D01*
X3334110Y-955009D01*
X3334109Y-955008D01*
X3231387Y-895701D01*
X3231382Y-895699D01*
X3116811Y-865000D01*
X3116809Y-865000D01*
X2998191Y-865000D01*
X2998189Y-865000D01*
X2883617Y-895699D01*
X2883612Y-895701D01*
X2780890Y-955008D01*
X2697008Y-1038890D01*
X2637701Y-1141612D01*
X2637699Y-1141617D01*
X2607000Y-1256188D01*
X592817Y-1256188D01*
X545591Y-1174390D01*
X545590Y-1174389D01*
X545589Y-1174387D01*
X461713Y-1090511D01*
X461710Y-1090509D01*
X461709Y-1090508D01*
X358987Y-1031201D01*
X358982Y-1031199D01*
X244411Y-1000500D01*
X244409Y-1000500D01*
X125791Y-1000500D01*
X125789Y-1000500D01*
X11217Y-1031199D01*
X11212Y-1031201D01*
X-91509Y-1090508D01*
X-91510Y-1090509D01*
X-91513Y-1090511D01*
X-175389Y-1174387D01*
X-175390Y-1174389D01*
X-175391Y-1174390D01*
X-234698Y-1277112D01*
X-234700Y-1277117D01*
X-265399Y-1391688D01*
X-265400Y-1391689D01*
X-6293536Y-1391689D01*
X-6297588Y-1374811D01*
X-6321042Y-1277117D01*
X-6324895Y-1261067D01*
X-6326029Y-1255368D01*
X-6404340Y-760929D01*
X-6405023Y-755159D01*
X-6436014Y-361389D01*
X-646700Y-361389D01*
X-646700Y-480011D01*
X-619627Y-581044D01*
X-615999Y-594586D01*
X-556689Y-697313D01*
X-472813Y-781189D01*
X-370086Y-840499D01*
X-255511Y-871199D01*
X-255511Y-871200D01*
X-255509Y-871200D01*
X-136889Y-871200D01*
X-136888Y-871199D01*
X-79602Y-855849D01*
X-22317Y-840500D01*
X-22315Y-840499D01*
X-22314Y-840499D01*
X80413Y-781189D01*
X164289Y-697313D01*
X223599Y-594586D01*
X254299Y-480011D01*
X254300Y-480011D01*
X254300Y-361389D01*
X254299Y-361388D01*
X223600Y-246817D01*
X223598Y-246812D01*
X164291Y-144090D01*
X164290Y-144089D01*
X164289Y-144087D01*
X80413Y-60211D01*
X80410Y-60209D01*
X80409Y-60208D01*
X-22312Y-901D01*
X-22317Y-899D01*
X-136889Y29800D01*
X-136891Y29800D01*
X-255509Y29800D01*
X-255511Y29800D01*
X-370082Y-899D01*
X-370087Y-901D01*
X-472809Y-60208D01*
X-472810Y-60209D01*
X-472813Y-60211D01*
X-556689Y-144087D01*
X-556690Y-144089D01*
X-556691Y-144090D01*
X-615998Y-246812D01*
X-616000Y-246817D01*
X-646699Y-361388D01*
X-646700Y-361389D01*
X-6436014Y-361389D01*
X-6444300Y-256102D01*
X-6444528Y-250296D01*
X-6444528Y165411D01*
X-2228200Y165411D01*
X-2228200Y46789D01*
X-2228199Y46788D01*
X-2197499Y-67786D01*
X-2138189Y-170513D01*
X-2054313Y-254389D01*
X-1951586Y-313699D01*
X-1837011Y-344399D01*
X-1837011Y-344400D01*
X-1837009Y-344400D01*
X-1718389Y-344400D01*
X-1718388Y-344399D01*
X-1661102Y-329049D01*
X-1603817Y-313700D01*
X-1603815Y-313699D01*
X-1603814Y-313699D01*
X-1603812Y-313698D01*
X-1567018Y-292455D01*
X-1501090Y-254391D01*
X-1501089Y-254390D01*
X-1501087Y-254389D01*
X-1417211Y-170513D01*
X-1417209Y-170510D01*
X-1417208Y-170509D01*
X-1357901Y-67787D01*
X-1357899Y-67782D01*
X-1327200Y46788D01*
X-1327200Y165411D01*
X-1357899Y279982D01*
X-1357901Y279987D01*
X-1417208Y382709D01*
X-1417209Y382710D01*
X-1417211Y382713D01*
X-1501087Y466589D01*
X-1603814Y525899D01*
X-1603815Y525899D01*
X-1603817Y525900D01*
X-1718389Y556600D01*
X-1718391Y556600D01*
X-1837009Y556600D01*
X-1837011Y556600D01*
X-1938044Y529527D01*
X-1951586Y525899D01*
X-2054313Y466589D01*
X-2138189Y382713D01*
X-2197499Y279986D01*
X-2197500Y279982D01*
X-2228199Y165411D01*
X-2228200Y165411D01*
X-6444528Y165411D01*
X-6444528Y250296D01*
X-6444300Y256102D01*
X-6405023Y755159D01*
X-6404340Y760929D01*
X-6353347Y1082891D01*
X-6334559Y1201511D01*
X-3841600Y1201511D01*
X-3841600Y1082889D01*
X-3841599Y1082888D01*
X-3810899Y968314D01*
X-3751589Y865587D01*
X-3667713Y781711D01*
X-3667710Y781709D01*
X-3667709Y781708D01*
X-3564987Y722401D01*
X-3564982Y722399D01*
X-3450411Y691700D01*
X-3450409Y691700D01*
X-3331788Y691700D01*
X-3217217Y722399D01*
X-3217212Y722401D01*
X-3114490Y781708D01*
X-3051172Y845026D01*
X-2998846Y866700D01*
X372399Y866700D01*
X372400Y866700D01*
X473658Y908643D01*
X551157Y986142D01*
X1528542Y1963526D01*
X1580868Y1985200D01*
X1670411Y1985200D01*
X1784982Y2015899D01*
X1784987Y2015901D01*
X1887709Y2075208D01*
X1887710Y2075209D01*
X1887713Y2075211D01*
X1971589Y2159087D01*
X2030899Y2261814D01*
X2061599Y2376388D01*
X2061600Y2376389D01*
X2061600Y2495010D01*
X2051124Y2534105D01*
X2047291Y2548411D01*
X4540400Y2548411D01*
X4540400Y2429788D01*
X4571099Y2315217D01*
X4571101Y2315212D01*
X4630408Y2212490D01*
X4714290Y2128608D01*
X4817012Y2069301D01*
X4817017Y2069299D01*
X4931588Y2038600D01*
X4931591Y2038600D01*
X5050211Y2038600D01*
X5164782Y2069299D01*
X5164787Y2069301D01*
X5267509Y2128608D01*
X5267510Y2128609D01*
X5267513Y2128611D01*
X5351389Y2212487D01*
X5360326Y2227965D01*
X5410698Y2315212D01*
X5410700Y2315217D01*
X5441399Y2429788D01*
X5441400Y2429789D01*
X5441400Y2548411D01*
X5410700Y2662982D01*
X5410699Y2662986D01*
X5351389Y2765713D01*
X5267513Y2849589D01*
X5164786Y2908899D01*
X5151244Y2912527D01*
X5050211Y2939600D01*
X5050209Y2939600D01*
X4931591Y2939600D01*
X4931589Y2939600D01*
X4817017Y2908900D01*
X4817012Y2908898D01*
X4724522Y2855498D01*
X4714287Y2849589D01*
X4630411Y2765713D01*
X4630409Y2765710D01*
X4630408Y2765709D01*
X4571101Y2662987D01*
X4571099Y2662982D01*
X4540400Y2548411D01*
X2047291Y2548411D01*
X2030899Y2609586D01*
X1971589Y2712313D01*
X1887713Y2796189D01*
X1784986Y2855499D01*
X1771444Y2859127D01*
X1670411Y2886200D01*
X1670409Y2886200D01*
X1551791Y2886200D01*
X1551789Y2886200D01*
X1437217Y2855500D01*
X1437212Y2855498D01*
X1426978Y2849589D01*
X1334487Y2796189D01*
X1250611Y2712313D01*
X1250609Y2712310D01*
X1250608Y2712309D01*
X1191301Y2609587D01*
X1191299Y2609582D01*
X1160600Y2495011D01*
X1160600Y2405467D01*
X1138926Y2353142D01*
X630896Y1845111D01*
X400626Y1614841D01*
X348300Y1593167D01*
X295974Y1614841D01*
X274300Y1667167D01*
X274300Y1701211D01*
X243600Y1815782D01*
X243599Y1815786D01*
X184289Y1918513D01*
X100413Y2002389D01*
X-2314Y2061699D01*
X-2315Y2061699D01*
X-2317Y2061700D01*
X-116889Y2092400D01*
X-116891Y2092400D01*
X-235509Y2092400D01*
X-235511Y2092400D01*
X-321715Y2069301D01*
X-350086Y2061699D01*
X-452813Y2002389D01*
X-536689Y1918513D01*
X-595999Y1815786D01*
X-612710Y1753418D01*
X-626699Y1701211D01*
X-626700Y1701211D01*
X-626700Y1582589D01*
X-626699Y1582588D01*
X-607478Y1510853D01*
X-614870Y1454700D01*
X-659803Y1420222D01*
X-678956Y1417700D01*
X-2998846Y1417700D01*
X-3051172Y1439374D01*
X-3079812Y1468014D01*
X-3114487Y1502689D01*
X-3217214Y1561999D01*
X-3217215Y1561999D01*
X-3217217Y1562000D01*
X-3331789Y1592700D01*
X-3331791Y1592700D01*
X-3450409Y1592700D01*
X-3450411Y1592700D01*
X-3551444Y1565627D01*
X-3564986Y1561999D01*
X-3667713Y1502689D01*
X-3751589Y1418813D01*
X-3810899Y1316086D01*
X-3837198Y1217935D01*
X-3841599Y1201511D01*
X-3841600Y1201511D01*
X-6334559Y1201511D01*
X-6326028Y1255370D01*
X-6324895Y1261067D01*
X-6208034Y1747826D01*
X-6206457Y1753418D01*
X-6051764Y2229512D01*
X-6049753Y2234964D01*
X-6037348Y2264911D01*
X-2493200Y2264911D01*
X-2493200Y2146289D01*
X-2493199Y2146288D01*
X-2488462Y2128608D01*
X-2462500Y2031717D01*
X-2462498Y2031712D01*
X-2423131Y1963526D01*
X-2403189Y1928987D01*
X-2319313Y1845111D01*
X-2319310Y1845109D01*
X-2319309Y1845108D01*
X-2216587Y1785801D01*
X-2216582Y1785799D01*
X-2102011Y1755100D01*
X-2102009Y1755100D01*
X-1983388Y1755100D01*
X-1868817Y1785799D01*
X-1868812Y1785801D01*
X-1766090Y1845108D01*
X-1682208Y1928990D01*
X-1622901Y2031712D01*
X-1622899Y2031717D01*
X-1592200Y2146288D01*
X-1592200Y2264911D01*
X-1622899Y2379482D01*
X-1622901Y2379487D01*
X-1682208Y2482209D01*
X-1682209Y2482210D01*
X-1682211Y2482213D01*
X-1766087Y2566089D01*
X-1868814Y2625399D01*
X-1868815Y2625399D01*
X-1868817Y2625400D01*
X-1983389Y2656100D01*
X-1983391Y2656100D01*
X-2102009Y2656100D01*
X-2102011Y2656100D01*
X-2203044Y2629027D01*
X-2216586Y2625399D01*
X-2319313Y2566089D01*
X-2403189Y2482213D01*
X-2462499Y2379486D01*
X-2479720Y2315214D01*
X-2493199Y2264911D01*
X-2493200Y2264911D01*
X-6037348Y2264911D01*
X-6023610Y2298078D01*
X-5858182Y2697457D01*
X-5855749Y2702733D01*
X-5628478Y3148778D01*
X-5625639Y3153848D01*
X-5403582Y3516211D01*
X-114100Y3516211D01*
X-114100Y3397589D01*
X-114099Y3397588D01*
X-83399Y3283014D01*
X-24089Y3180287D01*
X29087Y3127111D01*
X59790Y3096408D01*
X162512Y3037101D01*
X162517Y3037099D01*
X277088Y3006400D01*
X277091Y3006400D01*
X395711Y3006400D01*
X510282Y3037099D01*
X510287Y3037101D01*
X613009Y3096408D01*
X613010Y3096409D01*
X613013Y3096411D01*
X696889Y3180287D01*
X756199Y3283014D01*
X786899Y3397588D01*
X786900Y3397589D01*
X786900Y3516211D01*
X756200Y3630782D01*
X756199Y3630786D01*
X696889Y3733513D01*
X613013Y3817389D01*
X510286Y3876699D01*
X496744Y3880327D01*
X395711Y3907400D01*
X395709Y3907400D01*
X277091Y3907400D01*
X277089Y3907400D01*
X162517Y3876700D01*
X162512Y3876698D01*
X142925Y3865389D01*
X59787Y3817389D01*
X-24089Y3733513D01*
X-83399Y3630786D01*
X-101238Y3564208D01*
X-114099Y3516211D01*
X-114100Y3516211D01*
X-5403582Y3516211D01*
X-5376917Y3559724D01*
X-5364082Y3580670D01*
X-5360853Y3585502D01*
X-5071320Y3984011D01*
X1628200Y3984011D01*
X1628200Y3865388D01*
X1658899Y3750817D01*
X1658901Y3750812D01*
X1718208Y3648090D01*
X1802090Y3564208D01*
X1904812Y3504901D01*
X1904817Y3504899D01*
X2019388Y3474200D01*
X2019391Y3474200D01*
X2138011Y3474200D01*
X2252582Y3504899D01*
X2252587Y3504901D01*
X2325350Y3546911D01*
X3068500Y3546911D01*
X3068500Y3428288D01*
X3099199Y3313717D01*
X3099201Y3313712D01*
X3158508Y3210990D01*
X3242390Y3127108D01*
X3345112Y3067801D01*
X3345117Y3067799D01*
X3459688Y3037100D01*
X3459691Y3037100D01*
X3578311Y3037100D01*
X3692882Y3067799D01*
X3692887Y3067801D01*
X3795609Y3127108D01*
X3795610Y3127109D01*
X3795613Y3127111D01*
X3879489Y3210987D01*
X3938799Y3313714D01*
X3969499Y3428288D01*
X3969500Y3428289D01*
X3969500Y3546911D01*
X3938800Y3661482D01*
X3938799Y3661486D01*
X3879489Y3764213D01*
X3795613Y3848089D01*
X3692886Y3907399D01*
X3679344Y3911027D01*
X3578311Y3938100D01*
X3578309Y3938100D01*
X3459691Y3938100D01*
X3459689Y3938100D01*
X3345117Y3907400D01*
X3345112Y3907398D01*
X3272355Y3865391D01*
X3242387Y3848089D01*
X3158511Y3764213D01*
X3158509Y3764210D01*
X3158508Y3764209D01*
X3099201Y3661487D01*
X3099199Y3661482D01*
X3068500Y3546911D01*
X2325350Y3546911D01*
X2355309Y3564208D01*
X2355310Y3564209D01*
X2355313Y3564211D01*
X2439189Y3648087D01*
X2498499Y3750814D01*
X2529199Y3865388D01*
X2529200Y3865389D01*
X2529200Y3984011D01*
X2498500Y4098582D01*
X2498499Y4098586D01*
X2439189Y4201313D01*
X2355313Y4285189D01*
X2252586Y4344499D01*
X2239044Y4348127D01*
X2138011Y4375200D01*
X2138009Y4375200D01*
X2019391Y4375200D01*
X2019389Y4375200D01*
X1904817Y4344500D01*
X1904815Y4344499D01*
X1904814Y4344499D01*
X1802087Y4285189D01*
X1718211Y4201313D01*
X1718209Y4201310D01*
X1718208Y4201309D01*
X1658901Y4098587D01*
X1658899Y4098582D01*
X1628200Y3984011D01*
X-5071320Y3984011D01*
X-5066611Y3990492D01*
X-5063014Y3995055D01*
X-5027260Y4036918D01*
X-4737903Y4375711D01*
X-4733959Y4379978D01*
X-4515826Y4598111D01*
X3185400Y4598111D01*
X3185400Y4479488D01*
X3216099Y4364917D01*
X3216101Y4364912D01*
X3275408Y4262190D01*
X3359290Y4178308D01*
X3462012Y4119001D01*
X3462017Y4118999D01*
X3576588Y4088300D01*
X3576591Y4088300D01*
X3695211Y4088300D01*
X3809782Y4118999D01*
X3809787Y4119001D01*
X3912509Y4178308D01*
X3912510Y4178309D01*
X3912513Y4178311D01*
X3996389Y4262187D01*
X4009670Y4285189D01*
X4055698Y4364912D01*
X4055700Y4364917D01*
X4086399Y4479488D01*
X4086400Y4479489D01*
X4086400Y4598111D01*
X4055700Y4712682D01*
X4055699Y4712686D01*
X3996389Y4815413D01*
X3912513Y4899289D01*
X3809786Y4958599D01*
X3796244Y4962227D01*
X3695211Y4989300D01*
X3695209Y4989300D01*
X3576591Y4989300D01*
X3576589Y4989300D01*
X3462017Y4958600D01*
X3462015Y4958599D01*
X3462014Y4958599D01*
X3359287Y4899289D01*
X3275411Y4815413D01*
X3275409Y4815410D01*
X3275408Y4815409D01*
X3216101Y4712687D01*
X3216099Y4712682D01*
X3185400Y4598111D01*
X-4515826Y4598111D01*
X-4379978Y4733959D01*
X-4375711Y4737903D01*
X-3995055Y5063014D01*
X-3990492Y5066611D01*
X-3585502Y5360853D01*
X-3580671Y5364081D01*
X-3153848Y5625639D01*
X-3148778Y5628478D01*
X-2702733Y5855749D01*
X-2697457Y5858182D01*
X-2234964Y6049753D01*
X-2229512Y6051764D01*
X-1753418Y6206457D01*
X-1747826Y6208034D01*
X-1261067Y6324895D01*
X-1255368Y6326029D01*
X-760929Y6404340D01*
X-755159Y6405023D01*
X-256103Y6444300D01*
X-250297Y6444528D01*
X250297Y6444528D01*
X256103Y6444300D01*
G37*
G04 #@! TD.AperFunction*
G04 #@! TD*
M02*
