G04 #@! TF.GenerationSoftware,KiCad,Pcbnew,10.0.6*
G04 #@! TF.CreationDate,2026-09-15T12:42:51+09:00*
G04 #@! TF.ProjectId,ppg_pcb_v08,7070675f-7063-4625-9f76-30382e6b6963,rev?*
G04 #@! TF.SameCoordinates,Original*
G04 #@! TF.FileFunction,Copper,L1,Top*
G04 #@! TF.FilePolarity,Positive*
%FSLAX46Y46*%
G04 Gerber Fmt 4.6, Leading zero omitted, Abs format (unit mm)*
G04 Created by KiCad (PCBNEW 10.0.6) date 2026-09-15 12:42:51*
%MOMM*%
%LPD*%
G01*
G04 APERTURE LIST*
G04 Aperture macros list*
%AMRoundRect*
0 Rectangle with rounded corners*
0 $1 Rounding radius*
0 $2 $3 $4 $5 $6 $7 $8 $9 X,Y pos of 4 corners*
0 Add a 4 corners polygon primitive as box body*
4,1,4,$2,$3,$4,$5,$6,$7,$8,$9,$2,$3,0*
0 Add four circle primitives for the rounded corners*
1,1,$1+$1,$2,$3*
1,1,$1+$1,$4,$5*
1,1,$1+$1,$6,$7*
1,1,$1+$1,$8,$9*
0 Add four rect primitives between the rounded corners*
20,1,$1+$1,$2,$3,$4,$5,0*
20,1,$1+$1,$4,$5,$6,$7,0*
20,1,$1+$1,$6,$7,$8,$9,0*
20,1,$1+$1,$8,$9,$2,$3,0*%
G04 Aperture macros list end*
G04 #@! TA.AperFunction,SMDPad,CuDef*
%ADD10RoundRect,0.100000X-0.230000X-0.100000X0.230000X-0.100000X0.230000X0.100000X-0.230000X0.100000X0*%
G04 #@! TD*
G04 #@! TA.AperFunction,ViaPad*
%ADD11C,0.500000*%
G04 #@! TD*
G04 #@! TA.AperFunction,Conductor*
%ADD12C,0.150000*%
G04 #@! TD*
G04 APERTURE END LIST*
D10*
G04 #@! TO.P,U1,1*
G04 #@! TO.N,SDA*
X-950000Y1800000D03*
G04 #@! TO.P,U1,2*
G04 #@! TO.N,SCL*
X-950000Y1200000D03*
G04 #@! TO.P,U1,3*
G04 #@! TO.N,3V3*
X-950000Y600000D03*
G04 #@! TO.P,U1,4*
G04 #@! TO.N,VLDO*
X-950000Y0D03*
G04 #@! TO.P,U1,5*
G04 #@! TO.N,5V_LED*
X-950000Y-599999D03*
G04 #@! TO.P,U1,6*
G04 #@! TO.N,N/C*
X-950000Y-1200000D03*
G04 #@! TO.P,U1,7*
X-950000Y-1799999D03*
G04 #@! TO.P,U1,8*
X950000Y-1799999D03*
G04 #@! TO.P,U1,9*
G04 #@! TO.N,GND*
X950000Y-1200000D03*
G04 #@! TO.P,U1,10*
X950000Y-599999D03*
G04 #@! TO.P,U1,11*
X950000Y0D03*
G04 #@! TO.P,U1,12*
G04 #@! TO.N,VREF*
X950000Y600000D03*
G04 #@! TO.P,U1,13*
G04 #@! TO.N,N/C*
X950000Y1200000D03*
G04 #@! TO.P,U1,14*
X950000Y1800000D03*
G04 #@! TD*
D11*
G04 #@! TO.N,SDA*
X-1777700Y106100D03*
G04 #@! TO.N,SCL*
X-176200Y1641900D03*
G04 #@! TO.N,3V3*
X4990900Y2489100D03*
X3635900Y4538800D03*
X-2042700Y2205600D03*
X-3105600Y-2320300D03*
X3912200Y-4110300D03*
G04 #@! TO.N,VLDO*
X-553000Y-2972500D03*
G04 #@! TO.N,5V_LED*
X185100Y-1451000D03*
G04 #@! TO.N,GND*
X3404600Y-2125800D03*
X2744100Y4154800D03*
X-544300Y4000000D03*
X-3352300Y-4370000D03*
X1688300Y-322100D03*
G04 #@! TO.N,VREF*
X-196200Y-420700D03*
G04 #@! TO.N,UART_RX*
X1611100Y2435700D03*
X-3391100Y1142200D03*
G04 #@! TO.N,SWCLK*
X336400Y3456900D03*
X3519000Y3487600D03*
G04 #@! TO.N,UART_TX*
X2078700Y3924700D03*
X3057500Y-1315500D03*
G04 #@! TD*
G04 #@! TO.N,SDA*
D12*
X-950000Y1800000D02*
X-1885800Y2735800D01*
X-2245600Y2735800D02*
X-2532200Y2449200D01*
X-2532200Y860600D02*
X-1777700Y106100D01*
X-2532200Y2449200D02*
X-2532200Y860600D01*
X-1885800Y2735800D02*
X-2245600Y2735800D01*
G04 #@! TO.N,SCL*
X-618100Y1200000D02*
X-176200Y1641900D01*
X-950000Y1200000D02*
X-618100Y1200000D01*
G04 #@! TO.N,3V3*
X-950000Y600000D02*
X-1153000Y600000D01*
X-1153000Y600000D02*
X-2042700Y1489700D01*
X-2042700Y1489700D02*
X-2042700Y2205600D01*
G04 #@! TO.N,VLDO*
X-1823600Y-654400D02*
X-1823600Y-2200700D01*
X-950000Y0D02*
X-1169200Y0D01*
X-1051800Y-2972500D02*
X-553000Y-2972500D01*
X-1169200Y0D02*
X-1823600Y-654400D01*
X-1823600Y-2200700D02*
X-1051800Y-2972500D01*
G04 #@! TO.N,5V_LED*
X185100Y-1451000D02*
X185100Y-1495900D01*
X185100Y-1495900D02*
X-555100Y-2236100D01*
X-555100Y-2236100D02*
X-1306900Y-2236100D01*
X-1306900Y-2236100D02*
X-1507100Y-2035900D01*
X-1228600Y-600000D02*
X-950000Y-600000D01*
X-1507100Y-2035900D02*
X-1507100Y-878500D01*
X-1507100Y-878500D02*
X-1228600Y-600000D01*
G04 #@! TO.N,GND*
X950000Y-600000D02*
X950000Y0D01*
X950000Y-600000D02*
X950000Y-1200000D01*
X1410400Y-600000D02*
X1688300Y-322100D01*
X950000Y-600000D02*
X1410400Y-600000D01*
G04 #@! TO.N,VREF*
X727500Y600000D02*
X-196200Y-323700D01*
X950000Y600000D02*
X727500Y600000D01*
X-196200Y-323700D02*
X-196200Y-420700D01*
G04 #@! TO.N,SWCLK*
X367800Y3425500D02*
X3456900Y3425500D01*
X336400Y3456900D02*
X367800Y3425500D01*
X3456900Y3425500D02*
X3519000Y3487600D01*
G04 #@! TD*
M02*
