G04 #@! TF.GenerationSoftware,KiCad,Pcbnew,10.0.6*
G04 #@! TF.CreationDate,2026-09-30T23:40:46+09:00*
G04 #@! TF.ProjectId,ppg_pcb_v08,7070675f-7063-4625-9f76-30382e6b6963,rev?*
G04 #@! TF.SameCoordinates,Original*
G04 #@! TF.FileFunction,Copper,L4,Bot*
G04 #@! TF.FilePolarity,Positive*
%FSLAX46Y46*%
G04 Gerber Fmt 4.6, Leading zero omitted, Abs format (unit mm)*
G04 Created by KiCad (PCBNEW 10.0.6) date 2026-09-30 23:40:46*
%MOMM*%
%LPD*%
G01*
G04 APERTURE LIST*
G04 Aperture macros list*
%AMRoundRect*
0 Rectangle with rounded corners*
0 $1 Rounding radius*
0 $2 $3 $4 $5 $6 $7 $8 $9 X,Y pos of 4 corners*
0 Add a 4 corners polygon primitive as box body*
4,1,4,$2,$3,$4,$5,$6,$7,$8,$9,$2,$3,0*
0 Add four circle primitives for the rounded corners*
1,1,$1+$1,$2,$3*
1,1,$1+$1,$4,$5*
1,1,$1+$1,$6,$7*
1,1,$1+$1,$8,$9*
0 Add four rect primitives between the rounded corners*
20,1,$1+$1,$2,$3,$4,$5,0*
20,1,$1+$1,$4,$5,$6,$7,0*
20,1,$1+$1,$6,$7,$8,$9,0*
20,1,$1+$1,$8,$9,$2,$3,0*%
%AMFreePoly0*
4,1,6,0.325000,0.000000,0.175000,-0.150000,-0.175000,-0.150000,-0.175000,0.150000,0.325000,0.150000,0.325000,0.000000,0.325000,0.000000,$1*%
%AMFreePoly1*
4,1,6,0.325000,0.000000,0.325000,-0.150000,-0.175000,-0.150000,-0.175000,0.150000,0.175000,0.150000,0.325000,0.000000,0.325000,0.000000,$1*%
%AMFreePoly2*
4,1,6,0.150000,-0.325000,0.000000,-0.325000,-0.150000,-0.175000,-0.150000,0.175000,0.150000,0.175000,0.150000,-0.325000,0.150000,-0.325000,$1*%
%AMFreePoly3*
4,1,6,0.150000,-0.175000,0.000000,-0.325000,-0.150000,-0.325000,-0.150000,0.175000,0.150000,0.175000,0.150000,-0.175000,0.150000,-0.175000,$1*%
%AMFreePoly4*
4,1,7,0.175000,-0.150000,-0.175000,-0.150000,-0.325000,-0.150000,-0.325000,0.000000,-0.175000,0.150000,0.175000,0.150000,0.175000,-0.150000,0.175000,-0.150000,$1*%
%AMFreePoly5*
4,1,6,0.175000,-0.150000,-0.175000,-0.150000,-0.325000,0.000000,-0.325000,0.150000,0.175000,0.150000,0.175000,-0.150000,0.175000,-0.150000,$1*%
%AMFreePoly6*
4,1,6,0.150000,0.175000,0.150000,-0.175000,-0.150000,-0.175000,-0.150000,0.325000,0.000000,0.325000,0.150000,0.175000,0.150000,0.175000,$1*%
%AMFreePoly7*
4,1,6,0.150000,-0.175000,-0.150000,-0.175000,-0.150000,0.175000,0.000000,0.325000,0.150000,0.325000,0.150000,-0.175000,0.150000,-0.175000,$1*%
G04 Aperture macros list end*
G04 #@! TA.AperFunction,SMDPad,CuDef*
%ADD10RoundRect,0.150000X0.150000X-0.512500X0.150000X0.512500X-0.150000X0.512500X-0.150000X-0.512500X0*%
G04 #@! TD*
G04 #@! TA.AperFunction,SMDPad,CuDef*
%ADD11RoundRect,0.100000X0.100000X-0.130000X0.100000X0.130000X-0.100000X0.130000X-0.100000X-0.130000X0*%
G04 #@! TD*
G04 #@! TA.AperFunction,SMDPad,CuDef*
%ADD12C,0.800000*%
G04 #@! TD*
G04 #@! TA.AperFunction,SMDPad,CuDef*
%ADD13C,1.200000*%
G04 #@! TD*
G04 #@! TA.AperFunction,SMDPad,CuDef*
%ADD14RoundRect,0.100000X0.130000X0.100000X-0.130000X0.100000X-0.130000X-0.100000X0.130000X-0.100000X0*%
G04 #@! TD*
G04 #@! TA.AperFunction,SMDPad,CuDef*
%ADD15RoundRect,0.140000X0.140000X0.170000X-0.140000X0.170000X-0.140000X-0.170000X0.140000X-0.170000X0*%
G04 #@! TD*
G04 #@! TA.AperFunction,SMDPad,CuDef*
%ADD16RoundRect,0.150000X-0.150000X0.512500X-0.150000X-0.512500X0.150000X-0.512500X0.150000X0.512500X0*%
G04 #@! TD*
G04 #@! TA.AperFunction,SMDPad,CuDef*
%ADD17RoundRect,0.062500X0.062500X-0.372500X0.062500X0.372500X-0.062500X0.372500X-0.062500X-0.372500X0*%
G04 #@! TD*
G04 #@! TA.AperFunction,HeatsinkPad*
%ADD18R,2.200000X0.610000*%
G04 #@! TD*
G04 #@! TA.AperFunction,SMDPad,CuDef*
%ADD19FreePoly0,0.000000*%
G04 #@! TD*
G04 #@! TA.AperFunction,SMDPad,CuDef*
%ADD20R,0.700000X0.300000*%
G04 #@! TD*
G04 #@! TA.AperFunction,SMDPad,CuDef*
%ADD21FreePoly1,0.000000*%
G04 #@! TD*
G04 #@! TA.AperFunction,SMDPad,CuDef*
%ADD22FreePoly2,0.000000*%
G04 #@! TD*
G04 #@! TA.AperFunction,SMDPad,CuDef*
%ADD23R,0.300000X0.700000*%
G04 #@! TD*
G04 #@! TA.AperFunction,SMDPad,CuDef*
%ADD24FreePoly3,0.000000*%
G04 #@! TD*
G04 #@! TA.AperFunction,SMDPad,CuDef*
%ADD25FreePoly4,0.000000*%
G04 #@! TD*
G04 #@! TA.AperFunction,SMDPad,CuDef*
%ADD26FreePoly5,0.000000*%
G04 #@! TD*
G04 #@! TA.AperFunction,SMDPad,CuDef*
%ADD27FreePoly6,0.000000*%
G04 #@! TD*
G04 #@! TA.AperFunction,SMDPad,CuDef*
%ADD28FreePoly7,0.000000*%
G04 #@! TD*
G04 #@! TA.AperFunction,ViaPad*
%ADD29C,0.500000*%
G04 #@! TD*
G04 #@! TA.AperFunction,Conductor*
%ADD30C,0.150000*%
G04 #@! TD*
G04 #@! TA.AperFunction,Conductor*
%ADD31C,0.112400*%
G04 #@! TD*
G04 #@! TA.AperFunction,Conductor*
%ADD32C,0.250000*%
G04 #@! TD*
G04 #@! TA.AperFunction,Conductor*
%ADD33C,0.200000*%
G04 #@! TD*
G04 APERTURE END LIST*
D10*
G04 #@! TO.P,U6,1*
G04 #@! TO.N,3V3*
X-2350000Y-1237500D03*
G04 #@! TO.P,U6,2*
G04 #@! TO.N,GND*
X-3300000Y-1237500D03*
G04 #@! TO.P,U6,3*
G04 #@! TO.N,/RXP*
X-4250000Y-1237500D03*
G04 #@! TO.P,U6,4*
G04 #@! TO.N,/RXN*
X-4250000Y1037500D03*
G04 #@! TO.P,U6,5*
G04 #@! TO.N,/UART_RX*
X-2350000Y1037500D03*
G04 #@! TD*
D11*
G04 #@! TO.P,C14,1*
G04 #@! TO.N,3V3*
X4600000Y-3820000D03*
G04 #@! TO.P,C14,2*
G04 #@! TO.N,GND*
X4600000Y-3180000D03*
G04 #@! TD*
D12*
G04 #@! TO.P,J8,1*
G04 #@! TO.N,/SWCLK*
X3700000Y2850000D03*
G04 #@! TD*
D11*
G04 #@! TO.P,R1,1*
G04 #@! TO.N,/SDA*
X-1000000Y330000D03*
G04 #@! TO.P,R1,2*
G04 #@! TO.N,3V3*
X-1000000Y970000D03*
G04 #@! TD*
D13*
G04 #@! TO.P,J3,1*
G04 #@! TO.N,/TXP*
X5600000Y-1300000D03*
G04 #@! TD*
G04 #@! TO.P,J1,1*
G04 #@! TO.N,/12V_IN*
X-4400000Y-3850000D03*
G04 #@! TD*
D14*
G04 #@! TO.P,C7,1*
G04 #@! TO.N,3V3*
X-2680000Y2500000D03*
G04 #@! TO.P,C7,2*
G04 #@! TO.N,GND*
X-3320000Y2500000D03*
G04 #@! TD*
D13*
G04 #@! TO.P,J4,1*
G04 #@! TO.N,/TXN*
X5700000Y1000000D03*
G04 #@! TD*
D14*
G04 #@! TO.P,C12,1*
G04 #@! TO.N,3V3*
X3020000Y4900000D03*
G04 #@! TO.P,C12,2*
G04 #@! TO.N,GND*
X2380000Y4900000D03*
G04 #@! TD*
D11*
G04 #@! TO.P,R2,1*
G04 #@! TO.N,/SCL*
X1000000Y330000D03*
G04 #@! TO.P,R2,2*
G04 #@! TO.N,3V3*
X1000000Y970000D03*
G04 #@! TD*
D15*
G04 #@! TO.P,C13,1*
G04 #@! TO.N,12V*
X-4220000Y-2750000D03*
G04 #@! TO.P,C13,2*
G04 #@! TO.N,GND*
X-5180000Y-2750000D03*
G04 #@! TD*
D12*
G04 #@! TO.P,J9,1*
G04 #@! TO.N,/NRST*
X-4700000Y2600000D03*
G04 #@! TD*
D11*
G04 #@! TO.P,C6,1*
G04 #@! TO.N,3V3*
X4500000Y2980000D03*
G04 #@! TO.P,C6,2*
G04 #@! TO.N,GND*
X4500000Y3620000D03*
G04 #@! TD*
D15*
G04 #@! TO.P,C1,1*
G04 #@! TO.N,5V_LED*
X480000Y-2170000D03*
G04 #@! TO.P,C1,2*
G04 #@! TO.N,GND*
X-480000Y-2170000D03*
G04 #@! TD*
D16*
G04 #@! TO.P,U3,1*
G04 #@! TO.N,3V3*
X2350000Y1037500D03*
G04 #@! TO.P,U3,2*
G04 #@! TO.N,GND*
X3300000Y1037500D03*
G04 #@! TO.P,U3,3*
G04 #@! TO.N,/TXN*
X4250000Y1037500D03*
G04 #@! TO.P,U3,4*
G04 #@! TO.N,/TXP*
X4250000Y-1237500D03*
G04 #@! TO.P,U3,5*
G04 #@! TO.N,/UART_TX*
X2350000Y-1237500D03*
G04 #@! TD*
D17*
G04 #@! TO.P,U4,1*
G04 #@! TO.N,5V_LED*
X-1100000Y-5310000D03*
G04 #@! TO.P,U4,2*
G04 #@! TO.N,unconnected-(U4-NC-Pad2)*
X-1600000Y-5310000D03*
G04 #@! TO.P,U4,3*
G04 #@! TO.N,unconnected-(U4-NC-Pad3)*
X-2100000Y-5310000D03*
G04 #@! TO.P,U4,4*
G04 #@! TO.N,GND*
X-2600000Y-5310000D03*
G04 #@! TO.P,U4,5*
G04 #@! TO.N,unconnected-(U4-NC-Pad5)*
X-2600000Y-3430000D03*
G04 #@! TO.P,U4,6*
G04 #@! TO.N,unconnected-(U4-NC-Pad6)*
X-2100000Y-3430000D03*
G04 #@! TO.P,U4,7*
G04 #@! TO.N,unconnected-(U4-NC-Pad7)*
X-1600000Y-3430000D03*
G04 #@! TO.P,U4,8*
G04 #@! TO.N,12V*
X-1100000Y-3430000D03*
D18*
G04 #@! TO.P,U4,9*
G04 #@! TO.N,GND*
X-1850000Y-4370000D03*
G04 #@! TD*
D13*
G04 #@! TO.P,J2,1*
G04 #@! TO.N,GND*
X0Y-5850000D03*
G04 #@! TD*
D14*
G04 #@! TO.P,C11,1*
G04 #@! TO.N,3V3*
X-2380000Y3800000D03*
G04 #@! TO.P,C11,2*
G04 #@! TO.N,GND*
X-3020000Y3800000D03*
G04 #@! TD*
D11*
G04 #@! TO.P,C4,1*
G04 #@! TO.N,/VLDO*
X-1000000Y-1170000D03*
G04 #@! TO.P,C4,2*
G04 #@! TO.N,GND*
X-1000000Y-530000D03*
G04 #@! TD*
D19*
G04 #@! TO.P,U2,1*
G04 #@! TO.N,unconnected-(U2-PC15-Pad1)*
X-1475000Y3000000D03*
D20*
G04 #@! TO.P,U2,2*
G04 #@! TO.N,3V3*
X-1300000Y3500000D03*
G04 #@! TO.P,U2,3*
G04 #@! TO.N,GND*
X-1300000Y4000000D03*
G04 #@! TO.P,U2,4*
G04 #@! TO.N,/NRST*
X-1300000Y4500000D03*
D21*
G04 #@! TO.P,U2,5*
G04 #@! TO.N,unconnected-(U2-PA0-Pad5)*
X-1475000Y5000000D03*
D22*
G04 #@! TO.P,U2,6*
G04 #@! TO.N,unconnected-(U2-PA1-Pad6)*
X-1000000Y5475000D03*
D23*
G04 #@! TO.P,U2,7*
G04 #@! TO.N,unconnected-(U2-PA2-Pad7)*
X-500000Y5300000D03*
G04 #@! TO.P,U2,8*
G04 #@! TO.N,unconnected-(U2-PA3-Pad8)*
X0Y5300000D03*
G04 #@! TO.P,U2,9*
G04 #@! TO.N,unconnected-(U2-PA4-Pad9)*
X500000Y5300000D03*
D24*
G04 #@! TO.P,U2,10*
G04 #@! TO.N,unconnected-(U2-PA5-Pad10)*
X1000000Y5475000D03*
D25*
G04 #@! TO.P,U2,11*
G04 #@! TO.N,unconnected-(U2-PA6-Pad11)*
X1475000Y5000000D03*
D20*
G04 #@! TO.P,U2,12*
G04 #@! TO.N,unconnected-(U2-PA7-Pad12)*
X1300000Y4500000D03*
G04 #@! TO.P,U2,13*
G04 #@! TO.N,unconnected-(U2-PA8-Pad13)*
X1300000Y4000000D03*
G04 #@! TO.P,U2,14*
G04 #@! TO.N,/UART_TX*
X1300000Y3500000D03*
D26*
G04 #@! TO.P,U2,15*
G04 #@! TO.N,/UART_RX*
X1475000Y3000000D03*
D27*
G04 #@! TO.P,U2,16*
G04 #@! TO.N,/SWDIO*
X1000000Y2525000D03*
D23*
G04 #@! TO.P,U2,17*
G04 #@! TO.N,/SWCLK*
X500000Y2700000D03*
G04 #@! TO.P,U2,18*
G04 #@! TO.N,/SCL*
X0Y2700000D03*
G04 #@! TO.P,U2,19*
G04 #@! TO.N,/SDA*
X-500000Y2700000D03*
D28*
G04 #@! TO.P,U2,20*
G04 #@! TO.N,unconnected-(U2-PC14-Pad20)*
X-1000000Y2525000D03*
G04 #@! TD*
D13*
G04 #@! TO.P,J5,1*
G04 #@! TO.N,/RXP*
X-5600000Y-1300000D03*
G04 #@! TD*
D17*
G04 #@! TO.P,U5,1*
G04 #@! TO.N,3V3*
X2600000Y-5310000D03*
G04 #@! TO.P,U5,2*
G04 #@! TO.N,unconnected-(U5-NC-Pad2)*
X2100000Y-5310000D03*
G04 #@! TO.P,U5,3*
G04 #@! TO.N,unconnected-(U5-NC-Pad3)*
X1600000Y-5310000D03*
G04 #@! TO.P,U5,4*
G04 #@! TO.N,GND*
X1100000Y-5310000D03*
G04 #@! TO.P,U5,5*
G04 #@! TO.N,unconnected-(U5-NC-Pad5)*
X1100000Y-3430000D03*
G04 #@! TO.P,U5,6*
G04 #@! TO.N,unconnected-(U5-NC-Pad6)*
X1600000Y-3430000D03*
G04 #@! TO.P,U5,7*
G04 #@! TO.N,unconnected-(U5-NC-Pad7)*
X2100000Y-3430000D03*
G04 #@! TO.P,U5,8*
G04 #@! TO.N,5V_LED*
X2600000Y-3430000D03*
D18*
G04 #@! TO.P,U5,9*
G04 #@! TO.N,GND*
X1850000Y-4370000D03*
G04 #@! TD*
D11*
G04 #@! TO.P,C5,1*
G04 #@! TO.N,/VREF*
X1000000Y-1170000D03*
G04 #@! TO.P,C5,2*
G04 #@! TO.N,GND*
X1000000Y-530000D03*
G04 #@! TD*
D12*
G04 #@! TO.P,J7,1*
G04 #@! TO.N,/SWDIO*
X2600000Y2600000D03*
G04 #@! TD*
D13*
G04 #@! TO.P,J6,1*
G04 #@! TO.N,/RXN*
X-5700000Y1000000D03*
G04 #@! TD*
D29*
G04 #@! TO.N,/TXN*
X4800000Y1200000D03*
G04 #@! TO.N,GND*
X4400000Y-100000D03*
X-5500000Y2100000D03*
X3404600Y-2125800D03*
X-4400000Y-100000D03*
X4100000Y3900000D03*
X2744100Y4154800D03*
X2500000Y-100000D03*
X-544300Y4000000D03*
X-3352300Y-4370000D03*
X1688300Y-322100D03*
X-4500000Y3800000D03*
X5600000Y2100000D03*
G04 #@! TO.N,/SWDIO*
X2550000Y2600000D03*
G04 #@! TO.N,/12V_IN*
X-3600000Y-3350000D03*
G04 #@! TO.N,12V*
X-300000Y-3800000D03*
G04 #@! TO.N,/RXP*
X-4800000Y-1150000D03*
G04 #@! TO.N,/SDA*
X-1777700Y106100D03*
G04 #@! TO.N,/SCL*
X-176200Y1641900D03*
G04 #@! TO.N,3V3*
X4990900Y2489100D03*
X3635900Y4538800D03*
X-2042700Y2205600D03*
X-3105600Y-2320300D03*
X3912200Y-4110300D03*
G04 #@! TO.N,/VLDO*
X-553000Y-2972500D03*
G04 #@! TO.N,5V_LED*
X185100Y-1451000D03*
G04 #@! TO.N,/VREF*
X-196200Y-420700D03*
G04 #@! TO.N,/TXP*
X4800000Y-1150000D03*
G04 #@! TO.N,/RXN*
X-4800000Y1200000D03*
G04 #@! TO.N,/NRST*
X-4700000Y2600000D03*
G04 #@! TO.N,/SWCLK*
X3700000Y2850000D03*
X336400Y3456900D03*
X3519000Y3487600D03*
G04 #@! TO.N,/UART_RX*
X1611100Y2435700D03*
X-3391100Y1142200D03*
G04 #@! TO.N,/UART_TX*
X2078700Y3924700D03*
X3057500Y-1315500D03*
G04 #@! TD*
G04 #@! TO.N,/TXN*
D30*
X4800000Y1200000D02*
X4800000Y1037500D01*
X5662500Y1037500D02*
X5700000Y1000000D01*
X4250000Y1037500D02*
X5662500Y1037500D01*
G04 #@! TO.N,GND*
X-2600000Y-4370000D02*
X-2600000Y-5310000D01*
X-3300000Y-991400D02*
X-2656300Y-347700D01*
X-1000000Y-530000D02*
X-912800Y-530000D01*
X1100000Y-5310000D02*
X540000Y-5310000D01*
X523300Y-4857900D02*
X975400Y-5310000D01*
X2744100Y4154800D02*
X2380000Y4518900D01*
X-1300000Y4000000D02*
X-1876700Y4000000D01*
X3327100Y-3419200D02*
X3566300Y-3180000D01*
X-1850000Y-4370000D02*
X-2600000Y-4370000D01*
X-912800Y-463200D02*
X-912800Y-530000D01*
X-3300000Y-1485700D02*
X-4006400Y-2192100D01*
D31*
X3138800Y-3230800D02*
X3327100Y-3419200D01*
D30*
X-2600000Y-4370000D02*
X-3352300Y-4370000D01*
X-1300000Y4000000D02*
X-544300Y4000000D01*
X-480000Y-962800D02*
X-480000Y-2170000D01*
X-354800Y94800D02*
X-912800Y-463200D01*
D31*
X2950400Y-2910100D02*
X2950400Y-3042400D01*
D30*
X540000Y-5310000D02*
X0Y-5850000D01*
X-2656300Y-347700D02*
X-1998000Y-347700D01*
X-3320000Y3500000D02*
X-3020000Y3800000D01*
X975400Y-5310000D02*
X1100000Y-5310000D01*
X2744100Y4154800D02*
X2836900Y4062000D01*
X1000000Y-530000D02*
X1480400Y-530000D01*
X3327100Y-4090400D02*
X3327100Y-3419200D01*
X-2644800Y4250400D02*
X-3020000Y3875200D01*
X2187900Y-322100D02*
X3300000Y790000D01*
X-3300000Y-1237500D02*
X-3300000Y-1485700D01*
X-4622100Y-2192100D02*
X-5180000Y-2750000D01*
X-2127100Y4250400D02*
X-2644800Y4250400D01*
D31*
X3377800Y-2125800D02*
X3404600Y-2125800D01*
D30*
X3377800Y-2125800D02*
X3377800Y-2482700D01*
X3300000Y790000D02*
X3300000Y1037500D01*
D31*
X3327100Y-4090400D02*
X3157900Y-4259600D01*
D30*
X-912800Y-530000D02*
X-480000Y-962800D01*
X375200Y94800D02*
X-354800Y94800D01*
X523300Y-4370000D02*
X523300Y-4857900D01*
X-1876700Y4000000D02*
X-2127100Y4250400D01*
X2836900Y4062000D02*
X4058000Y4062000D01*
X4058000Y4062000D02*
X4500000Y3620000D01*
X-1998000Y-347700D02*
X-1815700Y-530000D01*
X1000000Y-530000D02*
X375200Y94800D01*
X-3300000Y-1237500D02*
X-3300000Y-991400D01*
X2380000Y4518900D02*
X2380000Y4900000D01*
D31*
X2950400Y-3042400D02*
X3138800Y-3230800D01*
D30*
X3377800Y-2482700D02*
X2950400Y-2910100D01*
X1688300Y-322100D02*
X2187900Y-322100D01*
X1850000Y-4370000D02*
X523300Y-4370000D01*
D31*
X3157900Y-4259600D02*
X3157900Y-4370000D01*
D30*
X3566300Y-3180000D02*
X4600000Y-3180000D01*
X-3020000Y3875200D02*
X-3020000Y3800000D01*
X1480400Y-530000D02*
X1688300Y-322100D01*
X-3320000Y2500000D02*
X-3320000Y3500000D01*
D31*
X1850000Y-4370000D02*
X3157900Y-4370000D01*
D30*
X-1815700Y-530000D02*
X-1000000Y-530000D01*
X-4006400Y-2192100D02*
X-4622100Y-2192100D01*
G04 #@! TO.N,/SWDIO*
X1164300Y1959000D02*
X1959000Y1959000D01*
X1000000Y2123300D02*
X1164300Y1959000D01*
X1000000Y2525000D02*
X1000000Y2123300D01*
X1959000Y1959000D02*
X2550000Y2600000D01*
G04 #@! TO.N,/12V_IN*
D32*
X-3600000Y-3350000D02*
X-4100000Y-3850000D01*
X-4100000Y-3850000D02*
X-4400000Y-3850000D01*
G04 #@! TO.N,12V*
D30*
X-2860300Y-2750000D02*
X-1420800Y-2750000D01*
X-4173000Y-2797000D02*
X-2907300Y-2797000D01*
X-1100000Y-3070800D02*
X-1100000Y-3430000D01*
X-4220000Y-2750000D02*
X-4173000Y-2797000D01*
X-1420800Y-2750000D02*
X-1100000Y-3070800D01*
X-2907300Y-2797000D02*
X-2860300Y-2750000D01*
D33*
X-300000Y-3800000D02*
X-1100000Y-3430000D01*
G04 #@! TO.N,/RXP*
D30*
X-4800000Y-1150000D02*
X-4800000Y-1300000D01*
X-4312500Y-1300000D02*
X-5600000Y-1300000D01*
X-4250000Y-1237500D02*
X-4312500Y-1300000D01*
G04 #@! TO.N,/SDA*
X-567000Y1295200D02*
X-567000Y697200D01*
X-1223900Y106100D02*
X-1000000Y330000D01*
X-1777700Y106100D02*
X-1223900Y106100D01*
X-659500Y1963800D02*
X-659500Y1387700D01*
X-659500Y1387700D02*
X-567000Y1295200D01*
X-500000Y2700000D02*
X-500000Y2123300D01*
X-500000Y2123300D02*
X-659500Y1963800D01*
X-934200Y330000D02*
X-1000000Y330000D01*
X-567000Y697200D02*
X-934200Y330000D01*
G04 #@! TO.N,/SCL*
X882400Y330000D02*
X1000000Y330000D01*
X-176200Y1388600D02*
X882400Y330000D01*
X0Y2700000D02*
X0Y1818100D01*
X-176200Y1641900D02*
X-176200Y1388600D01*
X0Y1818100D02*
X-176200Y1641900D01*
G04 #@! TO.N,3V3*
X2282500Y970000D02*
X1000000Y970000D01*
X3912200Y-4110300D02*
X4202500Y-3820000D01*
X-1000000Y970000D02*
X-2042700Y2012700D01*
X-2350000Y-1564700D02*
X-2350000Y-1237500D01*
X-3105600Y-2320300D02*
X-2350000Y-1564700D01*
X2350000Y1037500D02*
X2282500Y970000D01*
X2350000Y1351400D02*
X2350000Y1037500D01*
X2712500Y-5310000D02*
X3912200Y-4110300D01*
X4990900Y2489100D02*
X4452200Y1950400D01*
X4990900Y2489100D02*
X4500000Y2980000D01*
X-2080000Y3500000D02*
X-2380000Y3800000D01*
X3020000Y4900000D02*
X3274700Y4900000D01*
X3274700Y4900000D02*
X3635900Y4538800D01*
X4452200Y1950400D02*
X2949000Y1950400D01*
X4202500Y-3820000D02*
X4600000Y-3820000D01*
X-2680000Y2500000D02*
X-2649200Y2530800D01*
X-2042700Y2205600D02*
X-2219300Y2205600D01*
X2949000Y1950400D02*
X2350000Y1351400D01*
X-2042700Y2012700D02*
X-2042700Y2205600D01*
X-2080000Y3500000D02*
X-2544500Y3035500D01*
X-2544500Y3035500D02*
X-2544500Y2530800D01*
X-1300000Y3500000D02*
X-2080000Y3500000D01*
X-2219300Y2205600D02*
X-2544500Y2530800D01*
X2600000Y-5310000D02*
X2712500Y-5310000D01*
X-2649200Y2530800D02*
X-2544500Y2530800D01*
G04 #@! TO.N,/VLDO*
X-553000Y-2972500D02*
X-1000000Y-2525500D01*
X-1000000Y-2525500D02*
X-1000000Y-1170000D01*
G04 #@! TO.N,5V_LED*
X-1064400Y-5310000D02*
X-1100000Y-5310000D01*
X2600000Y-2999600D02*
X2600000Y-3430000D01*
X480000Y-3765600D02*
X-1064400Y-5310000D01*
X480000Y-2170000D02*
X480000Y-2715400D01*
X480000Y-2715400D02*
X2315800Y-2715400D01*
X185100Y-1451000D02*
X185100Y-1875100D01*
X480000Y-2715400D02*
X480000Y-3765600D01*
X2315800Y-2715400D02*
X2600000Y-2999600D01*
X185100Y-1875100D02*
X480000Y-2170000D01*
G04 #@! TO.N,/VREF*
X892900Y-1170000D02*
X143600Y-420700D01*
X143600Y-420700D02*
X-196200Y-420700D01*
X1000000Y-1170000D02*
X892900Y-1170000D01*
G04 #@! TO.N,/TXP*
X4250000Y-1237500D02*
X5537500Y-1237500D01*
X5537500Y-1237500D02*
X5600000Y-1300000D01*
X4800000Y-1150000D02*
X4800000Y-1237500D01*
G04 #@! TO.N,/RXN*
X-5662500Y1037500D02*
X-5700000Y1000000D01*
X-4800000Y1200000D02*
X-4800000Y1037500D01*
X-4250000Y1037500D02*
X-5662500Y1037500D01*
G04 #@! TO.N,/NRST*
X-1300000Y4500000D02*
X-1876700Y4500000D01*
X-1876700Y4500000D02*
X-1940600Y4563900D01*
X-2993700Y4563900D02*
X-4700000Y2857600D01*
X-4700000Y2857600D02*
X-4700000Y2600000D01*
X-1940600Y4563900D02*
X-2993700Y4563900D01*
G04 #@! TO.N,/SWCLK*
X500000Y3293300D02*
X336400Y3456900D01*
X500000Y2700000D02*
X500000Y3293300D01*
X3700000Y2600000D02*
X3700000Y2850000D01*
X3519000Y3487600D02*
X3700000Y3306600D01*
X3700000Y3306600D02*
X3700000Y2600000D01*
G04 #@! TO.N,/UART_RX*
X-3391100Y1142200D02*
X-2454700Y1142200D01*
X1876700Y2701300D02*
X1611100Y2435700D01*
X1475000Y3000000D02*
X1876700Y3000000D01*
X-2454700Y1142200D02*
X-2350000Y1037500D01*
X1876700Y3000000D02*
X1876700Y2701300D01*
G04 #@! TO.N,/UART_TX*
X1876700Y3722700D02*
X2078700Y3924700D01*
X1876700Y3500000D02*
X1876700Y3722700D01*
X2350000Y-1237500D02*
X2428000Y-1315500D01*
X2428000Y-1315500D02*
X3057500Y-1315500D01*
X1300000Y3500000D02*
X1876700Y3500000D01*
G04 #@! TD*
M02*
